<svg width="100" height="100" viewBox="0 0 100 100" fill="none" xmlns="http://www.w3.org/2000/svg">
<circle cx="50" cy="50" r="50" fill="#EEEEEE"/>
<path fill-rule="evenodd" clip-rule="evenodd" d="M73.37 37.81H75.31C78.13 37.81 80.43 40.11 80.43 42.93V55.18C80.43 58 78.13 60.3 75.31 60.3H67.1V72.35C67.1 76.62 63.62 80.1 59.35 80.1H40.75C36.48 80.1 33 76.62 33 72.35V26.75C33 22.48 36.48 19 40.75 19H59.35C63.62 19 67.1 22.48 67.1 26.75V33.19H68.65C71.22 33.19 73.31 35.26 73.37 37.81ZM59.35 77.5C62.19 77.5 64.5 75.19 64.5 72.35V70.56H35.6V72.35C35.6 75.19 37.91 77.5 40.75 77.5H59.35ZM35.6 67.96H64.5L64.52 67.97V60.3H55.86C53.04 60.3 50.74 58 50.74 55.18V51.67C50.7062 51.67 50.6724 51.6747 50.6374 51.6795L50.6374 51.6795C50.6 51.6847 50.5613 51.69 50.52 51.69C47.57 51.69 45.17 49.29 45.17 46.34C45.17 43.39 47.57 40.99 50.52 40.99C50.6519 40.99 50.7794 41.0074 50.9083 41.025C50.9749 41.0341 51.0419 41.0432 51.11 41.05C51.86 39.15 53.7 37.81 55.86 37.81H57.8C57.82 37.01 58.05 36.27 58.42 35.62H54.01V33.02H62.31V33.21C62.345 33.21 62.3775 33.205 62.41 33.2C62.4425 33.195 62.475 33.19 62.51 33.19H64.51V26.75C64.51 23.91 62.2 21.6 59.36 21.6H56.56V22.1C56.56 23.32 55.57 24.3 54.36 24.3H45.75C44.53 24.3 43.55 23.31 43.55 22.1V21.6H40.75C37.91 21.6 35.6 23.91 35.6 26.75V67.96ZM50.6174 48.9695C50.6523 48.9647 50.6862 48.96 50.72 48.96V43.7C50.6862 43.7 50.6523 43.6953 50.6174 43.6905C50.58 43.6853 50.5413 43.68 50.5 43.68C49.04 43.68 47.85 44.87 47.85 46.33C47.85 47.79 49.04 48.98 50.5 48.98C50.5413 48.98 50.58 48.9747 50.6174 48.9695ZM75.31 57.7C76.7 57.7 77.83 56.57 77.83 55.18H77.82V42.93C77.82 41.54 76.69 40.41 75.3 40.41H70.77V37.93C70.77 37.91 70.7675 37.89 70.765 37.87C70.7625 37.85 70.76 37.83 70.76 37.81C70.7 36.68 69.78 35.79 68.64 35.79H62.49C62.455 35.79 62.4225 35.795 62.39 35.8C62.3575 35.805 62.325 35.81 62.29 35.81C61.25 35.91 60.43 36.76 60.37 37.81C60.36 37.85 60.36 37.93 60.36 37.93V40.41H55.83C54.8 40.41 53.91 41.04 53.52 41.93C53.39 42.24 53.31 42.58 53.31 42.93V55.18C53.31 56.57 54.44 57.7 55.83 57.7H75.31ZM65.5798 43.23C66.0998 43.23 66.6098 43.31 67.0998 43.44C69.5698 44.11 71.3898 46.37 71.3898 49.05C71.3898 51.73 69.5698 53.99 67.0998 54.66C66.6198 54.79 66.1098 54.87 65.5798 54.87C65.2098 54.87 64.8498 54.84 64.4998 54.77C61.8098 54.26 59.7598 51.9 59.7598 49.05C59.7598 46.2 61.7998 43.84 64.4998 43.33C64.8498 43.27 65.2098 43.23 65.5798 43.23ZM65.5798 52.27C66.1298 52.27 66.6398 52.12 67.0998 51.87C68.1098 51.32 68.7998 50.27 68.7998 49.05C68.7998 47.83 68.0998 46.78 67.0998 46.23C66.6498 45.98 66.1298 45.83 65.5798 45.83C65.1998 45.83 64.8398 45.91 64.4998 46.03C63.2598 46.47 62.3598 47.65 62.3598 49.05C62.3598 50.45 63.2598 51.62 64.4998 52.07C64.8398 52.19 65.1998 52.27 65.5798 52.27ZM41.3002 49.33H38.7002V58.9H47.0002V56.3H41.3002V49.33ZM47.0002 35.62H41.3002V42.59H38.7002V33.02H47.0002V35.62Z" fill="black"/>
</svg>
