<svg width="133" height="34" viewBox="0 0 133 34" fill="none" xmlns="http://www.w3.org/2000/svg">
<g clip-path="url(#clip0_14_2158)">
<mask id="mask0_14_2158" style="mask-type:luminance" maskUnits="userSpaceOnUse" x="0" y="0" width="133" height="34">
<path d="M132.846 0H0.501175V34H132.846V0Z" fill="white"/>
</mask>
<g mask="url(#mask0_14_2158)">
<path d="M37.0858 12.8035V12.308H38.8109V12.8326C38.8109 13.6486 39.235 14.0663 39.9096 14.0663C40.5843 14.0663 40.9987 13.6486 40.9987 12.8229V6.86804H42.7046V12.7937C42.7046 14.5035 41.6444 15.4652 39.9096 15.4652C38.1749 15.4652 37.0954 14.5132 37.0954 12.8035H37.0858Z" fill="white"/>
<path d="M43.8611 12.2012C43.8611 10.2292 45.0465 8.90808 46.9548 8.90808C48.863 8.90808 50.0485 10.2292 50.0485 12.2012C50.0485 14.1732 48.8534 15.4846 46.9548 15.4846C45.0562 15.4846 43.8611 14.1635 43.8611 12.2012ZM48.3137 12.1915C48.3137 11.0744 47.8511 10.2486 46.9451 10.2486C46.0392 10.2486 45.5862 11.0646 45.5862 12.1915C45.5862 13.3184 46.0392 14.1344 46.9451 14.1344C47.8511 14.1344 48.3137 13.2989 48.3137 12.1915Z" fill="white"/>
<path d="M51.1279 16.3104L52.5832 15.9024C52.7374 16.2618 53.1325 16.6309 53.9517 16.6309C54.7709 16.6309 55.3396 16.2424 55.3396 15.3972V14.2218H55.2143C54.983 14.7366 54.4818 15.2612 53.4602 15.2612C52.0338 15.2612 50.887 14.2606 50.887 12.1624C50.887 10.0641 52.0628 8.90808 53.4602 8.90808C54.5204 8.90808 55.0408 9.54922 55.2721 10.0544H55.3492V8.9858H57.0165V15.3001C57.0165 17.0292 55.7443 17.8646 53.9614 17.8646C52.3808 17.8646 51.3978 17.2138 51.1183 16.3006L51.1279 16.3104ZM55.3492 12.1526C55.3492 11.0258 54.8673 10.2778 53.9903 10.2778C53.1133 10.2778 52.6314 11.0549 52.6314 12.1526C52.6314 13.2504 53.1133 13.9692 53.9903 13.9692C54.8673 13.9692 55.3492 13.2892 55.3492 12.1526Z" fill="white"/>
<path d="M58.4043 13.0366V8.98572H60.1006V12.7354C60.1006 13.5223 60.5343 13.9983 61.2378 13.9983C61.9414 13.9983 62.4618 13.5126 62.4618 12.6674V8.98572H64.158V15.3486H62.5582L62.5389 14.0274C62.1823 14.9309 61.5366 15.4263 60.5825 15.4263C59.2717 15.4263 58.4043 14.5229 58.4043 13.0269V13.0366Z" fill="white"/>
<path d="M65.2856 12.2109C65.2856 10.2486 66.4711 8.91772 68.3215 8.91772C69.9696 8.91772 71.2899 9.96688 71.2899 12.1429V12.6189H66.9722C67.0108 13.6583 67.5891 14.1926 68.4372 14.1926C69.0347 14.1926 69.478 13.9303 69.6612 13.4446L71.1935 13.736C70.8851 14.7949 69.8732 15.4846 68.4083 15.4846C66.4807 15.4846 65.2953 14.2217 65.2953 12.2109H65.2856ZM69.6515 11.5503C69.5648 10.7149 69.1214 10.2 68.3312 10.2C67.5409 10.2 67.0397 10.7634 66.9722 11.5503H69.6515Z" fill="white"/>
<path d="M74.798 12.2012C74.798 10.2292 75.9835 8.90808 77.8917 8.90808C79.3856 8.90808 80.465 9.71436 80.6963 11.0258L79.1254 11.3172C78.9808 10.6566 78.5664 10.2486 77.911 10.2486C77.0051 10.2486 76.5328 11.0355 76.5328 12.1915C76.5328 13.3475 77.0051 14.1344 77.911 14.1344C78.5664 14.1344 79.0001 13.7166 79.135 13.0269L80.7059 13.3184C80.465 14.6589 79.4049 15.4846 77.8917 15.4846C75.9931 15.4846 74.798 14.1635 74.798 12.2012Z" fill="white"/>
<path d="M81.5444 12.2012C81.5444 10.2292 82.7298 8.90808 84.6381 8.90808C86.5464 8.90808 87.7318 10.2292 87.7318 12.2012C87.7318 14.1732 86.5367 15.4846 84.6381 15.4846C82.7395 15.4846 81.5444 14.1635 81.5444 12.2012ZM85.997 12.1915C85.997 11.0744 85.5344 10.2486 84.6285 10.2486C83.7225 10.2486 83.2696 11.0646 83.2696 12.1915C83.2696 13.3184 83.7225 14.1344 84.6285 14.1344C85.5344 14.1344 85.997 13.2989 85.997 12.1915Z" fill="white"/>
<path d="M88.8498 8.99546H90.4207L90.4882 10.2292C90.8255 9.2966 91.529 8.89832 92.2904 8.89832C93.1 8.89832 93.6204 9.35489 93.9192 10.3263C94.2758 9.34517 95.0757 8.89832 95.9431 8.89832C97.0996 8.89832 97.9574 9.68517 97.9574 11.0646V15.3583H96.2611V11.3949C96.2611 10.676 95.8274 10.3263 95.2588 10.3263C94.6131 10.3263 94.218 10.7732 94.218 11.4435V15.3583H92.5796V11.3463C92.5796 10.7246 92.1748 10.3263 91.5965 10.3263C91.0183 10.3263 90.5364 10.744 90.5364 11.5115V15.3583H88.8401V8.99546H88.8498Z" fill="white"/>
<path d="M37.4231 22.1098H39.0615V23.2172H39.129C39.3603 22.4303 39.9385 22.0223 40.6517 22.0223C40.8252 22.0223 41.0469 22.0418 41.2011 22.0806V23.6058C41.0469 23.5572 40.7192 23.5183 40.4686 23.5183C39.688 23.5183 39.1193 24.0623 39.1193 24.8492V28.4726H37.4231V22.1098Z" fill="white"/>
<path d="M41.5288 25.3251C41.5288 23.3628 42.7142 22.032 44.5646 22.032C46.2127 22.032 47.533 23.0811 47.533 25.2571V25.7331H43.2154C43.2539 26.7726 43.8322 27.3068 44.6803 27.3068C45.2778 27.3068 45.7212 27.0446 45.9043 26.5588L47.4367 26.8503C47.1283 27.9091 46.1163 28.5988 44.6514 28.5988C42.7238 28.5988 41.5384 27.336 41.5384 25.3251H41.5288ZM45.8946 24.6646C45.8079 23.8291 45.3646 23.3143 44.5743 23.3143C43.784 23.3143 43.2828 23.8777 43.2154 24.6646H45.8946Z" fill="white"/>
<path d="M48.3426 26.724L49.9135 26.452C50.0774 27.0543 50.4822 27.336 51.1761 27.336C51.8218 27.336 52.217 27.064 52.217 26.6851C52.217 26.3451 51.9567 26.1411 51.4074 26.0343L50.3183 25.8108C49.0943 25.5583 48.4968 24.956 48.4968 24.004C48.4968 22.78 49.557 22.032 51.1472 22.032C52.641 22.032 53.5373 22.6926 53.7783 23.732L52.2748 24.004C52.1399 23.5668 51.7833 23.2657 51.1664 23.2657C50.6171 23.2657 50.1834 23.528 50.1834 23.9068C50.1834 24.2274 50.3954 24.4508 50.993 24.5771L52.1302 24.8006C53.3542 25.0531 53.9421 25.6166 53.9421 26.52C53.9421 27.7731 52.7759 28.6086 51.1183 28.6086C49.5955 28.6086 48.545 27.9286 48.333 26.7434L48.3426 26.724Z" fill="white"/>
<path d="M55.0408 22.1097H56.7081V23.1783H56.7852C57.0165 22.6731 57.5177 22.032 58.5875 22.032C59.9849 22.032 61.1414 23.1297 61.1414 25.3057C61.1414 27.4817 60.0331 28.5891 58.5682 28.5891C57.537 28.5891 57.0165 27.9771 56.7756 27.4623H56.7274V30.8623H55.0312V22.1194L55.0408 22.1097ZM59.4163 25.296C59.4163 24.1788 58.9441 23.392 58.0574 23.392C57.1707 23.392 56.6985 24.14 56.6985 25.296C56.6985 26.452 57.1996 27.2097 58.0574 27.2097C58.9151 27.2097 59.4163 26.4228 59.4163 25.296Z" fill="white"/>
<path d="M62.0088 25.3155C62.0088 23.3435 63.1943 22.0223 65.1025 22.0223C67.0108 22.0223 68.1962 23.3435 68.1962 25.3155C68.1962 27.2875 67.0012 28.5989 65.1025 28.5989C63.2039 28.5989 62.0088 27.2778 62.0088 25.3155ZM66.4614 25.3058C66.4614 24.1886 65.9988 23.3629 65.0929 23.3629C64.187 23.3629 63.734 24.1789 63.734 25.3058C63.734 26.4326 64.187 27.2486 65.0929 27.2486C65.9988 27.2486 66.4614 26.4132 66.4614 25.3058Z" fill="white"/>
<path d="M71.0008 28.4726H69.3046V22.1098H70.9044L70.9237 23.4212C71.2803 22.5372 71.9164 22.0223 72.8898 22.0223C74.2005 22.0223 75.0583 22.9258 75.0583 24.4218V28.4726H73.362V24.7229C73.362 23.9361 72.9283 23.4601 72.2248 23.4601C71.5212 23.4601 71.0008 23.9458 71.0008 24.7909V28.4726Z" fill="white"/>
<path d="M76.1666 26.724L77.7375 26.452C77.9014 27.0543 78.3062 27.336 79.0001 27.336C79.6458 27.336 80.0409 27.064 80.0409 26.6851C80.0409 26.3451 79.7807 26.1411 79.2314 26.0343L78.1423 25.8108C76.9183 25.5583 76.3208 24.956 76.3208 24.004C76.3208 22.78 77.3809 22.032 78.9712 22.032C80.465 22.032 81.3613 22.6926 81.6022 23.732L80.0988 24.004C79.9638 23.5668 79.6072 23.2657 78.9904 23.2657C78.4411 23.2657 78.0074 23.528 78.0074 23.9068C78.0074 24.2274 78.2194 24.4508 78.817 24.5771L79.9542 24.8006C81.1782 25.0531 81.7661 25.6166 81.7661 26.52C81.7661 27.7731 80.5999 28.6086 78.9422 28.6086C77.4195 28.6086 76.369 27.9286 76.157 26.7434L76.1666 26.724Z" fill="white"/>
<path d="M82.5371 26.6852C82.5371 25.2669 83.6743 24.8492 84.9176 24.7326C85.997 24.6258 86.45 24.5772 86.45 24.1595V24.1303C86.45 23.5863 86.0934 23.2852 85.4573 23.2852C84.8212 23.2852 84.3972 23.6058 84.2622 24.0235L82.7106 23.7612C83.0286 22.6538 84.0502 22.0223 85.4573 22.0223C86.8644 22.0223 88.1366 22.6343 88.1366 24.1789V28.4629H86.5367V27.5789H86.4789C86.1705 28.1715 85.5633 28.5892 84.6285 28.5892C83.4238 28.5892 82.5275 27.9383 82.5275 26.6852H82.5371ZM86.4596 26.1898V25.5001C86.2476 25.6458 85.5826 25.7429 85.2067 25.7915C84.5803 25.8789 84.1659 26.1315 84.1659 26.6366C84.1659 27.1418 84.561 27.3846 85.12 27.3846C85.9103 27.3846 86.4596 26.8601 86.4596 26.1801V26.1898Z" fill="white"/>
<path d="M91.2688 27.4526H91.1917V28.4726H89.5244V19.9921H91.2207V23.1784H91.2688C91.5001 22.6732 92.0013 22.0321 93.0711 22.0321C94.4686 22.0321 95.6251 23.1298 95.6251 25.3058C95.6251 27.4818 94.5167 28.5892 93.0518 28.5892C92.0206 28.5892 91.5001 27.9772 91.2592 27.4624L91.2688 27.4526ZM93.8999 25.2961C93.8999 24.1789 93.4277 23.3921 92.541 23.3921C91.6543 23.3921 91.1821 24.1401 91.1821 25.2961C91.1821 26.4521 91.6833 27.2098 92.541 27.2098C93.3988 27.2098 93.8999 26.4229 93.8999 25.2961Z" fill="white"/>
<path d="M96.6756 20.4C96.6756 19.9143 97.09 19.5258 97.6104 19.5258C98.1309 19.5258 98.5453 19.9143 98.5453 20.4C98.5453 20.8858 98.1212 21.2743 97.6104 21.2743C97.0996 21.2743 96.6756 20.8858 96.6756 20.4ZM96.7623 22.1098H98.4586V28.4726H96.7623V22.1098Z" fill="white"/>
<path d="M101.533 28.4726H99.8367V19.9921H101.533V28.4726Z" fill="white"/>
<path d="M102.824 20.4C102.824 19.9143 103.239 19.5258 103.759 19.5258C104.28 19.5258 104.694 19.9143 104.694 20.4C104.694 20.8858 104.27 21.2743 103.759 21.2743C103.248 21.2743 102.824 20.8858 102.824 20.4ZM102.911 22.1098H104.607V28.4726H102.911V22.1098Z" fill="white"/>
<path d="M105.725 25.296C105.725 23.12 106.892 22.0223 108.289 22.0223C109.359 22.0223 109.86 22.6634 110.082 23.1686H110.139V19.9823H111.836V28.4629H110.168V27.4429H110.082C109.85 27.9577 109.32 28.5697 108.299 28.5697C106.843 28.5697 105.725 27.404 105.725 25.2863V25.296ZM110.178 25.296C110.178 24.14 109.696 23.392 108.819 23.392C107.942 23.392 107.46 24.1789 107.46 25.296C107.46 26.4132 107.932 27.2097 108.819 27.2097C109.706 27.2097 110.178 26.4423 110.178 25.296Z" fill="white"/>
<path d="M112.886 26.6852C112.886 25.2669 114.023 24.8492 115.267 24.7326C116.346 24.6258 116.799 24.5772 116.799 24.1595V24.1303C116.799 23.5863 116.442 23.2852 115.806 23.2852C115.17 23.2852 114.746 23.6058 114.611 24.0235L113.06 23.7612C113.378 22.6538 114.399 22.0223 115.806 22.0223C117.213 22.0223 118.486 22.6343 118.486 24.1789V28.4629H116.886V27.5789H116.828C116.52 28.1715 115.912 28.5892 114.978 28.5892C113.773 28.5892 112.877 27.9383 112.877 26.6852H112.886ZM116.809 26.1898V25.5001C116.597 25.6458 115.932 25.7429 115.556 25.7915C114.929 25.8789 114.515 26.1315 114.515 26.6366C114.515 27.1418 114.91 27.3846 115.469 27.3846C116.259 27.3846 116.809 26.8601 116.809 26.1801V26.1898Z" fill="white"/>
<path d="M119.613 25.296C119.613 23.12 120.779 22.0223 122.177 22.0223C123.247 22.0223 123.748 22.6634 123.969 23.1686H124.027V19.9823H125.724V28.4629H124.056V27.4429H123.969C123.738 27.9577 123.208 28.5697 122.187 28.5697C120.731 28.5697 119.613 27.404 119.613 25.2863V25.296ZM124.066 25.296C124.066 24.14 123.584 23.392 122.707 23.392C121.83 23.392 121.348 24.1789 121.348 25.296C121.348 26.4132 121.82 27.2097 122.707 27.2097C123.594 27.2097 124.066 26.4423 124.066 25.296Z" fill="white"/>
<path d="M126.851 25.3251C126.851 23.3628 128.037 22.032 129.887 22.032C131.535 22.032 132.855 23.0811 132.855 25.2571V25.7331H128.538C128.576 26.7726 129.155 27.3068 130.003 27.3068C130.6 27.3068 131.044 27.0446 131.227 26.5588L132.759 26.8503C132.451 27.9091 131.439 28.5988 129.974 28.5988C128.046 28.5988 126.861 27.336 126.861 25.3251H126.851ZM131.207 24.6646C131.121 23.8291 130.677 23.3143 129.887 23.3143C129.097 23.3143 128.596 23.8777 128.528 24.6646H131.207Z" fill="white"/>
<path d="M26.2725 2.56462C23.333 3.07948 20.3164 2.91434 17.4443 2.07891C16.1529 1.67091 14.9675 0.961766 13.9844 0.00976562C13.011 0.97148 11.8256 1.69034 10.5245 2.07891C8.78974 2.62291 5.86952 3.21548 1.6964 2.56462L0.482056 2.38005V17.1652C0.578432 20.0503 1.42655 22.8675 2.9493 25.3058C4.02872 27.0835 5.378 28.6766 6.96821 30.0075C8.95358 31.6589 11.1991 32.9606 13.6085 33.864L13.9844 34.0098L14.3603 33.864C16.7697 32.9703 19.0057 31.6686 21.0007 30.0075C22.5812 28.6766 23.9401 27.0835 25.0196 25.3058C26.5423 22.8675 27.3904 20.0503 27.4868 17.1652V2.38005L26.2821 2.56462H26.2725ZM25.3858 17.1555C25.2798 19.652 24.528 22.0709 23.227 24.1789C21.2223 27.5206 18.119 30.0463 14.0037 31.6978C9.8884 30.0463 6.7851 27.5206 4.78046 24.1789C3.46974 22.0709 2.72763 19.652 2.61198 17.1555V4.83777C8.88611 5.52748 12.558 3.72062 13.9941 2.77834C15.4301 3.72062 19.102 5.52748 25.3858 4.83777V17.1555Z" fill="white"/>
<path d="M7.95111 17.1749L9.44495 15.6692L12.3651 18.6223L18.5429 12.3663L20.0367 13.872L12.3651 21.6338L7.95111 17.1749Z" fill="white"/>
</g>
</g>
<defs>
<clipPath id="clip0_14_2158">
<rect width="133" height="34" fill="white"/>
</clipPath>
</defs>
</svg>
