<svg width="116" height="34" viewBox="0 0 116 34" fill="none" xmlns="http://www.w3.org/2000/svg">
<g clip-path="url(#clip0_14_2189)">
<mask id="mask0_14_2189" style="mask-type:luminance" maskUnits="userSpaceOnUse" x="0" y="0" width="116" height="34">
<path d="M115.693 0H0.805257V34H115.693V0Z" fill="white"/>
</mask>
<g mask="url(#mask0_14_2189)">
<path d="M23.804 20.1572V13.6098C23.804 12.1429 22.6056 10.9383 21.1293 10.9383C20.8608 10.9383 20.602 10.9772 20.3527 11.0549V10.8606C20.3527 9.39376 19.1544 8.18919 17.678 8.18919C17.3233 8.18919 16.9782 8.25719 16.6618 8.38348C16.24 7.45091 15.3101 6.80005 14.2268 6.80005C13.1435 6.80005 12.204 7.45091 11.7917 8.38348C11.485 8.25719 11.1398 8.18919 10.7755 8.18919C9.29916 8.18919 8.10081 9.38405 8.10081 10.8606V17.068C7.96659 17 7.83238 16.9223 7.67899 16.8738C6.67238 16.4755 5.70411 16.4658 5.59866 16.4658H4.64957V24.3052C4.64957 25.6458 4.88924 26.9475 5.35899 28.1812L7.13254 27.5012C6.74907 26.4812 6.54775 25.4126 6.54775 24.2955V18.496C6.70114 18.5349 6.85453 18.5835 7.00792 18.6515C7.50643 18.8555 8.08163 19.2149 8.09122 20.128V23.6058H9.98942V10.8606C9.98942 10.4332 10.3345 10.0835 10.766 10.0835C11.1974 10.0835 11.5425 10.4332 11.5425 10.8606V20.8469H13.4407V9.48119C13.4407 9.05376 13.7858 8.70405 14.2172 8.70405C14.6486 8.70405 14.9937 9.05376 14.9937 9.48119V20.8469H16.8919V10.8606C16.8919 10.4332 17.237 10.0835 17.6684 10.0835C18.0998 10.0835 18.445 10.4332 18.445 10.8606V21.5463H20.3431V13.6195C20.3431 13.192 20.6883 12.8423 21.1197 12.8423C21.5511 12.8423 21.8962 13.192 21.8962 13.6195V27.8412L23.7944 25.7915V20.1572H23.804Z" fill="white"/>
<path d="M26.4402 2.56462C23.5162 3.07948 20.5155 2.91434 17.6587 2.07891C16.3741 1.67091 15.1949 0.961766 14.217 0.00976562C13.2488 0.97148 12.0696 1.69034 10.7754 2.07891C9.04973 2.62291 6.14494 3.21548 1.99387 2.56462L0.785929 2.38005V17.1652C0.881797 20.0503 1.72544 22.8675 3.24015 25.3058C4.31387 27.0835 5.65601 28.6766 7.23783 30.0075C9.21271 31.6589 11.4464 32.9606 13.8431 33.864L14.217 34.0098L14.5909 33.864C16.9876 32.9703 19.2117 31.6686 21.1962 30.0075C22.7684 28.6766 24.1202 27.0835 25.1939 25.3058C26.7086 22.8675 27.5522 20.0503 27.6481 17.1652V2.38005L26.4498 2.56462H26.4402ZM25.5582 17.1555C25.4527 19.652 24.705 22.0709 23.4107 24.1789C21.4167 27.5206 18.3298 30.0463 14.2362 31.6978C10.1426 30.0463 7.05568 27.5206 5.06163 24.1789C3.75783 22.0709 3.01965 19.652 2.90461 17.1555V4.83777C9.1456 5.52748 12.7982 3.72062 14.2266 2.77834C15.655 3.72062 19.3076 5.52748 25.5582 4.83777V17.1555Z" fill="white"/>
<path d="M37.3405 11.123C37.3405 8.35437 39.0182 6.76123 41.2231 6.76123C43.1309 6.76123 44.5785 7.86866 44.8278 9.77267H43.0926C42.9392 8.8498 42.2202 8.3058 41.2615 8.3058C39.9481 8.3058 39.0853 9.3258 39.0853 11.123C39.0853 12.9201 39.9673 13.9304 41.2615 13.9304C42.2202 13.9304 42.9392 13.3767 43.1021 12.4538H44.8374C44.6456 14.0275 43.3418 15.475 41.2327 15.475C38.999 15.475 37.3501 13.8818 37.3501 11.123H37.3405Z" fill="white"/>
<path d="M45.7289 12.2012C45.7289 10.2292 46.9081 8.90808 48.8063 8.90808C50.7045 8.90808 51.8836 10.2292 51.8836 12.2012C51.8836 14.1732 50.6949 15.4846 48.8063 15.4846C46.9177 15.4846 45.7289 14.1635 45.7289 12.2012ZM50.158 12.1915C50.158 11.0744 49.6979 10.2486 48.7967 10.2486C47.8955 10.2486 47.445 11.0646 47.445 12.1915C47.445 13.3184 47.8955 14.1344 48.7967 14.1344C49.6979 14.1344 50.158 13.2989 50.158 12.1915Z" fill="white"/>
<path d="M54.6734 15.3584H52.9861V8.99551H54.5775L54.5967 10.3069C54.9514 9.42294 55.5841 8.90808 56.5524 8.90808C57.8562 8.90808 58.7094 9.8115 58.7094 11.3075V15.3584H57.0221V11.6086C57.0221 10.8218 56.5907 10.3458 55.8909 10.3458C55.1911 10.3458 54.6734 10.8315 54.6734 11.6766V15.3584Z" fill="white"/>
<path d="M61.7772 15.3583H60.0899V6.87769H61.7388V10.2097C62.1031 9.37426 62.7263 8.90797 63.6562 8.90797C64.96 8.90797 65.8228 9.81141 65.8228 11.3074V15.3583H64.1355V11.6086C64.1355 10.8217 63.7041 10.3457 63.0043 10.3457C62.3045 10.3457 61.7868 10.8314 61.7868 11.6766V15.3583H61.7772Z" fill="white"/>
<path d="M66.9349 12.2109C66.9349 10.2486 68.1141 8.91772 69.9547 8.91772C71.5941 8.91772 72.9074 9.96688 72.9074 12.1429V12.6189H68.6126C68.6509 13.6583 69.2261 14.1926 70.0697 14.1926C70.6641 14.1926 71.1051 13.9303 71.2873 13.4446L72.8116 13.736C72.5048 14.7949 71.4982 15.4846 70.041 15.4846C68.1236 15.4846 66.9445 14.2217 66.9445 12.2109H66.9349ZM71.2777 11.5503C71.1914 10.7149 70.7504 10.2 69.9643 10.2C69.1782 10.2 68.6797 10.7634 68.6126 11.5503H71.2777Z" fill="white"/>
<path d="M76.0711 17.0584H76.7805C77.1448 17.0584 77.279 16.9515 77.279 16.7086C77.279 16.4658 77.1352 16.3686 76.7805 16.3686H76.2724L76.4162 15.4652C74.7481 15.3001 73.7223 14.0275 73.7223 12.2012C73.7223 10.2292 74.9015 8.90808 76.7997 8.90808C78.2856 8.90808 79.3593 9.71436 79.5894 11.0258L78.0268 11.3172C77.883 10.6566 77.4707 10.2486 76.8188 10.2486C75.9177 10.2486 75.4479 11.0355 75.4479 12.1915C75.4479 13.3475 75.9177 14.1344 76.8188 14.1344C77.4707 14.1344 77.9021 13.7166 78.0364 13.0269L79.599 13.3184C79.3785 14.5618 78.4486 15.3584 77.116 15.4652L77.0969 15.8538C77.8063 15.8149 78.1993 16.1452 78.1993 16.7475C78.1993 17.4469 77.7967 17.7286 76.8572 17.7286H76.0711V17.0486V17.0584Z" fill="white"/>
<path d="M80.481 13.5709C80.481 12.1526 81.6122 11.7349 82.8489 11.6184C83.9226 11.5115 84.3732 11.4629 84.3732 11.0452V11.0161C84.3732 10.4721 84.0185 10.1709 83.3858 10.1709C82.7531 10.1709 82.3312 10.4915 82.197 10.9092L80.6535 10.6469C80.9699 9.53951 81.9861 8.90808 83.3858 8.90808C84.7855 8.90808 86.0509 9.52008 86.0509 11.0646V15.3486H84.4595V14.4646H84.402C84.0952 15.0572 83.4912 15.4749 82.5613 15.4749C81.363 15.4749 80.4714 14.8241 80.4714 13.5709H80.481ZM84.3828 13.0755V12.3858C84.1719 12.5315 83.5104 12.6286 83.1365 12.6772C82.5134 12.7646 82.1012 13.0172 82.1012 13.5224C82.1012 14.0275 82.4942 14.2704 83.0502 14.2704C83.8364 14.2704 84.3828 13.7458 84.3828 13.0658V13.0755Z" fill="white"/>
<path d="M89.8185 13.6097L91.3812 13.3377C91.5441 13.94 91.9468 14.2217 92.637 14.2217C93.2793 14.2217 93.6724 13.9497 93.6724 13.5709C93.6724 13.2309 93.4136 13.0269 92.8671 12.92L91.7838 12.6966C90.5663 12.444 89.9719 11.8417 89.9719 10.8897C89.9719 9.66572 91.0264 8.91772 92.6083 8.91772C94.0942 8.91772 94.9858 9.5783 95.2255 10.6177L93.7299 10.8897C93.5957 10.4526 93.241 10.1514 92.6274 10.1514C92.081 10.1514 91.6496 10.4137 91.6496 10.7926C91.6496 11.1132 91.8605 11.3366 92.4549 11.4629L93.5861 11.6863C94.8036 11.9389 95.3884 12.5023 95.3884 13.4057C95.3884 14.6589 94.2284 15.4943 92.5795 15.4943C91.0648 15.4943 90.0198 14.8143 89.8089 13.6292L89.8185 13.6097Z" fill="white"/>
<path d="M103.202 13.0366V8.98572H104.889V12.7354C104.889 13.5223 105.32 13.9983 106.02 13.9983C106.72 13.9983 107.238 13.5126 107.238 12.6674V8.98572H108.925V15.3486H107.334L107.314 14.0274C106.96 14.9309 106.317 15.4263 105.368 15.4263C104.064 15.4263 103.202 14.5229 103.202 13.0269V13.0366Z" fill="white"/>
<path d="M96.1937 12.0361C96.1937 10.0738 97.3729 8.74292 99.2136 8.74292C100.853 8.74292 102.166 9.79206 102.166 11.9681V12.4441H97.8714C97.9098 13.4835 98.485 14.0178 99.3286 14.0178C99.923 14.0178 100.364 13.7555 100.546 13.2698L102.07 13.5612C101.764 14.6201 100.757 15.3098 99.2998 15.3098C97.3825 15.3098 96.2033 14.0469 96.2033 12.0361H96.1937ZM100.537 11.3755C100.45 10.5401 100.009 10.0252 99.2231 10.0252C98.437 10.0252 97.9385 10.5886 97.8714 11.3755H100.537Z" fill="white"/>
<path d="M110.104 13.6097L111.667 13.3377C111.83 13.94 112.232 14.2217 112.923 14.2217C113.565 14.2217 113.958 13.9497 113.958 13.5709C113.958 13.2309 113.699 13.0269 113.153 12.92L112.069 12.6966C110.852 12.444 110.258 11.8417 110.258 10.8897C110.258 9.66572 111.312 8.91772 112.894 8.91772C114.38 8.91772 115.271 9.5783 115.511 10.6177L114.016 10.8897C113.881 10.4526 113.527 10.1514 112.913 10.1514C112.367 10.1514 111.935 10.4137 111.935 10.7926C111.935 11.1132 112.146 11.3366 112.74 11.4629L113.872 11.6863C115.089 11.9389 115.674 12.5023 115.674 13.4057C115.674 14.6589 114.514 15.4943 112.865 15.4943C111.35 15.4943 110.305 14.8143 110.095 13.6292L110.104 13.6097Z" fill="white"/>
<path d="M39.2195 28.4726H37.5322V19.9921H39.2195V28.4726Z" fill="white"/>
<path d="M40.5137 20.4C40.5137 19.9143 40.926 19.5258 41.4436 19.5258C41.9613 19.5258 42.3736 19.9143 42.3736 20.4C42.3736 20.8858 41.9517 21.2743 41.4436 21.2743C40.9355 21.2743 40.5137 20.8858 40.5137 20.4ZM40.6 22.1098H42.2873V28.4726H40.6V22.1098Z" fill="white"/>
<path d="M43.6582 22.1097H45.2208L45.2879 23.3434C45.6235 22.4109 46.3233 22.0126 47.0807 22.0126C47.886 22.0126 48.4036 22.4691 48.7008 23.4406C49.0555 22.4594 49.8512 22.0126 50.7141 22.0126C51.8645 22.0126 52.7177 22.7994 52.7177 24.1789V28.4726H51.0304V24.5091C51.0304 23.7903 50.599 23.4406 50.0334 23.4406C49.3911 23.4406 48.998 23.8874 48.998 24.5577V28.4726H47.3683V24.4606C47.3683 23.8389 46.9656 23.4406 46.3904 23.4406C45.8152 23.4406 45.3359 23.8583 45.3359 24.6257V28.4726H43.6486V22.1097H43.6582Z" fill="white"/>
<path d="M54.0119 20.4C54.0119 19.9143 54.4241 19.5258 54.9418 19.5258C55.4595 19.5258 55.8717 19.9143 55.8717 20.4C55.8717 20.8858 55.4499 21.2743 54.9418 21.2743C54.4337 21.2743 54.0119 20.8858 54.0119 20.4ZM54.0982 22.1098H55.7855V28.4726H54.0982V22.1098Z" fill="white"/>
<path d="M60.2721 23.4115H59.1025V26.6075C59.1025 27.0155 59.2655 27.2 59.6777 27.2C59.8023 27.2 60.0899 27.1612 60.2145 27.1223L60.4542 28.4046C60.0803 28.5212 59.6969 28.56 59.3613 28.56C58.1055 28.56 57.4152 27.9189 57.4152 26.7532V23.4017H56.5524V22.1H57.4152V20.5846H59.1025V22.1H60.2721V23.4017V23.4115Z" fill="white"/>
<path d="M60.9336 25.3251C60.9336 23.3628 62.1127 22.032 63.9534 22.032C65.5927 22.032 66.9061 23.0811 66.9061 25.2571V25.7331H62.6112C62.6496 26.7726 63.2248 27.3068 64.0684 27.3068C64.6628 27.3068 65.1038 27.0446 65.2859 26.5588L66.8103 26.8503C66.5035 27.9091 65.4969 28.5988 64.0397 28.5988C62.1223 28.5988 60.9431 27.336 60.9431 25.3251H60.9336ZM65.2764 24.6646C65.1901 23.8291 64.7491 23.3143 63.963 23.3143C63.1769 23.3143 62.6783 23.8777 62.6112 24.6646H65.2764Z" fill="white"/>
<path d="M67.7114 26.724L69.274 26.452C69.437 27.0543 69.8397 27.336 70.5299 27.336C71.1722 27.336 71.5653 27.064 71.5653 26.6851C71.5653 26.3451 71.3064 26.1411 70.76 26.0343L69.6767 25.8108C68.4592 25.5583 67.8648 24.956 67.8648 24.004C67.8648 22.78 68.9193 22.032 70.5011 22.032C71.9871 22.032 72.8787 22.6926 73.1183 23.732L71.6228 24.004C71.4886 23.5668 71.1339 23.2657 70.5203 23.2657C69.9739 23.2657 69.5425 23.528 69.5425 23.9068C69.5425 24.2274 69.7534 24.4508 70.3478 24.5771L71.479 24.8006C72.6965 25.0531 73.2813 25.6166 73.2813 26.52C73.2813 27.7731 72.1213 28.6086 70.4724 28.6086C68.9577 28.6086 67.9127 27.9286 67.7018 26.7434L67.7114 26.724Z" fill="white"/>
</g>
</g>
<defs>
<clipPath id="clip0_14_2189">
<rect width="116" height="34" fill="white"/>
</clipPath>
</defs>
</svg>
