<svg width="34" height="34" viewBox="0 0 34 34" fill="none" xmlns="http://www.w3.org/2000/svg">
<g clip-path="url(#clip0_14_2149)">
<mask id="mask0_14_2149" style="mask-type:luminance" maskUnits="userSpaceOnUse" x="0" y="0" width="34" height="34">
<path d="M33.5337 0H0V33.5337H33.5337V0Z" fill="white"/>
</mask>
<g mask="url(#mask0_14_2149)">
<path d="M26.4034 10.7148V7.25654H22.9451V5.12911H26.4034V1.68054H28.5406V5.12911H31.9989V7.25654H28.5406V10.7148H26.4034Z" fill="white"/>
<path d="M16.7669 33.5337C7.51886 33.5337 0 26.0149 0 16.7669C0 7.51886 7.51886 0 16.7669 0C19.0206 0 21.2063 0.437143 23.2754 1.31143L22.4109 3.37086C20.6234 2.62286 18.7291 2.23429 16.7766 2.23429C8.76229 2.23429 2.244 8.75257 2.244 16.7669C2.244 24.7811 8.76229 31.2994 16.7766 31.2994C24.7909 31.2994 31.3091 24.7811 31.3091 16.7669C31.3091 15.2126 31.0663 13.6874 30.5806 12.2206L32.708 11.5211C33.2617 13.2114 33.5434 14.9697 33.5434 16.7669C33.5434 26.0149 26.0246 33.5337 16.7766 33.5337H16.7669Z" fill="white"/>
<path d="M13.3669 22.9548H10.7926V12.6383H10.7051L7.81999 14.6783V12.3177L10.5983 10.3651H13.3571V22.9548H13.3669Z" fill="white"/>
<path d="M14.9989 19.5743C14.9989 18.0006 16.1743 16.6989 17.7091 16.4463V16.3686C16.3686 16.0869 15.4554 14.9503 15.4554 13.5709C15.4554 11.628 17.3011 10.1903 19.8269 10.1903C22.3526 10.1903 24.208 11.6377 24.208 13.5709C24.208 14.9503 23.2754 16.0869 21.964 16.3686V16.4463C23.46 16.6989 24.6743 18.0006 24.6743 19.5743C24.6743 21.6143 22.6343 23.12 19.8269 23.12C17.0194 23.12 14.9989 21.6143 14.9989 19.5743ZM21.9931 19.3703C21.9931 18.2629 21.08 17.4566 19.8366 17.4566C18.5931 17.4566 17.68 18.2532 17.68 19.3703C17.68 20.4875 18.5349 21.216 19.8366 21.216C21.1383 21.216 21.9931 20.468 21.9931 19.3703ZM21.692 13.8526C21.692 12.8423 20.9343 12.1623 19.8366 12.1623C18.7389 12.1623 17.9811 12.8423 17.9811 13.8526C17.9811 14.8629 18.7583 15.572 19.8366 15.572C20.9149 15.572 21.692 14.8629 21.692 13.8526Z" fill="white"/>
</g>
</g>
<defs>
<clipPath id="clip0_14_2149">
<rect width="34" height="34" fill="white"/>
</clipPath>
</defs>
</svg>
