<svg width="100" height="100" viewBox="0 0 100 100" fill="none" xmlns="http://www.w3.org/2000/svg">
<circle cx="50" cy="50" r="50" fill="#EEEEEE"/>
<path d="M74.88 61C74.43 57.29 72.36 54.08 69.38 52.11C66.21 48.97 61.95 46.94 57.23 46.58C60.11 44.38 61.98 40.93 61.98 37.02C61.98 30.38 56.6 25 49.96 25C43.32 25 37.94 30.38 37.94 37.02C37.94 40.99 39.87 44.5 42.84 46.69C33.35 47.93 26 56.05 26 65.9C26 70.92 30.07 75 35.1 75H62V74.97C62.17 74.97 62.33 74.99 62.5 74.99C69.16 74.99 74.59 69.77 74.95 63.19C74.96 62.96 74.98 62.73 74.98 62.5C74.98 61.99 74.94 61.49 74.88 60.99V61ZM40.56 37.02C40.56 31.83 44.78 27.6 49.98 27.6C55.18 27.6 59.4 31.82 59.4 37.02C59.4 42.22 55.18 46.44 49.98 46.44C44.78 46.44 40.56 42.22 40.56 37.02ZM35.1 72.4C31.52 72.4 28.6 69.49 28.6 65.9C28.6 56.63 36.14 49.09 45.41 49.09H55.75C57.72 49.09 59.61 49.45 61.37 50.08C55.01 50.65 50.02 55.99 50.02 62.51C50.02 66.54 51.94 70.12 54.91 72.4H35.1ZM60.05 74.74C60.68 74.87 61.34 74.94 62 74.97C61.33 74.94 60.68 74.87 60.05 74.74ZM72.34 63.33C71.92 68.39 67.67 72.39 62.5 72.39C57.05 72.39 52.62 67.96 52.62 62.51C52.62 57.06 57.05 52.63 62.5 52.63C64.43 52.63 66.22 53.19 67.74 54.15C70.12 55.64 71.81 58.12 72.26 61C72.34 61.49 72.39 62 72.39 62.51C72.39 62.79 72.37 63.06 72.35 63.33H72.34Z" fill="black"/>
<path d="M66.65 56.9302L62.82 60.7602L58.99 56.9302L57.15 58.7702L60.98 62.6002L57.15 66.4302L58.99 68.2702L62.82 64.4402L66.65 68.2702L68.49 66.4302L64.66 62.6002L68.49 58.7702L66.65 56.9302Z" fill="black"/>
</svg>
