<svg width="85" height="39" viewBox="0 0 85 39" fill="none" xmlns="http://www.w3.org/2000/svg">
<path d="M0 27.0652V10.9922C0 8.76116 1.81446 6.92407 4.018 6.92407C6.22153 6.92407 8.03599 8.76116 8.03599 10.9922V17.4214C8.03599 17.5527 7.97115 17.6183 7.84146 17.6183H5.44339C5.3137 17.6183 5.24885 17.5527 5.24885 17.4214V10.6639C5.24885 9.97454 4.69767 9.4177 4.018 9.4177C3.33832 9.4177 2.75472 9.97575 2.75472 10.6639V27.3606C2.75472 28.0828 3.3059 28.6396 4.018 28.6396C4.73009 28.6396 5.24885 28.0816 5.24885 27.3606V20.6031C5.24885 20.4718 5.3137 20.4062 5.44339 20.4062H7.84146C7.97115 20.4062 8.03599 20.4718 8.03599 20.6031V27.0652C8.03599 29.2962 6.22153 31.1333 4.018 31.1333C1.81446 31.1333 0 29.2962 0 27.0652Z" fill="#E4E6DC"/>
<path d="M10.2382 30.6738C10.1085 30.6738 10.0437 30.6082 10.0437 30.4769V7.58075C10.0437 7.44944 10.1085 7.38379 10.2382 7.38379H12.6039C12.7012 7.38379 12.7984 7.44944 12.7984 7.58075V28.1814H17.2367C17.334 28.1814 17.4312 28.2471 17.4312 28.3784V30.4781C17.4312 30.6094 17.3664 30.675 17.2367 30.675H10.2382V30.6738Z" fill="#E4E6DC"/>
<path d="M18.8567 27.0653V7.58075C18.8567 7.48227 18.9215 7.38379 19.0512 7.38379H21.4169C21.5141 7.38379 21.6114 7.44944 21.6114 7.58075V27.362C21.6114 28.0842 22.1626 28.641 22.8747 28.641C23.5868 28.641 24.138 28.0829 24.138 27.362V7.58075C24.138 7.48227 24.2028 7.38379 24.3325 7.38379H26.6981C26.7954 7.38379 26.8927 7.44944 26.8927 7.58075V27.0665C26.8927 29.2975 25.0782 31.1346 22.8747 31.1346C20.6712 31.1346 18.8567 29.2975 18.8567 27.0665V27.0653Z" fill="#E4E6DC"/>
<path d="M29.4829 30.6735C29.3856 30.6735 29.2883 30.6079 29.2883 30.4766V7.6461C29.2883 7.54762 29.3856 7.44914 29.4829 7.44914L33.3063 7.38348C35.5099 7.35066 37.3243 9.22057 37.3243 11.4516V15.454C37.3243 16.7002 36.7731 17.7507 35.8665 18.209V18.3075C36.7731 19.0297 37.3243 19.8492 37.3243 21.0954V26.6066C37.3243 28.8377 35.5099 30.6747 33.3063 30.6747H29.4829V30.6735ZM32.043 17.0273H33.3388C34.0196 17.0273 34.5696 16.4692 34.5696 15.7482V11.1233C34.5696 10.4339 34.0184 9.87711 33.3388 9.87711H32.043V17.0285V17.0273ZM32.043 28.1811H33.3388C34.0196 28.1811 34.5696 27.6231 34.5696 26.9021V20.7683C34.5696 20.079 34.0184 19.5221 33.3388 19.5221H32.043V28.1823V28.1811Z" fill="#E4E6DC"/>
<path d="M39.7214 30.6738C39.6241 30.6738 39.5269 30.6082 39.5269 30.4769V7.58075C39.5269 7.44944 39.5917 7.38379 39.7214 7.38379H47.3683C47.4656 7.38379 47.5628 7.44944 47.5628 7.58075V9.68045C47.5628 9.81176 47.498 9.87741 47.3683 9.87741H42.2816V17.6197H46.4293C46.559 17.6197 46.6238 17.6853 46.6238 17.8166V19.9164C46.6238 20.0477 46.559 20.1133 46.4293 20.1133H42.2816V28.1826H47.3683C47.498 28.1826 47.5628 28.2483 47.5628 28.3796V30.4793C47.5628 30.6106 47.498 30.6763 47.3683 30.6763H39.7214V30.6738Z" fill="#E4E6DC"/>
<path d="M81.5437 12.2253C81.4489 12.2253 81.372 12.1474 81.372 12.0514V6.9292C80.8292 6.80761 80.2084 6.6836 79.5767 6.57053C76.6695 6.05138 73.7071 5.78755 70.7722 5.78755C67.8374 5.78755 64.8749 6.05138 61.9677 6.57053C61.3264 6.68482 60.7224 6.80518 60.1724 6.9292V12.0514C60.1724 12.1474 60.0956 12.2253 60.0007 12.2253H58.4156C58.3208 12.2253 58.2439 12.1474 58.2439 12.0514V6.15594C58.2439 5.7146 58.5381 5.32554 58.9596 5.21247C58.9992 5.20153 59.9419 4.94864 61.6339 4.64712C64.6516 4.10852 67.7269 3.83496 70.7734 3.83496C73.8199 3.83496 76.8953 4.10852 79.913 4.64712C81.605 4.94864 82.5476 5.20275 82.5872 5.21247C83.0087 5.32676 83.3029 5.7146 83.3029 6.15594V12.0514C83.3029 12.1474 83.2261 12.2253 83.1312 12.2253H81.5461H81.5437Z" fill="#E4E6DC"/>
<path d="M70.771 38.0588C70.6533 38.0588 70.538 38.0369 70.4287 37.9956C62.5344 34.9609 58.5645 28.9196 58.3988 28.6642C58.2955 28.505 58.2415 28.3202 58.2415 28.1293V24.4575C58.2415 24.3603 58.3195 24.2812 58.4156 24.2812H59.9959C60.0919 24.2812 60.17 24.3603 60.17 24.4575V27.8217C60.8473 28.7652 64.475 33.4995 70.7698 36.0357C77.0646 33.4995 80.6935 28.7652 81.3696 27.8217V24.4575C81.3696 24.3603 81.4476 24.2812 81.5437 24.2812H83.124C83.22 24.2812 83.2981 24.3603 83.2981 24.4575V28.1293C83.2981 28.3202 83.2441 28.505 83.1408 28.6642C82.9751 28.9196 79.0051 34.9609 71.1108 37.9956C71.0003 38.0381 70.8863 38.0588 70.7686 38.0588H70.771Z" fill="#E4E6DC"/>
<path d="M77.5005 2.40876C75.2741 2.10603 73.0105 1.95162 70.771 1.95162C68.5314 1.95162 66.2678 2.10481 64.0415 2.40876L63.8782 2.43065V0.964381C63.8782 0.676234 64.0907 0.433072 64.3717 0.397814C66.49 0.133983 68.6419 0.000244141 70.7698 0.000244141C72.8977 0.000244141 75.0508 0.133983 77.1678 0.397814C77.45 0.433072 77.6614 0.676234 77.6614 0.964381V2.43186L77.4981 2.40998L77.5005 2.40876Z" fill="#E4E6DC"/>
<path d="M81.6086 14.8281H79.0111C77.1499 14.8281 75.6416 16.3552 75.6416 18.2397C75.6416 20.1242 77.1499 21.6512 79.0111 21.6512H81.6086C83.4699 21.6512 84.9781 20.1242 84.9781 18.2397C84.9781 16.3552 83.4687 14.8281 81.6086 14.8281ZM81.6146 19.3984H79.0027C78.3711 19.3984 77.8583 18.8792 77.8583 18.2397C77.8583 17.6002 78.3711 17.081 79.0027 17.081H81.6146C82.2462 17.081 82.759 17.6014 82.759 18.2397C82.759 18.878 82.245 19.3984 81.6146 19.3984Z" fill="#DA0000"/>
<path d="M62.2283 17.6172L65.515 14.8281H62.89C62.2943 14.8281 61.9749 15.1333 61.9749 15.1333L58.7927 17.8275V14.8293H56.5627V21.6525H58.7927V20.5327L60.4895 19.092L62.2991 21.2683C62.2991 21.2683 62.5789 21.6525 63.2022 21.6525H65.5882L62.2271 17.6184L62.2283 17.6172Z" fill="#DA0000"/>
<path d="M66.1323 14.8281V17.0859H69.5331V21.6512H71.763V17.0859H75.1638V14.8281H66.1323Z" fill="#DA0000"/>
</svg>
