<svg width="141" height="42" viewBox="0 0 141 42" fill="none" xmlns="http://www.w3.org/2000/svg">
<path fill-rule="evenodd" clip-rule="evenodd" d="M139.69 4.72C140.22 5.87 140.49 7.09 140.49 8.36L140.5 8.33C140.5 13.5302 140.491 18.7259 140.482 23.9201V23.9245V23.929C140.478 26.5229 140.473 29.1164 140.47 31.71C140.47 31.935 140.472 32.16 140.474 32.385C140.479 33.06 140.485 33.735 140.44 34.41C140.33 35.99 139.78 37.42 138.81 38.67C138.18 39.49 137.43 40.19 136.53 40.71C135.63 41.23 134.69 41.64 133.64 41.76C131.691 41.9855 129.742 41.957 127.793 41.9286C127.062 41.9179 126.331 41.9073 125.6 41.91C121.835 41.925 118.07 41.9231 114.305 41.9212C113.05 41.9206 111.795 41.92 110.54 41.92C109.37 41.9575 108.205 41.9444 107.042 41.9312H107.042C106.654 41.9269 106.267 41.9225 105.88 41.92H102.14H87.54C81.04 41.91 74.53 41.91 68.03 41.91H36.59C33.5145 41.91 30.4402 41.9078 27.3662 41.9056L27.3515 41.9056H27.3504H27.3493C21.1933 41.9011 15.0389 41.8967 8.88 41.91C7.62 41.91 6.41 41.81 5.24 41.35C4.97272 41.2454 4.72232 41.1003 4.47311 40.9559L4.47307 40.9559L4.47302 40.9558C4.29336 40.8517 4.11431 40.748 3.93 40.66C3.15 40.27 2.58 39.68 2.01 39.07C1.4 38.43 0.97 37.66 0.64 36.84C0.14 35.59 0 34.28 0 32.93C0.0199917 24.9533 0.0100083 16.9767 1.25083e-05 8.98999L0 8.98C0 7.88 0.03 6.78 0.4 5.72C0.95 4.11 1.88 2.77 3.23 1.72C4.34 0.85 5.6 0.28 6.99 0.11C7.73 0.02 8.5 0 9.26 0H29.78C39.91 0 50.04 0 60.17 0.01H79.01H80.84H109.96H130.61C132.16 0.01 133.71 0.07 135.19 0.59C136.27 0.97 137.17 1.63 138 2.42C138.7 3.09 139.29 3.85 139.69 4.72ZM136.02 37.51C137.1 36.47 137.62 35.22 137.63 33.79L137.65 33.8C137.68 29.7809 137.676 25.7563 137.673 21.7344V21.7299V21.7289V21.728C137.671 20.3882 137.67 19.0488 137.67 17.71C137.79 17.57 137.79 17.44 137.67 17.3V10.42V10.34V9.68C137.77 9.62 137.76 9.56 137.67 9.51C137.7 8.69 137.65 7.87 137.51 7.06C137.3 5.83 136.63 4.82 135.68 4.06C134.61 3.2 133.3 2.87 131.92 2.87H117.79H111.27H111.26H30.75H29.49H22.73H10.2C9.99714 2.87 9.79429 2.86837 9.59143 2.86673C9.08429 2.86265 8.57714 2.85857 8.07 2.88C6.84 2.93 5.73 3.29 4.78 4.13C3.68 5.1 3.02 6.28 2.86 7.72C2.80774 8.14459 2.82802 8.57345 2.84837 9.00378C2.85918 9.23224 2.87 9.46112 2.87 9.69V33.56C2.87 34 2.88 34.43 2.98 34.88C3.36 36.55 4.32 37.76 5.79 38.57C6.64 39.04 7.6 39.08 8.57 39.08H22.67H29.17H29.24H86.27H111.51H111.55H117.82H132.18C133.67 39.08 134.92 38.57 136.02 37.51ZM19.9301 25.98C22.6915 25.98 24.9301 23.7414 24.9301 20.98C24.9301 18.2186 22.6915 15.98 19.9301 15.98C17.1686 15.98 14.9301 18.2186 14.9301 20.98C14.9301 23.7414 17.1686 25.98 19.9301 25.98ZM42.4301 25.98C45.1915 25.98 47.4301 23.7414 47.4301 20.98C47.4301 18.2186 45.1915 15.98 42.4301 15.98C39.6686 15.98 37.4301 18.2186 37.4301 20.98C37.4301 23.7414 39.6686 25.98 42.4301 25.98ZM65.4301 25.98C68.1915 25.98 70.4301 23.7414 70.4301 20.98C70.4301 18.2186 68.1915 15.98 65.4301 15.98C62.6686 15.98 60.4301 18.2186 60.4301 20.98C60.4301 23.7414 62.6686 25.98 65.4301 25.98ZM93.4301 20.98C93.4301 23.7414 91.1915 25.98 88.4301 25.98C85.6686 25.98 83.4301 23.7414 83.4301 20.98C83.4301 18.2186 85.6686 15.98 88.4301 15.98C91.1915 15.98 93.4301 18.2186 93.4301 20.98ZM127.93 17.15H124.76V13.98C124.76 9.94002 121.47 6.65002 117.43 6.65002C113.39 6.65002 110.1 9.94002 110.1 13.98V17.15H106.93C106.1 17.15 105.43 17.82 105.43 18.65V29.05C105.43 32.51 108.24 35.32 111.7 35.32H123.17C126.63 35.32 129.44 32.51 129.44 29.05V18.65C129.44 17.82 128.77 17.15 127.94 17.15H127.93ZM113.1 13.98C113.1 11.59 115.04 9.65002 117.43 9.65002C119.82 9.65002 121.76 11.59 121.76 13.98V17.15H113.09V13.98H113.1ZM126.43 29.05C126.43 30.85 124.96 32.32 123.16 32.32H111.69C109.89 32.32 108.42 30.85 108.42 29.05V20.15H126.42V29.05H126.43ZM113.6 25.64C113.6 23.53 115.32 21.81 117.43 21.81H117.45C119.56 21.81 121.28 23.53 121.28 25.64C121.28 27.22 120.31 28.59 118.94 29.17C118.92 29.98 118.26 30.64 117.44 30.64C116.62 30.64 115.96 29.99 115.94 29.17C114.56 28.58 113.6 27.22 113.6 25.64ZM118.26 25.64C118.26 25.18 117.89 24.81 117.43 24.81C116.97 24.81 116.6 25.18 116.6 25.64C116.6 26.1 116.97 26.47 117.43 26.47C117.89 26.47 118.26 26.1 118.26 25.64Z" fill="black"/>
</svg>
