<svg width="15" height="15" viewBox="0 0 15 15" fill="none" xmlns="http://www.w3.org/2000/svg">
<path d="M0 0.545351C0.0176181 0.511746 0.0364107 0.478439 0.0528542 0.443943C0.164435 0.212579 0.408739 0.0915443 0.648051 0.150426C0.902045 0.212876 1.0885 0.430561 1.05033 0.690473C1.01832 0.908752 1.13666 1.05179 1.20243 1.21803C1.47346 1.04644 1.72716 0.859684 2.00259 0.715156C3.79141 -0.222789 5.59315 -0.243011 7.39107 0.683336C7.96454 0.978935 8.54535 1.23468 9.18929 1.31795C9.87023 1.40568 10.5318 1.32747 11.1781 1.09581C11.3011 1.05179 11.4327 1.00659 11.5604 1.006C11.8208 1.00421 11.99 1.15617 12.1007 1.39111C12.495 2.22913 12.8947 3.06448 13.292 3.90102C13.829 5.03107 14.3664 6.16113 14.9034 7.29118C15.1134 7.73309 14.9792 8.05546 14.519 8.21991C13.0623 8.74033 11.6499 8.6416 10.2948 7.88654C9.42302 7.40062 8.50101 7.14368 7.50412 7.19929C6.41327 7.25996 5.44545 7.64775 4.59127 8.35344C4.61828 8.41559 4.64148 8.47388 4.66849 8.53038C5.58845 10.4657 6.5087 12.4008 7.42836 14.3365C7.46213 14.4073 7.49443 14.4801 7.51528 14.5554C7.56197 14.7249 7.47711 14.8938 7.31473 14.9699C7.1729 15.0362 6.99144 14.9904 6.896 14.8572C6.85636 14.8019 6.82759 14.7379 6.79793 14.6758C4.68787 10.2353 2.5784 5.79446 0.470402 1.35334C0.423127 1.25372 0.358528 1.1874 0.266033 1.12108C0.154452 1.04109 0.0869158 0.898641 0.000293634 0.78296C0.000293634 0.703856 0.000293634 0.624752 0.000293634 0.545648L0 0.545351ZM4.15405 2.71327C4.48439 3.4148 4.8068 4.09997 5.1339 4.79495C5.83334 4.54842 6.54394 4.45713 7.293 4.49906C7.26187 4.42858 7.24161 4.3801 7.2193 4.33252C6.98909 3.84214 6.75917 3.35175 6.52749 2.86226C6.4582 2.71595 6.41826 2.5173 6.30198 2.44236C6.18512 2.36712 5.99014 2.40994 5.82952 2.41202C5.26046 2.41886 4.70725 2.5167 4.15375 2.71357L4.15405 2.71327ZM3.4044 5.87029C3.69304 6.47695 3.97845 7.07707 4.26944 7.68908C4.80826 7.26531 5.38056 6.96406 6.00952 6.75203C5.70473 6.10641 5.40816 5.47745 5.11129 4.84818C4.46882 5.08698 3.90563 5.42065 3.4044 5.87029ZM4.09503 2.68383C3.81725 2.09472 3.54769 1.52315 3.27608 0.946817C2.62186 1.15082 2.04663 1.46902 1.52631 1.90945C1.80996 2.50719 2.09156 3.10046 2.37961 3.70742C2.89553 3.2551 3.46136 2.92352 4.09532 2.68383H4.09503ZM10.4839 7.14368C10.4827 7.13625 10.4839 7.12168 10.4783 7.11008C10.1997 6.51739 9.92161 5.92441 9.63884 5.33381C9.61565 5.28563 9.56426 5.244 9.5164 5.21664C9.01575 4.92996 8.48104 4.73488 7.91726 4.62396C7.74461 4.59006 7.56872 4.57281 7.36729 4.54426C7.67443 5.19582 7.96454 5.81527 8.26111 6.43086C8.2802 6.4707 8.34979 6.49658 8.40059 6.50817C8.78026 6.59501 9.16727 6.65508 9.5393 6.7663C9.8623 6.86295 10.1689 7.01551 10.4839 7.14398V7.14368ZM11.6755 5.82717C11.6664 5.79178 11.6643 5.77185 11.6564 5.75461C11.3548 5.11256 11.0542 4.47021 10.7476 3.83054C10.7279 3.7895 10.6654 3.7556 10.6172 3.74519C10.2267 3.66282 9.83088 3.60334 9.44534 3.50282C9.19487 3.4374 8.95908 3.31488 8.71008 3.21525C8.71155 3.23518 8.70861 3.25035 8.7139 3.26135C9.0134 3.89894 9.3132 4.53623 9.61506 5.17263C9.63092 5.20594 9.65969 5.24013 9.69111 5.25738C10.3048 5.59372 10.9599 5.78405 11.6758 5.82657L11.6755 5.82717ZM11.7856 5.91579C11.7856 5.91073 11.7824 5.92203 11.7862 5.92977C12.0701 6.53672 12.3535 7.14398 12.6424 7.74856C12.6595 7.78395 12.7235 7.81725 12.7652 7.81636C12.9502 7.81279 13.1378 7.8125 13.3196 7.78068C13.6243 7.72715 13.925 7.65072 14.2501 7.57875C13.9332 6.91262 13.634 6.28335 13.3524 5.69126C12.8148 5.76829 12.3053 5.84115 11.7865 5.91549L11.7856 5.91579ZM9.99443 2.11137C9.99502 2.10274 9.99091 2.11405 9.99443 2.12148C10.232 2.62941 10.4687 3.13764 10.7121 3.64289C10.7291 3.67798 10.7955 3.70713 10.8392 3.70713C11.0095 3.70772 11.1822 3.7098 11.3499 3.68482C11.6649 3.63813 11.9776 3.57301 12.315 3.51115C12.0255 2.90211 11.7545 2.33173 11.4958 1.78782C10.986 1.89755 10.4977 2.00282 9.99414 2.11137H9.99443ZM8.54447 3.04099C8.54447 3.04099 8.55034 3.0285 8.54711 3.02166C8.35742 2.61603 8.16774 2.21069 7.97511 1.80655C7.95984 1.77443 7.92842 1.74261 7.89671 1.72745C7.43541 1.5053 6.97852 1.27186 6.50811 1.07112C6.22945 0.95217 5.92907 0.885854 5.63837 0.796044C5.85272 1.33104 6.08616 1.82945 6.32518 2.32489C6.34104 2.3576 6.39918 2.37753 6.44116 2.38734C6.84873 2.48072 7.26334 2.54941 7.66327 2.66896C7.96718 2.75996 8.25201 2.9146 8.54447 3.04069V3.04099Z" fill="white"/>
</svg>
