<svg width="28" height="21" viewBox="0 0 28 21" fill="none" xmlns="http://www.w3.org/2000/svg">
<path fill-rule="evenodd" clip-rule="evenodd" d="M5.07646 5.65694C5.05935 5.67237 5.02575 5.70438 4.98869 5.74036C4.96183 5.76644 4.94036 5.78752 4.89592 5.83132L2.43687 8.25485C2.37247 8.32131 2.32774 8.36595 2.22382 8.46837C2.16584 8.52552 2.12326 8.56942 2.03165 8.66534C1.86132 8.8278 1.68171 9.02175 1.5134 9.22648C1.3547 9.39195 1.2279 9.58466 1.13934 9.79519C0.957016 10.3426 0.957016 10.8747 1.11943 11.3689L1.14118 11.4265C1.23045 11.6349 1.3565 11.8259 1.51337 11.9907C1.68183 12.1939 1.86142 12.3879 2.05135 12.5719C2.12326 12.648 2.16584 12.6919 2.22382 12.749L2.43687 12.959L4.67885 15.1721C4.78369 15.2755 4.83518 15.3257 4.89482 15.3818C4.95839 15.4478 5.02515 15.5133 5.09217 15.5755C5.10415 15.586 7.96161 18.4004 7.96161 18.4004C8.04986 18.4873 8.12105 18.5557 8.28118 18.708C8.29818 18.7245 8.32398 18.7503 8.33191 18.7585C8.37313 18.8012 8.39703 18.8259 8.41297 18.8416C8.7462 19.1705 9.1293 19.4469 9.54842 19.6608C9.97785 19.8715 10.4247 20.0164 10.8856 20.0963C11.3211 20.1665 11.7524 20.2041 12.1847 20.2102C12.2591 20.2117 12.3209 20.2124 12.4587 20.2138C12.5918 20.2151 12.6503 20.2158 12.7223 20.2173L21.2369 20.2174C21.3247 20.2158 21.3841 20.2151 21.5185 20.2138C21.6576 20.2124 21.7201 20.2117 21.8 20.2101C22.2341 20.2026 22.6685 20.1638 23.0983 20.0941C23.5694 20.0155 24.0226 19.8681 24.4457 19.6562C24.8719 19.4428 25.261 19.1638 25.5982 18.8296C25.9337 18.4977 26.2153 18.1163 26.4327 17.6992C26.6473 17.2757 26.7948 16.8311 26.8742 16.3725C26.9463 15.9439 26.9845 15.5137 26.9891 15.0825C26.993 14.9938 26.9946 14.909 26.9971 14.7213C26.9983 14.6321 26.9989 14.5928 26.9999 14.5444L27 6.64066C26.9989 6.57908 26.9983 6.53997 26.9971 6.45239L26.9959 6.3614C26.9941 6.24667 26.9921 6.16057 26.9886 6.07484C26.9839 5.66898 26.9471 5.24428 26.879 4.82391C26.796 4.35841 26.649 3.91802 26.4405 3.50506C26.2214 3.08332 25.9416 2.70475 25.6076 2.37566C25.2747 2.045 24.888 1.76708 24.4643 1.55439C24.0432 1.34652 23.5984 1.20134 23.1395 1.12123C22.6993 1.05214 22.2673 1.0159 21.8343 1.01073C21.6911 1.00481 21.5643 1.00356 21.2839 1.00356C21.192 1.00195 21.0845 1.00095 20.9637 1.00045C20.8728 1.00007 20.8006 1 20.6375 1H13.3831C13.0578 1 12.9104 1.00061 12.7248 1.00366C12.4563 1.00356 12.3296 1.00481 12.1663 1.01125C11.7546 1.01557 11.3233 1.05186 10.8965 1.11929C10.4247 1.20101 9.97785 1.34593 9.55884 1.55139C9.1293 1.77052 8.7462 2.04693 8.41266 2.37605C8.39703 2.39146 8.37313 2.41616 8.33353 2.45724C8.32398 2.46709 8.28118 2.50935 8.28118 2.50935C8.12105 2.66173 8.04986 2.73006 7.96161 2.81704L7.59329 3.18003L5.14365 5.59778C5.12219 5.61467 5.09922 5.63451 5.07646 5.65694ZM20.6375 2.42351C20.7986 2.42351 20.8694 2.42358 20.9577 2.42395C21.0729 2.42443 21.1744 2.42537 21.2718 2.42697C21.5451 2.42707 21.659 2.42819 21.7967 2.43362C22.1796 2.43847 22.5417 2.46884 22.9001 2.525C23.2093 2.57907 23.521 2.68083 23.8131 2.82502C24.0958 2.9669 24.3576 3.1551 24.5844 3.38038C24.814 3.60656 25.0045 3.8644 25.1512 4.14659C25.2941 4.42976 25.3975 4.73966 25.4546 5.05933C25.5096 5.40003 25.5404 5.75559 25.5448 6.11194C25.5483 6.20331 25.5501 6.27871 25.5516 6.38254L25.5529 6.4712C25.5541 6.56199 25.5547 6.60326 25.5558 6.65489L25.5556 14.5305C25.5547 14.569 25.5541 14.6104 25.5529 14.7027C25.5506 14.878 25.549 14.9545 25.5453 15.0471C25.541 15.4257 25.5092 15.7831 25.4498 16.1366C25.3949 16.454 25.2917 16.7649 25.1442 17.0559C24.9986 17.3352 24.8052 17.5972 24.5745 17.8254C24.3452 18.0526 24.0809 18.2421 23.7914 18.3871C23.4983 18.5338 23.1845 18.636 22.8606 18.69C22.5031 18.7479 22.1385 18.7805 21.773 18.7869C21.698 18.7883 21.6387 18.789 21.5042 18.7904C21.3651 18.7917 21.3026 18.7925 21.2228 18.794L12.7368 18.7939C12.6728 18.7925 12.611 18.7917 12.4732 18.7904C12.3402 18.789 12.2816 18.7883 12.2096 18.7869C11.8443 18.7817 11.4838 18.7503 11.1272 18.6929C10.8115 18.6381 10.4971 18.5361 10.2022 18.3915C9.92554 18.2502 9.6631 18.0608 9.43461 17.8354L9.37821 17.7771C9.32217 17.7193 9.29791 17.6947 9.27002 17.6702C9.12614 17.5333 9.06064 17.4704 8.98293 17.3938L6.11946 14.5717C6.09331 14.5482 6.07749 14.534 6.06656 14.5245C6.01482 14.4754 5.97249 14.4333 5.93248 14.3914C5.8498 14.3125 5.80451 14.2684 5.70059 14.166L3.45861 11.9528L3.24515 11.7424C3.20083 11.6988 3.16517 11.662 3.08345 11.5764C2.9056 11.4034 2.75637 11.2415 2.61678 11.0717L2.5731 11.0233C2.5367 10.9864 2.50648 10.9441 2.48351 10.8981C2.42795 10.7083 2.42816 10.5069 2.48414 10.3172C2.50579 10.273 2.53471 10.2325 2.56977 10.1975L2.61899 10.143C2.75629 9.97428 2.90398 9.81406 3.06124 9.66323C3.16517 9.5554 3.20083 9.51863 3.24515 9.47495C3.35788 9.36384 3.40825 9.31358 3.47112 9.24835L5.70059 7.05142L5.91725 6.83789C5.96037 6.79539 5.97887 6.77723 6.00231 6.75447L6.05003 6.7122C6.08473 6.68154 6.10398 6.66454 6.12307 6.64572L8.61499 4.18624L8.98293 3.82361C9.06064 3.74702 9.12614 3.6841 9.27002 3.54715C9.29791 3.52272 9.32217 3.49808 9.37635 3.44218L9.4343 3.38232C9.6631 3.15655 9.92554 2.9672 10.2127 2.82066C10.4971 2.68129 10.8115 2.57931 11.1359 2.52307C11.4817 2.46852 11.8422 2.4382 12.2034 2.43414C12.3616 2.42819 12.4756 2.42707 12.7368 2.42707C12.9238 2.4241 13.0658 2.42351 13.3831 2.42351H20.6375ZM13.7968 14.3761C13.7383 14.4326 13.6685 14.4787 13.5899 14.5107C13.3466 14.6097 13.0669 14.5544 12.8812 14.3706C12.6287 14.1207 12.6287 13.7166 12.8812 13.4667C12.918 13.4302 12.9586 13.3988 13.0018 13.3726L15.8063 10.6057L12.8813 7.72611L12.8903 7.71717C12.8329 7.65949 12.786 7.5906 12.7535 7.51296C12.653 7.27324 12.7092 6.9975 12.8956 6.81452C13.1492 6.56568 13.5592 6.56568 13.8128 6.81452C13.8501 6.85108 13.8821 6.89134 13.9088 6.93428L16.7219 9.70234L19.5606 6.90168C19.582 6.87114 19.6064 6.84201 19.6337 6.81471C19.8187 6.63162 20.0974 6.5765 20.3397 6.6751C20.5819 6.7737 20.74 7.00655 20.74 7.26489C20.74 7.43725 20.6696 7.59826 20.5509 7.71563L20.5581 7.7228L17.638 10.6038L20.4863 13.4064C20.5127 13.4253 20.5379 13.4463 20.5617 13.4695C20.7475 13.6518 20.8034 13.9265 20.7034 14.1652C20.6033 14.404 20.3671 14.5598 20.1049 14.5598C19.9303 14.5598 19.7672 14.4907 19.6481 14.374L19.641 14.381L16.7221 11.5074L13.8056 14.3848L13.7968 14.3761Z" fill="black"/>
<path d="M4.98869 5.74036L4.95386 5.70448H4.95386L4.98869 5.74036ZM5.07646 5.65694L5.10997 5.69411L5.11156 5.69255L5.07646 5.65694ZM4.89592 5.83132L4.93102 5.86693L4.93102 5.86693L4.89592 5.83132ZM2.43687 8.25485L2.40176 8.21922L2.40096 8.22005L2.43687 8.25485ZM2.22382 8.46837L2.25892 8.50398L2.22382 8.46837ZM2.03165 8.66534L2.0662 8.70157L2.06781 8.69988L2.03165 8.66534ZM1.5134 9.22648L1.54959 9.26119L1.55202 9.25823L1.5134 9.22648ZM1.13934 9.79519L1.09312 9.77575L1.0919 9.7794L1.13934 9.79519ZM1.11943 11.3689L1.07188 11.3846L1.07265 11.3866L1.11943 11.3689ZM1.14118 11.4265L1.09436 11.4442L1.09522 11.4462L1.14118 11.4265ZM1.51337 11.9907L1.55196 11.9587L1.54959 11.9562L1.51337 11.9907ZM2.05135 12.5719L2.08772 12.5375L2.08613 12.536L2.05135 12.5719ZM2.22382 12.749L2.25892 12.7134H2.25892L2.22382 12.749ZM2.43687 12.959L2.47199 12.9234L2.47197 12.9234L2.43687 12.959ZM4.67885 15.1721L4.64372 15.2077L4.64375 15.2078L4.67885 15.1721ZM4.89482 15.3818L4.93088 15.3471L4.92908 15.3454L4.89482 15.3818ZM5.09217 15.5755L5.05815 15.6121L5.05917 15.613L5.09217 15.5755ZM7.96161 18.4004L7.9967 18.3647L7.99669 18.3647L7.96161 18.4004ZM8.28118 18.708L8.31594 18.6721L8.31565 18.6718L8.28118 18.708ZM8.33191 18.7585L8.3679 18.7238L8.36781 18.7237L8.33191 18.7585ZM8.41297 18.8416L8.44809 18.8061L8.44807 18.806L8.41297 18.8416ZM9.54842 19.6608L9.52569 19.7053L9.5264 19.7057L9.54842 19.6608ZM10.8856 20.0963L10.8771 20.1456L10.8777 20.1457L10.8856 20.0963ZM12.1847 20.2102L12.1857 20.1602L12.1854 20.1602L12.1847 20.2102ZM12.4587 20.2138L12.4583 20.2638L12.4587 20.2138ZM12.7223 20.2173L12.7214 20.2673H12.7223L12.7223 20.2173ZM21.2369 20.2174V20.2674L21.2378 20.2674L21.2369 20.2174ZM21.5185 20.2138L21.519 20.2638L21.5185 20.2138ZM21.8 20.2101L21.7991 20.1601H21.799L21.8 20.2101ZM23.0983 20.0941L23.1063 20.1434L23.1065 20.1434L23.0983 20.0941ZM24.4457 19.6562L24.4233 19.6115L24.4233 19.6115L24.4457 19.6562ZM25.5982 18.8296L25.5631 18.7941L25.563 18.7941L25.5982 18.8296ZM26.4327 17.6992L26.477 17.7223L26.4773 17.7218L26.4327 17.6992ZM26.8742 16.3725L26.9234 16.381L26.9235 16.3808L26.8742 16.3725ZM26.9891 15.0825L26.9391 15.0803L26.9391 15.082L26.9891 15.0825ZM26.9971 14.7213L26.9471 14.7206V14.7206L26.9971 14.7213ZM26.9999 14.5444L27.0499 14.5454V14.5444L26.9999 14.5444ZM27 6.64066L27.05 6.64066L27.05 6.63976L27 6.64066ZM26.9971 6.45239L27.0471 6.45172V6.4517L26.9971 6.45239ZM26.9959 6.3614L27.0459 6.36071L27.0459 6.36065L26.9959 6.3614ZM26.9886 6.07484L26.9386 6.07542L26.9386 6.07686L26.9886 6.07484ZM26.879 4.82391L26.9284 4.81592L26.9283 4.81513L26.879 4.82391ZM26.4405 3.50506L26.4852 3.48253L26.4849 3.48201L26.4405 3.50506ZM25.6076 2.37566L25.5724 2.41113L25.5725 2.41128L25.6076 2.37566ZM24.4643 1.55439L24.4867 1.5097L24.4864 1.50955L24.4643 1.55439ZM23.1395 1.12123L23.1481 1.07197L23.1472 1.07183L23.1395 1.12123ZM21.8343 1.01073L21.8322 1.06071L21.8337 1.06073L21.8343 1.01073ZM21.2839 1.00356L21.283 1.05356H21.2839V1.00356ZM20.9637 1.00045L20.9639 0.950452L20.9637 1.00045ZM12.7248 1.00366L12.7247 1.05366L12.7256 1.05365L12.7248 1.00366ZM12.1663 1.01125L12.1668 1.06126L12.1683 1.06121L12.1663 1.01125ZM10.8965 1.11929L10.8887 1.0699L10.8879 1.07003L10.8965 1.11929ZM9.55884 1.55139L9.53682 1.50649L9.53612 1.50685L9.55884 1.55139ZM8.41266 2.37605L8.44776 2.41167L8.44778 2.41164L8.41266 2.37605ZM8.33353 2.45724L8.36943 2.49204L8.36953 2.49194L8.33353 2.45724ZM8.28118 2.50935L8.31566 2.54558L8.31631 2.54493L8.28118 2.50935ZM7.96161 2.81704L7.92651 2.78142L7.96161 2.81704ZM7.59329 3.18003L7.55819 3.14442L7.55817 3.14444L7.59329 3.18003ZM5.14365 5.59778L5.17476 5.63733L5.17877 5.63337L5.14365 5.59778ZM20.9577 2.42395L20.9579 2.37395L20.9577 2.42395ZM21.2718 2.42697L21.271 2.47697L21.2718 2.47697L21.2718 2.42697ZM21.7967 2.43362L21.7947 2.4836L21.796 2.48361L21.7967 2.43362ZM22.9001 2.525L22.9087 2.47574L22.9079 2.47561L22.9001 2.525ZM23.8131 2.82502L23.8355 2.78033L23.8352 2.78018L23.8131 2.82502ZM24.5844 3.38038L24.5492 3.41586L24.5493 3.416L24.5844 3.38038ZM25.1512 4.14659L25.1958 4.12406L25.1955 4.12353L25.1512 4.14659ZM25.4546 5.05933L25.504 5.05136L25.5038 5.05055L25.4546 5.05933ZM25.5448 6.11194L25.4948 6.11256L25.4949 6.11382L25.5448 6.11194ZM25.5516 6.38254L25.6016 6.38184L25.6016 6.38179L25.5516 6.38254ZM25.5529 6.4712L25.6029 6.47053V6.47051L25.5529 6.4712ZM25.5558 6.65489L25.6058 6.65489L25.6058 6.65388L25.5558 6.65489ZM25.5556 14.5305L25.6056 14.5316V14.5305L25.5556 14.5305ZM25.5529 14.7027L25.5029 14.702V14.702L25.5529 14.7027ZM25.5453 15.0471L25.4954 15.0451L25.4953 15.0465L25.5453 15.0471ZM25.4498 16.1366L25.4991 16.1451L25.4991 16.1449L25.4498 16.1366ZM25.1442 17.0559L25.1886 17.079L25.1888 17.0785L25.1442 17.0559ZM24.5745 17.8254L24.5394 17.7898L24.5393 17.7899L24.5745 17.8254ZM23.7914 18.3871L23.769 18.3423L23.769 18.3423L23.7914 18.3871ZM22.8606 18.69L22.8686 18.7393L22.8688 18.7393L22.8606 18.69ZM21.773 18.7869L21.7722 18.7369H21.7721L21.773 18.7869ZM21.5042 18.7904L21.5037 18.7404L21.5042 18.7904ZM21.2228 18.794V18.844L21.2237 18.844L21.2228 18.794ZM12.7368 18.7939L12.7357 18.8439H12.7368L12.7368 18.7939ZM12.4732 18.7904L12.4737 18.7404H12.4737L12.4732 18.7904ZM12.2096 18.7869L12.2106 18.7369L12.2103 18.7369L12.2096 18.7869ZM11.1272 18.6929L11.1187 18.7421L11.1193 18.7422L11.1272 18.6929ZM10.2022 18.3915L10.1795 18.4361L10.1802 18.4364L10.2022 18.3915ZM9.43461 17.8354L9.39868 17.8702L9.39949 17.871L9.43461 17.8354ZM9.37821 17.7771L9.41413 17.7424L9.41412 17.7423L9.37821 17.7771ZM9.27002 17.6702L9.23551 17.7065L9.23708 17.7079L9.27002 17.6702ZM8.98293 17.3938L9.01803 17.3582L8.98293 17.3938ZM6.11946 14.5717L6.15459 14.536L6.15284 14.5344L6.11946 14.5717ZM6.06656 14.5245L6.03213 14.5608L6.03366 14.5621L6.06656 14.5245ZM5.93248 14.3914L5.96868 14.3568L5.96701 14.3553L5.93248 14.3914ZM5.70059 14.166L5.66546 14.2016L5.66549 14.2016L5.70059 14.166ZM3.45861 11.9528L3.49373 11.9172L3.4937 11.9172L3.45861 11.9528ZM3.24515 11.7424L3.28025 11.7068V11.7068L3.24515 11.7424ZM3.08345 11.5764L3.11963 11.5419L3.11831 11.5406L3.08345 11.5764ZM2.61678 11.0717L2.65545 11.0399L2.65392 11.0382L2.61678 11.0717ZM2.5731 11.0233L2.61028 10.9897L2.60868 10.9881L2.5731 11.0233ZM2.48351 10.8981L2.43476 10.9124L2.43877 10.9204L2.48351 10.8981ZM2.48414 10.3172L2.43859 10.2949L2.43618 10.303L2.48414 10.3172ZM2.56977 10.1975L2.60515 10.2329L2.60688 10.231L2.56977 10.1975ZM2.61899 10.143L2.65615 10.1765L2.65777 10.1745L2.61899 10.143ZM3.06124 9.66323L3.09587 9.69934L3.09724 9.69793L3.06124 9.66323ZM3.24515 9.47495L3.21005 9.43933L3.21005 9.43933L3.24515 9.47495ZM3.47112 9.24835L3.43601 9.21273L3.43512 9.21365L3.47112 9.24835ZM5.70059 7.05142L5.73568 7.08703L5.73569 7.08703L5.70059 7.05142ZM5.91725 6.83789L5.88215 6.80228L5.88215 6.80228L5.91725 6.83789ZM6.00231 6.75447L5.96912 6.71701L5.96748 6.7186L6.00231 6.75447ZM6.05003 6.7122L6.01692 6.67473L6.01687 6.67478L6.05003 6.7122ZM6.12307 6.64572L6.15817 6.68133L6.15819 6.68131L6.12307 6.64572ZM8.61499 4.18624L8.57989 4.15063L8.57986 4.15065L8.61499 4.18624ZM8.98293 3.82361L9.01803 3.85922L8.98293 3.82361ZM9.27002 3.54715L9.23705 3.5095L9.23554 3.51093L9.27002 3.54715ZM9.37635 3.44218L9.41225 3.47698L9.41227 3.47696L9.37635 3.44218ZM9.4343 3.38232L9.39917 3.34672L9.39838 3.34754L9.4343 3.38232ZM10.2127 2.82066L10.1906 2.77575L10.1899 2.77612L10.2127 2.82066ZM11.1359 2.52307L11.1281 2.47367L11.1274 2.4738L11.1359 2.52307ZM12.2034 2.43414L12.2039 2.48416L12.2052 2.48411L12.2034 2.43414ZM12.7368 2.42707V2.47708L12.7376 2.47706L12.7368 2.42707ZM13.5899 14.5107L13.571 14.4644L13.5899 14.5107ZM13.7968 14.3761L13.8318 14.3404L13.7971 14.3063L13.762 14.3402L13.7968 14.3761ZM12.8812 14.3706L12.846 14.4061L12.8812 14.3706ZM12.8812 13.4667L12.846 13.4311L12.8812 13.4667ZM13.0018 13.3726L13.0284 13.4166L13.0369 13.4082L13.0018 13.3726ZM15.8063 10.6057L15.8414 10.6413L15.8775 10.6057L15.8413 10.5701L15.8063 10.6057ZM12.8813 7.72611L12.8461 7.69057L12.8101 7.7262L12.8462 7.76174L12.8813 7.72611ZM12.8903 7.71717L12.9255 7.75271L12.9612 7.71742L12.9258 7.68188L12.8903 7.71717ZM12.7535 7.51296L12.7074 7.53228L12.7535 7.51296ZM12.8956 6.81452L12.8606 6.77883L12.8956 6.81452ZM13.8128 6.81452L13.8478 6.77883L13.8128 6.81452ZM13.9088 6.93428L13.8651 6.9614L13.8737 6.96992L13.9088 6.93428ZM16.7219 9.70234L16.6869 9.73798L16.722 9.77253L16.757 9.73793L16.7219 9.70234ZM19.5606 6.90168L19.5963 6.93787L19.6016 6.93035L19.5606 6.90168ZM19.6337 6.81471L19.5985 6.77917L19.5984 6.77931L19.6337 6.81471ZM20.3397 6.6751L20.3585 6.62879L20.3397 6.6751ZM20.5509 7.71563L20.5157 7.68006L20.4797 7.7156L20.5157 7.75117L20.5509 7.71563ZM20.5581 7.7228L20.5932 7.75839L20.6292 7.72285L20.5933 7.68726L20.5581 7.7228ZM17.638 10.6038L17.6029 10.5682L17.5668 10.6038L17.603 10.6394L17.638 10.6038ZM20.4863 13.4064L20.4508 13.4425L20.4572 13.4471L20.4863 13.4064ZM20.5617 13.4695L20.5967 13.4338L20.5966 13.4337L20.5617 13.4695ZM20.7034 14.1652L20.6572 14.1459L20.7034 14.1652ZM19.6481 14.374L19.6832 14.3383L19.6481 14.3038L19.613 14.3383L19.6481 14.374ZM19.641 14.381L19.6059 14.4167L19.641 14.4512L19.6761 14.4166L19.641 14.381ZM16.7221 11.5074L16.7572 11.4718L16.7221 11.4372L16.687 11.4718L16.7221 11.5074ZM13.8056 14.3848L13.7706 14.4205L13.8057 14.455L13.8408 14.4204L13.8056 14.3848ZM5.02352 5.77623C5.06062 5.74021 5.0936 5.70881 5.10994 5.69408L5.04299 5.6198C5.0251 5.63593 4.99089 5.66854 4.95386 5.70448L5.02352 5.77623ZM4.93102 5.86693C4.97544 5.82315 4.9968 5.80218 5.02352 5.77623L4.95386 5.70448C4.92686 5.7307 4.90528 5.75189 4.86082 5.79571L4.93102 5.86693ZM2.47197 8.29046L4.93102 5.86693L4.86082 5.79571L2.40177 8.21923L2.47197 8.29046ZM2.25892 8.50398C2.36292 8.40148 2.40798 8.35652 2.47278 8.28964L2.40096 8.22005C2.33697 8.2861 2.29257 8.33042 2.18873 8.43276L2.25892 8.50398ZM2.06781 8.69988C2.15934 8.60403 2.20149 8.56058 2.25892 8.50398L2.18873 8.43276C2.13018 8.49046 2.08718 8.5348 1.99549 8.63081L2.06781 8.69988ZM1.55202 9.25823C1.71916 9.05493 1.89741 8.86248 2.06616 8.70153L1.99714 8.62916C1.82523 8.79313 1.64426 8.98857 1.47477 9.19473L1.55202 9.25823ZM1.18543 9.81458C1.2716 9.60972 1.395 9.42216 1.54948 9.26109L1.47731 9.19187C1.3144 9.36173 1.1842 9.5596 1.09325 9.77581L1.18543 9.81458ZM1.16693 11.3533C1.00803 10.8698 1.00768 10.3488 1.18678 9.81099L1.0919 9.7794C0.906351 10.3365 0.906 10.8797 1.07192 11.3846L1.16693 11.3533ZM1.18795 11.4089L1.1662 11.3513L1.07265 11.3866L1.09441 11.4442L1.18795 11.4089ZM1.54959 11.9562C1.39679 11.7957 1.27406 11.6097 1.18714 11.4068L1.09522 11.4462C1.18685 11.6601 1.3162 11.856 1.47715 12.0251L1.54959 11.9562ZM2.08613 12.536C1.89751 12.3533 1.71916 12.1606 1.55187 11.9588L1.47488 12.0226C1.6445 12.2272 1.82533 12.4226 2.01656 12.6078L2.08613 12.536ZM2.25892 12.7134C2.2015 12.6568 2.15936 12.6134 2.08769 12.5375L2.01501 12.6062C2.08717 12.6826 2.13018 12.7269 2.18873 12.7846L2.25892 12.7134ZM2.47197 12.9234L2.25892 12.7134L2.18873 12.7846L2.40177 12.9946L2.47197 12.9234ZM4.71398 15.1366L2.47199 12.9234L2.40174 12.9946L4.64372 15.2077L4.71398 15.1366ZM4.92908 15.3454C4.86989 15.2897 4.81877 15.2398 4.71395 15.1365L4.64375 15.2078C4.74862 15.3111 4.80046 15.3617 4.86056 15.4182L4.92908 15.3454ZM5.12617 15.5388C5.05984 15.4773 4.99375 15.4124 4.93083 15.3471L4.85881 15.4165C4.92303 15.4831 4.99045 15.5493 5.05816 15.6121L5.12617 15.5388ZM7.96161 18.4004C7.99669 18.3647 7.99668 18.3647 7.99666 18.3647C7.99664 18.3647 7.9966 18.3646 7.99656 18.3646C7.99647 18.3645 7.99634 18.3644 7.99617 18.3642C7.99582 18.3639 7.99531 18.3634 7.99462 18.3627C7.99325 18.3613 7.9912 18.3593 7.98849 18.3567C7.98309 18.3513 7.97506 18.3434 7.9646 18.3331C7.94367 18.3125 7.91296 18.2823 7.87389 18.2438C7.79573 18.1668 7.68406 18.0568 7.55003 17.9248C7.28195 17.6608 6.92439 17.3087 6.56646 16.9562C5.85194 16.2526 5.13258 15.5444 5.12516 15.5379L5.05917 15.613C5.05853 15.6125 5.06859 15.6223 5.09134 15.6446C5.11291 15.6658 5.14421 15.6965 5.18385 15.7355C5.26312 15.8135 5.37571 15.9243 5.5105 16.0569C5.78007 16.3223 6.13837 16.675 6.4963 17.0275C6.85423 17.3799 7.21178 17.7321 7.47986 17.9961C7.61389 18.1281 7.72556 18.2381 7.80372 18.315C7.84279 18.3535 7.87349 18.3838 7.89443 18.4044C7.90489 18.4147 7.91292 18.4226 7.91832 18.4279C7.92103 18.4306 7.92307 18.4326 7.92445 18.4339C7.92514 18.4346 7.92565 18.4351 7.926 18.4355C7.92617 18.4356 7.9263 18.4358 7.92639 18.4359C7.92643 18.4359 7.92647 18.4359 7.92649 18.4359C7.92651 18.436 7.92652 18.436 7.96161 18.4004ZM8.31565 18.6718C8.15555 18.5195 8.08462 18.4514 7.9967 18.3647L7.92651 18.436C8.01509 18.5233 8.08655 18.5919 8.24671 18.7443L8.31565 18.6718ZM8.36781 18.7237C8.35945 18.7151 8.33326 18.6889 8.31594 18.6721L8.24643 18.744C8.26309 18.7601 8.28851 18.7855 8.296 18.7933L8.36781 18.7237ZM8.44807 18.806C8.4327 18.7909 8.40932 18.7667 8.3679 18.7238L8.29591 18.7932C8.33693 18.8357 8.36137 18.861 8.37788 18.8773L8.44807 18.806ZM9.57115 19.6163C9.15657 19.4047 8.77766 19.1313 8.44809 18.8061L8.37785 18.8772C8.71475 19.2097 9.10203 19.4891 9.52569 19.7053L9.57115 19.6163ZM10.8942 20.047C10.438 19.9679 9.99565 19.8245 9.57044 19.6159L9.5264 19.7057C9.96005 19.9184 10.4114 20.0648 10.8771 20.1456L10.8942 20.047ZM12.1854 20.1602C11.7555 20.1541 11.3266 20.1167 10.8936 20.0469L10.8777 20.1457C11.3155 20.2162 11.7492 20.254 12.184 20.2602L12.1854 20.1602ZM12.4592 20.1638C12.3214 20.1624 12.2599 20.1617 12.1857 20.1602L12.1837 20.2602C12.2584 20.2617 12.3204 20.2624 12.4583 20.2638L12.4592 20.1638ZM12.7233 20.1673C12.651 20.1658 12.5923 20.1651 12.4592 20.1638L12.4583 20.2638C12.5912 20.2651 12.6496 20.2658 12.7214 20.2672L12.7233 20.1673ZM21.2369 20.1674L12.7223 20.1673L12.7223 20.2673L21.2369 20.2674V20.1674ZM21.518 20.1638C21.3835 20.1651 21.324 20.1658 21.2361 20.1674L21.2378 20.2674C21.3254 20.2658 21.3846 20.2651 21.519 20.2638L21.518 20.1638ZM21.799 20.1601C21.7194 20.1617 21.6571 20.1624 21.518 20.1638L21.519 20.2638C21.6581 20.2624 21.7208 20.2617 21.8009 20.2601L21.799 20.1601ZM23.0903 20.0447C22.6628 20.114 22.2308 20.1526 21.7991 20.1601L21.8008 20.2601C22.2374 20.2525 22.6741 20.2135 23.1063 20.1434L23.0903 20.0447ZM24.4233 19.6115C24.0047 19.8211 23.5563 19.967 23.0901 20.0448L23.1065 20.1434C23.5825 20.064 24.0405 19.915 24.468 19.7009L24.4233 19.6115ZM25.563 18.7941C25.2296 19.1245 24.8448 19.4005 24.4233 19.6115L24.468 19.7009C24.899 19.4852 25.2924 19.203 25.6334 18.8651L25.563 18.7941ZM26.3884 17.6761C26.1733 18.0886 25.8948 18.4658 25.5631 18.7941L25.6334 18.8652C25.9725 18.5297 26.2572 18.144 26.477 17.7223L26.3884 17.6761ZM26.8249 16.364C26.7464 16.8177 26.6005 17.2575 26.3881 17.6766L26.4773 17.7218C26.6942 17.294 26.8433 16.8446 26.9234 16.381L26.8249 16.364ZM26.9391 15.082C26.9345 15.5105 26.8965 15.9381 26.8249 16.3642L26.9235 16.3808C26.996 15.9496 27.0345 15.5168 27.0391 15.083L26.9391 15.082ZM26.9471 14.7206C26.9446 14.9083 26.943 14.9924 26.9392 15.0803L27.0391 15.0846C27.0429 14.9951 27.0446 14.9096 27.0471 14.7219L26.9471 14.7206ZM26.9499 14.5434C26.9489 14.592 26.9483 14.6314 26.9471 14.7206L27.0471 14.7219C27.0483 14.6327 27.0489 14.5936 27.0499 14.5454L26.9499 14.5434ZM26.95 6.64066L26.9499 14.5444L27.0499 14.5444L27.05 6.64066L26.95 6.64066ZM26.9471 6.45306C26.9483 6.54068 26.9489 6.57987 26.95 6.64156L27.05 6.63976C27.0489 6.57828 27.0483 6.53926 27.0471 6.45172L26.9471 6.45306ZM26.9459 6.3621L26.9471 6.45309L27.0471 6.4517L27.0459 6.36071L26.9459 6.3621ZM26.9386 6.07686C26.9421 6.16201 26.9441 6.24764 26.9459 6.36216L27.0459 6.36065C27.0441 6.24569 27.0421 6.15914 27.0385 6.07281L26.9386 6.07686ZM26.8297 4.8319C26.8973 5.24989 26.9339 5.67211 26.9386 6.07542L27.0386 6.07425C27.0338 5.66584 26.9968 5.23867 26.9284 4.81592L26.8297 4.8319ZM26.3959 3.52759C26.6022 3.93617 26.7477 4.37193 26.8298 4.83268L26.9283 4.81513C26.8444 4.34489 26.6958 3.89986 26.4852 3.48253L26.3959 3.52759ZM25.5725 2.41128C25.9028 2.73668 26.1794 3.111 26.3962 3.52811L26.4849 3.48201C26.2634 3.05564 25.9805 2.67283 25.6427 2.34004L25.5725 2.41128ZM24.4418 1.59907C24.8609 1.80941 25.2432 2.08423 25.5724 2.41113L25.6428 2.34018C25.3061 2.00577 24.9151 1.72475 24.4867 1.5097L24.4418 1.59907ZM23.1309 1.17048C23.5851 1.24977 24.0253 1.39346 24.4421 1.59922L24.4864 1.50955C24.0611 1.29958 23.6117 1.15291 23.1481 1.07197L23.1309 1.17048ZM21.8337 1.06073C22.2642 1.06587 22.6939 1.1019 23.1317 1.17062L23.1472 1.07183C22.7047 1.00238 22.2703 0.965935 21.8349 0.960732L21.8337 1.06073ZM21.2839 1.05356C21.5643 1.05356 21.6902 1.05481 21.8322 1.06069L21.8363 0.960771C21.692 0.954804 21.5644 0.953559 21.2839 0.953559V1.05356ZM20.9635 1.05045C21.0842 1.05095 21.1914 1.05195 21.283 1.05355L21.2848 0.953566C21.1925 0.951953 21.0849 0.950952 20.9639 0.950452L20.9635 1.05045ZM20.6375 1.05C20.8006 1.05 20.8727 1.05007 20.9635 1.05045L20.9639 0.950452C20.8729 0.950075 20.8006 0.95 20.6375 0.95V1.05ZM13.3831 1.05H20.6375V0.95H13.3831V1.05ZM12.7256 1.05365C12.9108 1.05061 13.0578 1.05 13.3831 1.05V0.95C13.0577 0.95 12.9101 0.950607 12.7239 0.953664L12.7256 1.05365ZM12.1683 1.06121C12.3305 1.05481 12.4565 1.05356 12.7247 1.05366L12.7248 0.953658C12.4562 0.953559 12.3286 0.954807 12.1643 0.961284L12.1683 1.06121ZM10.9043 1.16868C11.3288 1.10162 11.7577 1.06555 12.1668 1.06124L12.1658 0.961248C11.7516 0.965604 11.3179 1.00211 10.8887 1.0699L10.9043 1.16868ZM9.58085 1.59628C9.99554 1.39294 10.4378 1.24948 10.905 1.16856L10.8879 1.07003C10.4116 1.15254 9.96016 1.29892 9.53683 1.5065L9.58085 1.59628ZM8.44778 2.41164C8.77762 2.08618 9.15652 1.81277 9.58156 1.59593L9.53612 1.50685C9.10209 1.72828 8.71479 2.00768 8.37754 2.34046L8.44778 2.41164ZM8.36953 2.49194C8.40932 2.45066 8.4327 2.42651 8.44776 2.41167L8.37757 2.34044C8.36137 2.3564 8.33693 2.38166 8.29753 2.42255L8.36953 2.49194ZM8.28118 2.50935C8.31631 2.54493 8.31631 2.54493 8.31631 2.54493C8.31631 2.54493 8.31631 2.54493 8.31631 2.54493C8.31631 2.54492 8.31632 2.54492 8.31632 2.54492C8.31632 2.54491 8.31633 2.54491 8.31634 2.5449C8.31636 2.54488 8.3164 2.54484 8.31644 2.5448C8.31652 2.54472 8.31664 2.5446 8.3168 2.54445C8.31712 2.54413 8.31758 2.54367 8.31818 2.54308C8.31937 2.5419 8.32109 2.54021 8.32318 2.53814C8.32735 2.53402 8.33301 2.52841 8.33898 2.52249C8.3507 2.51087 8.36423 2.49741 8.36943 2.49204L8.29762 2.42245C8.29328 2.42692 8.28064 2.43952 8.26857 2.45149C8.26264 2.45736 8.25701 2.46293 8.25286 2.46704C8.25079 2.46909 8.24908 2.47077 8.2479 2.47194C8.24731 2.47253 8.24684 2.47299 8.24653 2.4733C8.24637 2.47345 8.24625 2.47357 8.24617 2.47365C8.24613 2.47369 8.2461 2.47372 8.24608 2.47374C8.24607 2.47375 8.24607 2.47375 8.24606 2.47376C8.24606 2.47376 8.24606 2.47376 8.24606 2.47376C8.24606 2.47377 8.24605 2.47377 8.24605 2.47377C8.24605 2.47377 8.24605 2.47377 8.28118 2.50935ZM7.9967 2.85265C8.08462 2.766 8.15555 2.69792 8.31565 2.54557L8.24672 2.47313C8.08655 2.62553 8.01509 2.69412 7.92651 2.78142L7.9967 2.85265ZM7.62839 3.21564L7.9967 2.85265L7.92651 2.78142L7.55819 3.14442L7.62839 3.21564ZM5.17877 5.63337L7.62841 3.21562L7.55817 3.14444L5.10853 5.56219L5.17877 5.63337ZM5.11156 5.69255C5.13287 5.67155 5.15441 5.65293 5.17457 5.63708L5.11274 5.55848C5.08996 5.5764 5.06558 5.59747 5.04137 5.62133L5.11156 5.69255ZM20.9579 2.37395C20.8695 2.37358 20.7986 2.37351 20.6375 2.37351V2.47351C20.7985 2.47351 20.8693 2.47358 20.9575 2.47395L20.9579 2.37395ZM21.2727 2.37698C21.175 2.37537 21.0732 2.37443 20.9579 2.37395L20.9575 2.47395C21.0725 2.47443 21.1739 2.47537 21.271 2.47696L21.2727 2.37698ZM21.7986 2.38366C21.6599 2.37819 21.5451 2.37707 21.2719 2.37697L21.2718 2.47697C21.545 2.47707 21.6581 2.4782 21.7947 2.48358L21.7986 2.38366ZM22.9079 2.47561C22.547 2.41906 22.1826 2.3885 21.7973 2.38362L21.796 2.48361C22.1767 2.48844 22.5364 2.51862 22.8924 2.5744L22.9079 2.47561ZM23.8352 2.78018C23.5389 2.63392 23.2226 2.53066 22.9087 2.47575L22.8915 2.57426C23.1959 2.62749 23.5031 2.72774 23.791 2.86985L23.8352 2.78018ZM24.6196 3.34491C24.3891 3.11591 24.1229 2.9246 23.8355 2.78033L23.7907 2.86971C24.0686 3.00921 24.3261 3.19429 24.5492 3.41586L24.6196 3.34491ZM25.1955 4.12353C25.0464 3.83665 24.8528 3.57458 24.6195 3.34477L24.5493 3.416C24.7752 3.63853 24.9626 3.89214 25.1068 4.16964L25.1955 4.12353ZM25.5038 5.05055C25.4459 4.72615 25.3409 4.41161 25.1958 4.12406L25.1065 4.16911C25.2472 4.44791 25.3492 4.75318 25.4054 5.06812L25.5038 5.05055ZM25.5948 6.11133C25.5904 5.75255 25.5594 5.39453 25.504 5.05136L25.4052 5.06731C25.4599 5.40554 25.4905 5.75864 25.4948 6.11256L25.5948 6.11133ZM25.6016 6.38179C25.6001 6.27768 25.5983 6.20189 25.5948 6.11007L25.4949 6.11382C25.4983 6.20472 25.5001 6.27973 25.5016 6.3833L25.6016 6.38179ZM25.6029 6.47051L25.6016 6.38184L25.5016 6.38324L25.5029 6.4719L25.6029 6.47051ZM25.6058 6.65388C25.6047 6.60242 25.6041 6.5613 25.6029 6.47053L25.5029 6.47187C25.5041 6.56268 25.5047 6.60409 25.5058 6.65591L25.6058 6.65388ZM25.6056 14.5305L25.6058 6.65489L25.5058 6.65489L25.5056 14.5305L25.6056 14.5305ZM25.6029 14.7033C25.6041 14.611 25.6047 14.5699 25.6056 14.5316L25.5056 14.5293C25.5047 14.5681 25.5041 14.6098 25.5029 14.702L25.6029 14.7033ZM25.5953 15.0491C25.599 14.9558 25.6005 14.8787 25.6029 14.7033L25.5029 14.702C25.5006 14.8773 25.499 14.9532 25.4954 15.0451L25.5953 15.0491ZM25.4991 16.1449C25.559 15.7888 25.591 15.4288 25.5953 15.0476L25.4953 15.0465C25.491 15.4226 25.4595 15.7775 25.4005 16.1283L25.4991 16.1449ZM25.1888 17.0785C25.3386 16.7831 25.4433 16.4675 25.4991 16.1451L25.4005 16.128C25.3465 16.4405 25.2449 16.7467 25.0996 17.0333L25.1888 17.0785ZM24.6097 17.8609C24.844 17.6291 25.0405 17.363 25.1886 17.079L25.0999 17.0328C24.9567 17.3074 24.7664 17.5652 24.5394 17.7898L24.6097 17.8609ZM23.8138 18.4318C24.108 18.2845 24.3766 18.0919 24.6097 17.8609L24.5393 17.7899C24.3138 18.0134 24.0539 18.1998 23.769 18.3423L23.8138 18.4318ZM22.8688 18.7393C23.1977 18.6845 23.5163 18.5808 23.8138 18.4318L23.769 18.3423C23.4804 18.4869 23.1714 18.5875 22.8523 18.6407L22.8688 18.7393ZM21.7739 18.8369C22.1418 18.8305 22.5087 18.7977 22.8686 18.7393L22.8525 18.6406C22.4974 18.6982 22.1353 18.7306 21.7722 18.7369L21.7739 18.8369ZM21.5047 18.8404C21.6392 18.839 21.6987 18.8383 21.774 18.8369L21.7721 18.7369C21.6973 18.7383 21.6381 18.739 21.5037 18.7404L21.5047 18.8404ZM21.2237 18.844C21.3033 18.8425 21.3656 18.8417 21.5047 18.8404L21.5037 18.7404C21.3646 18.7417 21.3019 18.7425 21.2218 18.744L21.2237 18.844ZM12.7368 18.8439L21.2228 18.844V18.744L12.7368 18.7439L12.7368 18.8439ZM12.4727 18.8404C12.6105 18.8417 12.672 18.8425 12.7357 18.8439L12.7379 18.7439C12.6735 18.7425 12.6115 18.7417 12.4737 18.7404L12.4727 18.8404ZM12.2086 18.8369C12.2809 18.8383 12.3397 18.839 12.4727 18.8404L12.4737 18.7404C12.3407 18.7391 12.2823 18.7383 12.2106 18.7369L12.2086 18.8369ZM11.1193 18.7422C11.4783 18.8001 11.8411 18.8317 12.2089 18.8369L12.2103 18.7369C11.8474 18.7317 11.4894 18.7005 11.1352 18.6435L11.1193 18.7422ZM10.1802 18.4364C10.4793 18.5831 10.7983 18.6865 11.1187 18.7421L11.1358 18.6436C10.8248 18.5896 10.5149 18.4891 10.2242 18.3466L10.1802 18.4364ZM9.39949 17.871C9.63158 18.1 9.89818 18.2924 10.1795 18.436L10.225 18.347C9.9529 18.208 9.69463 18.0217 9.46973 17.7998L9.39949 17.871ZM9.34229 17.8119L9.39869 17.8702L9.47053 17.8006L9.41413 17.7424L9.34229 17.8119ZM9.23708 17.7079C9.26314 17.7307 9.28593 17.7538 9.34231 17.8119L9.41412 17.7423C9.35841 17.6849 9.33268 17.6587 9.30295 17.6326L9.23708 17.7079ZM8.94784 17.4294C9.02587 17.5063 9.09163 17.5695 9.23554 17.7065L9.30449 17.634C9.16064 17.4971 9.09541 17.4344 9.01803 17.3582L8.94784 17.4294ZM6.08436 14.6073L8.94784 17.4294L9.01803 17.3582L6.15456 14.5361L6.08436 14.6073ZM6.03366 14.5621C6.04428 14.5714 6.0598 14.5853 6.08608 14.6089L6.15284 14.5344C6.12682 14.5111 6.11069 14.4967 6.09946 14.4868L6.03366 14.5621ZM5.89632 14.4259C5.93698 14.4685 5.9799 14.5112 6.03216 14.5608L6.10096 14.4882C6.04974 14.4396 6.00801 14.3981 5.96864 14.3569L5.89632 14.4259ZM5.66549 14.2016C5.76954 14.3041 5.81503 14.3484 5.89795 14.4276L5.96701 14.3553C5.88458 14.2765 5.83948 14.2327 5.73569 14.1304L5.66549 14.2016ZM3.42348 11.9884L5.66546 14.2016L5.73571 14.1304L3.49373 11.9172L3.42348 11.9884ZM3.21005 11.7781L3.42351 11.9884L3.4937 11.9172L3.28025 11.7068L3.21005 11.7781ZM3.04729 11.611C3.12904 11.6966 3.16515 11.7338 3.21005 11.7781L3.28025 11.7068C3.2365 11.6637 3.20129 11.6274 3.11961 11.5419L3.04729 11.611ZM2.57816 11.1035C2.71901 11.2748 2.86951 11.4381 3.04858 11.6123L3.11831 11.5406C2.94168 11.3688 2.79372 11.2082 2.65541 11.04L2.57816 11.1035ZM2.53597 11.0567L2.57965 11.1052L2.65392 11.0382L2.61024 10.9898L2.53597 11.0567ZM2.43877 10.9204C2.4641 10.9712 2.49742 11.0178 2.53753 11.0584L2.60868 10.9881C2.57598 10.955 2.54886 10.9171 2.52826 10.8758L2.43877 10.9204ZM2.43618 10.303C2.37748 10.5019 2.37727 10.7132 2.43553 10.9121L2.5315 10.884C2.47863 10.7035 2.47883 10.5118 2.53209 10.3313L2.43618 10.303ZM2.53443 10.1621C2.49548 10.201 2.46332 10.246 2.43923 10.2952L2.52904 10.3392C2.54826 10.2999 2.57394 10.264 2.60511 10.2329L2.53443 10.1621ZM2.58188 10.1095L2.53266 10.164L2.60688 10.231L2.6561 10.1765L2.58188 10.1095ZM3.02662 9.62714C2.86789 9.77939 2.71881 9.94112 2.58021 10.1114L2.65777 10.1745C2.79377 10.0074 2.94007 9.84873 3.09585 9.69931L3.02662 9.62714ZM3.21005 9.43933C3.16519 9.48355 3.12907 9.5208 3.02523 9.62853L3.09724 9.69793C3.20126 9.59 3.23647 9.55371 3.28025 9.51056L3.21005 9.43933ZM3.43512 9.21365C3.37272 9.27839 3.32274 9.32828 3.21005 9.43933L3.28025 9.51056C3.39303 9.39941 3.44377 9.34877 3.50712 9.28305L3.43512 9.21365ZM5.66549 7.01581L3.43602 9.21274L3.50621 9.28397L5.73568 7.08703L5.66549 7.01581ZM5.88215 6.80228L5.66549 7.01581L5.73569 7.08703L5.95234 6.8735L5.88215 6.80228ZM5.96748 6.7186C5.9439 6.74149 5.92529 6.75977 5.88215 6.80228L5.95234 6.87351C5.99546 6.83101 6.01385 6.81296 6.03714 6.79035L5.96748 6.7186ZM6.01687 6.67478L5.96916 6.71705L6.03547 6.7919L6.08318 6.74963L6.01687 6.67478ZM6.08797 6.61011C6.07005 6.62777 6.05194 6.64379 6.01692 6.67473L6.08313 6.74967C6.11753 6.71929 6.1379 6.70131 6.15817 6.68133L6.08797 6.61011ZM8.57986 4.15065L6.08795 6.61013L6.15819 6.68131L8.65011 4.22183L8.57986 4.15065ZM8.94784 3.788L8.57989 4.15063L8.65008 4.22185L9.01803 3.85922L8.94784 3.788ZM9.23554 3.51093C9.09163 3.64791 9.02587 3.71109 8.94784 3.788L9.01803 3.85922C9.09541 3.78296 9.16064 3.72028 9.30449 3.58336L9.23554 3.51093ZM9.34044 3.40738C9.28595 3.46361 9.26315 3.4867 9.23708 3.50953L9.30295 3.58477C9.33267 3.55875 9.35839 3.53256 9.41225 3.47698L9.34044 3.40738ZM9.39838 3.34754L9.34042 3.40741L9.41227 3.47696L9.47022 3.4171L9.39838 3.34754ZM10.1899 2.77612C9.89826 2.92499 9.63164 3.11735 9.39918 3.34673L9.46942 3.41791C9.69456 3.19575 9.95282 3.00942 10.2354 2.86519L10.1899 2.77612ZM11.1274 2.4738C10.7984 2.53084 10.4794 2.63426 10.1907 2.77576L10.2347 2.86556C10.5148 2.72831 10.8247 2.62778 11.1444 2.57233L11.1274 2.4738ZM12.2028 2.38414C11.8392 2.38823 11.4764 2.41875 11.1281 2.47368L11.1437 2.57246C11.4871 2.51829 11.8451 2.48817 12.2039 2.48414L12.2028 2.38414ZM12.7368 2.37707C12.4754 2.37707 12.3607 2.37819 12.2015 2.38418L12.2052 2.48411C12.3626 2.47819 12.4757 2.47707 12.7368 2.47707V2.37707ZM13.3831 2.37351C13.0657 2.37351 12.9234 2.3741 12.736 2.37708L12.7376 2.47706C12.9242 2.4741 13.0658 2.47351 13.3831 2.47351V2.37351ZM20.6375 2.37351H13.3831V2.47351H20.6375V2.37351ZM13.6087 14.557C13.6933 14.5226 13.7685 14.4729 13.8315 14.4121L13.762 14.3402C13.7081 14.3923 13.6437 14.4348 13.571 14.4644L13.6087 14.557ZM12.846 14.4061C13.046 14.6041 13.3471 14.6635 13.6087 14.557L13.571 14.4644C13.3462 14.5559 13.0877 14.5047 12.9164 14.3351L12.846 14.4061ZM12.846 13.4311C12.5738 13.7006 12.5738 14.1366 12.846 14.4061L12.9164 14.3351C12.6837 14.1047 12.6837 13.7326 12.9164 13.5022L12.846 13.4311ZM12.9759 13.3298C12.9294 13.358 12.8857 13.3918 12.846 13.4311L12.9164 13.5022C12.9504 13.4685 12.9878 13.4395 13.0277 13.4154L12.9759 13.3298ZM15.7711 10.5702L12.9667 13.337L13.0369 13.4082L15.8414 10.6413L15.7711 10.5702ZM12.8462 7.76174L15.7712 10.6414L15.8413 10.5701L12.9164 7.69048L12.8462 7.76174ZM12.8552 7.68163L12.8461 7.69057L12.9165 7.76165L12.9255 7.75271L12.8552 7.68163ZM12.9258 7.68188C12.8728 7.62869 12.8296 7.56518 12.7996 7.49364L12.7074 7.53228C12.7424 7.61601 12.793 7.6903 12.8549 7.75246L12.9258 7.68188ZM12.7996 7.49364C12.7071 7.27293 12.7587 7.01895 12.9307 6.85021L12.8606 6.77883C12.6596 6.97605 12.599 7.27356 12.7074 7.53228L12.7996 7.49364ZM12.9307 6.85021C13.1648 6.62045 13.5437 6.62045 13.7778 6.85021L13.8478 6.77883C13.5748 6.51091 13.1337 6.51091 12.8606 6.77883L12.9307 6.85021ZM13.7778 6.85021C13.8122 6.88395 13.8417 6.92107 13.8663 6.96064L13.9513 6.90792C13.9225 6.8616 13.888 6.81821 13.8478 6.77883L13.7778 6.85021ZM16.757 9.6667L13.9439 6.89864L13.8737 6.96992L16.6869 9.73798L16.757 9.6667ZM19.5255 6.86609L16.6868 9.66675L16.757 9.73793L19.5957 6.93728L19.5255 6.86609ZM19.5984 6.77931C19.569 6.80869 19.5427 6.84007 19.5196 6.87301L19.6016 6.93035C19.6213 6.90221 19.6438 6.87533 19.669 6.8501L19.5984 6.77931ZM20.3585 6.62879C20.0978 6.5227 19.7978 6.58191 19.5985 6.77917L19.6689 6.85024C19.8395 6.68133 20.0969 6.63031 20.3208 6.72141L20.3585 6.62879ZM20.79 7.26489C20.79 6.98588 20.6193 6.73492 20.3585 6.62879L20.3208 6.72141C20.5446 6.81247 20.69 7.02722 20.69 7.26489H20.79ZM20.586 7.7512C20.714 7.62472 20.79 7.45101 20.79 7.26489H20.69C20.69 7.42349 20.6253 7.57181 20.5157 7.68006L20.586 7.7512ZM20.5933 7.68726L20.586 7.68009L20.5157 7.75117L20.5229 7.75834L20.5933 7.68726ZM17.6731 10.6394L20.5932 7.75839L20.523 7.68721L17.6029 10.5682L17.6731 10.6394ZM20.5214 13.3708L17.6731 10.5681L17.603 10.6394L20.4513 13.4421L20.5214 13.3708ZM20.5966 13.4337C20.5709 13.4087 20.5438 13.3861 20.5154 13.3658L20.4572 13.4471C20.4815 13.4645 20.5048 13.4839 20.5268 13.5053L20.5966 13.4337ZM20.7495 14.1846C20.8575 13.9268 20.797 13.6303 20.5967 13.4338L20.5267 13.5052C20.698 13.6732 20.7493 13.9261 20.6572 14.1459L20.7495 14.1846ZM20.1049 14.6098C20.3869 14.6098 20.6415 14.4422 20.7495 14.1846L20.6572 14.1459C20.5651 14.3658 20.3472 14.5098 20.1049 14.5098V14.6098ZM19.6131 14.4097C19.7414 14.5354 19.9171 14.6098 20.1049 14.6098V14.5098C19.9436 14.5098 19.793 14.4459 19.6832 14.3383L19.6131 14.4097ZM19.6761 14.4166L19.6832 14.4096L19.613 14.3383L19.6059 14.3454L19.6761 14.4166ZM16.687 11.543L19.6059 14.4167L19.6761 14.3454L16.7572 11.4718L16.687 11.543ZM13.8408 14.4204L16.7572 11.543L16.687 11.4718L13.7705 14.3492L13.8408 14.4204ZM13.7617 14.4118L13.7706 14.4205L13.8407 14.3491L13.8318 14.3404L13.7617 14.4118Z" fill="black"/>
</svg>
