<svg xmlns="http://www.w3.org/2000/svg" width="30" height="30" fill="none" xmlns:v="https://vecta.io/nano"><path d="M0 0h30v30H0z"/><g fill-rule="evenodd" fill="#000"><path d="M14.651 5.064a.6.6 0 0 1 .538 0l10.91 5.47a.6.6 0 0 1-.269 1.136H4a.6.6 0 0 1-.269-1.136l10.92-5.47zM6.537 10.47h16.757L14.92 6.271 6.537 10.47z"/><use href="#B"/><use href="#B" x="4.45"/><use href="#B" x="8.91"/><use href="#B" x="13.36"/><path d="M4 23.3h21.83v1.22H4V23.3zm19.83-1.39H6v-1.22h17.83v1.22z"/></g><defs ><path id="B" d="M7.53 19.43v-6.49h1.2v6.49h-1.2z"/></defs></svg>