<svg width="24" height="24" viewBox="0 0 24 24" fill="none" xmlns="http://www.w3.org/2000/svg">
<g id="icons / notification">
<path id="notification" fill-rule="evenodd" clip-rule="evenodd" d="M20.1725 17.6018C20.3264 17.7654 20.4612 17.9098 20.4612 18.1696C20.4612 18.1882 20.4612 18.2063 20.4612 18.2239C20.4617 18.9299 20.4617 18.9302 19.7105 18.9395H12.2615C9.74958 18.9395 7.22807 18.9395 4.71619 18.9299C4.67567 18.9299 4.63278 18.9314 4.58914 18.9329C4.38397 18.94 4.16204 18.9477 4.09062 18.8048C3.93664 18.4872 3.97513 18.0349 4.23498 17.7173C4.66194 17.1995 5.15749 16.7503 5.6488 16.3049C5.678 16.2785 5.70718 16.252 5.73634 16.2256C6.02506 15.9561 6.1213 15.6866 6.11168 15.3016C6.08281 13.7233 6.09243 12.1546 6.10205 10.5858C6.11168 9.2481 6.41965 7.98734 7.12221 6.83245C7.85364 5.63907 8.87379 4.79215 10.2115 4.38794C10.635 4.26282 10.7312 4.07997 10.7216 3.66613C10.7024 2.76147 11.2606 2.09741 12.0594 2.01079C13.0314 1.90492 13.8013 2.58823 13.7724 3.61801C13.7628 4.07034 13.8879 4.2532 14.3306 4.40718C16.7367 5.24448 17.9493 7.06343 18.315 9.4887C18.5086 10.844 18.466 12.2109 18.4234 13.5759C18.411 13.975 18.3985 14.3739 18.392 14.7723C18.3728 15.5615 18.5652 16.1486 19.1812 16.6298C19.4199 16.8119 19.6258 17.031 19.8336 17.2521C19.9443 17.3698 20.0555 17.4881 20.1725 17.6018ZM16.3631 15.0702C16.3643 14.7135 16.3654 14.3571 16.3613 14.0024C16.3549 13.5464 16.3645 13.0905 16.3742 12.6352C16.3934 11.726 16.4126 10.8196 16.3036 9.92178C16.0918 8.27606 15.3315 6.96719 13.7051 6.35125C11.1739 5.38884 8.55619 7.01531 8.24822 9.80629C8.08712 11.2624 8.11352 12.7265 8.13991 14.1908C8.15452 15.0009 8.16912 15.8112 8.15198 16.6201C8.1437 16.877 8.29233 16.8699 8.43823 16.863C8.46181 16.8619 8.48531 16.8607 8.50807 16.8607H12.2518C12.5618 16.8607 12.8723 16.8601 13.1832 16.8595C14.118 16.8577 15.0568 16.8559 15.9956 16.8704C16.2843 16.8704 16.3806 16.7934 16.3709 16.495C16.3599 16.022 16.3615 15.5459 16.3631 15.0702ZM12.689 19.9417C12.5495 19.9411 12.4101 19.9405 12.2707 19.9405C12.126 19.9405 11.9819 19.9411 11.8382 19.9417C11.4081 19.9435 10.9807 19.9453 10.5479 19.9309C10.2688 19.9212 10.1919 20.0079 10.2303 20.2869C10.3651 21.2205 11.2794 22 12.261 22C13.2427 21.9904 14.157 21.2109 14.2821 20.2773C14.3206 19.9982 14.234 19.9212 13.9549 19.9309C13.5289 19.9453 13.1083 19.9435 12.689 19.9417Z" fill="white"/>
</g>
</svg>
