<svg width="24" height="24" viewBox="0 0 24 24" fill="none" xmlns="http://www.w3.org/2000/svg">
    <g id="icons / calendar / disabled">
        <path id="Vector"
            d="M8.87988 3.21997C8.61467 3.21997 8.36031 3.32533 8.17278 3.51286C7.98524 3.7004 7.87988 3.95475 7.87988 4.21997V7.31997C7.87988 7.58519 7.98524 7.83954 8.17278 8.02708C8.36031 8.21461 8.61467 8.31997 8.87988 8.31997C9.1451 8.31997 9.39945 8.21461 9.58699 8.02708C9.77453 7.83954 9.87988 7.58519 9.87988 7.31997V4.20997C9.87725 3.94649 9.77073 3.6947 9.58348 3.50932C9.39623 3.32394 9.14338 3.21996 8.87988 3.21997Z"
            fill="#BDBDBD" />
        <path id="Vector_2"
            d="M17.46 4.79004H6.34C5.70417 4.84257 5.11113 5.13155 4.67793 5.59992C4.24473 6.0683 4.00284 6.68205 4 7.32004V18.24C4 18.9137 4.26761 19.5597 4.74395 20.0361C5.22029 20.5124 5.86635 20.78 6.54 20.78H17.46C18.1336 20.78 18.7797 20.5124 19.2561 20.0361C19.7324 19.5597 20 18.9137 20 18.24V7.32004C19.9974 6.64812 19.7286 6.00463 19.2525 5.53045C18.7765 5.05627 18.1319 4.79003 17.46 4.79004ZM6 7.32004C6 7.16621 6.06111 7.01869 6.16988 6.90992C6.27865 6.80115 6.42617 6.74004 6.58 6.74004H17.46C17.6138 6.74004 17.7613 6.80115 17.8701 6.90992C17.9789 7.01869 18.04 7.16621 18.04 7.32004V18.24C18.04 18.3939 17.9789 18.5414 17.8701 18.6502C17.7613 18.7589 17.6138 18.82 17.46 18.82H6.54C6.39405 18.8076 6.25794 18.7414 6.15813 18.6342C6.05832 18.527 6.00196 18.3865 6 18.24V7.32004Z"
            fill="#BDBDBD" />
        <path id="Vector_3"
            d="M15.1201 3.21997C14.8549 3.21997 14.6005 3.32533 14.413 3.51286C14.2255 3.7004 14.1201 3.95475 14.1201 4.21997V7.31997C14.1201 7.45129 14.146 7.58133 14.1962 7.70265C14.2465 7.82398 14.3202 7.93422 14.413 8.02708C14.5059 8.11994 14.6161 8.1936 14.7374 8.24385C14.8588 8.29411 14.9888 8.31997 15.1201 8.31997C15.2514 8.31997 15.3815 8.29411 15.5028 8.24385C15.6241 8.1936 15.7344 8.11994 15.8272 8.02708C15.9201 7.93422 15.9937 7.82398 16.044 7.70265C16.0943 7.58133 16.1201 7.45129 16.1201 7.31997V4.20997C16.1175 3.94649 16.011 3.6947 15.8237 3.50932C15.6365 3.32394 15.3836 3.21996 15.1201 3.21997Z"
            fill="#BDBDBD" />
        <path id="Vector_4"
            d="M19 9.45996H5C4.73478 9.45996 4.48043 9.56532 4.29289 9.75285C4.10536 9.94039 4 10.1947 4 10.46C4 10.7252 4.10536 10.9795 4.29289 11.1671C4.48043 11.3546 4.73478 11.46 5 11.46H19C19.2652 11.46 19.5196 11.3546 19.7071 11.1671C19.8946 10.9795 20 10.7252 20 10.46C20 10.1947 19.8946 9.94039 19.7071 9.75285C19.5196 9.56532 19.2652 9.45996 19 9.45996Z"
            fill="#BDBDBD" />
    </g>
</svg>
