<svg width="50" height="59" viewBox="0 0 50 59" fill="none" xmlns="http://www.w3.org/2000/svg">
<path d="M46.15 0H15.8C14.16 0 12.82 1.34 12.82 2.98V5.19H9.39C7.75 5.19 6.41 6.53 6.41 8.17V11.41H2.98C1.34 11.41 0 12.75 0 14.39V55.62C0 57.26 1.34 58.6 2.98 58.6H33.34C34.98 58.6 36.32 57.26 36.32 55.62V52.38H39.75C41.39 52.38 42.73 51.04 42.73 49.4V47.19H46.16C47.8 47.19 49.14 45.85 49.14 44.21V2.98C49.14 1.34 47.8 0 46.16 0H46.15ZM33.7 44.59V55.62C33.7 55.83 33.53 56 33.32 56H2.97C2.76 56 2.59 55.83 2.59 55.62V14.39C2.59 14.18 2.76 14.01 2.97 14.01H33.33C33.54 14.01 33.71 14.18 33.71 14.39V44.6L33.7 44.59ZM40.12 44.59V49.4C40.12 49.61 39.95 49.78 39.74 49.78H36.31V14.39C36.31 12.75 34.97 11.41 33.33 11.41H9V8.17C9 7.96 9.17 7.79 9.38 7.79H39.74C39.95 7.79 40.12 7.96 40.12 8.17V44.6V44.59ZM46.53 44.21C46.53 44.42 46.36 44.59 46.15 44.59H42.72V8.16C42.72 6.52 41.38 5.18 39.74 5.18H15.42V2.97C15.42 2.76 15.59 2.59 15.8 2.59H46.16C46.37 2.59 46.54 2.76 46.54 2.97V44.2L46.53 44.21Z" fill="black"/>
<path d="M29.83 20.65H7.04004V23.25H29.83V20.65Z" fill="black"/>
<path d="M29.83 29.3199H7.04004V31.9199H29.83V29.3199Z" fill="black"/>
<path d="M29.83 38H7.04004V40.6H29.83V38Z" fill="black"/>
<path d="M29.83 47.52H7.04004V50.12H29.83V47.52Z" fill="black"/>
</svg>
