<svg width="51" height="50" viewBox="0 0 51 50" fill="none" xmlns="http://www.w3.org/2000/svg">
<path d="M25.5325 50C39.3396 50 50.5325 38.8071 50.5325 25C50.5325 11.1929 39.3396 0 25.5325 0C11.7254 0 0.532471 11.1929 0.532471 25C0.532471 38.8071 11.7254 50 25.5325 50Z" fill="white"/>
<path d="M6.70744 14.9913C8.69077 11.2663 11.7241 8.21632 15.4408 6.21632C19.1574 4.21632 23.3824 3.36632 27.5741 3.77465C31.7741 4.17465 35.7574 5.81632 39.0241 8.48299C42.2908 11.1497 44.6908 14.7247 45.9241 18.758C47.1574 22.7913 47.1658 27.0997 45.9491 31.1413C44.7324 35.183 42.3491 38.7663 39.0908 41.4497C35.8324 44.133 31.8574 45.7913 27.6658 46.208C23.4658 46.633 19.2408 45.7997 15.5158 43.8163C10.5241 41.158 6.79077 36.633 5.13244 31.2247C3.48244 25.8163 4.04077 19.9747 6.6991 14.983L6.70744 14.9913ZM8.73244 16.0663C6.96577 19.3913 6.2241 23.1663 6.5991 26.908C6.9741 30.6497 8.45744 34.1996 10.8491 37.108C13.2408 40.0163 16.4408 42.1413 20.0491 43.2247C23.6574 44.308 27.4991 44.2997 31.0991 43.1996C34.6991 42.0997 37.8908 39.958 40.2741 37.0413C42.6574 34.1247 44.1158 30.5746 44.4824 26.8246C44.8408 23.0746 44.0824 19.308 42.3074 15.9913C40.5241 12.6747 37.7991 9.96632 34.4741 8.19965C30.0158 5.83298 24.7991 5.32465 19.9741 6.79965C15.1491 8.27465 11.1074 11.608 8.73244 16.0663Z" fill="#FAD749"/>
<path d="M34.8908 25.3253L34.9742 25.5086L36.8408 24.7336C37.2075 24.5503 37.5158 24.2836 37.7492 23.9503C37.9825 23.6169 38.1242 23.2336 38.1658 22.8253V13.5836C38.1658 13.0836 37.8242 12.8753 37.3325 13.0753L12.8492 23.2003C12.4825 23.3836 12.1742 23.6503 11.9408 23.9836C11.7075 24.3169 11.5658 24.7003 11.5242 25.1086V34.3503C11.5242 34.8503 11.8658 35.0586 12.3575 34.8586L19.2325 32.0169L18.0742 29.4919C22.7075 25.0253 29.0992 29.0669 34.8825 25.3253H34.8908Z" fill="black"/>
<path d="M17.0408 27.317C17.0408 27.317 17.0491 27.342 17.0741 27.342C17.2825 27.3753 17.4408 27.4753 17.5408 27.617C17.6408 27.767 17.6908 27.9753 17.6908 28.242C17.6908 28.7586 17.5075 29.2087 17.1491 29.6003C16.7908 29.992 16.3241 30.3086 15.7491 30.5503L13.7658 31.3836C13.6741 31.4253 13.6241 31.392 13.6241 31.3003V26.3586C13.6241 26.267 13.6741 26.2003 13.7658 26.1586L15.6741 25.3586C16.3075 25.092 16.7908 25.0087 17.1158 25.1003C17.4408 25.192 17.5991 25.5086 17.5991 26.0336C17.5991 26.5003 17.4158 26.9086 17.0575 27.2753C17.0408 27.292 17.0241 27.3087 17.0241 27.3253L17.0408 27.317ZM15.0408 26.8836V27.5836C15.0408 27.5836 15.0575 27.6336 15.0991 27.617L15.6908 27.367C16.0575 27.217 16.2325 27.0003 16.2325 26.7253C16.2325 26.4503 16.0491 26.392 15.6908 26.542L15.0991 26.792C15.0991 26.792 15.0408 26.8336 15.0408 26.8753V26.8836ZM16.2908 28.6836C16.2908 28.4086 16.1158 28.342 15.7658 28.4836L15.0991 28.7586C15.0991 28.7586 15.0408 28.8003 15.0408 28.842V29.5836C15.0408 29.5836 15.0575 29.6337 15.0991 29.617L15.7575 29.342C16.1075 29.192 16.2908 28.9753 16.2908 28.6836Z" fill="#FAD749"/>
<path d="M19.1575 28.9665C18.8408 28.9331 18.5992 28.7998 18.4242 28.5748C18.2492 28.3498 18.1658 28.0331 18.1658 27.6331V26.2331C18.1658 25.8415 18.2492 25.4665 18.4242 25.0915C18.5992 24.7165 18.8408 24.3831 19.1575 24.0915C19.4742 23.7915 19.8408 23.5581 20.2492 23.3831C20.6658 23.2081 21.0325 23.1331 21.3492 23.1665C21.6658 23.1998 21.9075 23.3248 22.0825 23.5498C22.2575 23.7748 22.3408 24.0831 22.3408 24.4748V25.8748C22.3408 26.2748 22.2575 26.6581 22.0825 27.0331C21.9075 27.4081 21.6658 27.7415 21.3492 28.0415C21.0325 28.3415 20.6658 28.5748 20.2492 28.7498C19.8325 28.9248 19.4742 28.9915 19.1575 28.9581V28.9665ZM19.0158 23.4915C19.0158 23.4915 18.9825 23.4665 18.9825 23.4415C18.9825 23.4081 18.9908 23.3831 19.0158 23.3498L19.5158 22.4415C19.5575 22.3665 19.6158 22.3081 19.6908 22.2831L20.8075 21.8165C20.8908 21.7831 20.9492 21.7915 20.9908 21.8331L21.4992 22.3248C21.4992 22.3248 21.5325 22.3665 21.5325 22.3915C21.5325 22.4165 21.5242 22.4415 21.4992 22.4665C21.4742 22.4915 21.4492 22.5165 21.4158 22.5248L20.6492 22.8498C20.5742 22.8831 20.5242 22.8748 20.4825 22.8248L20.3158 22.5998C20.3158 22.5998 20.2908 22.5831 20.2742 22.5915C20.2575 22.5998 20.2408 22.6165 20.2325 22.6415L20.0658 22.9998C20.0325 23.0831 19.9742 23.1331 19.8992 23.1665L19.1242 23.4915C19.1242 23.4915 19.0575 23.5081 19.0408 23.4998L19.0158 23.4915ZM20.7575 27.1415C20.8825 26.9498 20.9492 26.7415 20.9492 26.5165V25.0498C20.9492 24.8165 20.8825 24.6665 20.7575 24.5831C20.6325 24.4998 20.4658 24.4998 20.2575 24.5831C20.0492 24.6665 19.8908 24.8081 19.7575 24.9998C19.6325 25.1915 19.5658 25.3998 19.5658 25.6248V27.0915C19.5658 27.3248 19.6325 27.4748 19.7575 27.5581C19.8825 27.6415 20.0492 27.6415 20.2575 27.5581C20.4658 27.4748 20.6325 27.3331 20.7575 27.1415Z" fill="#FAD749"/>
<path d="M22.8658 27.4331V22.4914C22.8658 22.3998 22.9158 22.3331 23.0075 22.2914L24.0825 21.8414C24.1658 21.8081 24.2158 21.8164 24.2575 21.8664L25.7325 23.7248C25.7325 23.7248 25.7658 23.7414 25.7741 23.7331C25.7908 23.7331 25.8075 23.6998 25.8075 23.6664V21.2664C25.8075 21.1748 25.8491 21.1081 25.9408 21.0664L27.0575 20.5998C27.1491 20.5581 27.1991 20.5914 27.1991 20.6831V25.6248C27.1991 25.7164 27.1491 25.7831 27.0575 25.8248L25.9825 26.2748C25.8991 26.3081 25.8491 26.2998 25.8075 26.2498L24.3241 24.3498C24.3241 24.3498 24.2908 24.3248 24.2741 24.3331C24.2575 24.3414 24.2491 24.3664 24.2491 24.3914L24.2658 26.8414C24.2658 26.9331 24.2158 26.9998 24.1241 27.0414L23.0075 27.5081C22.9158 27.5498 22.8658 27.5248 22.8658 27.4248V27.4331Z" fill="#FAD749"/>
<path d="M28.7241 24.95C28.4158 24.925 28.1741 24.8084 28.0075 24.5917C27.8408 24.375 27.7491 24.0834 27.7491 23.7167V20.4417C27.7491 20.35 27.7991 20.2834 27.8908 20.2417L29.0158 19.775C29.1075 19.7334 29.1575 19.7667 29.1575 19.8584V23.1334C29.1575 23.3417 29.2158 23.475 29.3325 23.55C29.4491 23.625 29.6075 23.6167 29.7991 23.5417C29.9908 23.4584 30.1408 23.3334 30.2575 23.1584C30.3741 22.9834 30.4325 22.8 30.4325 22.6V19.325C30.4325 19.2334 30.4825 19.1667 30.5741 19.125L31.6908 18.6584C31.7825 18.6167 31.8325 18.65 31.8325 18.7417V22.0167C31.8325 22.3917 31.7491 22.75 31.5825 23.1084C31.4158 23.4667 31.1741 23.7834 30.8658 24.0667C30.5575 24.35 30.1991 24.575 29.7991 24.7417C29.3991 24.9084 29.0408 24.9834 28.7241 24.9584V24.95Z" fill="#FAD749"/>
<path d="M33.2658 23.0751C32.9575 23.0751 32.7158 22.9751 32.5491 22.7918C32.3825 22.6085 32.2991 22.3501 32.2991 22.0168V21.9418C32.2991 21.8501 32.3491 21.7835 32.4408 21.7418L33.5408 21.2835C33.6325 21.2418 33.6825 21.2501 33.6825 21.3001V21.3835C33.6825 21.5168 33.7575 21.6085 33.8991 21.6585C34.0408 21.7085 34.2241 21.6835 34.4408 21.5918C34.6241 21.5168 34.7575 21.4168 34.8408 21.3085C34.9241 21.2001 34.9575 21.1001 34.9575 21.0001C34.9575 20.8918 34.9075 20.8251 34.8075 20.8168C34.7075 20.8001 34.5241 20.8168 34.2658 20.8418L34.0491 20.8751C33.5575 20.9335 33.1408 20.9085 32.8075 20.8001C32.4741 20.6918 32.3075 20.4001 32.3075 19.9251C32.3075 19.6085 32.3908 19.3001 32.5575 18.9835C32.7241 18.6751 32.9575 18.3918 33.2575 18.1335C33.5575 17.8751 33.8825 17.6751 34.2575 17.5251C34.6491 17.3585 34.9991 17.2835 35.3158 17.3001C35.6325 17.3168 35.8825 17.4085 36.0658 17.6001C36.2491 17.7835 36.3408 18.0501 36.3408 18.3918V18.4251C36.3408 18.5168 36.2908 18.5835 36.1991 18.6251L35.0991 19.0835C35.0075 19.1251 34.9575 19.1251 34.9575 19.0835V19.0251C34.9575 18.8751 34.8908 18.7668 34.7575 18.7001C34.6241 18.6335 34.4408 18.6501 34.2158 18.7418C34.0575 18.8085 33.9325 18.8918 33.8408 19.0001C33.7491 19.1001 33.6991 19.2168 33.6991 19.3251C33.6991 19.4168 33.7325 19.4751 33.7991 19.5085C33.8658 19.5418 33.9741 19.5585 34.1075 19.5585C34.2491 19.5585 34.4575 19.5418 34.7491 19.5085C34.7908 19.5085 34.9658 19.4835 35.2741 19.4501C35.5825 19.4085 35.8408 19.4668 36.0575 19.6251C36.2658 19.7751 36.3741 20.0251 36.3741 20.3668C36.3741 20.6918 36.2908 21.0085 36.1241 21.3251C35.9575 21.6418 35.7158 21.9251 35.4075 22.1918C35.0991 22.4501 34.7491 22.6668 34.3491 22.8335C33.9491 23.0001 33.5908 23.0835 33.2825 23.0751H33.2658Z" fill="#FAD749"/>
<path fill-rule="evenodd" clip-rule="evenodd" d="M34.8658 25.1499L34.9491 25.3333L38.4908 32.8499C35.9158 34.7916 32.9325 34.8166 29.9491 34.8333C26.8741 34.8583 23.7991 34.8833 21.2075 37.0166L18.7741 31.8416L17.5825 29.3166C17.8825 29.0333 18.2075 28.7666 18.5575 28.5333C19.1741 28.1083 19.8491 27.7833 20.5658 27.5499C21.2908 27.3166 22.0325 27.1666 22.7908 27.0916L22.8825 27.3749C22.9075 27.4666 22.9741 27.4916 23.0825 27.4416L24.2491 26.9833C24.8825 26.9583 25.5241 26.9583 26.1658 26.9583C29.0325 26.9499 32.0158 26.9416 34.8575 25.1416L34.8658 25.1499ZM19.4575 29.7333L20.1825 31.2749L21.8408 34.7999C24.4408 33.3999 27.2491 33.3749 29.9241 33.3583C32.3241 33.3416 34.6158 33.3249 36.5575 32.3083L34.1575 27.2166C33.4575 27.5249 32.7241 27.7749 31.9741 27.9499C30.4158 28.2916 28.8241 28.4583 27.2241 28.4416C26.8741 28.4416 26.5241 28.4416 26.1741 28.4416C24.5491 28.4416 23.0158 28.4499 21.6491 28.7833C20.8658 28.9583 20.1241 29.2833 19.4575 29.7249V29.7333ZM29.2158 29.9749C29.8575 30.9583 29.7325 32.1499 28.9408 32.6416C28.1491 33.1333 26.9825 32.7416 26.3408 31.7583C25.6991 30.7749 25.8241 29.5833 26.6158 29.0916C27.4075 28.5999 28.5741 28.9916 29.2158 29.9749Z" fill="black"/>
</svg>
