<svg width="49" height="50" viewBox="0 0 49 50" fill="none" xmlns="http://www.w3.org/2000/svg">
<path d="M48.88 36C48.43 32.29 46.36 29.08 43.38 27.11C40.21 23.97 35.95 21.94 31.23 21.58C34.11 19.38 35.98 15.93 35.98 12.02C35.98 5.38 30.6 0 23.96 0C17.32 0 11.94 5.38 11.94 12.02C11.94 15.99 13.87 19.5 16.84 21.69C7.35 22.93 0 31.05 0 40.9C0 45.92 4.07 50 9.1 50H36V49.97C36.17 49.97 36.33 49.99 36.5 49.99C43.16 49.99 48.59 44.77 48.95 38.19C48.96 37.96 48.98 37.73 48.98 37.5C48.98 36.99 48.94 36.49 48.88 35.99V36ZM14.56 12.02C14.56 6.83 18.78 2.6 23.98 2.6C29.18 2.6 33.4 6.82 33.4 12.02C33.4 17.22 29.18 21.44 23.98 21.44C18.78 21.44 14.56 17.22 14.56 12.02ZM9.1 47.4C5.52 47.4 2.6 44.49 2.6 40.9C2.6 31.63 10.14 24.09 19.41 24.09H29.75C31.72 24.09 33.61 24.45 35.37 25.08C29.01 25.65 24.02 30.99 24.02 37.51C24.02 41.54 25.94 45.12 28.91 47.4H9.1ZM34.05 49.74C34.68 49.87 35.34 49.94 36 49.97C35.33 49.94 34.68 49.87 34.05 49.74ZM46.34 38.33C45.92 43.39 41.67 47.39 36.5 47.39C31.05 47.39 26.62 42.96 26.62 37.51C26.62 32.06 31.05 27.63 36.5 27.63C38.43 27.63 40.22 28.19 41.74 29.15C44.12 30.64 45.81 33.12 46.26 36C46.34 36.49 46.39 37 46.39 37.51C46.39 37.79 46.37 38.06 46.35 38.33H46.34Z" fill="black"/>
<path d="M40.65 31.9301L36.82 35.7601L32.99 31.9301L31.15 33.7701L34.98 37.6001L31.15 41.4301L32.99 43.2701L36.82 39.4401L40.65 43.2701L42.49 41.4301L38.66 37.6001L42.49 33.7701L40.65 31.9301Z" fill="black"/>
</svg>
