<svg width="24" height="24" viewBox="0 0 24 24" fill="none" xmlns="http://www.w3.org/2000/svg">
<g id="icons-textfield">
<path id="Union" fill-rule="evenodd" clip-rule="evenodd" d="M8.90072 21.6026C9.16369 21.8589 9.51171 22 9.88053 22L9.88023 21.9997C10.2605 21.9997 10.6161 21.8511 10.8815 21.5813L21.6006 10.6838C21.8621 10.4181 22.0038 10.0663 21.9999 9.69353C21.996 9.32073 21.8467 8.97223 21.5795 8.71199L19.6024 6.78523L19.0354 7.15293C18.7694 7.32523 18.4582 7.41648 18.1355 7.41648C17.694 7.41678 17.2797 7.25019 16.9694 6.94762C16.4178 6.41003 16.3125 5.54735 16.7193 4.89659L17.0773 4.32478L15.0996 2.39742C14.8366 2.14108 14.5001 2 14.1198 2C13.7395 2 13.3839 2.14858 13.1185 2.41843L2.39936 13.3159C2.1379 13.5819 1.99616 13.9334 2.00008 14.3062C2.004 14.679 2.15328 15.0278 2.42047 15.288L4.3979 17.2151L4.93682 16.9431C5.16842 16.8264 5.42778 16.7645 5.68683 16.7645C6.12412 16.7645 6.53697 16.932 6.8494 17.2367C7.35816 17.7323 7.49296 18.4947 7.18506 19.1334L6.92329 19.6758L8.90072 21.6026ZM16.928 13.0344L9.87631 20.2035V20.2029L8.92333 19.2742C9.06688 18.739 9.07382 18.1762 8.94233 17.6347C8.79486 17.0272 8.47941 16.4746 8.02977 16.0363C7.39978 15.4228 6.56803 15.0848 5.68713 15.0848C5.37169 15.0848 5.06016 15.1289 4.75828 15.216L3.805 14.2873L10.857 7.11811L11.5383 7.78208L12.7184 6.58232L12.0371 5.91835L14.124 3.79679L14.9835 4.63425C14.8083 5.11751 14.747 5.6368 14.8059 6.14768C14.8927 6.9041 15.2419 7.61429 15.7893 8.14768C16.3369 8.68107 17.0577 9.01366 17.8195 9.0842C17.9214 9.0935 18.0252 9.0983 18.128 9.0983C18.5387 9.0983 18.9522 9.02146 19.3355 8.87498L20.195 9.71274L18.1081 11.8343L17.4268 11.1706L16.2468 12.3704L16.928 13.0344ZM14.0558 10.2282L14.0557 10.2284V10.2281L14.0558 10.2282ZM14.0558 10.2282L15.8561 12L17 10.8129L15.1995 9.04128L14.0558 10.2282ZM13.1439 7L12 8.18711L13.7224 9.89249L14.8663 8.70538L13.1439 7Z" fill="black"/>
</g>
</svg>
