<svg width="100" height="100" viewBox="0 0 100 100" fill="none" xmlns="http://www.w3.org/2000/svg">
<path d="M50 100C77.6142 100 100 77.6142 100 50C100 22.3858 77.6142 0 50 0C22.3858 0 0 22.3858 0 50C0 77.6142 22.3858 100 50 100Z" fill="white"/>
<path d="M49.4109 8.1433C39.0476 8.17532 29.0656 12.0554 21.4012 19.0309C13.7369 26.0064 8.9366 35.58 7.93161 45.8945C6.92661 56.2091 9.78854 66.5292 15.9622 74.853C22.1359 83.1768 31.1812 88.9109 41.3434 90.9428C51.5056 92.9747 62.0603 91.1597 70.96 85.8498C79.8597 80.5399 86.47 72.1137 89.5085 62.2057C92.5469 52.2978 91.797 41.6144 87.4042 32.2281C83.0114 22.8418 75.2888 15.4217 65.7346 11.4072C60.5795 9.19613 55.0199 8.0845 49.4109 8.1433ZM49.4109 3.43496C55.5412 3.38795 61.6203 4.55216 67.2994 6.86077C72.9786 9.16938 78.1458 12.5769 82.5045 16.8878C86.8632 21.1986 90.3276 26.3279 92.6988 31.9812C95.0699 37.6345 96.3012 43.7004 96.3219 49.8308C96.3425 55.9612 95.1522 62.0353 92.8192 67.7044C90.4862 73.3736 87.0565 78.5261 82.7269 82.8663C78.3974 87.2064 73.2533 90.6487 67.5898 92.9956C61.9264 95.3424 55.8552 96.5476 49.7248 96.5419H49.4109C37.0987 96.5305 25.2923 91.6422 16.5756 82.9467C7.85884 74.2513 2.94168 62.4569 2.90017 50.1447C2.85866 37.8325 7.69619 26.0052 16.3541 17.2512C25.012 8.49719 36.7851 3.52938 49.0971 3.43496H49.4109Z" fill="black"/>
<path d="M16.2824 41.6819L67.1311 53.6735C67.6209 53.7932 68.0554 54.0759 68.3633 54.4752C68.6713 54.8745 68.8342 55.3666 68.8255 55.8708V75.0194C68.8268 75.3157 68.7695 75.6094 68.6571 75.8836C68.5446 76.1578 68.3791 76.4071 68.17 76.6171C67.961 76.8272 67.7125 76.994 67.4389 77.1078C67.1653 77.2216 66.8719 77.2803 66.5755 77.2805C66.4055 77.2907 66.2351 77.2695 66.0727 77.218L15.2144 65.2305C14.7239 65.1107 14.2888 64.8273 13.9808 64.4272C13.6728 64.0271 13.5102 63.534 13.5199 63.0291V43.8791C13.5188 43.582 13.5765 43.2877 13.6897 43.013C13.8029 42.7384 13.9693 42.4888 14.1793 42.2788C14.3894 42.0687 14.6389 41.9023 14.9136 41.7891C15.1883 41.676 15.4826 41.6183 15.7797 41.6194C15.9495 41.6127 16.1194 41.6338 16.2824 41.6819Z" fill="black"/>
<path d="M82.8954 33.5832L32.0412 25.2332C31.0371 24.7943 30.3454 25.2332 30.3454 26.2998V45.5109C30.4308 46.3508 30.7294 47.1549 31.2129 47.8469C31.6964 48.539 32.3487 49.096 33.1079 49.4651L83.9565 57.8165C84.9607 58.2554 85.6509 57.8165 85.6509 56.7498V37.5373C85.6625 36.6729 85.4029 35.8267 84.9086 35.1174C84.4144 34.4082 83.7103 33.8716 82.8954 33.5832Z" fill="black"/>
<path d="M16.2819 40.0548L67.1305 19.0173C68.1347 18.5785 68.825 19.0173 68.825 20.084V39.2951C68.7402 40.1343 68.4427 40.9379 67.9604 41.6299C67.4782 42.3219 66.8273 42.8793 66.0694 43.2493L15.2139 64.2826C14.2139 64.7229 13.5194 64.2826 13.5194 63.216V44.0048C13.6055 43.1657 13.9044 42.3625 14.3879 41.6712C14.8713 40.98 15.5233 40.4236 16.2819 40.0548Z" fill="#FAD749"/>
<path d="M33.0455 57.0695L83.8996 36.032C84.9038 35.5931 85.5955 36.032 85.5955 37.0987V56.3098C85.5099 57.1498 85.2111 57.954 84.7273 58.646C84.2436 59.3381 83.591 59.895 82.8316 60.2639L32.0413 81.2973C31.0371 81.7362 30.3455 81.2973 30.3455 80.2306V61.082C30.4181 60.239 30.7041 59.4284 31.1764 58.7265C31.6487 58.0245 32.2919 57.4543 33.0455 57.0695Z" fill="black"/>
<path d="M20.6784 56.3086C20.3253 56.2903 19.9803 56.1968 19.6663 56.0344C19.3523 55.872 19.0765 55.6445 18.8575 55.3669C18.3999 54.7053 18.1788 53.9087 18.2298 53.1058V49.3392C18.2204 48.3819 18.4354 47.4358 18.8575 46.5767C19.3078 45.6548 19.9252 44.8246 20.6784 44.1281C21.4724 43.3948 22.3854 42.8021 23.3784 42.3753C24.2197 41.9722 25.146 41.7783 26.0784 41.81C26.4207 41.8196 26.7578 41.8966 27.0702 42.0368C27.3827 42.1769 27.6644 42.3774 27.8992 42.6267C28.3565 43.2165 28.58 43.9544 28.527 44.6989C28.527 44.8239 28.402 44.9503 28.2131 45.0753L25.3881 46.4558L25.3256 46.5183C25.1367 46.5808 25.0742 46.5808 25.0742 46.5183V46.3933C25.0742 45.8906 24.9492 45.5142 24.6353 45.3892C24.4491 45.2917 24.2401 45.246 24.0302 45.257C23.8203 45.268 23.6173 45.3352 23.4423 45.4517C22.9569 45.6349 22.5401 45.9638 22.2492 46.3933C21.9457 46.8123 21.7912 47.3208 21.8103 47.8378V51.7933C21.7823 51.985 21.8086 52.1807 21.8861 52.3582C21.9637 52.5357 22.0895 52.6879 22.2492 52.7975C22.4354 52.895 22.6444 52.9406 22.8543 52.9296C23.0642 52.9186 23.2673 52.8514 23.4423 52.735C23.9276 52.5518 24.3444 52.2229 24.6353 51.7933C24.9292 51.3938 25.0834 50.9087 25.0742 50.4128C25.0742 50.3503 25.1367 50.2878 25.1992 50.2239C25.2617 50.16 25.3881 50.0989 25.4506 50.035L28.2756 48.9683C28.527 48.9058 28.5895 48.8433 28.5895 48.9058V48.9683C28.5916 49.8852 28.3765 50.7895 27.9617 51.6072C27.5104 52.5062 26.8947 53.3127 26.1464 53.985C25.3446 54.6932 24.4326 55.266 23.4464 55.6808C22.5955 56.1312 21.6403 56.3478 20.6784 56.3086Z" fill="black"/>
<path d="M37.6913 49.2143L37.3149 48.0212C37.3149 47.9587 37.2524 47.8962 37.126 47.9587L33.2969 49.6546L33.108 49.8435L32.7316 51.3504C32.7152 51.4511 32.6714 51.5453 32.605 51.6227C32.5386 51.7001 32.4522 51.7577 32.3552 51.7893L29.3413 53.0393C29.2163 53.1018 29.1524 53.1018 29.0899 53.0393C29.0274 52.9768 29.0274 52.9143 29.0899 52.7254L32.9788 38.7254C32.9952 38.6247 33.039 38.5305 33.1054 38.4531C33.1718 38.3757 33.2582 38.3181 33.3552 38.2865L37.1844 36.6546C37.3733 36.5921 37.4983 36.5921 37.5608 36.7796L41.4496 47.5157V47.6407C41.4496 47.8296 41.3246 47.9546 41.1358 48.0796L38.1219 49.3296C37.8788 49.4657 37.758 49.4032 37.6913 49.2143ZM33.9246 46.5143C33.9246 46.5768 33.9871 46.6393 34.0496 46.5768L36.3733 45.5726C36.4358 45.5726 36.4358 45.5101 36.4983 45.4476V45.3226L35.3052 41.4935C35.3054 41.4852 35.3039 41.477 35.3008 41.4693C35.2978 41.4616 35.2932 41.4547 35.2873 41.4488C35.2815 41.443 35.2745 41.4384 35.2668 41.4353C35.2592 41.4323 35.251 41.4308 35.2427 41.431L35.1177 41.556L33.9246 46.5143Z" fill="black"/>
<path d="M43.846 46.5759C43.5115 46.5872 43.1782 46.5316 42.8655 46.4124C42.5528 46.2931 42.2671 46.1126 42.0252 45.8814C41.5687 45.3408 41.3432 44.6424 41.3974 43.937V43.7536C41.3974 43.5022 41.5224 43.3772 41.7738 43.2509L44.5363 42.0578C44.7877 41.9328 44.9127 41.9953 44.9127 42.1203V42.3092C44.9145 42.4718 44.9714 42.629 45.0741 42.7551C45.1768 42.8812 45.3191 42.9688 45.4779 43.0036C45.9454 43.1178 46.4388 43.0503 46.8585 42.8147C47.2443 42.6676 47.5888 42.4293 47.8627 42.1203C48.0353 41.9034 48.144 41.6428 48.1765 41.3675C48.1765 41.1161 48.0515 40.9286 47.8002 40.9286C47.5488 40.9286 47.1057 40.9286 46.4196 40.9911L45.8543 41.0536C44.8265 41.1944 43.7809 41.1302 42.7779 40.8647C41.9613 40.6134 41.5279 39.8606 41.5279 38.6675C41.5284 37.8511 41.745 37.0494 42.1557 36.3439C42.6129 35.5353 43.208 34.8128 43.9141 34.2092C44.6771 33.5796 45.5195 33.0529 46.4196 32.6425C47.2354 32.2286 48.1447 32.0338 49.0585 32.0772C49.4079 32.0616 49.7566 32.1207 50.0814 32.2505C50.4061 32.3803 50.6995 32.5779 50.9418 32.83C51.4199 33.3617 51.6694 34.0602 51.6363 34.7745V34.837C51.6363 35.0884 51.5113 35.2134 51.2599 35.3397L48.4974 36.5328C48.2465 36.6587 48.121 36.6587 48.121 36.5328V36.4078C48.122 36.2383 48.0755 36.0718 47.9866 35.9274C47.8977 35.7831 47.7701 35.6665 47.6182 35.5911C47.3936 35.5063 47.1527 35.4735 46.9136 35.4951C46.6745 35.5168 46.4434 35.5923 46.2377 35.7161C45.8919 35.8732 45.574 36.0852 45.296 36.3439C45.1874 36.449 45.1031 36.5765 45.0489 36.7176C44.9947 36.8586 44.9719 37.0098 44.9821 37.1606C44.9821 37.412 45.0446 37.537 45.2335 37.5995C45.4759 37.682 45.7302 37.7242 45.9863 37.7245C46.3002 37.7245 46.8654 37.662 47.6182 37.5995C47.7441 37.5995 48.1835 37.5365 48.9363 37.4106C49.2732 37.3483 49.6193 37.3551 49.9535 37.4305C50.2878 37.5059 50.6032 37.6485 50.8807 37.8495C51.1478 38.0802 51.3556 38.3717 51.4866 38.6994C51.6176 39.0271 51.668 39.3815 51.6335 39.7328C51.6413 40.57 51.4246 41.394 51.0057 42.1189C50.5651 42.9388 49.9676 43.6641 49.2474 44.2536C48.4492 44.9194 47.5607 45.4688 46.6085 45.8856C45.741 46.2923 44.8028 46.5267 43.846 46.5759Z" fill="black"/>
<path d="M59.7929 27.1086L62.6179 25.9155C62.8689 25.7896 62.9943 25.8525 62.9943 26.1044V38.4724C62.9943 38.7238 62.8693 38.8488 62.6179 38.9752L59.7929 40.1683C59.542 40.2942 59.4165 40.2312 59.4165 39.9794V35.3961C59.4165 35.2711 59.354 35.2711 59.2915 35.3336L56.4665 36.5266C56.3415 36.5891 56.3415 36.6516 56.3415 36.7155V41.2988C56.3415 41.5502 56.2165 41.6752 55.9652 41.8016L53.1402 42.9947C52.8874 43.1224 52.761 43.0609 52.761 42.8099V30.3794C52.761 30.128 52.886 30.003 53.1374 29.8766L55.9624 28.6836C56.2133 28.5576 56.3388 28.6206 56.3388 28.8724V33.3294C56.3388 33.4544 56.4013 33.4544 56.4638 33.3919L59.2888 32.1988C59.4138 32.1363 59.4138 32.0738 59.4138 32.0099V27.5544C59.4151 27.4475 59.4537 27.3445 59.5229 27.2631C59.5922 27.1817 59.6877 27.127 59.7929 27.1086Z" fill="black"/>
<path d="M43.7192 64.8506C43.7192 64.9131 43.7192 64.9131 43.7817 64.9131C44.0186 64.9369 44.2477 65.0112 44.4535 65.131C44.6593 65.2508 44.837 65.4132 44.9747 65.6075C45.2537 66.0815 45.3848 66.628 45.3511 67.177C45.3515 68.4322 44.8812 69.6419 44.033 70.5672C43.0527 71.6134 41.852 72.4285 40.5178 72.9533L35.558 75.0256C35.3062 75.1487 35.1803 75.0848 35.1803 74.8339V62.4644C35.1803 62.2131 35.3053 62.0881 35.5567 61.9617L40.3275 59.952C41.4214 59.3597 42.6706 59.1173 43.9067 59.2575C44.7233 59.5089 45.0997 60.2617 45.0997 61.5811C45.0847 62.7589 44.612 63.8846 43.7817 64.72C43.7192 64.7881 43.7192 64.7881 43.7192 64.8506ZM38.6969 63.7839V65.5408C38.6969 65.6658 38.7594 65.6658 38.8219 65.6033L40.2664 64.9756C41.1455 64.5992 41.6469 64.0339 41.6469 63.3436C41.6469 62.6533 41.208 62.527 40.2664 62.9047L38.8219 63.5325C38.7555 63.6017 38.7114 63.6893 38.6955 63.7839H38.6969ZM41.7733 68.3047C41.7733 67.6103 41.3344 67.4256 40.4553 67.802L38.8233 68.4964C38.6983 68.5589 38.6983 68.6214 38.6983 68.6853V70.5061C38.6983 70.6311 38.7608 70.6311 38.8233 70.5686L40.4553 69.8742C40.8166 69.7929 41.1412 69.5952 41.3791 69.3113C41.6171 69.0275 41.7551 68.6733 41.7719 68.3033L41.7733 68.3047Z" fill="white"/>
<path d="M54.2091 66.8592L53.8327 65.6662C53.8327 65.6037 53.7702 65.5412 53.6439 65.6037L49.755 67.2356L49.5661 67.4245L49.1897 68.9315C49.1733 69.0321 49.1295 69.1263 49.0631 69.2037C48.9967 69.2811 48.9103 69.3388 48.8133 69.3703L45.7994 70.6203C45.6744 70.6828 45.6105 70.6828 45.548 70.6203C45.4855 70.5578 45.4855 70.4953 45.548 70.3065L49.4369 56.3065C49.4533 56.2058 49.4971 56.1116 49.5635 56.0342C49.6299 55.9568 49.7163 55.8991 49.8133 55.8676L53.6425 54.2356C53.8314 54.1731 53.9564 54.1731 54.0189 54.3606L57.9077 65.0967V65.2217C57.9077 65.4106 57.7827 65.5356 57.5939 65.6606L54.58 66.9106C54.33 67.0481 54.2091 66.9856 54.2091 66.8592ZM50.4425 64.1592C50.4425 64.2217 50.505 64.2842 50.5675 64.2217L52.8911 63.2176C52.9536 63.2176 52.9536 63.1551 53.0161 63.0926V62.9676L51.823 59.1384C51.8232 59.1301 51.8217 59.1219 51.8186 59.1143C51.8156 59.1066 51.811 59.0996 51.8051 59.0938C51.7993 59.0879 51.7923 59.0833 51.7847 59.0803C51.777 59.0772 51.7688 59.0757 51.7605 59.0759C51.698 59.0759 51.698 59.1384 51.6355 59.2009L50.4425 64.1592Z" fill="white"/>
<path d="M60.8593 63.8477C60.5062 63.8294 60.1611 63.736 59.8471 63.5736C59.5331 63.4112 59.2574 63.1836 59.0385 62.906C58.5809 62.2444 58.3597 61.4478 58.4107 60.6449V56.8782C58.4013 55.921 58.6163 54.9749 59.0385 54.1157C59.4887 53.1939 60.1061 52.3636 60.8593 51.6671C61.6427 50.9204 62.5583 50.326 63.5593 49.9143C64.4007 49.5113 65.3269 49.3173 66.2593 49.3491C66.6016 49.3587 66.9386 49.4358 67.2511 49.576C67.5635 49.7161 67.8453 49.9165 68.0801 50.1657C68.5374 50.7556 68.761 51.4935 68.7079 52.2379C68.7079 52.3629 68.5829 52.4893 68.394 52.6143L65.569 53.9949L65.5065 54.0574C65.3176 54.1199 65.2551 54.1199 65.2551 54.0574V53.9324C65.2551 53.4296 65.1301 53.0532 64.8162 52.9282C64.63 52.8307 64.4211 52.7851 64.2112 52.7961C64.0013 52.8071 63.7982 52.8743 63.6232 52.9907C63.1378 53.1739 62.7211 53.5029 62.4301 53.9324C62.1267 54.3514 61.9722 54.8599 61.9912 55.3768V59.3324C61.9632 59.5241 61.9895 59.7198 62.0671 59.8972C62.1446 60.0747 62.2704 60.2269 62.4301 60.3366C62.6163 60.4341 62.8253 60.4797 63.0352 60.4687C63.2451 60.4577 63.4482 60.3905 63.6232 60.2741C64.1086 60.0909 64.5253 59.7619 64.8162 59.3324C65.1101 58.9328 65.2643 58.4477 65.2551 57.9518C65.2551 57.8893 65.3176 57.8268 65.3801 57.7629C65.4426 57.6991 65.569 57.6379 65.6315 57.5741L68.4565 56.5074C68.7079 56.4449 68.7704 56.3824 68.7704 56.4449V56.5074C68.7725 57.4243 68.5574 58.3286 68.1426 59.1463C67.6913 60.0453 67.0756 60.8518 66.3273 61.5241C65.5254 62.2318 64.6134 62.8041 63.6273 63.2185C62.7744 63.6635 61.8208 63.8802 60.8593 63.8477Z" fill="white"/>
<path d="M69.8998 60.0784V47.7103C69.8998 47.4589 70.0248 47.3339 70.2762 47.2075L73.1012 46.0145C73.3521 45.8886 73.4776 45.9515 73.4776 46.2034V50.5353C73.4776 50.5978 73.4776 50.5978 73.5401 50.5978C73.6026 50.5978 73.6026 50.5353 73.6651 50.4728L76.804 44.6964C76.9014 44.5232 77.0568 44.39 77.2429 44.32L80.4443 43.002C80.6332 42.9395 80.6957 42.9395 80.6957 43.0645C80.7051 43.153 80.683 43.2421 80.6332 43.3159L76.8665 50.1589C76.8035 50.2849 76.8035 50.3478 76.8665 50.3478L80.822 55.4339C80.8459 55.4588 80.8639 55.4886 80.8747 55.5213C80.8855 55.554 80.8889 55.5887 80.8845 55.6228C80.8845 55.7478 80.7595 55.8742 80.5707 55.9992L77.4318 57.3173C77.3616 57.3553 77.281 57.3697 77.202 57.3585C77.123 57.3472 77.0497 57.3109 76.9929 57.2548L74.4832 53.8631C74.4832 53.8006 74.4207 53.8006 74.3582 53.8631C74.2957 53.8631 74.2957 53.9256 74.2332 53.9881L73.4804 55.3062C73.4393 55.3605 73.4174 55.4269 73.4179 55.495V58.5714C73.4179 58.8228 73.2929 58.9478 73.0415 59.0742L70.2165 60.2673C70.0248 60.3923 69.8998 60.3298 69.8998 60.0784Z" fill="white"/>
</svg>
