<svg width="17" height="17" viewBox="0 0 17 17" fill="none" xmlns="http://www.w3.org/2000/svg">
<path d="M8.5 2C12.77 2 15 3.71 15 4.3C15 4.89 12.77 6.6 8.5 6.6C4.23 6.6 2 4.89 2 4.3C2 3.71 4.23 2 8.5 2ZM8.5 0C3.81 0 0 1.92 0 4.3C0 6.68 3.81 8.6 8.5 8.6C13.19 8.6 17 6.68 17 4.3C17 1.92 13.19 0 8.5 0Z" fill="black"/>
<path d="M8.5 14.58C4.49 14.58 1.13 13.17 0.24 11.28C0.09 11.6 0 11.94 0 12.28C0 14.65 3.81 16.58 8.5 16.58C13.19 16.58 17 14.66 17 12.28C17 11.94 16.91 11.6 16.76 11.28C15.87 13.17 12.51 14.58 8.5 14.58Z" fill="black"/>
<path d="M8.5 10.58C4.49 10.58 1.13 9.17003 0.24 7.28003C0.09 7.60003 0 7.94003 0 8.28003C0 10.65 3.81 12.58 8.5 12.58C13.19 12.58 17 10.66 17 8.28003C17 7.94003 16.91 7.60003 16.76 7.28003C15.87 9.17003 12.51 10.58 8.5 10.58Z" fill="black"/>
</svg>
