<svg width="24" height="24" viewBox="0 0 24 24" fill="none" xmlns="http://www.w3.org/2000/svg">
<mask id="path-1-inside-1_110_5580" fill="white">
<path fill-rule="evenodd" clip-rule="evenodd" d="M19.17 5.27C19.47 5.34 19.76 5.46 20.01 5.63V5.64C20.65 6.07 21.07 6.8 21.07 7.63C21.07 8.59 20.5 9.41 19.68 9.8L18.93 19.32C18.84 20.48 17.86 21.38 16.7 21.38H7.37C6.21 21.38 5.23 20.47 5.14 19.32L4.39 9.8C3.57 9.42 3 8.59 3 7.63C3 6.8 3.42 6.06 4.06 5.63C4.31 5.46 4.6 5.34 4.9 5.27C5.07 5.23 5.24 5.21 5.41 5.21H7.44C7.43 5.17 7.43 5.1 7.43 5.1V4.27C7.43 3.02 8.45 2 9.7 2H14.37C15.62 2 16.64 3.02 16.64 4.27V5.1C16.64 5.14 16.63 5.21 16.63 5.21H18.66C18.84 5.21 19.01 5.23 19.17 5.27ZM9.71 3.5C9.29 3.5 8.94 3.85 8.94 4.27H8.95V5.1C8.95 5.14 8.97 5.21 8.97 5.21H15.13C15.13 5.17 15.15 5.1 15.15 5.1V4.27C15.15 3.84 14.8 3.5 14.38 3.5H9.71ZM16.71 19.88C17.09 19.88 17.41 19.58 17.44 19.2H17.45L18.17 10.03H5.93L6.65 19.2C6.68 19.58 7 19.88 7.38 19.88H16.71ZM5.42 8.53H18.66H18.67C19.17 8.53 19.58 8.12 19.58 7.62C19.58 7.12 19.17 6.71 18.67 6.71H5.42C4.92 6.71 4.51 7.12 4.51 7.62C4.51 8.12 4.92 8.53 5.42 8.53ZM12.79 17.76C12.79 18.17 12.45 18.51 12.04 18.51C11.63 18.51 11.29 18.17 11.29 17.76V12.01C11.29 11.6 11.63 11.26 12.04 11.26C12.45 11.26 12.79 11.6 12.79 12.01V17.76ZM14.7699 18.51H14.8399C15.2199 18.51 15.5499 18.22 15.5899 17.82L16.0899 12.08C16.1299 11.67 15.8199 11.3 15.4099 11.27C14.9999 11.23 14.6299 11.54 14.5999 11.95L14.0999 17.69C14.0599 18.1 14.3699 18.47 14.7799 18.5L14.7699 18.51ZM9.34009 18.51H9.27009L9.28009 18.52C8.89009 18.52 8.56009 18.22 8.53009 17.83L8.03009 12.09C7.99009 11.68 8.30009 11.32 8.71009 11.28C9.11009 11.24 9.48009 11.55 9.52009 11.96L10.0201 17.7C10.0601 18.11 9.75009 18.47 9.34009 18.51Z"/>
</mask>
<path fill-rule="evenodd" clip-rule="evenodd" d="M19.17 5.27C19.47 5.34 19.76 5.46 20.01 5.63V5.64C20.65 6.07 21.07 6.8 21.07 7.63C21.07 8.59 20.5 9.41 19.68 9.8L18.93 19.32C18.84 20.48 17.86 21.38 16.7 21.38H7.37C6.21 21.38 5.23 20.47 5.14 19.32L4.39 9.8C3.57 9.42 3 8.59 3 7.63C3 6.8 3.42 6.06 4.06 5.63C4.31 5.46 4.6 5.34 4.9 5.27C5.07 5.23 5.24 5.21 5.41 5.21H7.44C7.43 5.17 7.43 5.1 7.43 5.1V4.27C7.43 3.02 8.45 2 9.7 2H14.37C15.62 2 16.64 3.02 16.64 4.27V5.1C16.64 5.14 16.63 5.21 16.63 5.21H18.66C18.84 5.21 19.01 5.23 19.17 5.27ZM9.71 3.5C9.29 3.5 8.94 3.85 8.94 4.27H8.95V5.1C8.95 5.14 8.97 5.21 8.97 5.21H15.13C15.13 5.17 15.15 5.1 15.15 5.1V4.27C15.15 3.84 14.8 3.5 14.38 3.5H9.71ZM16.71 19.88C17.09 19.88 17.41 19.58 17.44 19.2H17.45L18.17 10.03H5.93L6.65 19.2C6.68 19.58 7 19.88 7.38 19.88H16.71ZM5.42 8.53H18.66H18.67C19.17 8.53 19.58 8.12 19.58 7.62C19.58 7.12 19.17 6.71 18.67 6.71H5.42C4.92 6.71 4.51 7.12 4.51 7.62C4.51 8.12 4.92 8.53 5.42 8.53ZM12.79 17.76C12.79 18.17 12.45 18.51 12.04 18.51C11.63 18.51 11.29 18.17 11.29 17.76V12.01C11.29 11.6 11.63 11.26 12.04 11.26C12.45 11.26 12.79 11.6 12.79 12.01V17.76ZM14.7699 18.51H14.8399C15.2199 18.51 15.5499 18.22 15.5899 17.82L16.0899 12.08C16.1299 11.67 15.8199 11.3 15.4099 11.27C14.9999 11.23 14.6299 11.54 14.5999 11.95L14.0999 17.69C14.0599 18.1 14.3699 18.47 14.7799 18.5L14.7699 18.51ZM9.34009 18.51H9.27009L9.28009 18.52C8.89009 18.52 8.56009 18.22 8.53009 17.83L8.03009 12.09C7.99009 11.68 8.30009 11.32 8.71009 11.28C9.11009 11.24 9.48009 11.55 9.52009 11.96L10.0201 17.7C10.0601 18.11 9.75009 18.47 9.34009 18.51Z" fill="black"/>
<path d="M20.01 5.63H20.26V5.49768L20.1506 5.42327L20.01 5.63ZM19.17 5.27L19.1094 5.51257L19.1132 5.51346L19.17 5.27ZM20.01 5.64H19.76V5.77322L19.8706 5.84751L20.01 5.64ZM19.68 9.8L19.5726 9.57423L19.4421 9.6363L19.4308 9.78037L19.68 9.8ZM18.93 19.32L18.6808 19.3004L18.6807 19.3007L18.93 19.32ZM5.14 19.32L5.38924 19.3005L5.38923 19.3004L5.14 19.32ZM4.39 9.8L4.63923 9.78037L4.62775 9.63464L4.49512 9.57317L4.39 9.8ZM4.06 5.63L4.19942 5.83752L4.20058 5.83673L4.06 5.63ZM4.9 5.27L4.95681 5.51346L4.95726 5.51335L4.9 5.27ZM7.44 5.21V5.46H7.7602L7.68254 5.14936L7.44 5.21ZM7.43 5.1L7.68 5.1V5.1H7.43ZM16.63 5.21L16.3825 5.17464L16.3417 5.46H16.63V5.21ZM8.94 4.27H8.69V4.52H8.94V4.27ZM8.95 4.27H9.2V4.02H8.95V4.27ZM8.97 5.21L8.72962 5.27868L8.78142 5.46H8.97V5.21ZM15.13 5.21V5.46H15.38V5.21H15.13ZM15.15 5.1L15.3904 5.16868L15.4 5.13501V5.1H15.15ZM17.44 19.2V18.95H17.209L17.1908 19.1803L17.44 19.2ZM17.45 19.2V19.45H17.6811L17.6992 19.2196L17.45 19.2ZM18.17 10.03L18.4192 10.0496L18.4404 9.78H18.17V10.03ZM5.93 10.03V9.78H5.6596L5.68077 10.0496L5.93 10.03ZM6.65 19.2L6.40077 19.2196L6.40078 19.2197L6.65 19.2ZM14.7699 18.51L14.5931 18.3332L14.1664 18.76H14.7699V18.51ZM15.5899 17.82L15.8387 17.8449L15.839 17.8417L15.5899 17.82ZM16.0899 12.08L15.8411 12.0557L15.8409 12.0583L16.0899 12.08ZM15.4099 11.27L15.3856 11.5189L15.3917 11.5194L15.4099 11.27ZM14.5999 11.95L14.849 11.9717L14.8492 11.9683L14.5999 11.95ZM14.0999 17.69L14.3487 17.7143L14.349 17.7117L14.0999 17.69ZM14.7799 18.5L14.9567 18.6768L15.3429 18.2905L14.7982 18.2507L14.7799 18.5ZM9.27009 18.51V18.26H8.66655L9.09331 18.6868L9.27009 18.51ZM9.34009 18.51V18.76H9.35225L9.36436 18.7588L9.34009 18.51ZM9.28009 18.52V18.77H9.88362L9.45687 18.3433L9.28009 18.52ZM8.53009 17.83L8.77936 17.8109L8.77914 17.8083L8.53009 17.83ZM8.03009 12.09L8.27916 12.0683L8.27891 12.0658L8.03009 12.09ZM8.71009 11.28L8.73436 11.5288L8.73496 11.5288L8.71009 11.28ZM9.52009 11.96L9.76916 11.9383L9.76891 11.9358L9.52009 11.96ZM10.0201 17.7L9.77102 17.7217L9.77127 17.7243L10.0201 17.7ZM20.1506 5.42327C19.872 5.23385 19.5528 5.10261 19.2268 5.02654L19.1132 5.51346C19.3872 5.57739 19.648 5.68615 19.8694 5.83673L20.1506 5.42327ZM20.26 5.64V5.63H19.76V5.64H20.26ZM21.32 7.63C21.32 6.71346 20.8558 5.90708 20.1494 5.43249L19.8706 5.84751C20.4442 6.23292 20.82 6.88654 20.82 7.63H21.32ZM19.7874 10.0258C20.6884 9.59722 21.32 8.69301 21.32 7.63H20.82C20.82 8.48699 20.3116 9.22278 19.5726 9.57423L19.7874 10.0258ZM19.1792 19.3396L19.9292 9.81963L19.4308 9.78037L18.6808 19.3004L19.1792 19.3396ZM16.7 21.63C17.9898 21.63 19.0791 20.6303 19.1793 19.3393L18.6807 19.3007C18.6009 20.3297 17.7302 21.13 16.7 21.13V21.63ZM7.37 21.63H16.7V21.13H7.37V21.63ZM4.89076 19.3395C4.99094 20.6195 6.07939 21.63 7.37 21.63V21.13C6.34061 21.13 5.46906 20.3205 5.38924 19.3005L4.89076 19.3395ZM4.14077 9.81963L4.89077 19.3396L5.38923 19.3004L4.63923 9.78037L4.14077 9.81963ZM2.75 7.63C2.75 8.69141 3.38026 9.60761 4.28488 10.0268L4.49512 9.57317C3.75974 9.23239 3.25 8.48859 3.25 7.63H2.75ZM3.92058 5.42249C3.21324 5.89773 2.75 6.71461 2.75 7.63H3.25C3.25 6.88539 3.62676 6.22227 4.19942 5.83751L3.92058 5.42249ZM4.84319 5.02654C4.51717 5.10261 4.19798 5.23385 3.91942 5.42327L4.20058 5.83673C4.42202 5.68615 4.68283 5.57739 4.95681 5.51346L4.84319 5.02654ZM5.41 4.96C5.2202 4.96 5.03099 4.98235 4.84274 5.02665L4.95726 5.51335C5.10901 5.47765 5.2598 5.46 5.41 5.46V4.96ZM7.44 4.96H5.41V5.46H7.44V4.96ZM7.43 5.1C7.18 5.1 7.18 5.10002 7.18 5.10003C7.18 5.10004 7.18 5.10006 7.18 5.10007C7.18 5.1001 7.18 5.10012 7.18 5.10015C7.18 5.10021 7.18 5.10027 7.18 5.10033C7.18 5.10046 7.18 5.10061 7.18 5.10077C7.18 5.1011 7.18 5.1015 7.18001 5.10196C7.18001 5.10289 7.18002 5.10409 7.18003 5.10554C7.18006 5.10842 7.18011 5.11231 7.18022 5.11699C7.18042 5.12627 7.18082 5.13917 7.18163 5.15387C7.18298 5.17812 7.1863 5.22596 7.19746 5.27064L7.68254 5.14936C7.6837 5.15404 7.68202 5.14688 7.68087 5.12613C7.68043 5.11833 7.68021 5.11123 7.6801 5.10613C7.68004 5.10363 7.68002 5.10174 7.68001 5.10064C7.68 5.10009 7.68 5.09974 7.68 5.09963C7.68 5.09957 7.68 5.09957 7.68 5.09963C7.68 5.09966 7.68 5.09971 7.68 5.09977C7.68 5.0998 7.68 5.09984 7.68 5.09987C7.68 5.09989 7.68 5.09991 7.68 5.09993C7.68 5.09995 7.68 5.09996 7.68 5.09997C7.68 5.09998 7.68 5.1 7.43 5.1ZM7.18 4.27V5.1H7.68V4.27H7.18ZM9.7 1.75C8.31193 1.75 7.18 2.88193 7.18 4.27H7.68C7.68 3.15807 8.58807 2.25 9.7 2.25V1.75ZM14.37 1.75H9.7V2.25H14.37V1.75ZM16.89 4.27C16.89 2.88193 15.7581 1.75 14.37 1.75V2.25C15.4819 2.25 16.39 3.15807 16.39 4.27H16.89ZM16.89 5.1V4.27H16.39V5.1H16.89ZM16.63 5.21C16.8775 5.24536 16.8775 5.24535 16.8775 5.24534C16.8775 5.24533 16.8775 5.24532 16.8775 5.24531C16.8775 5.2453 16.8775 5.24528 16.8775 5.24527C16.8775 5.24523 16.8775 5.24519 16.8775 5.24515C16.8775 5.24506 16.8775 5.24496 16.8776 5.24484C16.8776 5.2446 16.8776 5.24429 16.8777 5.24391C16.8778 5.24316 16.8779 5.24215 16.8781 5.24091C16.8784 5.23842 16.8789 5.23498 16.8795 5.23077C16.8806 5.22242 16.882 5.2108 16.8835 5.19761C16.886 5.17443 16.89 5.135 16.89 5.1H16.39C16.39 5.09993 16.39 5.10027 16.39 5.10107C16.39 5.10186 16.3899 5.10293 16.3899 5.10432C16.3897 5.10714 16.3895 5.11067 16.3892 5.11489C16.3885 5.12342 16.3876 5.13296 16.3865 5.14239C16.3855 5.1517 16.3844 5.16008 16.3837 5.1661C16.3833 5.16909 16.383 5.17142 16.3828 5.17292C16.3826 5.17367 16.3826 5.1742 16.3825 5.1745C16.3825 5.17464 16.3825 5.17473 16.3825 5.17476C16.3825 5.17477 16.3825 5.17477 16.3825 5.17475C16.3825 5.17474 16.3825 5.17473 16.3825 5.17471C16.3825 5.1747 16.3825 5.17469 16.3825 5.17468C16.3825 5.17467 16.3825 5.17467 16.3825 5.17466C16.3825 5.17465 16.3825 5.17464 16.63 5.21ZM18.66 4.96H16.63V5.46H18.66V4.96ZM19.2306 5.02746C19.0491 4.98208 18.8586 4.96 18.66 4.96V5.46C18.8214 5.46 18.9709 5.47792 19.1094 5.51254L19.2306 5.02746ZM9.19 4.27C9.19 3.98807 9.42807 3.75 9.71 3.75V3.25C9.15193 3.25 8.69 3.71193 8.69 4.27H9.19ZM8.95 4.02H8.94V4.52H8.95V4.02ZM9.2 5.1V4.27H8.7V5.1H9.2ZM8.97 5.21C9.21038 5.14132 9.21039 5.14134 9.21039 5.14135C9.21039 5.14136 9.2104 5.14138 9.2104 5.14139C9.21041 5.14141 9.21041 5.14143 9.21042 5.14145C9.21043 5.14149 9.21044 5.14152 9.21045 5.14156C9.21047 5.14162 9.21048 5.14167 9.21049 5.1417C9.21051 5.14176 9.21051 5.14177 9.21049 5.14171C9.21046 5.14161 9.21037 5.14127 9.21022 5.14074C9.20993 5.13965 9.20942 5.13779 9.20878 5.13533C9.20747 5.1303 9.20573 5.12334 9.20405 5.11577C9.19923 5.0941 9.2 5.0901 9.2 5.1H8.7C8.7 5.1499 8.71077 5.2009 8.71595 5.22423C8.71927 5.23916 8.72253 5.2522 8.72497 5.26154C8.7262 5.26627 8.72726 5.27019 8.72806 5.27309C8.72846 5.27455 8.7288 5.27576 8.72906 5.27669C8.72919 5.27716 8.7293 5.27757 8.7294 5.2779C8.72944 5.27806 8.72949 5.27821 8.72952 5.27834C8.72954 5.27841 8.72956 5.27847 8.72957 5.27852C8.72958 5.27855 8.72959 5.27858 8.7296 5.27861C8.7296 5.27862 8.72961 5.27864 8.72961 5.27864C8.72961 5.27866 8.72962 5.27868 8.97 5.21ZM15.13 4.96H8.97V5.46H15.13V4.96ZM15.15 5.1C14.9096 5.03132 14.9096 5.03134 14.9096 5.03135C14.9096 5.03136 14.9096 5.03138 14.9096 5.03139C14.9096 5.03142 14.9096 5.03145 14.9096 5.03147C14.9096 5.03153 14.9095 5.03159 14.9095 5.03166C14.9095 5.03179 14.9094 5.03193 14.9094 5.0321C14.9093 5.03243 14.9092 5.03283 14.9091 5.0333C14.9088 5.03424 14.9085 5.03545 14.9081 5.03691C14.9073 5.03981 14.9062 5.04373 14.905 5.04846C14.9025 5.0578 14.8993 5.07084 14.896 5.08577C14.8908 5.1091 14.88 5.1601 14.88 5.21H15.38C15.38 5.2199 15.3792 5.2159 15.384 5.19423C15.3857 5.18666 15.3875 5.1797 15.3888 5.17467C15.3894 5.17221 15.3899 5.17035 15.3902 5.16927C15.3904 5.16873 15.3905 5.1684 15.3905 5.16829C15.3905 5.16823 15.3905 5.16824 15.3905 5.1683C15.3905 5.16834 15.3905 5.16838 15.3904 5.16845C15.3904 5.16848 15.3904 5.16851 15.3904 5.16855C15.3904 5.16857 15.3904 5.16859 15.3904 5.16861C15.3904 5.16862 15.3904 5.16864 15.3904 5.16865C15.3904 5.16866 15.3904 5.16868 15.15 5.1ZM14.9 4.27V5.1H15.4V4.27H14.9ZM14.38 3.75C14.664 3.75 14.9 3.98018 14.9 4.27H15.4C15.4 3.69982 14.936 3.25 14.38 3.25V3.75ZM9.71 3.75H14.38V3.25H9.71V3.75ZM17.1908 19.1803C17.1709 19.4325 16.9573 19.63 16.71 19.63V20.13C17.2227 20.13 17.6491 19.7275 17.6892 19.2197L17.1908 19.1803ZM17.45 18.95H17.44V19.45H17.45V18.95ZM17.9208 10.0104L17.2008 19.1804L17.6992 19.2196L18.4192 10.0496L17.9208 10.0104ZM5.93 10.28H18.17V9.78H5.93V10.28ZM6.89923 19.1804L6.17923 10.0104L5.68077 10.0496L6.40077 19.2196L6.89923 19.1804ZM7.38 19.63C7.13267 19.63 6.91913 19.4325 6.89922 19.1803L6.40078 19.2197C6.44087 19.7275 6.86733 20.13 7.38 20.13V19.63ZM16.71 19.63H7.38V20.13H16.71V19.63ZM18.66 8.28H5.42V8.78H18.66V8.28ZM18.67 8.28H18.66V8.78H18.67V8.28ZM19.33 7.62C19.33 7.98193 19.0319 8.28 18.67 8.28V8.78C19.3081 8.78 19.83 8.25807 19.83 7.62H19.33ZM18.67 6.96C19.0319 6.96 19.33 7.25807 19.33 7.62H19.83C19.83 6.98193 19.3081 6.46 18.67 6.46V6.96ZM5.42 6.96H18.67V6.46H5.42V6.96ZM4.76 7.62C4.76 7.25807 5.05807 6.96 5.42 6.96V6.46C4.78193 6.46 4.26 6.98193 4.26 7.62H4.76ZM5.42 8.28C5.05807 8.28 4.76 7.98193 4.76 7.62H4.26C4.26 8.25807 4.78193 8.78 5.42 8.78V8.28ZM12.04 18.76C12.5881 18.76 13.04 18.3081 13.04 17.76H12.54C12.54 18.0319 12.312 18.26 12.04 18.26V18.76ZM11.04 17.76C11.04 18.3081 11.492 18.76 12.04 18.76V18.26C11.7681 18.26 11.54 18.0319 11.54 17.76H11.04ZM11.04 12.01V17.76H11.54V12.01H11.04ZM12.04 11.01C11.492 11.01 11.04 11.4619 11.04 12.01H11.54C11.54 11.7381 11.7681 11.51 12.04 11.51V11.01ZM13.04 12.01C13.04 11.4619 12.5881 11.01 12.04 11.01V11.51C12.312 11.51 12.54 11.7381 12.54 12.01H13.04ZM13.04 17.76V12.01H12.54V17.76H13.04ZM14.8399 18.26H14.7699V18.76H14.8399V18.26ZM15.3412 17.7951C15.3139 18.0679 15.0909 18.26 14.8399 18.26V18.76C15.3489 18.76 15.786 18.3721 15.8387 17.8449L15.3412 17.7951ZM15.8409 12.0583L15.3409 17.7983L15.839 17.8417L16.339 12.1017L15.8409 12.0583ZM15.3917 11.5194C15.6606 11.539 15.8676 11.7845 15.8411 12.0557L16.3387 12.1043C16.3923 11.5556 15.9793 11.061 15.4282 11.0207L15.3917 11.5194ZM14.8492 11.9683C14.8689 11.6994 15.1144 11.4924 15.3856 11.5188L15.4342 11.0212C14.8854 10.9677 14.3909 11.3807 14.3506 11.9318L14.8492 11.9683ZM14.349 17.7117L14.849 11.9717L14.3509 11.9283L13.8509 17.6683L14.349 17.7117ZM14.7982 18.2507C14.5293 18.231 14.3223 17.9856 14.3487 17.7143L13.8511 17.6657C13.7976 18.2145 14.2106 18.709 14.7617 18.7494L14.7982 18.2507ZM14.9467 18.6868L14.9567 18.6768L14.6031 18.3232L14.5931 18.3332L14.9467 18.6868ZM9.27009 18.76H9.34009V18.26H9.27009V18.76ZM9.45687 18.3433L9.44687 18.3333L9.09331 18.6868L9.10331 18.6968L9.45687 18.3433ZM8.28082 17.8492C8.32102 18.3717 8.76176 18.77 9.28009 18.77V18.27C9.01841 18.27 8.79916 18.0683 8.77935 17.8109L8.28082 17.8492ZM7.78103 12.1117L8.28103 17.8517L8.77914 17.8083L8.27914 12.0683L7.78103 12.1117ZM8.68581 11.0312C8.14506 11.084 7.72722 11.5603 7.78127 12.1143L8.27891 12.0658C8.25295 11.7997 8.45511 11.5561 8.73436 11.5288L8.68581 11.0312ZM9.76891 11.9358C9.71599 11.3934 9.22803 10.977 8.68521 11.0313L8.73496 11.5288C8.99215 11.5031 9.24419 11.7067 9.27127 11.9843L9.76891 11.9358ZM10.2691 17.6783L9.76915 11.9383L9.27103 11.9817L9.77103 17.7217L10.2691 17.6783ZM9.36436 18.7588C9.90511 18.7061 10.323 18.2297 10.2689 17.6758L9.77127 17.7243C9.79722 17.9903 9.59506 18.234 9.31581 18.2612L9.36436 18.7588Z" fill="white" mask="url(#path-1-inside-1_110_5580)"/>
</svg>
