<svg xmlns="http://www.w3.org/2000/svg" width="25" height="25" viewBox="0 0 25 25" fill="none">
  <path d="M21.8096 7.76588C21.6552 7.49059 21.4181 7.26824 21.1235 7.13412C20.9331 7.04941 20.7284 7 20.5057 7H5.49431C5.2716 7 5.06326 7.04941 4.87647 7.13412C4.58192 7.26471 4.34484 7.48706 4.19038 7.76588C4.07184 7.97412 4 8.21059 4 8.46824V17.5318C4 17.7859 4.07184 18.0224 4.18679 18.2306C4.34125 18.5059 4.57833 18.7318 4.86929 18.8624C5.05967 18.9506 5.2716 19 5.49431 19H20.5057C20.7284 19 20.9403 18.9471 21.1307 18.8624C21.4217 18.7282 21.6588 18.5059 21.8132 18.2306C21.9282 18.0224 22 17.7859 22 17.5318V8.46824C22 8.21059 21.9282 7.97412 21.8096 7.76588ZM20.1932 7.91765L14.9595 12.3329L14.2447 12.9365L12.9838 14.0024L11.741 12.9506L11.0261 12.3471L5.79964 7.91765H20.1932ZM4.93395 17.5318V8.46824C4.93395 8.44706 4.93754 8.42588 4.94113 8.40118L10.3149 12.9506L4.93754 17.5812C4.93754 17.5812 4.93395 17.5494 4.93395 17.5318ZM5.7745 18.0824L11.0297 13.5576L12.6785 14.9518C12.7647 15.0259 12.8761 15.0612 12.9838 15.0612C13.0916 15.0612 13.1994 15.0259 13.2892 14.9518L14.9559 13.5435L20.2255 18.0788H5.7745V18.0824ZM15.6707 12.9435L21.0589 8.40118C21.0589 8.42588 21.0661 8.44706 21.0661 8.47176V17.5353C21.0661 17.5353 21.0625 17.5671 21.0625 17.5847L15.6743 12.9471L15.6707 12.9435Z" fill="black"/>
</svg>