<svg width="24" height="24" viewBox="0 0 24 24" fill="none" xmlns="http://www.w3.org/2000/svg">
<path fill-rule="evenodd" clip-rule="evenodd" d="M19.301 2.30641C19.0053 2.0979 18.6351 1.95313 18.1613 2.01402C17.9105 2.04647 17.6577 2.17304 17.5001 2.27836L17.4622 2.30368L17.4295 2.33544C14.696 4.99049 12.008 7.7017 9.32759 10.4052L8.49524 11.2446L8.42408 11.3163L8.38636 11.4101C7.95977 12.4706 7.59954 13.5631 7.24613 14.635L7.24612 14.635L7.24612 14.635L7.24612 14.635C7.18125 14.8318 7.11662 15.0278 7.05184 15.2228L7.04587 15.2408L7.04128 15.2592C6.77969 16.3056 7.80681 17.3014 8.86366 16.918L8.87293 16.9144C9.36098 16.7263 9.87768 16.5655 10.4142 16.3986L10.4143 16.3986L10.5926 16.3431C11.1852 16.1583 11.7978 15.9623 12.3734 15.7179C12.5112 15.6593 12.6237 15.5863 12.7158 15.5214L12.7508 15.4967L21.5983 6.6567L21.6134 6.63844C22.1289 6.01534 22.1288 5.18584 21.6134 4.56273C21.3705 4.26917 20.9489 3.84908 20.6047 3.51658C20.4292 3.34709 20.268 3.19482 20.1507 3.08495C20.092 3.02997 20.0442 2.98551 20.011 2.95471L19.9725 2.91912L19.9623 2.90973C19.9248 2.87379 19.8824 2.83133 19.8363 2.78507C19.6863 2.63467 19.4962 2.44408 19.301 2.30641ZM10.409 14.4681L9.08824 14.9199L9.53647 13.5705C9.83008 13.8696 10.1216 14.1676 10.409 14.4681ZM17.2766 5.07153L18.3989 3.92253L20.0771 5.59964L18.9325 6.72918L17.2766 5.07153ZM12.1029 13.5119L10.4566 11.8804L15.9525 6.42597L17.5798 8.05229L12.1029 13.5119ZM19 13.0185H17.1591L17.1589 19.9479C17.1563 19.9587 17.1529 19.9722 17.1487 19.9877C17.1426 20.0098 17.1362 20.032 17.1305 20.0503L17.1236 20.0716L17.1224 20.0752C17.1181 20.0858 17.1145 20.0922 17.1123 20.0956L17.1096 20.0996L17.1081 20.1013C17.1075 20.1019 17.1034 20.1062 17.0889 20.1129C17.0509 20.1304 16.9821 20.1468 16.8503 20.1571H4.14903C3.95609 20.1431 3.90236 20.1037 3.89375 20.0962C3.89123 20.094 3.88345 20.0872 3.87331 20.0627C3.86232 20.0361 3.84852 19.9879 3.84131 19.907V7.09505C3.85221 6.9974 3.87133 6.94313 3.88666 6.91599C3.89341 6.90402 3.89828 6.89938 3.90067 6.89734C3.90264 6.89565 3.9091 6.89038 3.92547 6.88423L3.94191 6.87935C3.95663 6.87506 3.97504 6.86988 3.99331 6.86492L4.00847 6.86085L10.9906 6.86085L10.9906 5.00005L4.0577 5.00125L4.04249 5.00218C3.49955 5.03541 3.00238 5.21314 2.62729 5.56428C2.24864 5.91874 2.03938 6.40803 2.00113 6.97611L2 6.99289V20.0026L2.00095 20.018C2.03459 20.5623 2.2346 21.0464 2.59385 21.4046C2.95287 21.7625 3.43734 21.9611 3.98021 21.9956L3.99712 21.9967L4.01406 21.9966C5.71187 21.9894 7.41504 21.9928 9.12002 21.9962H9.1201H9.12019H9.12028C11.8169 22.0016 14.518 22.007 17.2097 21.9702L17.224 21.97L17.2382 21.969C17.7036 21.936 18.1358 21.6765 18.4408 21.3644C18.7448 21.0533 19 20.6097 19 20.1263V13.0185Z" fill="black"/>
</svg>
