<svg width="24" height="18" viewBox="0 0 24 18" fill="none" xmlns="http://www.w3.org/2000/svg">
    <g id="icon_flag_BR">
        <rect id="Rectangle 200" x="0.5" width="23" height="18" rx="3" fill="#6DA544" />
        <path id="Path" d="M11.7696 4L19.0391 9.35652L11.7696 14.713L4.5 9.35652L11.7696 4Z" fill="#FAD749" />
        <path id="Oval"
            d="M11.7698 12.4176C13.4603 12.4176 14.8307 11.0472 14.8307 9.35675C14.8307 7.66629 13.4603 6.2959 11.7698 6.2959C10.0794 6.2959 8.70898 7.66629 8.70898 9.35675C8.70898 11.0472 10.0794 12.4176 11.7698 12.4176Z"
            fill="#EEEEEE" />
        <g id="Group">
            <path id="Path_2"
                d="M10.2394 9.16547C9.70715 9.16547 9.19348 9.24642 8.70996 9.39664C8.73138 11.0686 10.0928 12.4177 11.7699 12.4177C12.8069 12.4177 13.7228 11.9014 14.2764 11.1125C13.3292 9.92667 11.8716 9.16547 10.2394 9.16547Z"
                fill="#0052B4" />
            <path id="Path_3"
                d="M14.7739 9.94319C14.8108 9.7533 14.8307 9.5574 14.8307 9.35675C14.8307 7.66626 13.4603 6.2959 11.7698 6.2959C10.5084 6.2959 9.42563 7.05906 8.95703 8.14868C9.37125 8.06284 9.80011 8.01764 10.2394 8.01764C12.0172 8.0176 13.6254 8.7566 14.7739 9.94319Z"
                fill="#0052B4" />
        </g>
    </g>
</svg>
