<svg width="50" height="50" viewBox="0 0 50 50" fill="none" xmlns="http://www.w3.org/2000/svg">
<path id="icon_faceID" fill-rule="evenodd" clip-rule="evenodd" d="M3.66671 10.4444C3.66671 6.7011 6.70122 3.66658 10.4445 3.66658H14.9482C15.8687 3.66658 16.6149 2.92039 16.6149 1.99992C16.6149 1.07944 15.8687 0.333252 14.9482 0.333252H10.4445C4.86027 0.333252 0.333374 4.86016 0.333374 10.4444V15.1911C0.333374 16.1115 1.07957 16.8577 2.00004 16.8577C2.92052 16.8577 3.66671 16.1115 3.66671 15.1911V10.4444ZM3.66671 39.5556C3.66671 43.2989 6.70122 46.3334 10.4445 46.3334H14.9482C15.8687 46.3334 16.6149 47.0796 16.6149 48.0001C16.6149 48.9206 15.8687 49.6667 14.9482 49.6667H10.4445C4.86027 49.6667 0.333374 45.1398 0.333374 39.5556V34.8089C0.333374 33.8885 1.07957 33.1423 2.00004 33.1423C2.92052 33.1423 3.66671 33.8885 3.66671 34.8089V39.5556ZM39.5555 3.66658C43.2988 3.66658 46.3333 6.7011 46.3333 10.4444V15.1911C46.3333 16.1115 47.0795 16.8577 48 16.8577C48.9204 16.8577 49.6666 16.1115 49.6666 15.1911V10.4444C49.6666 4.86016 45.1397 0.333252 39.5555 0.333252H35.0518C34.1313 0.333252 33.3851 1.07944 33.3851 1.99992C33.3851 2.92039 34.1313 3.66658 35.0518 3.66658H39.5555ZM46.3333 39.5556C46.3333 43.2989 43.2988 46.3334 39.5555 46.3334H35.0518C34.1313 46.3334 33.3851 47.0796 33.3851 48.0001C33.3851 48.9206 34.1313 49.6667 35.0518 49.6667H39.5555C45.1397 49.6667 49.6666 45.1398 49.6666 39.5556V34.8089C49.6666 33.8885 48.9204 33.1423 48 33.1423C47.0795 33.1423 46.3333 33.8885 46.3333 34.8089V39.5556ZM15.5376 34.0087C15.901 33.163 16.8811 32.7719 17.7269 33.1353C22.2603 35.083 27.3948 35.083 31.9283 33.1353C32.774 32.7719 33.7542 33.163 34.1175 34.0087C34.4809 34.8544 34.0898 35.8346 33.2441 36.1979C27.8705 38.5066 21.7846 38.5066 16.411 36.1979C15.5653 35.8346 15.1743 34.8544 15.5376 34.0087ZM27.5196 17.9999C27.5196 17.0794 26.7734 16.3333 25.853 16.3333C24.9325 16.3333 24.1863 17.0794 24.1863 17.9999V25.3211C24.1863 26.3119 23.4895 27.166 22.519 27.365L22.2514 27.4199C21.3497 27.6048 20.7686 28.4856 20.9535 29.3873C21.1384 30.2891 22.0193 30.8702 22.921 30.6853L23.1886 30.6304C25.7097 30.1134 27.5196 27.8947 27.5196 25.3211V17.9999ZM15 16.3333C15.9205 16.3333 16.6667 17.0794 16.6667 17.9999V21.9473C16.6667 22.8678 15.9205 23.614 15 23.614C14.0796 23.614 13.3334 22.8678 13.3334 21.9473V17.9999C13.3334 17.0794 14.0796 16.3333 15 16.3333ZM36.6667 17.9999C36.6667 17.0794 35.9205 16.3333 35 16.3333C34.0796 16.3333 33.3334 17.0794 33.3334 17.9999V21.9473C33.3334 22.8678 34.0796 23.614 35 23.614C35.9205 23.614 36.6667 22.8678 36.6667 21.9473V17.9999Z" fill="black"/>
</svg>
