<svg width="64" height="64" viewBox="0 0 64 64" fill="none" xmlns="http://www.w3.org/2000/svg">
<g id="Android Fingerprint">
<path id="Vector" d="M47.4933 11.9202C47.28 11.9202 47.0667 11.8668 46.88 11.7602C41.76 9.12016 37.3333 8.00016 32.0267 8.00016C26.7467 8.00016 21.7333 9.2535 17.1733 11.7602C16.5333 12.1068 15.7333 11.8668 15.36 11.2268C15.0133 10.5868 15.2533 9.76016 15.8933 9.4135C20.8533 6.72016 26.2933 5.3335 32.0267 5.3335C37.7067 5.3335 42.6667 6.58683 48.1067 9.38683C48.7733 9.7335 49.0133 10.5335 48.6667 11.1735C48.4267 11.6535 47.9733 11.9202 47.4933 11.9202ZM9.33333 25.9202C9.06667 25.9202 8.8 25.8402 8.56 25.6802C7.94667 25.2535 7.81333 24.4268 8.24 23.8135C10.88 20.0802 14.24 17.1468 18.24 15.0935C26.6133 10.7735 37.3333 10.7468 45.7333 15.0668C49.7333 17.1202 53.0933 20.0268 55.7333 23.7335C56.16 24.3202 56.0267 25.1735 55.4133 25.6002C54.8 26.0268 53.9733 25.8935 53.5467 25.2802C51.1467 21.9202 48.1067 19.2802 44.5067 17.4402C36.8533 13.5202 27.0667 13.5202 19.44 17.4668C15.8133 19.3335 12.7733 22.0002 10.3733 25.3602C10.16 25.7335 9.76 25.9202 9.33333 25.9202ZM26 58.1068C25.6533 58.1068 25.3067 57.9735 25.0667 57.7068C22.7467 55.3868 21.4933 53.8935 19.7067 50.6668C17.8667 47.3868 16.9067 43.3868 16.9067 39.0935C16.9067 31.1735 23.68 24.7202 32 24.7202C40.32 24.7202 47.0933 31.1735 47.0933 39.0935C47.0933 39.8402 46.5067 40.4268 45.76 40.4268C45.0133 40.4268 44.4267 39.8402 44.4267 39.0935C44.4267 32.6402 38.8533 27.3868 32 27.3868C25.1467 27.3868 19.5733 32.6402 19.5733 39.0935C19.5733 42.9335 20.4267 46.4802 22.0533 49.3602C23.76 52.4268 24.9333 53.7335 26.9867 55.8135C27.4933 56.3468 27.4933 57.1735 26.9867 57.7068C26.6933 57.9735 26.3467 58.1068 26 58.1068ZM45.12 53.1735C41.9467 53.1735 39.1467 52.3735 36.8533 50.8002C32.88 48.1068 30.5067 43.7335 30.5067 39.0935C30.5067 38.3468 31.0933 37.7602 31.84 37.7602C32.5867 37.7602 33.1733 38.3468 33.1733 39.0935C33.1733 42.8535 35.0933 46.4002 38.3467 48.5868C40.24 49.8668 42.4533 50.4802 45.12 50.4802C45.76 50.4802 46.8267 50.4002 47.8933 50.2135C48.6133 50.0802 49.3067 50.5602 49.44 51.3068C49.5733 52.0268 49.0933 52.7202 48.3467 52.8535C46.8267 53.1468 45.4933 53.1735 45.12 53.1735ZM39.76 58.6668C39.6533 58.6668 39.52 58.6402 39.4133 58.6135C35.1733 57.4402 32.4 55.8668 29.4933 53.0135C25.76 49.3068 23.7067 44.3735 23.7067 39.0935C23.7067 34.7735 27.3867 31.2535 31.92 31.2535C36.4533 31.2535 40.1333 34.7735 40.1333 39.0935C40.1333 41.9468 42.6133 44.2668 45.68 44.2668C48.7467 44.2668 51.2267 41.9468 51.2267 39.0935C51.2267 29.0402 42.56 20.8802 31.8933 20.8802C24.32 20.8802 17.3867 25.0935 14.2667 31.6268C13.2267 33.7868 12.6933 36.3202 12.6933 39.0935C12.6933 41.1735 12.88 44.4535 14.48 48.7202C14.7467 49.4135 14.4 50.1868 13.7067 50.4268C13.0133 50.6935 12.24 50.3202 12 49.6535C10.6933 46.1602 10.0533 42.6935 10.0533 39.0935C10.0533 35.8935 10.6667 32.9868 11.8667 30.4535C15.4133 23.0135 23.28 18.1868 31.8933 18.1868C44.0267 18.1868 53.8933 27.5468 53.8933 39.0668C53.8933 43.3868 50.2133 46.9068 45.68 46.9068C41.1467 46.9068 37.4667 43.3868 37.4667 39.0668C37.4667 36.2135 34.9867 33.8935 31.92 33.8935C28.8533 33.8935 26.3733 36.2135 26.3733 39.0668C26.3733 43.6268 28.1333 47.8935 31.36 51.0935C33.8933 53.6002 36.32 54.9868 40.08 56.0268C40.8 56.2135 41.2 56.9602 41.0133 57.6535C40.88 58.2668 40.32 58.6668 39.76 58.6668Z" fill="black"/>
</g>
</svg>
