<svg width="24" height="24" viewBox="0 0 24 24" fill="none" xmlns="http://www.w3.org/2000/svg">
    <g id="icons / rewards">
        <path id="Vector"
            d="M18.4 8.80722H15.92C16.32 8.64733 16.64 8.40748 16.88 8.08769C17.84 7.12831 17.84 5.60929 16.88 4.72986C16 3.85042 14.4 3.85042 13.52 4.72986C12.16 6.00903 12 8.48743 12 8.72728C12 8.48743 11.84 6.00903 10.48 4.64991C9.6 3.77047 8 3.77047 7.12 4.72986C6.64 5.1296 6.4 5.76918 6.4 6.40877C6.4 7.04836 6.64 7.68795 7.12 8.08769C7.36 8.32753 7.76 8.56738 8.08 8.80722H5.6C4.72 8.80722 4 9.52676 4 10.4062V12.8046C4 13.2843 4.32 13.6041 4.8 13.6041V18.401C4.8 19.2805 5.52 20 6.4 20H17.6C18.48 20 19.2 19.2805 19.2 18.401V13.6041C19.68 13.6041 20 13.2843 20 12.8046V10.4062C20 9.52676 19.28 8.80722 18.4 8.80722ZM8.8 18.401H6.4V13.6041H8.8V18.401ZM8.8 12.0052H5.6V10.4062H8.8V12.0052ZM8.24 6.96841C8.08 6.80851 8 6.56867 8 6.40877C8 6.00903 8.32 5.60929 8.8 5.60929C9.04 5.60929 9.2 5.68924 9.36 5.84913C9.84 6.32882 10.08 7.12831 10.24 7.84784C9.52 7.68795 8.72 7.4481 8.24 6.96841ZM13.6 18.401H10.4V13.6041H13.6V18.401ZM13.6 12.0052H10.4V10.4062H13.6V12.0052ZM14.64 5.84913C14.8 5.68924 14.96 5.60929 15.2 5.60929C15.44 5.60929 15.6 5.68924 15.76 5.84913C16.08 6.16893 16.08 6.64862 15.76 6.96841C15.28 7.4481 14.48 7.68795 13.76 7.84784C13.92 7.12831 14.16 6.32882 14.64 5.84913ZM17.6 18.401H15.2V13.6041H17.6V18.401ZM18.4 12.0052H15.2V10.4062H18.4V12.0052Z"
            fill="black" />
    </g>
</svg>
