<svg width="24" height="24" viewBox="0 0 24 24" fill="none" xmlns="http://www.w3.org/2000/svg">
    <g id="icons / info">
        <path id="Vector"
            d="M11.9992 2C6.48517 2 2 6.48607 2 12.0001C2 17.5142 6.48517 22 11.9992 22C17.5134 22 21.9993 17.514 21.9993 12.0001C21.9993 6.48607 17.5134 2 11.9992 2ZM11.9992 19.8829C7.65282 19.8829 4.1172 16.3465 4.1172 12.0001C4.1172 7.65376 7.65286 4.11716 11.9992 4.11716C16.3457 4.11716 19.8821 7.65376 19.8821 12.0001C19.8821 16.3465 16.3457 19.8829 11.9992 19.8829Z"
            fill="black" />
        <path id="Vector_2"
            d="M13.014 11.0293H10.9839C10.6433 11.0293 10.3667 11.3059 10.3667 11.646V17.6652C10.3667 18.0058 10.6433 18.2819 10.9839 18.2819H13.014C13.3547 18.2819 13.6312 18.0057 13.6312 17.6652V11.646C13.6312 11.3059 13.3547 11.0293 13.014 11.0293Z"
            fill="black" />
        <path id="Vector_3"
            d="M11.9989 5.71875C11.0004 5.71875 10.1904 6.52863 10.1904 7.52721C10.1904 8.52591 11.0003 9.33583 11.9989 9.33583C12.9976 9.33583 13.8076 8.52595 13.8076 7.52721C13.8076 6.52863 12.9977 5.71875 11.9989 5.71875Z"
            fill="black" />
    </g>
</svg>
