<svg width="24" height="24" viewBox="0 0 24 24" fill="none" xmlns="http://www.w3.org/2000/svg">
<mask id="mask0_828_4627" style="mask-type:luminance" maskUnits="userSpaceOnUse" x="3" y="3" width="19" height="19">
<path d="M22 3H3V22H22V3Z" fill="white"/>
</mask>
<g mask="url(#mask0_828_4627)">
<path d="M15.0253 16.7067C15.0253 17.1525 14.6325 17.5664 14.0954 17.5664H6.27089C6.07046 17.5664 5.87806 17.6539 5.74979 17.8052L4.36287 19.4528V9.19268C4.36287 8.74693 4.7557 8.33302 5.29283 8.33302H7.81013V6.97986H5.28481C4.05021 6.97986 3 7.95095 3 9.19268V21.3234C3 21.6099 3.17637 21.8647 3.44895 21.9602C3.72152 22.0557 4.01814 21.9761 4.20253 21.7612L6.59156 18.9275H14.0954C15.33 18.9275 16.3882 17.9564 16.3882 16.7147V15.7436H15.0253V16.7147V16.7067Z" fill="black"/>
<path d="M21.3271 3.63678C20.9102 3.23879 20.341 3 19.7157 3H10.9051C9.67052 3 8.6123 3.97109 8.6123 5.21282V12.7269C8.6123 13.9686 9.66251 14.9397 10.9051 14.9397H18.4089L20.798 17.7734C20.8541 17.845 20.9343 17.8928 21.0064 17.9326C21.0305 17.9405 21.0465 17.9485 21.0705 17.9564C21.1427 17.9803 21.2148 17.9962 21.287 18.0042C21.303 18.0042 21.3191 18.0042 21.3351 18.0042C21.4073 18.0042 21.4794 17.9883 21.5516 17.9644C21.6878 17.9166 21.8001 17.8291 21.8802 17.7176C21.9604 17.6062 22.0005 17.4709 22.0005 17.3276V5.21282C22.0005 4.59196 21.7359 4.03477 21.3191 3.63678H21.3271ZM20.6456 15.473L19.2587 13.8253C19.1946 13.7457 19.1144 13.69 19.0262 13.6502C18.9381 13.6104 18.8419 13.5865 18.7376 13.5865H10.9132C10.376 13.5865 9.98318 13.1726 9.98318 12.7269V5.21282C9.98318 4.76707 10.376 4.35316 10.9132 4.35316H19.7237C20.2608 4.35316 20.6537 4.76707 20.6537 5.21282V15.473H20.6456Z" fill="black"/>
<path d="M12.2277 7.77588H12.2106C11.5512 7.77588 11.0166 8.31044 11.0166 8.96984C11.0166 9.62925 11.5512 10.1638 12.2106 10.1638H12.2277C12.8871 10.1638 13.4217 9.62925 13.4217 8.96984C13.4217 8.31044 12.8871 7.77588 12.2277 7.77588Z" fill="black"/>
<path d="M15.4347 7.77588H15.4176C14.7582 7.77588 14.2236 8.31044 14.2236 8.96984C14.2236 9.62925 14.7582 10.1638 15.4176 10.1638H15.4347C16.0941 10.1638 16.6287 9.62925 16.6287 8.96984C16.6287 8.31044 16.0941 7.77588 15.4347 7.77588Z" fill="black"/>
<path d="M18.6418 7.77588H18.6246C17.9652 7.77588 17.4307 8.31044 17.4307 8.96984C17.4307 9.62925 17.9652 10.1638 18.6246 10.1638H18.6418C19.3012 10.1638 19.8357 9.62925 19.8357 8.96984C19.8357 8.31044 19.3012 7.77588 18.6418 7.77588Z" fill="black"/>
</g>
</svg>
