<?xml version="1.0" encoding="UTF-8"?> <svg xmlns="http://www.w3.org/2000/svg" width="24" height="24" viewBox="0 0 24 24" fill="none"><g clip-path="url(#clip0_66_445)"><path d="M15.0253 16.7067C15.0253 17.1525 14.6325 17.5664 14.0954 17.5664H6.27089C6.07046 17.5664 5.87806 17.6539 5.74979 17.8052L4.36287 19.4528V9.19268C4.36287 8.74693 4.7557 8.33302 5.29283 8.33302H7.81013V6.97986H5.28481C4.05021 6.97986 3 7.95095 3 9.19268V21.3234C3 21.6099 3.17637 21.8647 3.44895 21.9602C3.72152 22.0557 4.01814 21.9761 4.20253 21.7612L6.59156 18.9275H14.0954C15.33 18.9275 16.3882 17.9564 16.3882 16.7147V15.7436H15.0253V16.7147V16.7067Z" fill="white"></path><path d="M21.3266 3.63678C20.9097 3.23879 20.3405 3 19.7152 3H10.9046C9.67004 3 8.61182 3.97109 8.61182 5.21282V12.7269C8.61182 13.9686 9.66203 14.9397 10.9046 14.9397H18.4084L20.7975 17.7734C20.8536 17.845 20.9338 17.8928 21.0059 17.9326C21.03 17.9405 21.046 17.9485 21.07 17.9564C21.1422 17.9803 21.2143 17.9962 21.2865 18.0042C21.3025 18.0042 21.3186 18.0042 21.3346 18.0042C21.4068 18.0042 21.4789 17.9883 21.5511 17.9644C21.6873 17.9166 21.7996 17.8291 21.8797 17.7176C21.9599 17.6062 22 17.4709 22 17.3276V5.21282C22 4.59196 21.7354 4.03477 21.3186 3.63678H21.3266ZM20.6451 15.473L19.2582 13.8253C19.1941 13.7457 19.1139 13.69 19.0257 13.6502C18.9376 13.6104 18.8414 13.5865 18.7371 13.5865H10.9127C10.3755 13.5865 9.9827 13.1726 9.9827 12.7269V5.21282C9.9827 4.76707 10.3755 4.35316 10.9127 4.35316H19.7232C20.2603 4.35316 20.6532 4.76707 20.6532 5.21282V15.473H20.6451Z" fill="white"></path><rect x="11.0169" y="7.77588" width="2.40506" height="2.38793" rx="1.19397" fill="white"></rect><rect x="14.2236" y="7.77588" width="2.40506" height="2.38793" rx="1.19397" fill="white"></rect><rect x="17.4304" y="7.77588" width="2.40506" height="2.38793" rx="1.19397" fill="white"></rect></g><defs><clipPath id="clip0_66_445"><rect width="19" height="19" fill="white" transform="translate(3 3)"></rect></clipPath></defs></svg> 