<svg width="14" height="18" viewBox="0 0 14 18" fill="none" xmlns="http://www.w3.org/2000/svg">
<path fill-rule="evenodd" clip-rule="evenodd" d="M0 7.00451C0 3.14525 3.14525 0 7.00451 0C10.8638 0 14.009 3.14525 14 7.00451C14 7.70948 13.8915 8.3783 13.7017 9.02C13.5481 9.53517 13.3312 10.0142 13.0691 10.4751L10.9903 12.7437L6.99547 17.1181L2.97353 12.7166L0.930922 10.4842C0.917365 10.4616 0.903809 10.4412 0.890252 10.4209C0.876695 10.4006 0.863137 10.3802 0.849579 10.3576C0.623627 9.93285 0.442866 9.48094 0.307295 9.02C0.108457 8.36926 0 7.6914 0 7.00451ZM9.81535 11.3699L11.7947 9.02C12.0568 8.39637 12.2014 7.71852 12.2014 7.00451C12.2014 4.13944 9.86958 1.80762 7.00451 1.80762C4.13944 1.80762 1.80762 4.13944 1.80762 7.00451C1.80762 7.70044 1.95222 8.38733 2.22337 9.02L4.18463 11.3609L6.57972 13.9819L7.00451 14.4428L7.42026 13.9909L9.81535 11.3699ZM9.12851 7.00481C9.12851 8.17783 8.17759 9.12876 7.00456 9.12876C5.83154 9.12876 4.88062 8.17783 4.88062 7.00481C4.88062 5.83178 5.83154 4.88086 7.00456 4.88086C8.17759 4.88086 9.12851 5.83178 9.12851 7.00481Z" fill="black"/>
</svg>
