<svg width="25" height="25" viewBox="0 0 25 25" fill="none" xmlns="http://www.w3.org/2000/svg">
<g id="icons / football">
<path id="Shape" d="M2.86356 12.9689C2.855 13.0846 2.93728 13.2107 3.04654 13.2504C3.22867 13.3166 3.52522 13.4243 3.88717 13.5555L3.84085 14.1507C3.83309 14.2504 3.90408 14.3563 3.9994 14.3873L4.67743 14.6076C4.77275 14.6386 4.89246 14.5946 4.94479 14.5094L5.23201 14.0416C5.48217 14.1317 5.73629 14.2232 5.98593 14.3127L5.94209 14.8759C5.93433 14.9756 6.00532 15.0816 6.10064 15.1125L6.77867 15.3328C6.87399 15.3638 6.9937 15.3198 7.04602 15.2346L7.32018 14.7881C7.54752 14.8684 7.77446 14.9499 8.00112 15.0321L7.96057 15.553C7.95282 15.6527 8.02377 15.7586 8.11913 15.7896L8.79715 16.0099C8.89244 16.0409 9.01219 15.9969 9.06452 15.9117L9.30871 15.514C10.5151 15.9638 11.719 16.4206 12.9364 16.8399L12.8928 17.3999C12.8851 17.4997 12.956 17.6056 13.0514 17.6366L13.7294 17.8569C13.8247 17.8878 13.9444 17.8438 13.9968 17.7586L14.2872 17.2856C14.5301 17.362 14.7735 17.4364 15.0177 17.5086L14.9752 18.0553C14.9674 18.155 15.0384 18.2609 15.1337 18.2919L15.8117 18.5122C15.907 18.5432 16.0268 18.4992 16.0791 18.414L16.4014 17.889C16.6216 17.9444 16.8424 17.9974 17.064 18.0469L17.0118 18.7171C17.0041 18.8168 17.075 18.9227 17.1704 18.9537L17.8484 19.174C17.9437 19.205 18.0634 19.161 18.1157 19.0757L18.5761 18.326C18.8739 18.3683 19.1728 18.403 19.4729 18.4279C19.7734 18.4529 20.0749 18.4678 20.3765 18.4721C20.4927 18.4737 20.6161 18.3839 20.652 18.2736C20.7501 17.9732 20.9245 17.4384 20.9282 17.427C20.9797 17.2684 20.9783 17.047 20.9471 16.8848C20.8756 16.5132 20.5639 16.2413 20.2803 16.0184C19.851 15.6811 19.3801 15.3969 18.9155 15.1119C18.7171 14.9901 18.5208 14.8666 18.3264 14.7388C18.0347 14.5469 17.745 14.3521 17.4548 14.1581C16.8718 13.7685 16.2995 13.3665 15.752 12.9326C15.8701 12.7834 15.8588 12.5242 15.6229 12.4475C15.4775 12.4003 15.3605 12.4594 15.2938 12.5561C15.1157 12.4043 14.9406 12.2484 14.7695 12.0874C14.9219 11.9487 14.9311 11.649 14.6743 11.5655C14.5272 11.5177 14.4092 11.5788 14.3429 11.6776C14.1612 11.4997 13.979 11.316 13.8045 11.1256C13.9832 11.0002 14.0097 10.6696 13.7378 10.5812C13.6 10.5364 13.4877 10.5872 13.4195 10.6749C13.2683 10.4827 13.1298 10.284 13.0113 10.0784C12.9273 9.9328 12.853 9.78101 12.7476 9.64882C12.44 9.26321 11.86 9.2 11.405 9.29187C10.7103 9.43158 9.25661 9.40299 8.24138 8.69593C7.81477 8.39881 7.44069 8.00091 7.21178 7.53162C7.09523 7.29268 7.02897 7.04232 6.98003 6.78253C6.93727 6.55547 6.88491 6.31222 6.6539 6.20394C6.19827 5.99039 5.54639 6.51508 5.18491 6.74281C4.41422 7.22843 3.78727 7.94431 3.44248 8.78947C3.11453 9.59345 3.05499 10.5217 2.97949 11.3797C2.93299 11.9089 2.9028 12.4391 2.86356 12.9689ZM4.73815 7.89102C6.02562 9.56719 8.27713 11.062 11.0684 12.5941C13.8865 14.141 14.6488 16.2049 14.7883 16.6632C14.5603 16.585 14.3331 16.5048 14.1065 16.4229C13.6587 16.2611 13.2133 16.0932 12.7693 15.9215C11.673 15.4974 10.5855 15.0499 9.49459 14.613C9.41192 14.5804 9.32985 14.548 9.24808 14.5157C9.10156 13.367 8.36377 12.4468 7.55074 11.671C6.72776 10.8857 5.67123 10.2254 5.13787 9.19487C4.97458 8.87937 4.8575 8.54186 4.78333 8.19483C4.77504 8.15585 4.70055 7.92496 4.73815 7.89102Z" fill="white"/>
</g>
</svg>
