<svg width="24" height="25" viewBox="0 0 24 25" fill="none" xmlns="http://www.w3.org/2000/svg">
<g id="myBets / white">
<g id="Group 482">
<path id="Vector" d="M14.042 15.99L11.512 15.9927L11.5128 16.8327L14.0428 16.83L14.042 15.99Z" fill="white"/>
<path id="Vector_2" d="M10.6721 15.9936L8.14209 15.9962L8.14297 16.8362L10.673 16.8336L10.6721 15.9936Z" fill="white"/>
<path id="Vector_3" d="M14.0547 8.94999L11.5247 8.95264L11.5255 9.79264L14.0555 9.78999L14.0547 8.94999Z" fill="white"/>
<path id="Vector_4" d="M10.6847 8.95353L8.15466 8.95618L8.15554 9.79618L10.6855 9.79353L10.6847 8.95353Z" fill="white"/>
<path id="Vector_5" d="M12.35 4.5C12.17 4.5 11.99 4.57 11.86 4.7C11.73 4.83 11.66 5 11.66 5.19V5.32L11.58 5.43C11.58 5.43 11.31 5.79 10.85 5.79C10.39 5.79 10.05 5.52 10.05 5.19C10.05 5.01 9.98 4.83 9.85 4.7C9.72 4.57 9.55 4.5 9.36 4.5H4.5V21.45H9.39C9.57 21.45 9.75 21.38 9.88 21.25C10.01 21.12 10.08 20.95 10.08 20.76C10.08 20.44 10.44 20.16 10.87 20.16C11.3 20.16 11.67 20.43 11.67 20.76C11.67 20.94 11.74 21.12 11.87 21.25C12 21.38 12.17 21.45 12.36 21.45H17.68V4.5H12.34H12.35ZM12.93 20.09L12.81 19.89C12.61 19.56 12.33 19.28 11.99 19.1C11.67 18.92 11.3 18.82 10.93 18.82H10.85C10.47 18.82 10.1 18.92 9.77 19.1C9.43 19.29 9.15 19.56 8.95 19.89L8.83 20.08H5.88V16.9H7.31V16.05H5.88V9.81H7.32V8.97H5.88V5.86H8.85L8.97 6.05C9.17 6.38 9.45 6.65 9.79 6.84C10.13 7.03 10.51 7.13 10.89 7.13C11.27 7.13 11.66 7.03 11.99 6.84C12.33 6.65 12.61 6.38 12.81 6.05L12.93 5.86H16.32V8.97H14.89V9.81H16.32V16H14.88V16.85H16.32V20.1H12.91L12.93 20.09Z" fill="white"/>
</g>
</g>
</svg>
