<svg width="25" height="25" viewBox="0 0 25 25" fill="none" xmlns="http://www.w3.org/2000/svg">
<g id="icons / promotions">
<g id="Group 484">
<path id="Vector" d="M7.265 9.29L7.105 8.72C7.105 8.72 7.085 8.68 7.045 8.68H5.465C5.465 8.68 5.415 8.69 5.405 8.72L5.245 9.29C5.225 9.36 5.175 9.4 5.105 9.4H4.115C4.115 9.4 4.035 9.39 4.015 9.36C3.995 9.33 3.995 9.3 4.015 9.26L5.485 4.61C5.505 4.54 5.555 4.5 5.635 4.5H6.875C6.955 4.5 7.005 4.54 7.025 4.61L8.505 9.27C8.505 9.27 8.505 9.3 8.505 9.32C8.505 9.38 8.465 9.41 8.395 9.41H7.405C7.335 9.41 7.285 9.37 7.265 9.3V9.29ZM5.695 7.74C5.695 7.74 5.705 7.78 5.735 7.78H6.775C6.775 7.78 6.805 7.78 6.815 7.76C6.815 7.75 6.815 7.74 6.815 7.72L6.285 5.86C6.285 5.86 6.275 5.82 6.265 5.82C6.255 5.82 6.245 5.83 6.235 5.86L5.705 7.72L5.695 7.74Z" fill="white"/>
<path id="Vector_2" d="M16.545 20.91C16.545 20.91 16.505 20.86 16.505 20.82V19.98C16.505 19.93 16.525 19.88 16.565 19.83L18.675 17.11C18.675 17.11 18.685 17.08 18.675 17.07C18.675 17.06 18.655 17.05 18.635 17.05H16.625C16.625 17.05 16.555 17.04 16.535 17.01C16.515 16.99 16.495 16.96 16.495 16.92V16.18C16.495 16.18 16.505 16.11 16.535 16.09C16.565 16.07 16.585 16.05 16.625 16.05H19.875C19.875 16.05 19.945 16.06 19.965 16.09C19.985 16.11 19.995 16.14 19.995 16.18V17.02C19.995 17.07 19.975 17.12 19.935 17.17L17.815 19.89C17.815 19.89 17.805 19.92 17.815 19.93C17.815 19.94 17.835 19.95 17.845 19.95H19.865C19.865 19.95 19.935 19.96 19.955 19.99C19.975 20.01 19.985 20.04 19.985 20.08V20.82C19.985 20.82 19.975 20.89 19.955 20.91C19.935 20.93 19.905 20.95 19.865 20.95H16.615C16.615 20.95 16.545 20.94 16.525 20.91H16.545Z" fill="white"/>
<path id="Vector_3" d="M8.245 13.4H9.28501H14.245H15.215H18.365H20.005V12.04H15.215H13.525H9.905H8.245H4.005V13.4H5.685H8.245Z" fill="white"/>
<path id="Vector_4" d="M13.385 9.40004H13.975H16.765H17.315H19.085H20.005V8.04004H17.315H16.365H14.325H13.385H11.005V9.40004H11.945H13.385Z" fill="white"/>
<path id="Vector_5" d="M6.385 17.4H6.975H9.76501H10.315H12.085H13.005V16.04H10.315H9.36501H7.325H6.385H4.005V17.4H4.945H6.385Z" fill="white"/>
</g>
</g>
</svg>
