<svg width="25" height="25" viewBox="0 0 25 25" fill="none" xmlns="http://www.w3.org/2000/svg">
    <g id="icons / casino">
        <path id="Vector" fill-rule="evenodd" clip-rule="evenodd"
            d="M12.5 18.91C11.12 18.91 9.95 17.99 9.59 16.63L9.46 16.13L9.09 16.5C8.56 17.03 7.84 17.31 7 17.31C5.35 17.31 4 15.92 4 14.21C4 12.5 5.35 11.11 7 11.11H7.47L7.56 10.96C8.76 8.96 10.95 6.38 14.57 5.5H15C19.39 6.63 19.5 9.89 19.44 10.88C16.27 10.48 15.55 8.53 15.4 7.37L15.3 6.53L14.85 7.25C14.48 7.84 13.62 9.54 13.5 12.7V12.91L13.68 12.99C14.78 13.45 15.5 14.56 15.5 15.81C15.5 17.52 14.15 18.91 12.5 18.91ZM12.4 13.91C11.46 13.91 10.7 14.72 10.7 15.71C10.7 16.7 11.46 17.51 12.4 17.51C12.91 17.51 13.39 17.3 13.71 16.95C14.01 16.61 14.15 16.16 14.1 15.68C14.1 14.72 13.34 13.91 12.4 13.91ZM7 12.31C6.06 12.31 5.3 13.12 5.3 14.11C5.3 15.1 6.06 15.91 7 15.91C7.98 15.91 8.7 15.15 8.7 14.11C8.7 13.07 7.94 12.31 7 12.31ZM12.45 7.75C11.52 8.27 10.68 9 9.96 9.93C9.39 10.5 9.02 11.01 8.82 11.5L8.74 11.71L8.91 11.85C9.38 12.22 9.73 12.77 9.91 13.4L10.05 13.89L10.41 13.53C10.77 13.17 11.31 12.9 11.85 12.81L12.09 12.77V12.53C12.19 10.8 12.46 9.27 12.88 8.12L13.15 7.37L12.45 7.76V7.75Z"
            fill="white" />
    </g>
</svg>
