<svg width="100" height="100" viewBox="0 0 100 100" fill="none" xmlns="http://www.w3.org/2000/svg">
<circle cx="50" cy="50" r="50" fill="#343434"/>
<path fill-rule="evenodd" clip-rule="evenodd" d="M65.921 75H66.9928C68.3943 74.7701 69.4161 73.9323 70.3598 72.9404C71.2986 71.9535 72.263 70.9885 73.2506 70.0505C74.1467 69.1992 74.7632 68.2098 75 66.9917V65.9179C74.7607 64.5151 73.8952 63.5147 72.9222 62.5497C69.9624 59.6117 67.015 56.6619 64.0676 53.7121C62.7736 52.417 61.4795 51.122 60.1845 49.8279C60.0003 49.6443 59.8102 49.4667 59.5993 49.2697C59.4956 49.1728 59.3868 49.0713 59.2713 48.962C59.4467 48.7923 59.6213 48.6243 59.7951 48.4572C60.1487 48.1171 60.4987 47.7804 60.8449 47.4393L60.9526 47.3333C61.5076 46.7866 62.0626 46.2399 62.6004 45.677C62.8214 45.4458 63.0338 45.3504 63.3658 45.3957C65.5938 45.7039 67.7094 45.3174 69.67 44.2216C72.6451 42.5583 74.3676 40.0095 74.8999 36.6487C74.9151 36.5507 74.9407 36.455 74.9664 36.3593C74.9779 36.3164 74.9894 36.2735 75 36.2304V34.2772C74.9518 34.0655 74.9052 33.8533 74.8587 33.641C74.753 33.1594 74.6472 32.6776 74.5227 32.2006C74.4287 31.841 74.281 31.4937 74.1332 31.1512C73.5619 29.8255 72.4888 29.6176 71.4402 30.6278C71.1418 30.9152 70.8377 31.1978 70.5337 31.4804C69.799 32.1631 69.0643 32.8459 68.4089 33.5985C67.5654 34.5671 66.6107 34.8875 65.3362 34.5867C65.3362 34.4461 65.3352 34.3016 65.3341 34.1543C65.3311 33.7235 65.3278 33.2683 65.3496 32.8145C65.3547 32.706 65.4672 32.595 65.5681 32.4954C65.5889 32.4749 65.6092 32.4548 65.628 32.4354C66.2813 31.7564 66.9366 31.0788 67.5921 30.4011C68.181 29.7922 68.7699 29.1832 69.3575 28.5731C70.3927 27.5005 70.1828 26.4463 68.8228 25.8556C62.4979 23.1074 55.3111 27.2755 54.5932 34.1329C54.5343 34.6966 54.5575 35.2691 54.5807 35.8419C54.5931 36.1466 54.6054 36.4514 54.6054 36.7551C54.6054 36.9043 54.5969 37.1036 54.5066 37.1954C53.5899 38.1304 52.6638 39.0544 51.6962 40.0196C51.4628 40.2525 51.2269 40.4878 50.9882 40.7262C50.8754 40.6026 50.7667 40.48 50.6597 40.3594C50.4333 40.1042 50.2144 39.8576 49.9799 39.6267C49.2449 38.9015 48.4417 38.9027 47.708 39.6169C47.5021 39.8173 47.3037 40.0262 47.0975 40.2433C47.0016 40.3442 46.9041 40.4469 46.8034 40.5513C46.7538 40.5065 46.7074 40.4656 46.6636 40.4269C46.5746 40.3483 46.4961 40.279 46.4225 40.2052C46.0662 39.8493 45.7098 39.4934 45.3535 39.1375C43.4532 37.24 41.553 35.3424 39.6666 33.4309C39.4871 33.2487 39.3602 32.938 39.3492 32.6812C39.3233 32.0477 39.3271 31.4131 39.331 30.7786C39.3327 30.4857 39.3345 30.1928 39.3333 29.9001C39.3297 28.8715 39.0074 28.4153 38.0417 28.0925C37.0734 27.7688 36.1045 27.4469 35.1357 27.125C33.1756 26.4738 31.2156 25.8226 29.2606 25.1572C28.4915 24.8955 27.8701 25.0239 27.3134 25.6097C27.0936 25.8419 26.8653 26.0663 26.6371 26.2906C26.3544 26.5684 26.0719 26.8462 25.8057 27.1385C25.5969 27.368 25.4185 27.6251 25.2402 27.8821C25.161 27.9963 25.0818 28.1104 25 28.2221V28.9058C25.1561 29.3603 25.3127 29.8147 25.4694 30.2692C25.8031 31.237 26.1368 32.205 26.465 33.1753C26.7529 34.0281 27.0376 34.8821 27.3222 35.7362C27.5817 36.5149 27.8412 37.2935 28.1033 38.071C28.4109 38.9871 28.8736 39.3246 29.8331 39.332C30.2197 39.3349 30.6062 39.3341 30.9925 39.3334C31.582 39.3323 32.1713 39.3312 32.7606 39.343C32.9498 39.3466 33.1866 39.42 33.316 39.5472C35.3743 41.588 37.4234 43.638 39.4729 45.6884C39.7804 45.9961 40.0879 46.3037 40.3954 46.6114C40.4222 46.6382 40.4449 46.6686 40.4756 46.7099C40.4954 46.7364 40.5184 46.7673 40.548 46.8046C40.4494 46.9 40.3507 46.9941 40.2524 47.0876C40.0308 47.2987 39.8117 47.5074 39.6019 47.7243C38.9097 48.4398 38.9085 49.2421 39.608 49.9612C39.8407 50.2011 40.0878 50.4266 40.3434 50.6598C40.4605 50.7666 40.5793 50.8751 40.6994 50.9873C40.6405 51.0508 40.5894 51.1073 40.5426 51.1589C40.4634 51.2463 40.3969 51.3197 40.3271 51.3897C40.0286 51.6887 39.7296 51.987 39.4306 52.2853C38.7512 52.9631 38.0718 53.6408 37.3996 54.3261C37.1786 54.5524 36.9711 54.6515 36.6366 54.6074C33.9948 54.2589 31.563 54.8423 29.3814 56.371C26.9508 58.0747 25.5494 60.4253 25.105 63.3544C25.0867 63.4716 25.0612 63.5871 25.0355 63.7028C25.0234 63.7574 25.0113 63.812 25 63.8669V65.7222C25.0533 65.9526 25.0996 66.1856 25.1458 66.4186C25.2446 66.9167 25.3435 67.4149 25.5115 67.8882C26.9435 71.9082 29.7794 74.2564 34.007 74.9107C34.0713 74.92 34.1332 74.944 34.1952 74.9681C34.2227 74.9787 34.2503 74.9894 34.278 74.9988H36.2313C36.4806 74.9382 36.7326 74.8854 36.9845 74.8326C37.5259 74.7191 38.0669 74.6057 38.5801 74.4154C42.5721 72.9356 44.855 70.0517 45.4068 65.8384C45.4776 65.2951 45.4525 64.74 45.4274 64.1841C45.4136 63.8779 45.3997 63.5714 45.4019 63.2664C45.4031 63.0915 45.4422 62.8652 45.5533 62.7503C46.4384 61.8433 47.3356 60.947 48.2473 60.0362C48.4925 59.7913 48.7388 59.5452 48.9861 59.2977C49.0631 59.3798 49.1378 59.4608 49.2116 59.5406C49.3729 59.7153 49.5292 59.8845 49.6917 60.0474C51.0581 61.4148 52.425 62.7814 53.7919 64.1481C56.8986 67.2541 60.0051 70.3601 63.1046 73.4737C63.9006 74.2723 64.8357 74.7615 65.921 75ZM45.6908 45.9052C46.7519 44.8456 47.81 43.7891 48.8726 42.7283L48.8702 42.7332C49.0055 42.8639 49.1453 42.9958 49.287 43.1295C49.6464 43.4685 50.0186 43.8196 50.3644 44.1959C50.539 44.3855 50.633 44.679 50.6879 44.9407C51.0761 46.8009 51.905 48.3933 53.4152 49.5943C54.3906 50.3697 55.5027 50.843 56.7162 51.079C57.2338 51.1793 57.6391 51.4215 58.0102 51.7933C61.3539 55.1458 64.7024 58.4928 68.0511 61.84C69.1686 62.9571 70.2861 64.0741 71.4035 65.1914C72.3045 66.0928 72.3008 66.8376 71.3999 67.7451C71.2235 67.9226 71.0496 68.1032 70.8666 68.2932C70.7899 68.3728 70.7116 68.4541 70.6308 68.5376C70.5739 68.4837 70.5207 68.4339 70.4703 68.3868C70.3629 68.2862 70.2681 68.1974 70.1766 68.1059L70.1652 68.0945C65.8987 63.8287 61.6322 59.563 57.3705 55.2936C56.9506 54.8728 56.505 54.5536 55.8702 54.6551C54.7861 54.8288 54.2673 56.0457 54.9058 56.9385C55.0178 57.0945 55.1564 57.2319 55.2944 57.3687C55.3187 57.3929 55.3431 57.417 55.3672 57.4412C59.6021 61.6765 63.8371 65.9118 68.0744 70.1446C68.1658 70.2353 68.2689 70.3142 68.3937 70.4097C68.4574 70.4584 68.5267 70.5115 68.6031 70.5727C68.4385 70.7236 68.2848 70.873 68.136 71.0176C67.8132 71.3313 67.5131 71.6228 67.1747 71.8605C66.6608 72.2213 66.0894 72.1333 65.5816 71.7639C65.4634 71.6786 65.3593 71.5736 65.2556 71.4691C65.2328 71.4462 65.2101 71.4233 65.1873 71.4007C64.3499 70.5634 63.5126 69.726 62.6753 68.8887C59.0475 65.2607 55.4199 61.6328 51.7866 58.0099C51.4155 57.6381 51.1884 57.2271 51.0749 56.7135C50.3998 53.6388 48.5784 51.6196 45.4947 50.8589C44.6462 50.6498 43.9626 50.2865 43.4071 49.6285C43.2483 49.4406 43.0666 49.2727 42.8954 49.1147C42.8205 49.0455 42.7476 48.9782 42.6795 48.9119C43.6901 47.903 44.6918 46.9028 45.6908 45.9052ZM41.6387 54.2083C42.0163 53.8343 42.3897 53.4644 42.7552 53.0982V53.0958C43.034 53.1734 43.3044 53.248 43.5694 53.3211C44.0644 53.4577 44.5402 53.589 45.0149 53.7244C46.1783 54.0571 47.0585 54.7505 47.6835 55.7901C47.8752 56.1081 47.8581 56.3062 47.5822 56.5765C46.9479 57.1982 46.3216 57.8278 45.6955 58.4572C44.8189 59.3385 43.9425 60.2195 43.0445 61.0784C42.378 61.7168 42.2266 62.3834 42.3939 63.2701C42.9713 66.3239 41.9873 68.8372 39.5079 70.6852C35.1509 73.9335 28.7075 71.1597 28.019 65.7748C27.3671 60.6736 31.7168 56.5899 36.7526 57.6099C37.6462 57.791 38.3066 57.6026 38.9366 56.9397C39.826 56.0039 40.7439 55.0947 41.6387 54.2083ZM65.7881 28.0397C65.7024 28.0255 65.628 28.011 65.5607 27.998C65.437 27.9739 65.3377 27.9545 65.2373 27.9506C62.5736 27.8491 60.3981 28.8287 58.8245 30.9861C57.4938 32.8096 57.1435 34.8655 57.6562 37.0596C57.8088 37.7127 57.633 38.2398 57.1642 38.6984C56.8245 39.0303 56.489 39.3674 56.1534 39.7045C56.0066 39.852 55.8598 39.9995 55.7127 40.1465C55.2893 40.5695 54.8661 40.9926 54.4502 41.4084C53.9859 41.8725 53.5307 42.3277 53.0941 42.7638C53.16 42.9945 53.2261 43.2158 53.2904 43.4312C53.4214 43.8702 53.5452 44.285 53.6459 44.7059C53.9572 46.0072 54.6567 47.0101 55.8177 47.6925C56.1131 47.8662 56.3048 47.8637 56.566 47.5971C57.1693 46.9818 57.7805 46.3741 58.3917 45.7665C59.2807 44.8827 60.1696 43.9989 61.0341 43.0915C61.6921 42.4005 62.3721 42.2012 63.3036 42.3981C67.2785 43.2407 71.1569 40.6406 71.9358 36.6389C72.086 35.8684 72.1629 35.0832 71.9578 34.2222C71.666 34.5028 71.3784 34.7783 71.0942 35.0505C70.3999 35.7155 69.7261 36.3609 69.0608 37.0144C68.6543 37.4131 68.1977 37.6124 67.6215 37.6026C66.8791 37.5904 66.1367 37.5925 65.3944 37.5946C64.9489 37.5959 64.5035 37.5971 64.058 37.5953C62.9825 37.5916 62.4124 37.0144 62.4075 35.9283C62.4063 35.6446 62.4132 35.3601 62.42 35.0755C62.4344 34.4791 62.4487 33.8826 62.3892 33.2939C62.2647 32.0501 62.6602 31.1035 63.6002 30.2853C64.1275 29.8262 64.6055 29.309 65.1014 28.7725C65.3247 28.531 65.5515 28.2855 65.7881 28.0397ZM44.6907 42.5394C44.6482 42.5045 44.6044 42.4704 44.5604 42.4362C44.4643 42.3616 44.3673 42.2862 44.2812 42.1999C43.4612 41.3822 42.6423 40.5633 41.8235 39.7444C40.2371 38.158 38.6508 36.5717 37.0565 34.9939C36.5951 34.5377 36.3717 34.04 36.3973 33.3893C36.4144 32.9703 36.411 32.5505 36.4076 32.1308C36.4047 31.769 36.4018 31.4073 36.412 31.046C36.4205 30.7342 36.3204 30.5874 36.0201 30.4896C33.7665 29.7509 31.5154 29.0036 29.2716 28.238C28.9541 28.1291 28.782 28.249 28.6123 28.4618C28.5659 28.5202 28.5096 28.5716 28.4535 28.6226C28.2856 28.7755 28.1207 28.9257 28.2351 29.2568C29.0103 31.5145 29.7611 33.7819 30.5046 36.0506C30.601 36.3441 30.756 36.4114 31.0368 36.4065C31.3872 36.3995 31.7379 36.402 32.0885 36.4045C32.5356 36.4076 32.9828 36.4107 33.4296 36.3943C34.0632 36.371 34.5442 36.5998 34.9861 37.0462C36.3816 38.4542 37.783 39.856 39.1843 41.2579C40.1991 42.2732 41.2139 43.2884 42.2266 44.306C42.3133 44.3929 42.3705 44.51 42.4222 44.6161C42.444 44.6609 42.4649 44.7036 42.4866 44.7414C43.1654 44.0624 43.7511 43.4776 44.3748 42.8549L44.6907 42.5394ZM30.8647 64.778C30.8964 67.18 32.8949 69.1552 35.2742 69.1381C37.6694 69.1197 39.6495 67.1262 39.6434 64.7389C39.6373 62.3491 37.6474 60.3593 35.2595 60.3544C32.8582 60.3495 30.8329 62.3883 30.8647 64.778ZM35.2595 63.2847C36.0555 63.2872 36.7196 63.9562 36.7159 64.7523V64.7536C36.7123 65.551 36.0445 66.2138 35.2486 66.2102C34.4514 66.2065 33.7897 65.54 33.7921 64.7426C33.7958 63.9464 34.4648 63.2811 35.2595 63.2847Z" fill="white"/>
</svg>
