<svg width="25" height="25" viewBox="0 0 25 25" fill="none" xmlns="http://www.w3.org/2000/svg">
<g id="icons / live">
<path id="Combined Shape 2" d="M20.1 7.5C21.4 7.5 22.5 8.59999 22.5 9.89999C22.5 9.99999 22.5 10.1 22.5 10.2L21.9 15C21.8 16.2 20.7 17.1 19.5 17.1H4.9C3.6 17.1 2.5 16 2.5 14.7C2.5 14.6 2.5 14.5 2.5 14.4L3.1 9.60001C3.2 8.40001 4.3 7.5 5.5 7.5H20.1ZM20.1 8.79999H5.5C5 8.79999 4.5 9.20001 4.4 9.70001L3.8 14.5V14.6C3.8 15.2 4.3 15.7 4.9 15.7H19.5C20 15.7 20.5 15.3 20.6 14.8L21.2 10V9.89999C21.2 9.29999 20.7 8.79999 20.1 8.79999ZM7.2 9.79999C7.3 9.89999 7.3 9.89999 7.3 9.89999L6.9 13.5H8.9C8.9 13.5 8.9 13.5 9 13.5V13.6L8.9 14.5C8.9 14.5 8.9 14.5 8.9 14.6H8.8H5.5C5.5 14.6 5.5 14.6 5.4 14.6V14.5L6 9.89999C6 9.79999 6.1 9.79999 6.1 9.79999H7.2ZM11.2 9.79999C11.3 9.79999 11.3 9.79999 11.2 9.79999C11.3 9.89999 11.3 9.89999 11.3 9.89999L10.7 14.5C10.7 14.5 10.7 14.5 10.7 14.6H10.6H9.6C9.6 14.6 9.6 14.6 9.5 14.6V14.5L10.1 9.89999C10.1 9.79999 10.2 9.79999 10.2 9.79999H11.2ZM13.1 9.79999C13.2 9.79999 13.2 9.89999 13.2 9.89999L13.5 12.7L14.5 9.89999C14.5 9.79999 14.6 9.79999 14.6 9.79999H15.7C15.7 9.79999 15.8 9.79999 15.8 9.89999V10L13.9 14.6H13.8H12.7C12.7 14.6 12.6 14.6 12.6 14.5L11.8 9.89999C11.8 9.79999 11.9 9.79999 11.9 9.79999H13.1ZM20.0266 9.79999L20.0078 9.89999L19.9797 10.1L19.9 10.8C19.9 10.9 19.8 10.9 19.8 10.9H17.8L17.7 11.5H18.9C18.9 11.5 18.9 11.5 19 11.5V11.6L18.9 12.4C18.9 12.5 18.8 12.5 18.8 12.5H17.5C17.5 12.5 17.5 12.5 17.5 12.6L17.4 13.3H19.4C19.4 13.3 19.4 13.3 19.5 13.3V13.4L19.4 14.3C19.4 14.3 19.4 14.3 19.4 14.4H19.3H16.1C16.1 14.4 16.1 14.4 16 14.4V14.3L16.5797 9.89999C16.5797 9.79999 16.6797 9.79999 16.6797 9.79999H19.8H20.0266Z" fill="white"/>
</g>
</svg>
