<svg width="50" height="50" viewBox="0 0 50 50" fill="none" xmlns="http://www.w3.org/2000/svg">
<path fill-rule="evenodd" clip-rule="evenodd" d="M25.85 7.03V31.27V31.41H23.25V7.03C23.68 7.01 24.11 7 24.55 7C24.99 7 25.42 7.01 25.85 7.03ZM26.83 39.87C26.83 41.1513 25.7957 42.19 24.52 42.19C23.2442 42.19 22.21 41.1513 22.21 39.87C22.21 38.5887 23.2442 37.55 24.52 37.55C25.7957 37.55 26.83 38.5887 26.83 39.87ZM1.62 16.86C1.04 17.53 0.5 18.22 0 18.93L1.82 20.86C2.3 20.13 2.83 19.43 3.41 18.75C7.14 14.36 12.76 11.19 19.26 10.05V7.42999C12.07 8.58999 5.83 12.04 1.62 16.86ZM9.03998 28.55L7.22998 26.63H7.23998C7.76998 25.94 8.33998 25.28 8.93998 24.65C11.77 21.68 15.31 19.52 19.26 18.48V21.2C16.01 22.18 13.08 24.04 10.72 26.54C10.12 27.17 9.55998 27.84 9.03998 28.55ZM14.1001 33.93L14.1046 33.9348L14.1001 33.94V33.93ZM14.1046 33.9348C14.6832 33.2568 15.2817 32.6386 15.9201 32.08C16.9701 31.16 18.0901 30.41 19.2601 29.84V32.78C18.7201 33.12 18.1901 33.5 17.6801 33.94C17.0401 34.49 16.4301 35.11 15.8601 35.8L14.1046 33.9348ZM29.8501 7.42999C37.0301 8.58999 43.2801 12.04 47.4901 16.86L47.4801 16.87C48.0601 17.53 48.6001 18.22 49.1001 18.94L47.2801 20.87C46.8001 20.14 46.2601 19.44 45.6901 18.76C41.9601 14.37 36.3501 11.2 29.8501 10.06V7.42999ZM29.8501 18.49V21.2C33.1001 22.19 36.0301 24.04 38.3801 26.54C38.9801 27.17 39.5401 27.84 40.0601 28.55L41.8701 26.63C41.3401 25.93 40.7701 25.27 40.1701 24.65C37.3401 21.69 33.8001 19.52 29.8501 18.49ZM29.8501 29.84C31.0201 30.41 32.1401 31.16 33.1801 32.07H33.1901C33.8201 32.63 34.4301 33.26 35.0101 33.93L33.2501 35.8C32.6801 35.11 32.0701 34.49 31.4301 33.94C30.9201 33.5 30.3901 33.12 29.8501 32.78V29.84Z" fill="black"/>
</svg>
