<svg width="24" height="24" viewBox="0 0 24 24" fill="none" xmlns="http://www.w3.org/2000/svg">
<g id="icon_passcode">
<path id="Subtract" fill-rule="evenodd" clip-rule="evenodd" d="M12 2C6.47715 2 2 6.47715 2 12C2 17.5228 6.47715 22 12 22C17.5228 22 22 17.5228 22 12C22 6.47715 17.5228 2 12 2ZM11.2885 16.6328C11.2885 16.8776 11.4194 17 11.6811 17H12.3153C12.5771 17 12.7079 16.8776 12.7079 16.6328L12.6777 13.2994C12.6777 13.2429 12.6979 13.2053 12.7381 13.1864C12.7784 13.1488 12.8187 13.1488 12.8589 13.1864L16.0904 14.9379C16.1911 14.9944 16.2918 15.0132 16.3924 14.9944C16.4931 14.9567 16.5736 14.8908 16.634 14.7966L16.936 14.2599C17.0568 14.0527 17.0065 13.8927 16.785 13.7797L13.5234 12.0847C13.4428 12.0282 13.4428 11.9718 13.5234 11.9153L16.785 10.2203C16.926 10.145 16.9964 10.0508 16.9964 9.93785C16.9964 9.91902 16.9763 9.85311 16.936 9.74011L16.634 9.20339C16.5535 9.07156 16.4428 9.00565 16.3018 9.00565C16.2414 9.00565 16.171 9.02448 16.0904 9.06215L12.8589 10.8136C12.8187 10.8324 12.7784 10.8324 12.7381 10.8136C12.6979 10.7947 12.6777 10.7571 12.6777 10.7006L12.7079 7.36723C12.7079 7.12241 12.5771 7 12.3153 7H11.6811C11.4194 7 11.2885 7.12241 11.2885 7.36723L11.3187 10.7006C11.3187 10.7571 11.2986 10.7947 11.2583 10.8136C11.218 10.8324 11.1778 10.8324 11.1375 10.8136L7.90602 9.06215C7.80535 9.00565 7.70468 8.99623 7.60401 9.0339C7.50335 9.05273 7.42281 9.10923 7.36241 9.20339L7.0604 9.74011C6.95973 9.94727 7.01007 10.1073 7.21141 10.2203L10.4429 11.9153C10.5436 11.9718 10.5436 12.0282 10.4429 12.0847L7.21141 13.7797C7.07047 13.855 7 13.9492 7 14.0621C7 14.081 7.02013 14.1469 7.0604 14.2599L7.36241 14.7966C7.44294 14.9284 7.55368 14.9944 7.69462 14.9944C7.75502 14.9944 7.82549 14.9755 7.90602 14.9379L11.1375 13.1864C11.1778 13.1488 11.218 13.1488 11.2583 13.1864C11.2986 13.2053 11.3187 13.2429 11.3187 13.2994L11.2885 16.6328Z" fill="black"/>
</g>
</svg>
