<svg width="25" height="24" viewBox="0 0 25 24" fill="none" xmlns="http://www.w3.org/2000/svg">
<path d="M12.4999 8.4025C14.2623 8.4025 15.6916 9.78954 15.6916 11.5C15.6916 13.2105 14.2623 14.5977 12.4999 14.5977C10.7375 14.5977 9.30826 13.2105 9.30826 11.5C9.30826 9.78954 10.7375 8.4025 12.4999 8.4025ZM4.6637 11.5C6.16265 14.0589 9.1738 15.684 12.4999 15.684C15.8261 15.684 18.8372 14.0589 20.3362 11.5C18.8372 8.94109 15.8261 7.31598 12.4999 7.31598C9.1738 7.31598 6.16265 8.94109 4.6637 11.5ZM12.4999 18C8.04616 18 4.01939 15.6429 2.24136 11.9951L2 11.5L2.24136 11.0049C4.01951 7.35708 8.04616 5 12.4999 5C16.9536 5 20.9804 7.35708 22.7585 11.0049L23 11.5L22.7585 11.9951C20.9805 15.6429 16.9537 18 12.4999 18Z" fill="black"/>
</svg>
