<svg width="24" height="24" viewBox="0 0 24 24" fill="none" xmlns="http://www.w3.org/2000/svg">
<path d="M15.22 4H9.33C8.05 4 7 5.05 7 6.33V18.52C7 19.81 8.05 20.85 9.33 20.85H15.22C16.51 20.85 17.55 19.8 17.55 18.52V6.33C17.55 5.04 16.5 4 15.22 4ZM15.75 18.52C15.75 18.81 15.51 19.05 15.22 19.05H9.33C9.04 19.05 8.8 18.81 8.8 18.52V6.33C8.8 6.04 9.04 5.8 9.33 5.8H10.27V6.39C10.27 6.67 10.49 6.89 10.77 6.89H13.77C14.05 6.89 14.27 6.67 14.27 6.39V5.8H15.21C15.5 5.8 15.74 6.04 15.74 6.33V18.52H15.75Z" fill="black"/>
</svg>
