<svg width="25" height="24" viewBox="0 0 25 24" fill="none" xmlns="http://www.w3.org/2000/svg">
<path d="M22.76 11.2397C22.3 10.2897 21.68 9.42969 20.94 8.67969L19.27 10.3497C19.67 10.7797 20.04 11.2297 20.34 11.7397C19.04 13.9697 16.59 15.4797 13.78 15.8397L11.45 18.1697C11.8 18.1997 12.15 18.2397 12.5 18.2397C16.95 18.2397 20.98 15.8797 22.76 12.2397L23 11.7397L22.76 11.2397Z" fill="black"/>
<path d="M15.53 10.81L17.45 8.89L19.14 7.2L21.7 4.64L20.06 3L16.98 6.08C15.6 5.53 14.08 5.22 12.5 5.22C8.05 5.23 4.02 7.59 2.24 11.24L2 11.74L2.24 12.24C3.14 14.09 4.63 15.59 6.45 16.63L3.78 19.3L5.42 20.94L8.72 17.64L10.62 15.74L11.64 14.72L15.53 10.83V10.81ZM4.66 11.73C6.16 9.17 9.17 7.55 12.5 7.55C13.42 7.55 14.31 7.68 15.15 7.92L14.04 9.03C13.58 8.78 13.06 8.64 12.5 8.64C10.74 8.64 9.31 10.03 9.31 11.74C9.31 12.32 9.48 12.85 9.76 13.31L8.17 14.9C6.7 14.18 5.46 13.1 4.66 11.73Z" fill="black"/>
</svg>
