<svg width="14" height="18" viewBox="0 0 14 18" fill="none" xmlns="http://www.w3.org/2000/svg">
<path fill-rule="evenodd" clip-rule="evenodd" d="M6.99996 10.8209C9.52596 10.8209 11.6114 12.8399 11.8751 15.4238H2.12488C2.38857 12.8399 4.47404 10.8209 6.99996 10.8209ZM7.13838 2.07616C8.98769 2.07616 10.4921 3.56628 10.4921 5.39801C10.4921 7.22966 8.98769 8.71986 7.13838 8.71986C5.28914 8.71986 3.78463 7.22966 3.78463 5.39801C3.78463 3.56628 5.28914 2.07616 7.13838 2.07616ZM13.9839 15.4939V15.4238H13.9797C13.7984 12.9628 12.4197 10.8424 10.4461 9.68396C11.7471 8.69661 12.5882 7.14309 12.5882 5.39801C12.5882 2.42149 10.1435 0 7.13838 0C4.13335 0 1.68854 2.42149 1.68854 5.39801C1.68854 7.09035 2.47954 8.60256 3.71385 9.59302C1.65507 10.729 0.206535 12.8968 0.0203322 15.4238H0.0160701V15.4939C0.00572941 15.654 0 15.8153 0 15.978C0 16.1406 0.00572941 16.3018 0.0160701 16.4619V17.5H13.9839V16.4619C13.9942 16.3018 14 16.1406 14 15.978C14 15.8153 13.9942 15.654 13.9839 15.4939Z" fill="black"/>
</svg>
