<svg width="32" height="32" viewBox="0 0 32 32" fill="none" xmlns="http://www.w3.org/2000/svg">
<path d="M16 32C24.8366 32 32 24.8366 32 16C32 7.16344 24.8366 0 16 0C7.16344 0 0 7.16344 0 16C0 24.8366 7.16344 32 16 32Z" fill="#F9D648"/>
<path d="M15.9832 30.4766C8.04645 30.4766 1.59497 24.0209 1.59497 16.0884C1.59497 8.15589 8.05067 1.7002 15.9832 1.7002C23.9156 1.7002 30.3713 8.15589 30.3713 16.0884C30.3713 24.0209 23.9156 30.4766 15.9832 30.4766ZM15.9832 2.89429C8.7089 2.89429 2.79328 8.8099 2.79328 16.0842C2.79328 23.3584 8.7089 29.274 15.9832 29.274C23.2574 29.274 29.173 23.3584 29.173 16.0842C29.173 8.8099 23.2574 2.89429 15.9832 2.89429Z" fill="black"/>
<path d="M15.6498 20.278C15.1688 19.8307 14.5401 19.4088 13.7257 19.0796C13.1814 18.8982 12.5781 18.7885 11.9283 18.759H11.076V16.5986L8.31646 18.7421L6.84389 19.8856L5.99579 20.5438L11.0717 24.5016V23.4214C11.0717 23.4214 11.0717 23.3961 11.0717 23.3834V21.9868L12.249 21.9953C12.4557 21.9953 12.6836 22.067 12.9241 22.1978C13.1182 22.3033 13.3165 22.451 13.5359 22.645L14.0253 23.1345L14.8186 22.3455L14.4177 21.9446C14.4177 21.9446 14.3882 21.9151 14.3755 21.9024C14.3713 21.8982 14.3502 21.8813 14.3502 21.8813L14.2194 21.7548L14.211 21.7632C14.211 21.7632 14.1857 21.7463 14.1772 21.7379C14.0633 21.6408 13.9578 21.5818 13.8481 21.5016C13.7215 21.4088 13.5907 21.2991 13.4641 21.2273C13.0591 21.0037 12.6498 20.8856 12.249 20.8813L9.95359 20.8729V22.2358L7.79748 20.5438L8.64558 19.8813L9.95781 18.856V19.8687H11.9198C11.9705 19.8687 12.0169 19.8813 12.0675 19.8813C12.5063 19.9024 12.9367 19.9784 13.3502 20.1261C13.5274 20.1893 13.692 20.2737 13.8565 20.3581C14.1392 20.5016 14.4135 20.6661 14.6625 20.8729C14.9663 21.1218 15.2194 21.4214 15.443 21.7379H16.7595C16.5232 21.278 16.1772 20.7674 15.6498 20.278Z" fill="black"/>
<path d="M22.2785 14.814C23.0126 14.2106 23.4936 13.3035 23.4936 12.2782C23.4936 10.4596 22.0126 8.97857 20.1941 8.97857C18.3755 8.97857 16.8987 10.4596 16.8987 12.2782C16.8987 13.3077 17.3839 14.2191 18.1266 14.8225C17.7595 14.9533 17.4008 15.1094 17.0633 15.2992C16.2953 14.2191 15.2194 13.4132 14 12.9701C14.7552 12.3668 15.2489 11.4469 15.2489 10.409C15.2489 8.59039 13.7721 7.10938 11.9536 7.10938C10.135 7.10938 8.65398 8.59039 8.65398 10.409C8.65398 11.4343 9.13499 12.3457 9.87339 12.949C7.34175 13.7971 5.49786 16.1642 5.49786 18.9828C5.49786 19.0672 5.50208 19.1516 5.51474 19.3372L5.52318 19.4976L6.66664 18.6241C6.85229 15.9026 9.11812 13.7381 11.8903 13.7381C13.5907 13.7381 15.1434 14.5482 16.1266 15.9322C16.059 15.987 16 16.0503 15.9367 16.1052C15.8185 16.2064 15.7046 16.3119 15.5949 16.4216C15.0844 16.9575 14.6751 17.5862 14.3797 18.2697C14.6076 18.3583 14.962 18.5102 15.3671 18.7381C15.6455 18.122 16.0337 17.5693 16.5147 17.1136C16.8312 16.8014 17.1941 16.5355 17.5823 16.3119C18.3544 15.8647 19.2447 15.5904 20.1983 15.5904C23.0084 15.5904 25.308 17.8098 25.4346 20.5904H17.346C17.6413 21.0925 17.8101 21.4258 17.9156 21.7338H26.5865V20.7549C26.5865 17.9659 24.7763 15.6621 22.2827 14.814H22.2785ZM11.9493 12.5651C10.7637 12.5651 9.79322 11.5988 9.79322 10.4132C9.79322 9.22752 10.7595 8.26127 11.9493 8.26127C13.1392 8.26127 14.1012 9.22752 14.1012 10.4132C14.1012 11.5988 13.135 12.5651 11.9493 12.5651ZM18.0422 12.2782C18.0422 11.0883 19.0084 10.1263 20.1941 10.1263C21.3797 10.1263 22.3502 11.0925 22.3502 12.2782C22.3502 13.4638 21.3839 14.43 20.1941 14.43C19.0042 14.43 18.0422 13.4638 18.0422 12.2782Z" fill="black"/>
</svg>
