<svg width="19" height="19" viewBox="0 0 19 19" fill="none" xmlns="http://www.w3.org/2000/svg">
<path id="Union" d="M16.8125 0.5C17.7413 0.5 18.4973 1.27079 18.5 2.21777L18.498 11.3027C18.498 12.2498 17.7423 13.0205 16.8135 13.0205H8.88574L5.30957 18.2637C5.20595 18.4132 5.03985 18.4999 4.86426 18.5C4.81505 18.5 4.76699 18.4929 4.71777 18.4795C4.49467 18.4149 4.33449 18.2152 4.32129 17.9814L4.01562 13.0205H2.18457C1.25569 13.0205 0.5 12.2498 0.5 11.3027V2.21777C0.5 1.27074 1.25569 0.5 2.18457 0.5H16.8125ZM2.18555 1.60547C1.85432 1.60547 1.58413 1.881 1.58398 2.21777V11.3027C1.58398 11.6405 1.85511 11.916 2.18555 11.916H4.52441C4.80998 11.916 5.04683 12.1434 5.06445 12.4346L5.30469 16.3311L8.1543 12.1523C8.25538 12.0054 8.42307 11.916 8.60059 11.916H16.8115C17.1428 11.916 17.4131 11.6396 17.4131 11.3027H17.415L17.416 2.21777C17.4159 1.88016 17.1457 1.60555 16.8154 1.60547H2.18555ZM14 8.5C14.2754 8.5 14.5 8.72365 14.5 9C14.5 9.27635 14.2754 9.5 14 9.5H5C4.7238 9.5 4.5 9.27552 4.5 9C4.5 8.72365 4.72463 8.5 5 8.5H14ZM13.9658 4.61719C14.2409 4.61741 14.4647 4.83953 14.4648 5.11719C14.4648 5.39339 14.241 5.61696 13.9658 5.61719H4.96484C4.68865 5.61718 4.46484 5.3927 4.46484 5.11719C4.46501 4.84099 4.68958 4.61719 4.96484 4.61719H13.9658Z" fill="black"/>
</svg>
