<svg width="24" height="24" viewBox="0 0 24 24" fill="none" xmlns="http://www.w3.org/2000/svg">
<g id="Group 465">
<path id="Fill-1___M7iJLWvf" fill-rule="evenodd" clip-rule="evenodd" d="M12 13.8209C14.526 13.8209 16.6114 15.8399 16.8751 18.4238H7.12488C7.38857 15.8399 9.47404 13.8209 12 13.8209ZM12.1384 5.07616C13.9877 5.07616 15.4921 6.56628 15.4921 8.39801C15.4921 10.2297 13.9877 11.7199 12.1384 11.7199C10.2891 11.7199 8.78463 10.2297 8.78463 8.39801C8.78463 6.56628 10.2891 5.07616 12.1384 5.07616ZM18.9839 18.4939V18.4238H18.9797C18.7984 15.9628 17.4197 13.8424 15.4461 12.684C16.7471 11.6966 17.5882 10.1431 17.5882 8.39801C17.5882 5.42149 15.1435 3 12.1384 3C9.13335 3 6.68854 5.42149 6.68854 8.39801C6.68854 10.0904 7.47954 11.6026 8.71385 12.593C6.65507 13.729 5.20653 15.8968 5.02033 18.4238H5.01607V18.4939C5.00573 18.654 5 18.8153 5 18.978C5 19.1406 5.00573 19.3018 5.01607 19.4619V20.5H18.9839V19.4619C18.9942 19.3018 19 19.1406 19 18.978C19 18.8153 18.9942 18.654 18.9839 18.4939Z" fill="white"/>
</g>
</svg>
