<svg width="87" height="95" viewBox="0 0 87 95" fill="none" xmlns="http://www.w3.org/2000/svg">
<path d="M74.2025 79.7375C73.7289 79.0342 73.2631 78.3066 72.5676 77.7853C71.9498 77.3227 71.3087 76.8913 70.7008 76.4176C69.1624 75.2197 67.4864 74.2314 65.8337 73.2076C64.2575 72.2304 62.6791 71.2565 61.1173 70.256C60.4773 69.8468 59.814 69.4386 59.2739 68.9139C58.4464 68.1109 57.711 67.2102 56.949 66.3406C56.827 66.2019 56.7294 66.0932 56.533 66.0444C55.8176 65.8636 55.111 65.644 54.3978 65.451C54.0196 65.349 53.638 65.2203 53.2531 65.1981C52.9448 65.1804 52.7751 65.116 52.7174 64.801C52.5732 64.0113 52.3514 63.2293 52.2782 62.434C52.1695 61.246 52.1473 60.0481 52.114 58.8546C52.0852 57.8619 52.0763 56.8691 52.0896 55.8764C52.0974 55.3274 52.1672 54.7794 52.2138 54.1738C53.4206 54.6064 54.6119 54.6485 55.811 54.4744C56.2657 54.4089 56.7249 54.3013 57.1531 54.1383C57.6323 53.9564 57.6677 53.7512 57.4248 53.3108C57.2762 53.0402 57.1475 52.7585 56.9767 52.4168C57.1364 52.4168 57.2152 52.3991 57.2829 52.419C57.8985 52.6021 58.5163 52.7773 59.1252 52.9814C59.783 53.2021 60.4208 53.2332 61.0929 52.8893C61.0807 52.6575 61.1273 52.3991 61.0453 52.1905C60.7169 51.3587 60.382 50.5256 59.9849 49.7259C59.6255 49.0038 59.3803 48.2518 59.1774 47.4787C59.1297 47.2968 59.0365 47.1248 59.0088 46.9407C58.95 46.5558 58.9999 46.5103 59.3803 46.405C59.5855 46.3473 59.8296 46.3085 59.9749 46.1743C60.3753 45.8038 60.7535 45.4045 61.1051 44.9863C61.8062 44.1511 62.3319 43.2038 62.81 42.2288C63.3269 41.1751 63.6119 40.0648 63.4766 38.8879C63.4356 38.5286 63.2703 38.177 63.125 37.8364C62.8898 37.2863 62.3718 36.9624 62.0269 36.5287C62.2964 35.4228 62.5615 34.3325 62.8544 33.129C63.0174 33.3752 63.1339 33.5205 63.2182 33.6836C63.4433 34.1184 63.6408 34.5676 63.877 34.9958C63.9946 35.2076 64.1665 35.3995 64.4682 35.2276C64.5237 35.0168 64.5958 34.8006 64.6379 34.5787C64.8198 33.6215 64.6579 32.6731 64.5592 31.7225C64.4416 30.5967 64.1421 29.5052 63.8693 28.4127C63.6907 27.6984 63.3879 27.014 63.1261 26.3218C62.6924 25.1738 62.1622 24.0724 61.5832 22.9865C61.0475 21.9805 60.4197 21.0432 59.7431 20.1392C59.1252 19.3139 58.4752 18.4931 57.7221 17.7966C56.9778 17.1089 56.2557 16.3357 55.1632 16.1283C53.983 15.9043 52.8195 15.5926 51.6393 15.3663C50.7563 15.1977 49.859 15.1056 48.9672 14.9792C48.9572 14.947 48.9461 14.916 48.9361 14.8838C49.9855 14.3791 51.0336 13.8744 52.104 13.3598C52.0597 13.1313 52.0186 12.9216 51.9809 12.7242C50.8207 12.2417 49.6239 12.0409 48.417 11.9888C46.4194 11.9034 44.5493 12.2872 43.0873 13.8046C42.8855 14.0142 42.6925 14.0319 42.4396 13.9199C42.1845 13.8068 41.9183 13.7103 41.6487 13.6382C39.9117 13.1745 38.1803 13.1612 36.4632 13.7402C36.3501 13.7779 36.2591 13.8778 36.1538 13.9521C36.4325 14.2804 36.7313 14.4793 37.05 14.5488C37.5014 14.6453 37.9584 14.7263 38.462 14.9992C38.2901 15.0491 38.2213 15.0713 38.1514 15.089C36.9934 15.3829 35.8099 15.5992 34.6852 15.9897C33.3419 16.4566 32.0442 17.0578 30.7409 17.6346C30.4225 17.7755 30.1064 17.9962 29.8846 18.2602C29.4076 18.827 28.9906 19.4448 28.5535 20.046C28.1032 20.6649 27.6063 21.2584 27.2269 21.9194C26.8531 22.5694 26.4605 23.2106 26.1299 23.8905C25.7805 24.6081 25.4422 25.3269 25.1461 26.0678C24.6547 27.2957 24.3452 28.5635 24.1256 29.8702C23.9493 30.9184 23.9859 31.9488 24.0535 32.9881C24.0912 33.5738 24.1467 33.5838 24.7568 33.5727C25.1095 32.8018 25.4655 32.0242 25.8815 31.1169C25.958 31.341 26.0002 31.4097 26.0035 31.4796C26.0712 32.9815 26.1067 34.4867 26.5692 35.9408C26.6402 36.1638 26.5215 36.3911 26.3507 36.5065C26.0212 36.7283 25.7506 36.9957 25.4855 37.2874C25.003 37.8165 24.7257 38.4132 24.7057 39.132C24.6758 40.1791 24.9187 41.1551 25.3679 42.1035C26.0601 43.5676 26.8676 44.9431 28.0999 46.0212C28.2962 46.1931 28.5547 46.3196 28.8053 46.3994C29.2313 46.5347 29.2956 46.5658 29.1991 46.9629C29.0649 47.5153 28.9473 48.081 28.7321 48.6034C28.3128 49.6261 27.8071 50.6122 27.39 51.6348C27.2269 52.0341 26.9596 52.4545 27.1504 52.8993C27.705 53.2254 28.2884 53.2043 28.8375 53.0812C29.523 52.9282 30.1807 52.6575 30.854 52.4479C30.9516 52.4179 31.0659 52.4434 31.2367 52.4434C31.0637 52.7784 30.9294 53.0624 30.7742 53.3341C30.5568 53.7146 30.5845 53.9264 30.9538 54.1095C31.1724 54.2182 31.4275 54.2559 31.6671 54.3191C32.6465 54.5775 33.6381 54.6419 34.6386 54.4866C35.0967 54.4156 35.5492 54.3113 35.9985 54.2237C36.0517 54.7938 36.1405 55.3018 36.1393 55.8099C36.1371 57.0455 36.0595 58.2811 36.0783 59.5157C36.0928 60.5073 36.0639 61.4923 35.9253 62.4706C35.8099 63.2781 35.6158 64.0734 35.4771 64.8787C35.4317 65.1426 35.2487 65.1881 35.0557 65.2159C33.9542 65.3734 32.8827 65.6462 31.8246 65.9845C31.5417 66.0744 31.3421 66.2108 31.1668 66.4393C30.8252 66.883 30.4824 67.3267 30.1064 67.7404C29.6516 68.2417 29.2191 68.7908 28.6767 69.179C27.4089 70.0841 26.0933 70.9249 24.7745 71.7557C23.0053 72.8704 21.2018 73.9297 19.4393 75.0544C18.4798 75.6678 17.5492 76.3356 16.6552 77.041C16.0041 77.5546 15.2997 77.9883 14.7751 78.6893C13.6681 80.1701 12.7109 81.7307 11.9367 83.4011C11.5451 84.2452 11.1946 85.106 10.833 85.9634H11.381C11.7902 85.0017 12.2306 84.0522 12.6942 83.1161C13.1546 82.1855 13.6659 81.277 14.2016 80.3875C14.5433 79.8218 14.9515 79.2916 15.3707 78.778C15.6214 78.4719 15.9276 78.2001 16.2459 77.9616C17.3318 77.1486 18.4199 76.3356 19.5358 75.5636C20.3288 75.0145 21.1663 74.5287 21.9838 74.0151C23.5167 73.0534 25.0518 72.0929 26.5836 71.129C27.4044 70.6121 28.2319 70.1041 29.036 69.5639C29.3089 69.3809 29.5374 69.1224 29.757 68.8718C30.3748 68.1696 30.9627 67.4398 31.595 66.7521C31.7735 66.558 32.0519 66.4071 32.3104 66.3406C33.2299 66.1054 34.1605 65.9169 35.1255 65.7017C35.1322 66.1176 34.8394 66.264 34.561 66.3905C34.0396 66.6268 33.5083 66.843 32.9748 67.0516C32.6221 67.1902 32.5622 67.3111 32.7984 67.6006C33.0757 67.94 33.3763 68.2639 33.6814 68.5789C33.9808 68.8884 34.3103 69.1701 34.6086 69.4807C35.2054 70.0997 35.9042 70.5755 36.613 71.058C37.6978 71.7967 38.838 72.419 40.016 72.9847C40.5573 73.2453 41.1063 73.4561 41.7186 73.5182C42.3697 73.5836 43.013 73.7278 43.6586 73.8443C44.902 74.0684 46.0966 73.8465 47.2479 73.4006C48.6644 72.8516 49.9921 72.1195 51.2688 71.2976C52.3491 70.6021 53.3807 69.8534 54.2048 68.844C54.5431 68.4303 54.9591 68.0809 55.3174 67.6816C55.4349 67.5507 55.4837 67.3588 55.5436 67.2346C54.7262 66.8375 53.9797 66.4837 53.2465 66.1054C53.1522 66.0566 53.1223 65.8847 53.0158 65.6817C53.678 65.8303 54.2459 65.9501 54.8093 66.0877C55.273 66.2008 55.7389 66.3129 56.187 66.4737C56.3755 66.5413 56.543 66.7144 56.6794 66.8741C57.3416 67.6428 57.9927 68.4159 58.7414 69.1114C59.5944 69.9022 60.5794 70.4812 61.5566 71.0857C62.444 71.6348 63.3047 72.2282 64.1898 72.7806C65.6129 73.6679 67.056 74.5231 68.4713 75.4216C69.1657 75.8619 69.8212 76.3644 70.4879 76.8469C70.7729 77.0532 71.0225 77.3161 71.3231 77.4958C72.7251 78.3343 73.577 79.6421 74.3856 80.9975C75.3339 82.587 76.0837 84.2674 76.8169 85.9623H77.3926C77.3638 85.8902 77.3349 85.8181 77.3072 85.7449C76.4819 83.6308 75.4693 81.612 74.2003 79.7308L74.2025 79.7375ZM61.3458 36.8626C62.7545 37.6945 63.2026 38.6716 62.9154 40.3299C62.8388 40.7703 62.6403 41.1973 62.4517 41.6088C62.1079 42.3631 61.7873 43.1395 61.3492 43.8383C60.8844 44.5792 60.3831 45.3413 59.5966 45.7827C59.0165 46.1088 58.3532 46.1565 57.6988 45.9358C57.6045 45.9036 57.5158 45.8537 57.4248 45.8127C56.7981 45.5331 56.8048 45.5265 56.9545 44.902C57.2019 43.8727 57.4581 42.8445 57.66 41.8062C57.7454 41.3681 57.9206 41.0342 58.2601 40.7569C59.2539 39.945 60.2389 39.122 61.2283 38.3056C61.2571 38.2823 61.3292 38.2857 61.3359 38.2635C61.3714 38.1437 61.3913 38.0206 61.4168 37.8974C61.2937 37.8963 61.1318 37.842 61.0519 37.9008C60.4995 38.3112 59.9616 38.7415 59.4258 39.173C58.9555 39.5512 58.493 39.9406 57.9229 40.4109C58.0549 39.3616 58.1647 38.4354 58.2944 37.5125C58.3277 37.2763 58.4464 37.1066 58.6993 36.9746C59.5745 36.5187 60.4663 36.3434 61.3447 36.8614L61.3458 36.8626ZM57.0954 22.4097C57.7543 22.951 58.2634 23.5078 58.6405 24.1789C58.798 24.4584 58.686 24.5804 58.4908 24.6015C57.9317 23.9382 57.4204 23.3292 56.848 22.6493C56.9213 22.5783 57.0022 22.4996 57.0954 22.4097ZM54.7583 23.0065C55.2841 23.4158 55.791 23.7918 56.2735 24.1944C56.441 24.3342 56.3145 24.4795 56.1271 24.627C55.6035 24.2144 55.0711 23.794 54.5187 23.357C54.5997 23.2383 54.6629 23.1462 54.7583 23.0065ZM46.385 23.0675C46.4848 22.9122 46.6423 22.931 46.7832 23.0752C47.1204 23.4202 47.4654 23.7574 47.8103 24.0946C47.8935 24.1756 47.9889 24.2432 48.1298 24.3586C48.3982 23.7463 48.1153 23.1329 48.3372 22.5439C49.4275 22.9665 50.184 23.7507 51.1124 24.2388C50.9959 24.698 50.9615 24.7257 50.6321 24.5183C50.0964 24.1811 49.575 23.8228 49.046 23.4756C48.985 23.4357 48.9173 23.4069 48.8141 23.3514C48.7254 23.8894 48.6444 24.3863 48.5612 24.8877C47.9667 24.962 47.6306 24.6248 47.299 24.3031C47.0095 24.0214 46.7355 23.723 46.476 23.4146C46.4039 23.3281 46.3406 23.1385 46.385 23.0686V23.0675ZM38.7826 23.54C38.787 23.51 38.8391 23.4867 38.8735 23.4557C39.0576 23.4978 39.1841 23.5355 39.1397 23.8051C39.0554 24.3186 39.0454 24.8444 38.9778 25.3613C38.9634 25.47 38.8347 25.5643 38.7593 25.6652C38.6805 25.5876 38.5263 25.5022 38.5341 25.4334C38.5995 24.8 38.6927 24.17 38.7826 23.54ZM37.5114 23.2438C37.619 23.4124 37.7421 23.52 37.7233 23.5899C37.5569 24.1977 37.3661 24.7978 37.1787 25.4001C37.1687 25.4312 37.1188 25.4511 37.04 25.5144C36.959 25.4301 36.7849 25.3158 36.8015 25.257C36.989 24.607 36.9968 23.8927 37.5125 23.2449L37.5114 23.2438ZM29.8524 23.774C30.1042 23.3514 30.3638 22.9333 30.59 22.4973C30.7143 22.2566 30.8673 22.3498 31.128 22.3576C31.0537 22.5506 31.016 22.6892 30.9494 22.8112C30.6976 23.2671 30.437 23.7186 30.1796 24.1711C30.2129 24.2044 30.2462 24.2377 30.2795 24.2709C31.1424 23.8772 32.0054 23.4845 32.8118 23.1163C33.2832 23.3969 33.0303 23.7629 32.9659 23.9593C32.7707 24.5505 32.4513 25.1017 32.1662 25.6619C32.1274 25.7373 32.0087 25.7728 31.9078 25.8405C31.7336 25.6863 31.6471 25.5787 31.7813 25.3313C32.0309 24.8721 32.2205 24.3796 32.4923 23.7729C32.0453 23.9848 31.7026 24.1401 31.3654 24.3087C31.0803 24.4517 30.8119 24.627 30.5213 24.7557C30.2085 24.8932 29.8779 24.9864 29.5197 24.8311C29.4975 24.434 29.6583 24.1001 29.8524 23.7751V23.774ZM31.1302 45.684C30.549 45.9557 29.9622 46.1155 29.2856 46.0179C28.5635 45.9136 28.0622 45.4655 27.685 44.9874C26.6668 43.6974 25.8604 42.2599 25.3879 40.6704C25.0884 39.6611 25.0951 38.6583 25.7805 37.7765C26.5071 36.8426 27.8093 36.1937 29.0882 36.7849C29.2523 36.8603 29.4065 36.9613 29.5773 37.0156C29.8114 37.0899 29.8813 37.2807 29.9156 37.4737C29.9988 37.9451 30.062 38.4199 30.1186 38.8946C30.1741 39.3594 30.2129 39.8274 30.265 40.3476C29.2069 39.5246 28.2163 38.756 27.2281 37.9851C27.1826 37.9496 27.1537 37.8531 27.1171 37.8531C27.0062 37.8531 26.8498 37.8486 26.7966 37.9141C26.7489 37.974 26.7766 38.1559 26.8365 38.2269C26.9463 38.3555 27.1094 38.4365 27.2436 38.5452C28.1642 39.2939 29.0826 40.0448 30.001 40.7958C30.3072 41.0453 30.4591 41.3603 30.5357 41.7585C30.762 42.9276 31.0193 44.0923 31.3066 45.247C31.3676 45.4943 31.2744 45.6141 31.1291 45.6818L31.1302 45.684ZM34.9137 51.4152C33.688 50.3082 32.7818 48.9739 32.3592 47.3245C31.8445 45.3169 31.3132 43.3147 30.976 41.2694C30.7475 39.8873 30.5723 38.4953 30.3859 37.1066C30.2284 35.9286 30.0887 34.7495 29.9467 33.5693C29.9278 33.4141 29.9822 33.2444 29.9423 33.099C29.8679 32.8306 29.9988 32.7097 30.1929 32.5644C30.8829 32.0509 31.5805 31.5451 32.2305 30.9849C32.906 30.4015 33.5272 29.7559 34.1761 29.1425C34.2104 29.1093 34.2848 29.1192 34.5099 29.0782C34.2504 29.5163 34.0796 29.8524 33.8622 30.1541C33.7035 30.376 33.6913 30.5468 33.8843 30.7276C35.11 30.7797 36.1194 30.2284 37.0633 29.5563C37.6168 29.1614 38.1592 28.7277 38.4897 28.0988C38.6439 27.806 38.7448 27.8281 38.9645 28.121C39.6422 29.0261 40.3476 29.919 41.3193 30.5235C41.8229 30.8363 42.3819 31.0781 42.942 31.2766C43.4922 31.4707 44.0723 31.5839 44.6458 31.7037C44.9453 31.7658 45.3135 31.9122 45.5353 31.6105C45.7661 31.2966 45.4444 31.0293 45.3124 30.7631C44.9419 30.0221 44.5537 29.2901 44.2154 28.5247C44.882 28.9551 45.4666 29.462 46.1665 29.8191C47.0505 30.2706 47.9534 30.6189 48.9262 30.844C49.5196 30.9816 50.1075 31.0614 50.7053 31.1103C51.5727 31.1801 52.4401 31.1624 53.2809 30.9073C53.516 30.8363 53.7279 30.6877 54.0529 30.5224C53.2809 29.8735 52.7019 29.2135 52.1706 28.3728C52.3835 28.4116 52.5311 28.3916 52.5898 28.4548C53.5781 29.5097 54.7761 30.2906 55.984 31.0548C56.6939 31.504 57.4337 31.9067 58.1469 32.3514C58.2368 32.4069 58.2989 32.591 58.29 32.7097C58.2013 33.85 58.1114 34.9902 57.9872 36.1272C57.8563 37.3195 57.7055 38.5097 57.528 39.6966C57.4015 40.5429 57.2274 41.3825 57.0544 42.22C56.8214 43.3425 56.5974 44.4694 56.3156 45.5797C56.0583 46.5946 55.7843 47.6107 55.4161 48.589C54.9802 49.7492 54.1272 50.6443 53.2343 51.4685C51.5239 53.0446 49.5994 54.3335 47.5652 55.4516C46.8564 55.8409 46.0445 55.8997 45.2558 56.0295C44.2343 56.197 43.2304 56.075 42.2277 55.9186C41.5766 55.8176 40.9721 55.6024 40.3754 55.2808C38.3966 54.2104 36.5775 52.9171 34.9159 51.4163L34.9137 51.4152ZM53.9741 68.2573C53.0269 69.4485 51.8777 70.2394 50.7142 71.017C49.7658 71.6514 48.7742 72.2127 47.7349 72.6686C46.7843 73.0856 45.7694 73.4039 44.7301 73.4128C43.9059 73.4195 43.0785 73.2165 42.2566 73.0834C41.7574 73.0024 41.2583 72.9048 40.7736 72.7628C40.4208 72.6597 40.0848 72.4889 39.7553 72.3214C38.3045 71.5838 36.9269 70.7275 35.6702 69.6904C35.1699 69.2777 34.7229 68.7997 34.2104 68.3127C34.4556 68.1153 34.6375 67.9434 34.8438 67.8069C35.2287 67.5529 35.2398 67.1081 35.3995 66.7454C36.0495 65.2669 36.3889 63.7029 36.5142 62.1034C36.6207 60.7391 36.6396 59.3682 36.664 57.9994C36.6773 57.2529 36.6207 56.5064 36.603 55.7599C36.5863 55.1166 36.6185 54.4722 36.4577 53.8377C36.4277 53.7201 36.5109 53.5737 36.5442 53.4306C37.3439 53.851 37.9385 54.4977 38.6062 55.0545C40.1458 56.3389 41.7829 57.4936 43.4523 58.6028C44.0268 58.9844 44.5759 59.407 45.1427 59.8019C45.7672 60.2367 46.5048 60.382 47.2269 60.3942C48.183 60.4097 49.1469 60.2977 50.0376 59.8939C50.4203 59.7209 50.773 59.4824 51.1434 59.2816C51.2644 59.2162 51.3997 59.1752 51.5195 59.1264C51.586 60.0237 51.6404 60.8512 51.7114 61.6775C51.7779 62.4528 51.8101 63.2359 51.9532 63.9968C52.1162 64.8665 52.4334 65.6972 52.7418 66.5336C53.0036 67.2412 53.2731 67.8624 53.9741 68.2584V68.2573Z" fill="black"/>
<path d="M71.3253 77.5024C71.0247 77.3228 70.7763 77.0599 70.4901 76.8536C69.8235 76.37 69.1679 75.8686 68.4736 75.4282C67.0571 74.5298 65.6141 73.6746 64.1921 72.7872C63.3069 72.2349 62.4462 71.6414 61.5588 71.0924C60.5816 70.4879 59.5967 69.91 58.7437 69.118C57.995 68.4237 57.3439 67.6506 56.6817 66.8808C56.5441 66.721 56.3778 66.548 56.1892 66.4804C55.7411 66.3195 55.2752 66.2075 54.8116 66.0943C54.2481 65.9568 53.6802 65.837 53.018 65.6884C53.1234 65.8903 53.1533 66.0633 53.2487 66.1121C53.983 66.4892 54.7284 66.8431 55.5459 67.2413C55.486 67.3644 55.4372 67.5574 55.3196 67.6883C54.9613 68.0865 54.5443 68.4359 54.2071 68.8507C53.384 69.8601 52.3514 70.6088 51.271 71.3043C49.9943 72.1262 48.6666 72.8593 47.2502 73.4073C46.0999 73.8532 44.9042 74.075 43.6608 73.851C43.0153 73.7345 42.3719 73.5903 41.7208 73.5249C41.1086 73.4627 40.5595 73.252 40.0182 72.9913C38.8414 72.4256 37.7011 71.8034 36.6152 71.0647C35.9064 70.5822 35.2076 70.1074 34.6109 69.4874C34.3125 69.1768 33.9831 68.8951 33.6836 68.5856C33.3786 68.2695 33.078 67.9467 32.8007 67.6073C32.5644 67.3178 32.6243 67.1969 32.977 67.0582C33.5106 66.8486 34.0419 66.6334 34.5632 66.3972C34.8416 66.2707 35.1344 66.1243 35.1278 65.7083C34.1628 65.9235 33.231 66.1132 32.3126 66.3472C32.0531 66.4138 31.7758 66.5635 31.5972 66.7588C30.9638 67.4465 30.376 68.1763 29.7592 68.8784C29.5396 69.128 29.3111 69.3864 29.0383 69.5706C28.2341 70.1119 27.4066 70.6199 26.5858 71.1357C25.054 72.0995 23.5189 73.0601 21.986 74.0218C21.1685 74.5353 20.3311 75.0212 19.538 75.5702C18.4233 76.3433 17.3351 77.1553 16.2481 77.9683C15.9298 78.2068 15.6225 78.4774 15.373 78.7847C14.9537 79.2982 14.5455 79.8284 14.2039 80.3941C13.667 81.2837 13.1568 82.1921 12.6965 83.1227C12.2328 84.0589 11.7925 85.0084 11.3832 85.9701H76.8225C76.0893 84.2752 75.3395 82.5948 74.3911 81.0053C73.5825 79.6498 72.7296 78.3421 71.3286 77.5035L71.3253 77.5024ZM55.3296 76.5408C54.5187 77.1442 53.6292 77.6211 52.7196 78.0548C52.1096 78.3454 51.5006 78.6671 50.8573 78.8557C49.8291 79.1574 48.813 79.5045 47.7393 79.6632C46.8098 79.8007 45.8892 79.9926 44.9453 80.0081C44.3152 80.0181 43.6852 80.017 43.0552 80.0126C42.6348 80.0092 42.2111 80.0192 41.794 79.9726C41.154 79.8994 40.514 79.8495 39.8762 79.7053C39.3693 79.59 38.8447 79.5378 38.3333 79.397C37.2718 79.1041 36.2281 78.7813 35.2021 78.3665C34.3791 78.0337 33.5827 77.6611 32.7973 77.2584C31.7813 76.7371 30.8052 76.1481 29.9046 75.4404C29.6406 75.233 29.3444 75.0678 29.0815 74.8592C28.9362 74.7439 28.8297 74.5808 28.6767 74.4056C28.8641 74.3068 28.9828 74.2436 29.0516 74.2081C29.7936 74.7095 30.5046 75.1654 31.189 75.659C31.8933 76.167 32.6631 76.5663 33.4307 76.9512C34.4123 77.4437 35.4295 77.8907 36.471 78.2367C37.5636 78.5983 38.6961 78.8457 39.8241 79.0886C40.5528 79.2461 41.2993 79.3359 42.0425 79.3992C42.8456 79.4679 43.6553 79.509 44.4594 79.4912C45.1671 79.4757 45.8759 79.3792 46.5802 79.2883C47.5597 79.1618 48.5269 78.9544 49.4697 78.6693C50.1762 78.4564 50.8895 78.2489 51.5539 77.8951C52.2737 77.5113 53.0602 77.2473 53.7689 76.8458C54.5376 76.4099 55.2741 75.9052 55.9807 75.3728C56.5508 74.9435 57.051 74.4222 57.5912 73.953C57.7066 73.8532 57.8619 73.7999 58.0338 73.7045C58.1292 73.8865 58.2079 74.0373 58.3222 74.2569C57.3139 75.0278 56.3301 75.7965 55.3285 76.543L55.3296 76.5408Z" fill="#BCCACE"/>
<path d="M42.2255 55.9186C43.2282 56.0739 44.2332 56.197 45.2536 56.0295C46.0423 55.8997 46.8542 55.8409 47.563 55.4516C49.5984 54.3335 51.5217 53.0458 53.2321 51.4685C54.125 50.6454 54.978 49.7492 55.4139 48.589C55.7821 47.6107 56.055 46.5936 56.3134 45.5797C56.5952 44.4683 56.8192 43.3425 57.0522 42.22C57.2263 41.3814 57.3993 40.5429 57.5258 39.6966C57.7033 38.5108 57.8541 37.3196 57.985 36.1272C58.1092 34.9902 58.1991 33.85 58.2878 32.7097C58.2967 32.5922 58.2346 32.408 58.1447 32.3515C57.4315 31.9078 56.6917 31.504 55.9818 31.0548C54.7739 30.2906 53.5759 29.5097 52.5877 28.4548C52.5289 28.3916 52.3825 28.4105 52.1684 28.3728C52.6997 29.2135 53.2787 29.8735 54.0507 30.5224C53.7257 30.6877 53.5138 30.8363 53.2787 30.9073C52.4379 31.1624 51.5705 31.1813 50.7031 31.1103C50.1053 31.0615 49.5174 30.9816 48.924 30.8441C47.9512 30.6189 47.0483 30.2706 46.1643 29.8192C45.4655 29.462 44.8809 28.954 44.2132 28.5247C44.5515 29.2901 44.9408 30.0221 45.3102 30.7631C45.4422 31.0282 45.765 31.2966 45.5332 31.6105C45.3113 31.9122 44.9431 31.7658 44.6436 31.7037C44.0701 31.585 43.49 31.4719 42.9399 31.2766C42.3797 31.0781 41.8207 30.8374 41.3171 30.5235C40.3443 29.9179 39.64 29.0261 38.9623 28.121C38.7427 27.8282 38.6417 27.806 38.4875 28.0988C38.1559 28.7288 37.6146 29.1625 37.0611 29.5563C36.1172 30.2285 35.1078 30.7797 33.8822 30.7276C33.6892 30.5468 33.7014 30.376 33.86 30.1541C34.0774 29.8513 34.2482 29.5164 34.5077 29.0782C34.2826 29.1193 34.2083 29.1104 34.1739 29.1426C33.525 29.7559 32.9027 30.4015 32.2283 30.9849C31.5783 31.5462 30.8807 32.052 30.1907 32.5644C29.9966 32.7086 29.8657 32.8295 29.9401 33.0991C29.98 33.2455 29.9256 33.4141 29.9445 33.5694C30.0854 34.7495 30.2262 35.9286 30.3837 37.1066C30.569 38.4953 30.7453 39.8873 30.9738 41.2694C31.311 43.3148 31.8434 45.3169 32.357 47.3245C32.7796 48.975 33.6858 50.3083 34.9115 51.4152C36.5731 52.916 38.3921 54.2104 40.371 55.2797C40.9666 55.6013 41.5722 55.8165 42.2233 55.9175L42.2255 55.9186ZM45.0806 51.6382C44.3574 51.7546 43.6309 51.8434 42.9643 51.3997C43.3514 51.1368 43.7218 51.4252 44.1045 51.3775C44.4694 51.332 44.8443 51.3675 45.2936 51.3675C45.2004 51.4907 45.1505 51.6271 45.0806 51.6382ZM50.2195 40.7181C49.849 41.1796 48.9195 41.0365 48.7232 40.5329C48.284 39.4115 48.2939 38.2879 48.8408 37.2219C48.9495 37.0112 49.1536 36.6485 49.6161 36.7228C50.0964 36.8004 50.4647 36.9857 50.621 37.4271C50.7641 37.8331 50.8052 38.2746 50.8651 38.5718C50.8595 39.4525 50.7065 40.1136 50.2206 40.7192L50.2195 40.7181ZM52.8206 44.0845C52.7252 44.089 52.5732 44.0136 52.5377 43.9337C52.4202 43.6653 52.3259 43.3824 52.2616 43.0974C52.2416 43.0108 52.3237 42.8411 52.4013 42.8079C52.479 42.7746 52.672 42.8378 52.7041 42.9077C52.8383 43.2072 52.9326 43.5255 53.0779 43.9437C53.0191 43.9781 52.9226 44.0801 52.8217 44.0845H52.8206ZM54.0817 43.8006C53.9963 43.805 53.8499 43.7052 53.8266 43.6231C53.7346 43.3081 53.6813 42.9809 53.6081 42.6315C53.6902 42.5783 53.7845 42.5161 53.8921 42.4452C54.2381 42.7657 54.2282 43.1828 54.2736 43.5732C54.2825 43.6453 54.1527 43.7973 54.0817 43.8006ZM48.2451 32.885C49.2479 32.9859 50.2506 33.0824 51.2477 33.2233C51.8789 33.312 52.5111 33.4385 53.1223 33.6182C53.424 33.7069 53.7046 33.9276 53.9497 34.1384C54.2903 34.4312 54.5909 34.7706 54.9059 35.0923C55.1066 35.2975 54.9691 35.4483 54.877 35.5515C53.2021 35.3807 51.5805 35.2032 49.9566 35.0568C49.1724 34.9858 48.3827 34.9747 47.5963 34.9326C47.4376 34.9237 47.2768 34.9093 47.1226 34.8749C46.7976 34.8017 46.6967 34.6275 46.8797 34.3624C47.2047 33.8921 47.5663 33.4451 47.9301 33.0026C47.9934 32.926 48.1431 32.8739 48.2451 32.8839V32.885ZM46.0866 34.3813C46.2974 33.7812 46.6989 33.2987 47.1171 32.8373C47.1692 32.7796 47.3578 32.8462 47.5929 32.8639C47.1637 33.5217 46.7854 34.0996 46.3662 34.7418C46.1399 34.7495 45.9935 34.6464 46.0866 34.3813ZM43.7307 40.6926C43.734 40.4963 43.7274 40.2922 43.7773 40.1059C43.8106 39.9816 43.9381 39.8829 44.0357 39.7565C44.4628 40.1447 44.313 40.5939 44.323 40.9832C44.353 42.1401 44.333 43.2981 44.323 44.455C44.3197 44.7922 44.2853 45.1294 44.2598 45.5431C44.0568 45.5187 43.9248 45.5021 43.7762 45.4844C43.7451 44.77 43.6952 44.0823 43.6908 43.3935C43.6852 42.4929 43.713 41.5933 43.7307 40.6926ZM41.0254 32.7596C41.5223 33.2998 41.9715 33.8511 42.2022 34.6275C42.0492 34.6874 41.9427 34.7296 41.8606 34.7617C41.4524 34.1417 41.0642 33.5516 40.656 32.9305C40.8002 32.8628 40.9045 32.8151 41.0265 32.7585L41.0254 32.7596ZM33.9986 43.8882C33.8833 43.2937 34.0164 42.8711 34.277 42.4474C34.399 42.5117 34.5 42.5649 34.6542 42.6459C34.3347 42.9975 34.6508 43.6131 33.9986 43.8882ZM33.3453 35.6014C33.2222 35.3851 33.1179 35.2354 33.4207 35.0158C33.8123 34.7307 34.1661 34.3724 34.4689 33.992C34.6819 33.7258 34.9381 33.6426 35.2309 33.5727C36.684 33.2277 38.1526 33.0236 39.6467 32.9305C40.1059 32.9016 40.341 33.0325 40.5728 33.3364C40.8834 33.7457 41.184 34.1617 41.55 34.6564C41.296 34.7595 41.1474 34.8616 40.9899 34.8771C40.2567 34.9448 39.5213 34.9858 38.787 35.0413C37.6789 35.1245 36.5697 35.1966 35.4639 35.3053C34.7629 35.374 34.0674 35.4983 33.3453 35.6025V35.6014ZM35.9253 43.1573C35.8798 43.3891 35.7933 43.6165 35.6968 43.8339C35.6469 43.947 35.5437 44.0357 35.414 44.1988C35.3119 44.0169 35.1821 43.8927 35.201 43.7995C35.2598 43.5089 35.3552 43.2205 35.4816 42.9532C35.5071 42.8999 35.5892 42.8722 35.6746 42.8478C35.7267 42.8334 35.78 42.819 35.8244 42.8001C35.8521 42.8899 35.9053 42.9853 35.922 43.073C35.9275 43.1018 35.9286 43.1306 35.9231 43.1573H35.9253ZM37.9795 40.6837C37.4449 40.0792 37.3306 39.3682 37.3295 38.5973C37.3983 38.2468 37.4704 37.8974 37.5358 37.5469C37.6168 37.1166 38.1592 36.7095 38.6883 36.7117C39.0787 36.7128 39.2252 37.0545 39.4104 37.3107C39.66 37.6545 39.7176 38.0738 39.7587 38.4842C39.8286 39.1775 39.7798 39.8674 39.4958 40.5118C39.2285 41.1174 38.421 41.184 37.9795 40.6849V40.6837ZM39.3982 48.1608C39.5934 48.1608 39.7298 48.1176 39.7897 48.1675C41.5356 49.6039 43.561 49.6172 45.643 49.3188C46.6379 49.1769 47.5652 48.8441 48.3871 48.2485C48.5402 48.1376 48.7032 48.1109 48.7997 48.274C48.8907 48.4271 48.8186 48.5491 48.6378 48.65C46.1721 50.0398 43.6032 50.2872 40.9333 49.3455C40.1979 49.0859 39.8053 48.7598 39.3982 48.1597V48.1608Z" fill="white"/>
<path d="M51.9532 63.9946C51.8101 63.2326 51.7779 62.4495 51.7114 61.6753C51.6404 60.849 51.586 60.0215 51.5195 59.1242C51.3997 59.173 51.2644 59.2129 51.1435 59.2794C50.773 59.4802 50.4203 59.7187 50.0376 59.8917C49.1469 60.2955 48.183 60.4086 47.2269 60.392C46.5037 60.3798 45.7672 60.2345 45.1427 59.7997C44.5759 59.4048 44.0268 58.9833 43.4523 58.6006C41.7829 57.4914 40.1458 56.3367 38.6062 55.0523C37.9385 54.4955 37.345 53.8499 36.5442 53.4284C36.5109 53.5715 36.4277 53.7179 36.4577 53.8355C36.6185 54.47 36.5864 55.1155 36.603 55.7577C36.6218 56.5042 36.6784 57.2518 36.664 57.9972C36.6385 59.366 36.6207 60.738 36.5143 62.1012C36.3889 63.7007 36.0495 65.2647 35.3995 66.7432C35.2398 67.1059 35.2287 67.5507 34.8438 67.8047C34.6375 67.9412 34.4545 68.1131 34.2104 68.3105C34.7229 68.7975 35.1699 69.2755 35.6702 69.6881C36.9258 70.7252 38.3034 71.5827 39.7553 72.3192C40.0848 72.4866 40.4208 72.6575 40.7736 72.7606C41.2583 72.9026 41.7574 73.0002 42.2566 73.0812C43.0785 73.2143 43.9071 73.4173 44.7301 73.4106C45.7694 73.4017 46.7843 73.0823 47.7349 72.6663C48.7742 72.2105 49.7658 71.6481 50.7142 71.0147C51.8777 70.2372 53.0269 69.4463 53.9741 68.2551C53.2731 67.858 53.0036 67.2379 52.7418 66.5303C52.4335 65.6939 52.1173 64.8642 51.9532 63.9935V63.9946Z" fill="white"/>
<path d="M30.5356 41.7608C30.4591 41.3626 30.306 41.0476 30.001 40.798C29.0826 40.0471 28.1642 39.2961 27.2435 38.5474C27.1093 38.4387 26.9463 38.3566 26.8365 38.2291C26.7754 38.1581 26.7477 37.9762 26.7965 37.9163C26.8498 37.8497 27.0062 37.8542 27.1171 37.8553C27.1537 37.8553 27.1825 37.9518 27.228 37.9873C28.2163 38.7582 29.2068 39.5268 30.265 40.3499C30.2128 39.8286 30.174 39.3616 30.1186 38.8968C30.0609 38.4221 29.9988 37.9462 29.9156 37.4759C29.8812 37.2829 29.8113 37.0922 29.5773 37.0178C29.4076 36.9635 29.2523 36.8626 29.0881 36.7871C27.8092 36.1959 26.507 36.8448 25.7805 37.7788C25.095 38.6606 25.0884 39.6633 25.3878 40.6727C25.8604 42.2621 26.6667 43.6996 27.685 44.9896C28.0621 45.4666 28.5635 45.9158 29.2856 46.0201C29.9622 46.1177 30.5489 45.958 31.1302 45.6862C31.2755 45.6186 31.3686 45.4988 31.3076 45.2514C31.0203 44.0956 30.763 42.9321 30.5367 41.763L30.5356 41.7608Z" fill="white"/>
<path d="M58.2966 37.5137C58.1679 38.4365 58.0581 39.3616 57.925 40.412C58.4952 39.9417 58.9566 39.5535 59.428 39.1741C59.9637 38.7426 60.5017 38.3134 61.0541 37.9019C61.1328 37.8431 61.2948 37.8963 61.419 37.8985C61.3935 38.0206 61.3724 38.1448 61.338 38.2646C61.3314 38.2868 61.2593 38.2823 61.2304 38.3067C60.241 39.1231 59.255 39.9461 58.2622 40.7581C57.9228 41.0354 57.7476 41.3692 57.6621 41.8074C57.4603 42.8456 57.204 43.8738 56.9567 44.9031C56.8058 45.5287 56.8003 45.5354 57.427 45.8138C57.5191 45.8548 57.6067 45.9047 57.701 45.9369C58.3554 46.1576 59.0187 46.1099 59.5988 45.7838C60.3852 45.3424 60.8866 44.5792 61.3513 43.8394C61.7895 43.1406 62.1089 42.3642 62.4539 41.6099C62.6424 41.1973 62.841 40.7714 62.9175 40.331C63.2048 38.6728 62.7567 37.6956 61.348 36.8637C60.4695 36.3457 59.5777 36.5209 58.7026 36.9768C58.4508 37.1088 58.331 37.2785 58.2977 37.5148L58.2966 37.5137Z" fill="white"/>
<path d="M30.5213 24.7557C30.8119 24.6281 31.0803 24.4517 31.3654 24.3087C31.7026 24.1401 32.0453 23.9848 32.4923 23.7729C32.2206 24.3785 32.0309 24.871 31.7813 25.3313C31.6471 25.5787 31.7325 25.6863 31.9078 25.8405C32.0087 25.7728 32.1274 25.7373 32.1662 25.6619C32.4513 25.1017 32.7719 24.5516 32.966 23.9593C33.0303 23.764 33.2832 23.398 32.8118 23.1163C32.0054 23.4834 31.1425 23.8772 30.2795 24.2709C30.2462 24.2377 30.2129 24.2044 30.1797 24.1711C30.437 23.7186 30.6988 23.2671 30.9495 22.8112C31.0171 22.6892 31.0537 22.5506 31.128 22.3576C30.8674 22.3498 30.7143 22.2555 30.5901 22.4973C30.3649 22.9332 30.1042 23.3525 29.8525 23.774C29.6583 24.1001 29.4986 24.4329 29.5197 24.83C29.878 24.9853 30.2085 24.8932 30.5213 24.7545V24.7557Z" fill="white"/>
<path d="M47.2989 24.302C47.6306 24.6237 47.9656 24.9598 48.5612 24.8866C48.6433 24.3841 48.7254 23.8883 48.8141 23.3503C48.9173 23.4047 48.9849 23.4335 49.0459 23.4745C49.575 23.8217 50.0963 24.1811 50.6321 24.5172C50.9615 24.7246 50.9959 24.6969 51.1124 24.2377C50.184 23.7496 49.4264 22.9654 48.3372 22.5428C48.1153 23.1329 48.3982 23.7452 48.1297 24.3575C47.9889 24.2421 47.8935 24.1744 47.8103 24.0935C47.4653 23.7563 47.1204 23.4191 46.7832 23.0741C46.6423 22.9299 46.4848 22.9111 46.385 23.0664C46.3395 23.1362 46.4027 23.3259 46.4759 23.4124C46.7355 23.7208 47.0094 24.0203 47.2989 24.3009V24.302Z" fill="white"/>
<path d="M58.6417 24.1789C58.2635 23.5078 57.7543 22.951 57.0966 22.4097C57.0034 22.4996 56.9225 22.5783 56.8492 22.6493C57.4216 23.3293 57.934 23.9382 58.492 24.6015C58.6872 24.5804 58.7992 24.4584 58.6417 24.1789Z" fill="white"/>
<path d="M37.0389 25.5133C37.1188 25.45 37.1676 25.4312 37.1776 25.399C37.365 24.7978 37.5558 24.1966 37.7222 23.5888C37.741 23.52 37.6179 23.4113 37.5103 23.2427C36.9945 23.8894 36.9868 24.6048 36.7993 25.2548C36.7827 25.3136 36.9568 25.4279 37.0378 25.5122L37.0389 25.5133Z" fill="white"/>
<path d="M38.7592 25.6652C38.8346 25.5643 38.9633 25.47 38.9777 25.3613C39.0454 24.8444 39.0553 24.3186 39.1396 23.8051C39.184 23.5355 39.0576 23.4967 38.8734 23.4557C38.8391 23.4867 38.7869 23.51 38.7825 23.54C38.6926 24.17 38.5995 24.8 38.534 25.4334C38.5274 25.5022 38.6804 25.5876 38.7592 25.6652Z" fill="white"/>
<path d="M56.2735 24.1944C55.7899 23.7918 55.2841 23.4158 54.7584 23.0065C54.663 23.1462 54.5998 23.2383 54.5188 23.357C55.0712 23.7929 55.6047 24.2144 56.1271 24.627C56.3157 24.4806 56.441 24.3342 56.2735 24.1944Z" fill="white"/>
<path d="M57.5913 73.9519C57.0511 74.4211 56.5509 74.9424 55.9808 75.3717C55.2742 75.9041 54.5377 76.4088 53.769 76.8447C53.0602 77.2462 52.2749 77.5102 51.554 77.894C50.8895 78.2478 50.1763 78.4541 49.4698 78.6682C48.527 78.9521 47.5597 79.1607 46.5803 79.2871C45.876 79.3781 45.1683 79.4746 44.4595 79.4901C43.6542 79.5079 42.8456 79.4668 42.0426 79.398C41.2994 79.3348 40.5518 79.2439 39.8242 79.0875C38.6972 78.8445 37.5636 78.5972 36.4711 78.2356C35.4295 77.8906 34.4124 77.4436 33.4308 76.95C32.6632 76.5651 31.8934 76.1658 31.1891 75.6578C30.5047 75.1642 29.7937 74.7084 29.0517 74.207C28.9829 74.2436 28.8642 74.3057 28.6768 74.4044C28.8298 74.5797 28.9363 74.7438 29.0816 74.8581C29.3445 75.0666 29.6406 75.2319 29.9046 75.4393C30.8053 76.147 31.7814 76.736 32.7974 77.2573C33.5827 77.661 34.3791 78.0326 35.2022 78.3654C36.2282 78.7802 37.2719 79.103 38.3334 79.3958C38.8437 79.5367 39.3694 79.5888 39.8763 79.7042C40.5141 79.8484 41.1541 79.8983 41.7941 79.9715C42.2112 80.0192 42.6349 80.0092 43.0553 80.0114C43.6853 80.0159 44.3153 80.017 44.9454 80.007C45.8893 79.9915 46.8099 79.7996 47.7394 79.662C48.8131 79.5034 49.8291 79.1562 50.8574 78.8545C51.5018 78.666 52.1097 78.3454 52.7197 78.0537C53.6293 77.62 54.5188 77.143 55.3297 76.5396C56.3313 75.7943 57.3151 75.0256 58.3234 74.2536C58.2091 74.034 58.1293 73.8831 58.035 73.7012C57.862 73.7955 57.7067 73.8498 57.5924 73.9497L57.5913 73.9519Z" fill="black"/>
<path d="M47.1237 34.8749C47.2778 34.9092 47.4387 34.9248 47.5973 34.9325C48.3837 34.9747 49.1735 34.9858 49.9577 35.0568C51.5815 35.2032 53.2032 35.3818 54.8781 35.5515C54.969 35.4483 55.1077 35.2975 54.9069 35.0923C54.5919 34.7706 54.2913 34.4312 53.9508 34.1383C53.7045 33.9265 53.425 33.7069 53.1233 33.6181C52.5121 33.4384 51.8799 33.312 51.2488 33.2233C50.2516 33.0824 49.2478 32.9859 48.2462 32.885C48.1441 32.875 47.9944 32.9271 47.9312 33.0036C47.5684 33.4462 47.2068 33.8932 46.8807 34.3635C46.6977 34.6275 46.7987 34.8028 47.1237 34.876V34.8749Z" fill="black"/>
<path d="M38.7871 35.0412C39.5213 34.9858 40.2567 34.9447 40.9899 34.8771C41.1474 34.8627 41.2961 34.7595 41.5501 34.6563C41.184 34.1616 40.8823 33.7457 40.5729 33.3364C40.3422 33.0314 40.107 32.9016 39.6467 32.9304C38.1526 33.0236 36.684 33.2277 35.231 33.5727C34.9381 33.6425 34.6819 33.7257 34.469 33.9919C34.165 34.3713 33.8123 34.7296 33.4208 35.0157C33.118 35.2365 33.2222 35.3862 33.3453 35.6014C34.0685 35.4982 34.764 35.3729 35.4639 35.3041C36.5698 35.1965 37.679 35.1244 38.7871 35.0401V35.0412Z" fill="black"/>
<path d="M49.6162 36.7228C49.1537 36.6485 48.9496 37.0112 48.8409 37.2219C48.294 38.289 48.2841 39.4115 48.7233 40.5329C48.9207 41.0365 49.8491 41.1795 50.2196 40.7181C50.7054 40.1125 50.8585 39.4514 50.8641 38.5707C50.8042 38.2746 50.7631 37.832 50.62 37.426C50.4647 36.9846 50.0965 36.7993 49.6151 36.7217L49.6162 36.7228ZM49.8625 38.2457C49.5962 38.1293 49.5541 37.8043 49.7393 37.3828C50.0248 37.541 50.2026 37.785 50.2729 38.1148C50.1087 38.167 49.9811 38.208 49.8625 38.2457Z" fill="black"/>
<path d="M39.7586 38.4831C39.7176 38.0738 39.6599 37.6534 39.4103 37.3096C39.2251 37.0534 39.0776 36.7128 38.6882 36.7106C38.1591 36.7084 37.6168 37.1155 37.5358 37.5458C37.4703 37.8963 37.3982 38.2468 37.3295 38.5962C37.3306 39.3671 37.4448 40.0781 37.9795 40.6826C38.4209 41.1818 39.2284 41.1163 39.4957 40.5096C39.7797 39.8652 39.8285 39.1752 39.7586 38.482V38.4831ZM38.8047 38.4354C38.5119 38.0705 38.4708 37.7366 38.747 37.253C38.9334 37.5669 39.0698 37.7954 39.224 38.0561C39.0776 38.1892 38.9533 38.3012 38.8047 38.4354Z" fill="black"/>
<path d="M48.6378 48.65C48.8175 48.5479 48.8907 48.427 48.7997 48.274C48.7021 48.112 48.5391 48.1375 48.3871 48.2485C47.5663 48.8441 46.639 49.1757 45.643 49.3188C43.5599 49.6172 41.5356 49.6039 39.7897 48.1675C39.7298 48.1176 39.5934 48.1608 39.3982 48.1608C39.8053 48.7609 40.1979 49.087 40.9333 49.3466C43.6032 50.2883 46.1721 50.0409 48.6378 48.6511V48.65Z" fill="black"/>
<path d="M44.2597 45.5431C44.2841 45.1294 44.3196 44.7922 44.3229 44.455C44.3329 43.297 44.3529 42.139 44.3229 40.9832C44.3129 40.5939 44.4627 40.1447 44.0356 39.7564C43.938 39.8829 43.8116 39.9816 43.7772 40.1058C43.7262 40.2922 43.7339 40.4963 43.7306 40.6926C43.7128 41.5933 43.6851 42.4939 43.6907 43.3935C43.6951 44.0812 43.745 44.77 43.7761 45.4843C43.9247 45.5021 44.0567 45.5187 44.2597 45.5431Z" fill="black"/>
<path d="M42.2011 34.6275C41.9704 33.8511 41.5212 33.2998 41.0243 32.7596C40.9034 32.8162 40.7991 32.8639 40.6538 32.9316C41.062 33.5516 41.4502 34.1428 41.8584 34.7629C41.9416 34.7307 42.047 34.6885 42.2 34.6286L42.2011 34.6275Z" fill="black"/>
<path d="M46.3662 34.7407C46.7854 34.0984 47.1637 33.5206 47.5929 32.8628C47.3578 32.8462 47.1692 32.7785 47.1171 32.8362C46.6978 33.2976 46.2963 33.7801 46.0866 34.3802C45.9946 34.6442 46.1399 34.7473 46.3662 34.7407Z" fill="black"/>
<path d="M44.1045 51.3775C43.7218 51.4252 43.3513 51.1379 42.9642 51.3997C43.6309 51.8434 44.3574 51.7546 45.0806 51.6382C45.1505 51.6271 45.2004 51.4906 45.2935 51.3675C44.8443 51.3675 44.4694 51.332 44.1045 51.3775Z" fill="black"/>
<path d="M52.4002 42.8068C52.3226 42.8401 52.2405 43.0086 52.2605 43.0963C52.3248 43.3824 52.4191 43.6642 52.5367 43.9326C52.5722 44.0136 52.7241 44.0879 52.8195 44.0835C52.9205 44.079 53.0181 43.9781 53.0757 43.9426C52.9304 43.5244 52.8362 43.2061 52.7019 42.9066C52.6698 42.8356 52.4768 42.7735 52.3991 42.8068H52.4002Z" fill="black"/>
<path d="M53.608 42.6315C53.6812 42.9809 53.7345 43.307 53.8265 43.6231C53.8509 43.7052 53.9963 43.805 54.0817 43.8006C54.1526 43.7972 54.2824 43.6453 54.2736 43.5732C54.2281 43.1839 54.2381 42.7657 53.892 42.4451C53.7844 42.515 53.6901 42.5771 53.608 42.6315Z" fill="black"/>
<path d="M33.9986 43.8882C34.6508 43.6132 34.3347 42.9975 34.6541 42.6459C34.5 42.565 34.399 42.5117 34.277 42.4474C34.0164 42.8711 33.8833 43.2937 33.9986 43.8882Z" fill="black"/>
<path d="M35.8255 42.8001C35.7812 42.8189 35.7279 42.8322 35.6758 42.8478C35.5893 42.8722 35.5083 42.8999 35.4828 42.9531C35.3552 43.2205 35.2609 43.51 35.2022 43.7995C35.1833 43.8926 35.3131 44.0169 35.4151 44.1988C35.5449 44.0357 35.6492 43.947 35.698 43.8339C35.7934 43.6164 35.881 43.3891 35.9265 43.1572C35.932 43.1306 35.9309 43.1018 35.9254 43.0729C35.9087 42.9853 35.8544 42.8899 35.8277 42.8001H35.8255Z" fill="black"/>
<path d="M49.7391 37.3839C49.5539 37.8054 49.596 38.1293 49.8623 38.2468C49.9809 38.2091 50.1096 38.1681 50.2727 38.116C50.2024 37.7862 50.0246 37.5421 49.7391 37.3839Z" fill="white"/>
<path d="M38.8047 38.4354C38.9534 38.3012 39.0776 38.1891 39.224 38.056C39.0687 37.7954 38.9334 37.5669 38.747 37.253C38.4709 37.7366 38.513 38.0704 38.8047 38.4354Z" fill="white"/>
<rect x="38.5751" y="1" width="47.4736" height="84.9645" rx="1" fill="url(#paint0_linear_354_308)"/>
<path d="M84.1765 1H2.82352C1.81642 1 1 1.81642 1 2.82352V84.1765C1 85.1836 1.81642 86 2.82352 86H84.1765C85.1836 86 86 85.1836 86 84.1765V2.82352C86 1.81642 85.1836 1 84.1765 1Z" stroke="#E1E1E1" stroke-miterlimit="10"/>
<circle cx="44" cy="85" r="10" fill="#FF6D6D"/>
<path fill-rule="evenodd" clip-rule="evenodd" d="M44.8253 85L47.63 87.8047L46.8051 88.6297L44.0004 85.8249L41.1956 88.6297L40.3706 87.8048L43.1754 85L40.3705 82.1951L41.1954 81.3701L44.0004 84.175L46.8052 81.3702L47.6302 82.1951L44.8253 85Z" fill="white"/>
<path fill-rule="evenodd" clip-rule="evenodd" d="M48.1013 87.8047L46.8049 89.1011L44.0002 86.2964L41.1954 89.1012L39.899 87.8048L42.7039 85L39.8989 82.1951L41.1953 80.8987L44.0002 83.7036L46.8051 80.8988L48.1014 82.1951L45.2966 85L48.1013 87.8047ZM44.8252 85L47.63 82.1951L46.8051 81.3702L44.0002 84.175L41.1953 81.3701L40.3703 82.1951L43.1753 85L40.3705 87.8048L41.1954 88.6298L44.0002 85.8249L46.8049 88.6297L47.6299 87.8047L44.8252 85Z" fill="white"/>
<defs>
<linearGradient id="paint0_linear_354_308" x1="38.5751" y1="43.4823" x2="86.0487" y2="43.4823" gradientUnits="userSpaceOnUse">
<stop stop-color="white" stop-opacity="0"/>
<stop offset="0.487696" stop-color="white" stop-opacity="0.91"/>
</linearGradient>
</defs>
</svg>
