<svg width="87" height="95" viewBox="0 0 87 95" fill="none" xmlns="http://www.w3.org/2000/svg">
<path d="M30.2914 40.8821C30.2144 40.4813 30.0603 40.1643 29.7533 39.9131C28.8289 39.1573 27.9045 38.4014 26.9779 37.6479C26.8428 37.5384 26.6787 37.4558 26.5682 37.3274C26.5068 37.256 26.4789 37.0729 26.528 37.0126C26.5816 36.9456 26.739 36.9501 26.8506 36.9512C26.8875 36.9512 26.9165 37.0483 26.9623 37.0841C27.957 37.86 28.954 38.6337 30.019 39.462C29.9666 38.9373 29.9275 38.4673 29.8717 37.9995C29.8136 37.5217 29.7511 37.0428 29.6674 36.5694C29.6328 36.3751 29.5624 36.1831 29.3269 36.1083C29.156 36.0536 28.9997 35.952 28.8345 35.8761C27.5473 35.281 26.2366 35.9342 25.5054 36.8742C24.8154 37.7617 24.8087 38.771 25.1101 39.7869C25.5857 41.3867 26.3974 42.8336 27.4222 44.132C27.8018 44.6121 28.3064 45.0642 29.0332 45.1692C29.7143 45.2674 30.3048 45.1067 30.8898 44.8331C31.0361 44.765 31.1299 44.6445 31.0685 44.3955C30.7793 43.2322 30.5203 42.0611 30.2926 40.8844L30.2914 40.8821Z" fill="white"/>
<path d="M30.277 23.7663C30.5695 23.6379 30.8397 23.4604 31.1266 23.3164C31.466 23.1467 31.811 22.9904 32.2609 22.7772C31.9874 23.3867 31.7964 23.8824 31.5452 24.3458C31.4102 24.5947 31.4961 24.703 31.6714 24.8582C31.773 24.7901 31.8925 24.7544 31.9315 24.6784C32.2184 24.1147 32.5411 23.5609 32.7365 22.9647C32.8012 22.7683 33.0558 22.3998 32.5813 22.1163C31.7696 22.4858 30.9011 22.8821 30.0325 23.2785C29.999 23.245 29.9655 23.2115 29.932 23.178C30.191 22.7225 30.4545 22.2681 30.7068 21.8092C30.7749 21.6864 30.8118 21.5469 30.8866 21.3526C30.6242 21.3448 30.4701 21.2499 30.3451 21.4933C30.1185 21.9321 29.8561 22.3541 29.6027 22.7783C29.4073 23.1065 29.2465 23.4415 29.2678 23.8411C29.6284 23.9974 29.961 23.9048 30.2759 23.7652L30.277 23.7663Z" fill="white"/>
<path d="M36.837 24.5288C36.9174 24.4651 36.9665 24.4462 36.9765 24.4138C37.1652 23.8087 37.3572 23.2036 37.5247 22.5918C37.5437 22.5226 37.4198 22.4132 37.3115 22.2435C36.7923 22.8943 36.7845 23.6144 36.5958 24.2687C36.5791 24.3278 36.7544 24.4428 36.8359 24.5277L36.837 24.5288Z" fill="white"/>
<path d="M38.5686 24.6818C38.6446 24.5802 38.7741 24.4853 38.7886 24.3759C38.8567 23.8556 38.8667 23.3264 38.9516 22.8095C38.9962 22.5382 38.869 22.4992 38.6836 22.4579C38.649 22.4891 38.5966 22.5126 38.5921 22.5427C38.5017 23.1768 38.4079 23.811 38.342 24.4484C38.3353 24.5176 38.4894 24.6036 38.5686 24.6818Z" fill="white"/>
<path d="M76.8539 83.9145C76.1249 82.2377 75.2675 80.6267 74.2426 79.1061C73.7659 78.3983 73.297 77.6659 72.597 77.1412C71.9752 76.6757 71.3299 76.2414 70.7181 75.7647C69.1696 74.5589 67.4827 73.5642 65.8192 72.5337C64.2328 71.5502 62.6441 70.57 61.0722 69.563C60.4281 69.151 59.7604 68.7402 59.2167 68.2121C58.3839 67.4038 57.6437 66.4973 56.8767 65.622C56.7539 65.4824 56.6557 65.373 56.4581 65.3239C55.738 65.1419 55.0268 64.9209 54.309 64.7266C53.9283 64.6239 53.5442 64.4944 53.1568 64.4721C52.8465 64.4542 52.6756 64.3895 52.6176 64.0724C52.4725 63.2775 52.2492 62.4904 52.1755 61.69C52.0661 60.4943 52.0437 59.2885 52.0103 58.0873C51.9812 57.0881 51.9723 56.0889 51.9857 55.0897C51.9935 54.5371 52.0638 53.9856 52.1107 53.376C53.3254 53.8114 54.5244 53.8538 55.7313 53.6785C56.189 53.6127 56.6512 53.5044 57.0821 53.3403C57.5644 53.1572 57.6002 52.9506 57.3557 52.5074C57.2061 52.235 57.0766 51.9514 56.9046 51.6076C57.0654 51.6076 57.1447 51.5897 57.2128 51.6098C57.8324 51.794 58.4542 51.9704 59.0671 52.1758C59.7292 52.398 60.3711 52.4293 61.0477 52.0832C61.0354 51.8498 61.0823 51.5897 60.9997 51.3798C60.6692 50.5425 60.332 49.7041 59.9324 48.8991C59.5706 48.1724 59.3239 47.4154 59.1196 46.6373C59.0716 46.4542 58.9778 46.2811 58.9499 46.0958C58.8907 45.7084 58.941 45.6626 59.3239 45.5566C59.5305 45.4985 59.7761 45.4595 59.9223 45.3244C60.3253 44.9515 60.706 44.5496 61.0599 44.1287C61.7655 43.288 62.2947 42.3346 62.7759 41.3533C63.2961 40.2927 63.5831 39.1751 63.4468 37.9906C63.4055 37.6289 63.2392 37.275 63.0929 36.9323C62.8563 36.3785 62.3349 36.0525 61.9877 35.616C62.259 34.5029 62.5258 33.4055 62.8205 32.1942C62.9847 32.442 63.1019 32.5883 63.1867 32.7524C63.4134 33.19 63.6121 33.6422 63.8499 34.0731C63.9682 34.2863 64.1413 34.4795 64.4449 34.3064C64.5008 34.0943 64.5733 33.8766 64.6157 33.6533C64.7988 32.6899 64.6358 31.7353 64.5365 30.7785C64.4181 29.6454 64.1167 28.5468 63.8421 27.4472C63.6623 26.7282 63.3575 26.0394 63.0941 25.3427C62.6575 24.1872 62.1239 23.0786 61.5411 21.9856C61.0019 20.973 60.37 20.0297 59.689 19.1198C59.0671 18.2892 58.4129 17.463 57.6549 16.7619C56.9058 16.0697 56.179 15.2916 55.0793 15.0828C53.8914 14.8573 52.7203 14.5436 51.5324 14.3158C50.6438 14.1461 49.7406 14.0535 48.843 13.9262C48.8329 13.8938 48.8218 13.8626 48.8117 13.8302C49.8678 13.3222 50.9229 12.8142 52.0002 12.2962C51.9556 12.0662 51.9142 11.8552 51.8763 11.6565C50.7085 11.1709 49.5039 10.9688 48.2892 10.9163C46.2774 10.8304 44.3963 11.2167 42.9248 12.7439C42.7216 12.9549 42.5274 12.9728 42.2728 12.86C42.0161 12.7461 41.7481 12.649 41.4768 12.5765C39.7285 12.1098 37.9858 12.0964 36.2576 12.6792C36.1437 12.7171 36.0522 12.8176 35.9461 12.8924C36.2267 13.2229 36.5274 13.4231 36.8482 13.493C37.3025 13.5902 37.7625 13.6717 38.2694 13.9463C38.0963 13.9965 38.0271 14.0189 37.9568 14.0367C36.7912 14.3326 35.6 14.5503 34.468 14.9433C33.116 15.4133 31.8098 16.0184 30.498 16.5989C30.1776 16.7407 29.8594 16.9629 29.6361 17.2286C29.156 17.7991 28.7363 18.4209 28.2964 19.026C27.8431 19.649 27.343 20.2463 26.9612 20.9116C26.5849 21.5659 26.1897 22.2111 25.857 22.8955C25.5053 23.6178 25.1648 24.3413 24.8668 25.087C24.3722 26.3229 24.0607 27.599 23.8396 28.9141C23.6621 29.9691 23.699 31.0063 23.7671 32.0524C23.805 32.6419 23.8609 32.6519 24.4749 32.6407C24.8299 31.8648 25.1883 31.0822 25.6069 30.169C25.684 30.3945 25.7264 30.4637 25.7297 30.5341C25.7978 32.0457 25.8336 33.5607 26.2991 35.0243C26.3706 35.2487 26.2511 35.4776 26.0792 35.5937C25.7476 35.8169 25.4752 36.086 25.2084 36.3796C24.7227 36.9122 24.4436 37.5128 24.4235 38.2362C24.3934 39.2901 24.6379 40.2726 25.09 41.2271C25.7867 42.7008 26.5994 44.0851 27.8398 45.1703C28.0374 45.3434 28.2975 45.4706 28.5498 45.551C28.9785 45.6872 29.0433 45.7185 28.9461 46.1181C28.8111 46.6741 28.6927 47.2435 28.4761 47.7693C28.0541 48.7987 27.545 49.7912 27.1253 50.8205C26.9612 51.2224 26.6921 51.6455 26.8841 52.0932C27.4423 52.4215 28.0296 52.4002 28.5822 52.2763C29.2721 52.1222 29.9342 51.8498 30.6118 51.6388C30.7101 51.6087 30.8251 51.6344 30.997 51.6344C30.8228 51.9715 30.6878 52.2573 30.5315 52.5309C30.3126 52.9138 30.3406 53.127 30.7123 53.3112C30.9323 53.4206 31.189 53.4586 31.4302 53.5222C32.416 53.7824 33.4141 53.8471 34.4211 53.6908C34.8821 53.6194 35.3388 53.5144 35.7898 53.4262C35.8434 54.0001 35.9327 54.5114 35.9316 55.0227C35.9294 56.2664 35.8512 57.5101 35.8702 58.7527C35.8847 59.7507 35.8557 60.7421 35.7161 61.7268C35.6 62.5396 35.4046 63.34 35.2651 64.1506C35.2193 64.4163 35.0351 64.462 34.8408 64.4899C33.7322 64.6485 32.6538 64.9231 31.5887 65.2636C31.304 65.354 31.1031 65.4914 30.9267 65.7214C30.5828 66.1679 30.2378 66.6145 29.8594 67.0309C29.4016 67.5355 28.9662 68.0882 28.4203 68.4789C27.1442 69.3899 25.8202 70.2362 24.4928 71.0724C22.7121 72.1944 20.8968 73.2605 19.1228 74.3926C18.1571 75.01 17.2204 75.682 16.3206 76.3921C15.6652 76.909 14.9563 77.3455 14.4282 78.0511C13.314 79.5415 12.3506 81.1123 11.5713 82.7936C11.4005 83.1632 11.2364 83.5361 11.0767 83.9101C10.8758 84.3801 10.6793 84.8523 10.4817 85.3234H11.0321C11.2353 84.849 11.4463 84.3778 11.6629 83.9101C11.8817 83.44 12.1038 82.9711 12.3338 82.5067C12.7971 81.57 13.3118 80.6557 13.851 79.7603C14.1949 79.191 14.6057 78.6573 15.0277 78.1404C15.2801 77.8323 15.5882 77.5588 15.9086 77.3187C17.0016 76.5004 18.0968 75.6821 19.2199 74.905C20.0181 74.3524 20.861 73.8634 21.6838 73.3465C23.2267 72.3786 24.7719 71.4117 26.3136 70.4416C27.1398 69.9213 27.9726 69.41 28.782 68.8663C29.0567 68.6821 29.2867 68.422 29.5077 68.1697C30.1296 67.463 30.7213 66.7284 31.3576 66.0362C31.5374 65.8408 31.8176 65.689 32.0777 65.622C33.0032 65.3853 33.9399 65.1955 34.9112 64.9789C34.9179 65.3976 34.6231 65.545 34.3429 65.6722C33.8182 65.91 33.2834 66.1277 32.7464 66.3376C32.3914 66.4772 32.3311 66.5989 32.5689 66.8902C32.848 67.2319 33.1506 67.5579 33.4576 67.8749C33.759 68.1864 34.0906 68.47 34.3909 68.7826C34.9916 69.4055 35.6949 69.8845 36.4083 70.3701C37.5002 71.1137 38.6478 71.74 39.8335 72.3093C40.3783 72.5717 40.9309 72.7838 41.5472 72.8463C42.2025 72.9122 42.85 73.0574 43.4998 73.1746C44.7513 73.4001 45.9537 73.1768 47.1125 72.728C48.5382 72.1754 49.8745 71.4385 51.1595 70.6113C52.2469 69.9113 53.2852 69.1577 54.1147 68.1418C54.4552 67.7253 54.8739 67.3737 55.2345 66.9717C55.3528 66.84 55.4019 66.6469 55.4622 66.5218C54.6394 66.1221 53.8881 65.766 53.1501 65.3853C53.0552 65.3362 53.0251 65.1631 52.9179 64.9588C53.5844 65.1084 54.156 65.229 54.7232 65.3674C55.1898 65.4813 55.6587 65.5941 56.1097 65.756C56.2995 65.8241 56.4681 65.9982 56.6054 66.159C57.2719 66.9327 57.9273 67.7108 58.6809 68.4108C59.5394 69.2068 60.5308 69.7896 61.5143 70.398C62.4075 70.9507 63.2738 71.548 64.1647 72.1039C65.5971 72.9971 67.0495 73.8578 68.4741 74.7621C69.173 75.2053 69.8328 75.7111 70.5037 76.1967C70.7907 76.4044 71.0419 76.669 71.3444 76.8498C72.7556 77.6938 73.613 79.0101 74.4268 80.3744C75.1079 81.5153 75.6862 82.7021 76.2299 83.9089C76.4409 84.3778 76.6474 84.8501 76.8528 85.3223H77.4345C77.4121 85.2654 77.3898 85.2096 77.3675 85.1526C77.2045 84.734 77.0303 84.3198 76.8517 83.9089L76.8539 83.9145ZM61.3022 35.952C62.7201 36.7893 63.1711 37.7729 62.8819 39.442C62.8049 39.8852 62.6051 40.315 62.4153 40.7292C62.0692 41.4884 61.7465 42.2699 61.3056 42.9732C60.8378 43.719 60.3332 44.4859 59.5416 44.9303C58.9577 45.2585 58.2901 45.3065 57.6314 45.0843C57.5365 45.052 57.4472 45.0017 57.3557 44.9604C56.7249 44.6791 56.7316 44.6724 56.8823 44.0438C57.1313 43.0078 57.3892 41.9729 57.5924 40.9279C57.6783 40.4869 57.8547 40.1509 58.1963 39.8718C59.1966 39.0546 60.188 38.2262 61.1839 37.4045C61.2129 37.3811 61.2855 37.3844 61.2922 37.3621C61.3279 37.2415 61.348 37.1176 61.3737 36.9937C61.2497 36.9925 61.0867 36.9378 61.0075 36.997C60.4515 37.4101 59.91 37.8433 59.3708 38.2775C58.8974 38.6582 58.4319 39.0501 57.8581 39.5235C57.9909 38.4673 58.1014 37.5351 58.2321 36.6063C58.2656 36.3685 58.385 36.1976 58.6395 36.0648C59.5204 35.6059 60.418 35.4296 61.3022 35.9509V35.952ZM57.0241 21.4051C57.6872 21.9499 58.1997 22.5103 58.5793 23.1858C58.7378 23.4671 58.625 23.5899 58.4286 23.6111C57.8659 22.9435 57.3512 22.3306 56.7751 21.6462C56.8488 21.5748 56.9303 21.4955 57.0241 21.4051ZM54.6707 22.0057C55.1999 22.4177 55.7101 22.7962 56.1957 23.2014C56.3643 23.3421 56.237 23.4883 56.0483 23.6368C55.5214 23.2215 54.9855 22.7984 54.4295 22.3585C54.511 22.2391 54.5747 22.1464 54.6707 22.0057ZM46.2428 22.0671C46.3433 21.9108 46.5018 21.9298 46.6436 22.0749C46.983 22.4222 47.3302 22.7615 47.6774 23.1009C47.7612 23.1824 47.8572 23.2505 47.999 23.3666C48.2691 22.7504 47.9844 22.133 48.2077 21.5402C49.3052 21.9655 50.0666 22.7548 51.001 23.2461C50.8838 23.7083 50.8492 23.7362 50.5176 23.5274C49.9784 23.188 49.4537 22.8274 48.9211 22.478C48.8597 22.4378 48.7916 22.4088 48.6878 22.3529C48.5985 22.8944 48.517 23.3946 48.4332 23.8992C47.8348 23.974 47.4966 23.6346 47.1628 23.3108C46.8714 23.0273 46.5956 22.7269 46.3344 22.4166C46.2618 22.3295 46.1982 22.1386 46.2428 22.0682V22.0671ZM38.592 22.5427C38.5965 22.5126 38.649 22.4891 38.6836 22.4579C38.8689 22.5003 38.9962 22.5383 38.9515 22.8096C38.8667 23.3265 38.8566 23.8556 38.7885 24.3759C38.774 24.4853 38.6445 24.5802 38.5686 24.6818C38.4893 24.6036 38.3341 24.5177 38.3419 24.4485C38.4078 23.811 38.5016 23.1769 38.592 22.5427ZM37.3126 22.2446C37.4209 22.4143 37.5448 22.5226 37.5258 22.593C37.3584 23.2048 37.1663 23.8087 36.9777 24.415C36.9676 24.4462 36.9174 24.4663 36.8381 24.53C36.7566 24.4451 36.5813 24.3301 36.5981 24.2709C36.7868 23.6167 36.7946 22.8977 37.3137 22.2458L37.3126 22.2446ZM29.6037 22.7783C29.8571 22.3529 30.1184 21.932 30.3461 21.4933C30.4712 21.251 30.6252 21.3448 30.8876 21.3526C30.8128 21.5469 30.7748 21.6864 30.7079 21.8092C30.4544 22.2681 30.1921 22.7225 29.9331 23.178C29.9666 23.2115 30 23.245 30.0335 23.2784C30.9021 22.8821 31.7707 22.4869 32.5823 22.1163C33.0568 22.3987 32.8023 22.7671 32.7375 22.9647C32.541 23.5598 32.2195 24.1146 31.9326 24.6784C31.8935 24.7544 31.774 24.7901 31.6724 24.8582C31.4972 24.703 31.4101 24.5947 31.5463 24.3457C31.7975 23.8835 31.9884 23.3867 32.2619 22.7772C31.812 22.9904 31.467 23.1467 31.1276 23.3164C30.8407 23.4604 30.5705 23.6368 30.278 23.7663C29.9632 23.9048 29.6305 23.9985 29.2699 23.8422C29.2476 23.4426 29.4095 23.1065 29.6048 22.7794L29.6037 22.7783ZM30.8887 44.8309C30.3037 45.1044 29.7131 45.2652 29.0321 45.167C28.3053 45.062 27.8007 44.611 27.4211 44.1298C26.3962 42.8314 25.5846 41.3845 25.109 39.7847C24.8076 38.7688 24.8143 37.7595 25.5042 36.872C26.2355 35.9319 27.5462 35.2788 28.8334 35.8739C28.9986 35.9498 29.1538 36.0514 29.3257 36.1061C29.5613 36.1809 29.6316 36.3729 29.6662 36.5672C29.75 37.0417 29.8136 37.5195 29.8705 37.9973C29.9264 38.4651 29.9654 38.9362 30.0179 39.4598C28.9528 38.6314 27.9559 37.8578 26.9612 37.0819C26.9154 37.0461 26.8864 36.949 26.8495 36.949C26.7379 36.949 26.5805 36.9445 26.5269 37.0104C26.4789 37.0707 26.5068 37.2538 26.5671 37.3252C26.6776 37.4547 26.8417 37.5362 26.9768 37.6456C27.9034 38.3992 28.8278 39.155 29.7522 39.9109C30.0603 40.1621 30.2133 40.4791 30.2903 40.8799C30.5181 42.0566 30.7771 43.2289 31.0662 44.391C31.1276 44.64 31.0339 44.7606 30.8876 44.8287L30.8887 44.8309ZM34.6979 50.5995C33.4643 49.4853 32.5522 48.1422 32.1268 46.4821C31.6088 44.4614 31.074 42.4462 30.7347 40.3876C30.5047 38.9965 30.3283 37.5954 30.1407 36.1976C29.9822 35.012 29.8415 33.8253 29.6986 32.6374C29.6796 32.4811 29.7343 32.3103 29.6941 32.164C29.6193 31.8939 29.7511 31.7722 29.9465 31.6259C30.6409 31.109 31.3431 30.5999 31.9973 30.0361C32.6772 29.4489 33.3024 28.7991 33.9555 28.1818C33.9901 28.1483 34.0649 28.1583 34.2916 28.117C34.0303 28.558 33.8584 28.8963 33.6396 29.1999C33.4799 29.4232 33.4676 29.5951 33.6619 29.7771C34.8955 29.8296 35.9115 29.2747 36.8616 28.5982C37.4187 28.2007 37.9646 27.7642 38.2973 27.1312C38.4525 26.8365 38.5541 26.8588 38.7751 27.1535C39.4572 28.0645 40.1673 28.9633 41.1453 29.5717C41.6521 29.8865 42.2148 30.1299 42.7786 30.3297C43.3323 30.5251 43.9162 30.639 44.4934 30.7596C44.7948 30.8221 45.1655 30.9695 45.3888 30.6658C45.621 30.3498 45.2972 30.0808 45.1644 29.8128C44.7915 29.0671 44.4007 28.3302 44.0602 27.5599C44.7312 27.9931 45.3196 28.5033 46.0229 28.8628C46.9127 29.3172 47.8214 29.6677 48.8005 29.8943C49.3978 30.0328 49.9895 30.1132 50.5913 30.1623C51.4643 30.2326 52.3374 30.2148 53.1836 29.958C53.4203 29.8865 53.6335 29.7369 53.9606 29.5706C53.1836 28.9175 52.6008 28.2532 52.0661 27.407C52.2804 27.446 52.4289 27.4259 52.4881 27.4896C53.4828 28.5513 54.6885 29.3373 55.9043 30.1065C56.6188 30.5586 57.3635 30.9639 58.0813 31.4116C58.1718 31.4674 58.2343 31.6527 58.2254 31.7722C58.1361 32.9198 58.0456 34.0675 57.9206 35.2118C57.7888 36.412 57.637 37.6099 57.4584 38.8045C57.3311 39.6563 57.1558 40.5014 56.9817 41.3443C56.7472 42.4742 56.5217 43.6084 56.2381 44.726C55.9791 45.7475 55.7034 46.7701 55.3327 47.7548C54.894 48.9226 54.0354 49.8235 53.1367 50.653C51.4152 52.2395 49.4782 53.5368 47.4307 54.6621C46.7173 55.054 45.9001 55.1131 45.1063 55.2438C44.0781 55.4123 43.0677 55.2895 42.0585 55.1321C41.4032 55.0305 40.7947 54.8139 40.1941 54.4902C38.2024 53.4128 36.3715 52.1111 34.6991 50.6006L34.6979 50.5995ZM53.8825 67.5512C52.9291 68.7502 51.7725 69.5462 50.6013 70.3288C49.6468 70.9674 48.6487 71.5323 47.6026 71.9912C46.6459 72.4109 45.6243 72.7314 44.5783 72.7403C43.7488 72.747 42.9159 72.5427 42.0886 72.4087C41.5862 72.3272 41.0839 72.229 40.596 72.0861C40.241 71.9822 39.9027 71.8103 39.5711 71.6417C38.1108 70.8993 36.7242 70.0374 35.4593 68.9936C34.9558 68.5783 34.5059 68.0971 33.9901 67.607C34.2369 67.4083 34.42 67.2352 34.6276 67.0979C35.015 66.8422 35.0262 66.3946 35.1869 66.0295C35.8412 64.5413 36.1828 62.9671 36.3089 61.3573C36.4161 59.9841 36.4351 58.6042 36.4597 57.2265C36.473 56.4752 36.4161 55.7238 36.3971 54.9725C36.3804 54.3249 36.4128 53.6763 36.2509 53.0377C36.2207 52.9194 36.3045 52.772 36.338 52.628C37.1429 53.0511 37.7413 53.702 38.4134 54.2624C39.963 55.5552 41.6108 56.7174 43.291 57.8339C43.8693 58.2179 44.422 58.6433 44.9924 59.0407C45.621 59.4783 46.3623 59.6246 47.0902 59.6369C48.0525 59.6525 49.0227 59.5397 49.9192 59.1334C50.3044 58.9592 50.6594 58.7192 51.0323 58.5171C51.154 58.4512 51.2902 58.4099 51.4107 58.3608C51.4777 59.264 51.5324 60.0968 51.6039 60.9286C51.6709 61.7089 51.7032 62.4971 51.8473 63.263C52.0114 64.1383 52.3307 64.9745 52.641 65.8162C52.9045 66.5285 53.1758 67.1537 53.8814 67.5523L53.8825 67.5512Z" fill="black"/>
<path d="M74.4292 80.381C73.6153 79.0167 72.7568 77.7005 71.3467 76.8565C71.0442 76.6756 70.7941 76.411 70.5061 76.2034C69.8351 75.7166 69.1753 75.212 68.4764 74.7688C67.0508 73.8645 65.5983 73.0037 64.1671 72.1106C63.2761 71.5546 62.4098 70.9573 61.5167 70.4047C60.5331 69.7962 59.5417 69.2146 58.6832 68.4175C57.9296 67.7186 57.2743 66.9404 56.6078 66.1656C56.4693 66.0049 56.3019 65.8307 56.1121 65.7626C55.6611 65.6007 55.1922 65.488 54.7255 65.3741C54.1584 65.2357 53.5867 65.1151 52.9202 64.9655C53.0263 65.1687 53.0564 65.3428 53.1525 65.392C53.8915 65.7715 54.6418 66.1277 55.4646 66.5285C55.4043 66.6524 55.3552 66.8467 55.2368 66.9784C54.8762 67.3792 54.4564 67.7309 54.117 68.1484C53.2887 69.1643 52.2493 69.9179 51.1619 70.6179C49.8769 71.4452 48.5405 72.1831 47.1149 72.7346C45.9571 73.1834 44.7536 73.4067 43.5021 73.1812C42.8524 73.064 42.2049 72.9189 41.5495 72.853C40.9332 72.7905 40.3806 72.5784 39.8358 72.316C38.6513 71.7466 37.5036 71.1203 36.4106 70.3768C35.6961 69.8911 34.9939 69.4133 34.3933 68.7892C34.0929 68.4766 33.7614 68.1931 33.4599 67.8816C33.1529 67.5634 32.8504 67.2385 32.5713 66.8969C32.3335 66.6055 32.3938 66.4838 32.7488 66.3443C33.2858 66.1333 33.8205 65.9167 34.3453 65.6789C34.6255 65.5516 34.9202 65.4042 34.9135 64.9856C33.9422 65.2022 33.0044 65.3931 32.08 65.6286C31.8199 65.6956 31.5397 65.8463 31.36 66.0428C30.7225 66.735 30.1308 67.4696 29.51 68.1763C29.289 68.4275 29.059 68.6876 28.7844 68.873C27.975 69.4178 27.1421 69.9291 26.316 70.4482C24.7742 71.4184 23.2291 72.3852 21.6862 73.3531C20.8623 73.87 20.0205 74.359 19.2222 74.9117C18.1002 75.6898 17.0039 76.507 15.9109 77.3254C15.5905 77.5654 15.2813 77.8378 15.0301 78.147C14.6081 78.6639 14.1972 79.1976 13.8534 79.767C13.313 80.6623 12.7995 81.5767 12.3362 82.5134C12.1062 82.9778 11.8829 83.4456 11.6652 83.9167C11.4475 84.3856 11.2365 84.8567 11.0344 85.3301H76.8585C76.6531 84.8567 76.4477 84.3856 76.2355 83.9167C75.6919 82.711 75.1135 81.5231 74.4325 80.3821L74.4292 80.381ZM55.2457 75.8885C54.4296 76.4959 53.5343 76.9759 52.6188 77.4124C52.0048 77.7049 51.3919 78.0287 50.7443 78.2185C49.7094 78.5222 48.6868 78.8716 47.6061 79.0312C46.6705 79.1697 45.7428 79.3628 44.7938 79.3785C44.1597 79.3885 43.5256 79.3874 42.8915 79.3829C42.4683 79.3796 42.0419 79.3896 41.6221 79.3427C40.9779 79.2691 40.3337 79.2188 39.6918 79.0737C39.1816 78.9576 38.6535 78.9051 38.1389 78.7633C37.0704 78.4686 36.0199 78.1437 34.9872 77.7262C34.1588 77.3912 33.3572 77.0161 32.5668 76.6109C31.5442 76.0861 30.5617 75.4933 29.6552 74.781C29.3895 74.5723 29.0914 74.4059 28.8268 74.196C28.6805 74.0799 28.5734 73.9158 28.4193 73.7394C28.608 73.6401 28.7274 73.5764 28.7967 73.5407C29.5435 74.0453 30.2592 74.5042 30.948 75.001C31.6569 75.5123 32.4317 75.9142 33.2043 76.3016C34.1923 76.7973 35.2161 77.2472 36.2644 77.5955C37.3641 77.9595 38.5039 78.2084 39.6393 78.4529C40.3728 78.6115 41.1242 78.7019 41.8722 78.7655C42.6804 78.8348 43.4954 78.8761 44.3048 78.8582C45.0171 78.8426 45.7305 78.7454 46.4394 78.6539C47.4252 78.5266 48.3987 78.3179 49.3477 78.0309C50.0589 77.8166 50.7767 77.6078 51.4455 77.2517C52.17 76.8654 52.9616 76.6008 53.6749 76.1955C54.4486 75.7568 55.1899 75.2488 55.9011 74.7129C56.4749 74.2809 56.9784 73.7562 57.5221 73.2839C57.6382 73.1834 57.7945 73.1299 57.9676 73.0338C58.0636 73.2169 58.1429 73.3688 58.2578 73.5898C57.243 74.3657 56.2528 75.1394 55.2446 75.8908L55.2457 75.8885Z" fill="#BCCACE"/>
<path d="M42.0575 55.132C43.0667 55.2883 44.0782 55.4123 45.1053 55.2437C45.8991 55.1131 46.7163 55.0539 47.4297 54.662C49.4783 53.5367 51.4142 52.2405 53.1357 50.653C54.0344 49.8246 54.8929 48.9225 55.3317 47.7547C55.7023 46.7701 55.977 45.7463 56.2371 44.7259C56.5207 43.6072 56.7462 42.4741 56.9806 41.3443C57.1559 40.5003 57.3301 39.6562 57.4574 38.8044C57.636 37.611 57.7878 36.4119 57.9196 35.2118C58.0446 34.0674 58.135 32.9198 58.2243 31.7721C58.2333 31.6537 58.1708 31.4684 58.0803 31.4115C57.3625 30.9649 56.6178 30.5585 55.9033 30.1064C54.6875 29.3372 53.4818 28.5512 52.4871 27.4895C52.4279 27.4259 52.2805 27.4448 52.0651 27.4069C52.5998 28.2531 53.1826 28.9174 53.9596 29.5705C53.6325 29.7369 53.4193 29.8865 53.1826 29.9579C52.3363 30.2147 51.4633 30.2337 50.5903 30.1622C49.9885 30.1131 49.3968 30.0327 48.7995 29.8943C47.8204 29.6676 46.9117 29.3171 46.0219 28.8627C45.3185 28.5032 44.7302 27.9919 44.0592 27.5598C44.3997 28.3302 44.7916 29.067 45.1634 29.8128C45.2962 30.0796 45.6211 30.3498 45.3878 30.6657C45.1645 30.9694 44.7938 30.822 44.4924 30.7595C43.9152 30.64 43.3313 30.5262 42.7776 30.3297C42.2138 30.1298 41.6511 29.8876 41.1442 29.5716C40.1651 28.9621 39.4562 28.0645 38.7741 27.1535C38.553 26.8587 38.4514 26.8364 38.2963 27.1311C37.9624 27.7653 37.4176 28.2018 36.8605 28.5981C35.9105 29.2747 34.8945 29.8295 33.6609 29.777C33.4666 29.5951 33.4789 29.4231 33.6386 29.1999C33.8574 28.8951 34.0293 28.5579 34.2905 28.1169C34.0639 28.1582 33.9891 28.1493 33.9545 28.1817C33.3014 28.7991 32.6751 29.4488 31.9963 30.0361C31.3421 30.601 30.6399 31.1101 29.9454 31.6258C29.7501 31.771 29.6183 31.8927 29.6931 32.164C29.7333 32.3113 29.6786 32.481 29.6976 32.6373C29.8394 33.8252 29.9812 35.0119 30.1397 36.1976C30.3261 37.5953 30.5037 38.9964 30.7336 40.3875C31.073 42.4462 31.6089 44.4613 32.1258 46.482C32.5512 48.1433 33.4633 49.4852 34.6969 50.5994C36.3693 52.1099 38.2002 53.4128 40.1919 54.489C40.7915 54.8127 41.3999 55.0293 42.0564 55.1309L42.0575 55.132ZM44.93 50.8238C44.2021 50.941 43.4709 51.0303 42.7999 50.5838C43.1895 50.3192 43.5624 50.6094 43.9476 50.5614C44.3149 50.5157 44.6922 50.5514 45.1444 50.5514C45.0506 50.6753 45.0004 50.8126 44.93 50.8238ZM48.1163 31.9485C49.1255 32.0501 50.1348 32.1472 51.1384 32.289C51.7737 32.3783 52.41 32.5056 53.0252 32.6864C53.3288 32.7757 53.6113 32.9979 53.858 33.21C54.2008 33.5048 54.5033 33.8464 54.8204 34.1702C55.0224 34.3767 54.884 34.5285 54.7914 34.6324C53.1056 34.4604 51.4734 34.2818 49.8389 34.1344C49.0496 34.063 48.2547 34.0518 47.4632 34.0094C47.3035 34.0005 47.1416 33.9859 46.9865 33.9513C46.6594 33.8777 46.5578 33.7024 46.742 33.4356C47.0691 32.9622 47.433 32.5123 47.7992 32.0668C47.8629 31.9898 48.0136 31.9373 48.1163 31.9474V31.9485ZM45.9426 33.4545C46.1547 32.8505 46.5589 32.3649 46.9798 31.9005C47.0322 31.8424 47.222 31.9094 47.4587 31.9273C47.0267 32.5893 46.646 33.171 46.2239 33.8174C45.9962 33.8252 45.8488 33.7214 45.9426 33.4545ZM40.8484 31.8223C41.3485 32.366 41.8007 32.9209 42.0329 33.7024C41.8788 33.7627 41.7717 33.8051 41.6891 33.8375C41.2782 33.2134 40.8875 32.6195 40.4766 31.9943C40.6218 31.9262 40.7267 31.8781 40.8495 31.8212L40.8484 31.8223ZM33.1953 34.092C33.5894 33.8051 33.9456 33.4445 34.2504 33.0616C34.4647 32.7936 34.7226 32.7099 35.0173 32.6395C36.4798 32.2923 37.958 32.0869 39.4618 31.9931C39.924 31.9641 40.1607 32.0958 40.394 32.4017C40.7066 32.8137 41.0092 33.2324 41.3776 33.7303C41.1219 33.8341 40.9723 33.9368 40.8138 33.9525C40.0758 34.0206 39.3356 34.0619 38.5966 34.1177C37.4813 34.2014 36.3649 34.274 35.2518 34.3834C34.5462 34.4526 33.8462 34.5776 33.1194 34.6826C32.9955 34.4649 32.8906 34.3142 33.1953 34.0931V34.092ZM33.4019 42.7487C32.5902 41.3498 32.0678 39.6842 32.0678 39.6842L31.7552 39.5703C31.4169 39.4464 31.1891 39.1271 31.1835 38.7665L31.169 37.8309C31.1612 37.3497 31.5453 36.9523 32.0264 36.9456L32.5054 36.9378C32.5054 36.9378 32.9252 35.6416 35.3433 35.5467C37.258 35.4708 39.2274 35.6014 40.9567 35.8827C42.3042 36.1016 42.8524 36.9824 43.1337 36.9768L43.9353 36.9634L44.7369 36.9768C45.0171 36.9813 45.5664 36.1016 46.9139 35.8827C48.6432 35.6014 50.6126 35.4708 52.5273 35.5467C54.9465 35.6416 55.3652 36.9378 55.3652 36.9378L55.8441 36.9456C56.3253 36.9534 56.7094 37.3497 56.7015 37.8309L56.687 38.7665C56.6814 39.1271 56.4537 39.4475 56.1154 39.5703L55.8028 39.6842C55.8028 39.6842 55.2815 41.351 54.4687 42.7487C53.3132 44.7371 51.2177 44.8911 49.0239 44.6656C45.9672 44.3508 45.333 41.4514 45.0796 40.5907C44.7235 39.3838 44.287 39.1438 44.0704 39.1036C44.2535 39.433 44.1586 39.7857 44.1675 40.0995C44.1976 41.2639 44.1776 42.4294 44.1675 43.5939C44.1642 43.9332 44.1295 44.2726 44.1039 44.6891C43.8996 44.6645 43.7667 44.6478 43.6171 44.6299C43.5859 43.9109 43.5356 43.2187 43.5311 42.5254C43.5256 41.6189 43.5535 40.7135 43.5713 39.807C43.5747 39.6094 43.568 39.4039 43.6182 39.2164C43.6238 39.1974 43.6316 39.1795 43.6406 39.1617C43.4072 39.2845 43.0734 39.6328 42.791 40.5918C42.5375 41.4514 41.9023 44.3519 38.8467 44.6667C36.6529 44.8922 34.5563 44.7382 33.4008 42.7498L33.4019 42.7487ZM39.2117 47.3227C39.4082 47.3227 39.5455 47.2792 39.6058 47.3294C41.3631 48.7752 43.4016 48.7886 45.4972 48.4882C46.4986 48.3453 47.4319 48.0104 48.2592 47.4109C48.4132 47.2992 48.5774 47.2725 48.6745 47.4366C48.766 47.5906 48.6935 47.7134 48.5115 47.815C46.0297 49.2139 43.4441 49.4629 40.7568 48.515C40.0167 48.2538 39.6214 47.9256 39.2117 47.3216V47.3227Z" fill="white"/>
<path d="M51.8483 63.2608C51.7043 62.4938 51.6719 61.7056 51.605 60.9263C51.5335 60.0946 51.4788 59.2617 51.4118 58.3586C51.2912 58.4077 51.155 58.4479 51.0334 58.5149C50.6605 58.7169 50.3054 58.957 49.9203 59.1311C49.0238 59.5375 48.0536 59.6514 47.0913 59.6346C46.3634 59.6223 45.6221 59.4761 44.9935 59.0385C44.423 58.641 43.8704 58.2168 43.2921 57.8316C41.6119 56.7152 39.9641 55.553 38.4145 54.2602C37.7424 53.6997 37.1451 53.05 36.339 52.6257C36.3055 52.7698 36.2218 52.9171 36.252 53.0355C36.4138 53.6741 36.3826 54.3238 36.3982 54.9702C36.4172 55.7216 36.4741 56.474 36.4607 57.2243C36.4351 58.6019 36.4172 59.983 36.31 61.355C36.1839 62.9649 35.8422 64.5391 35.188 66.0272C35.0272 66.3923 35.0161 66.84 34.6287 67.0957C34.421 67.233 34.2368 67.406 33.9912 67.6047C34.507 68.0949 34.9569 68.576 35.4604 68.9913C36.7253 70.0352 38.1108 70.8982 39.5722 71.6395C39.9038 71.8081 40.242 71.98 40.5971 72.0838C41.0849 72.2267 41.5873 72.325 42.0897 72.4065C42.917 72.5404 43.7509 72.7447 44.5793 72.738C45.6254 72.7291 46.6469 72.4076 47.6037 71.9889C48.6498 71.5301 49.6479 70.9641 50.6024 70.3266C51.7735 69.544 52.9301 68.748 53.8836 67.5489C53.178 67.1492 52.9067 66.5252 52.6432 65.8129C52.3329 64.9711 52.0147 64.136 51.8495 63.2596L51.8483 63.2608Z" fill="white"/>
<path d="M58.232 36.6073C58.1025 37.5362 57.992 38.4673 57.858 39.5245C58.4319 39.0512 58.8963 38.6604 59.3708 38.2786C59.91 37.8443 60.4515 37.4123 61.0075 36.9981C61.0867 36.9389 61.2497 36.9925 61.3737 36.9947C61.348 37.1175 61.3268 37.2426 61.2922 37.3631C61.2855 37.3855 61.2129 37.381 61.1839 37.4056C60.188 38.2272 59.1955 39.0556 58.1963 39.8728C57.8547 40.1519 57.6783 40.488 57.5923 40.929C57.3891 41.9739 57.1313 43.0089 56.8823 44.0449C56.7305 44.6746 56.7249 44.6813 57.3557 44.9615C57.4483 45.0028 57.5365 45.053 57.6314 45.0854C58.2901 45.3076 58.9577 45.2596 59.5416 44.9313C60.3331 44.487 60.8378 43.7189 61.3055 42.9743C61.7465 42.2709 62.0681 41.4894 62.4153 40.7303C62.6051 40.3149 62.8049 39.8862 62.8819 39.443C63.17 37.774 62.7201 36.7904 61.3022 35.9531C60.418 35.4317 59.5204 35.6081 58.6395 36.067C58.3861 36.1998 58.2655 36.3706 58.232 36.6084V36.6073Z" fill="white"/>
<path d="M47.1628 23.3097C47.4966 23.6334 47.8337 23.9717 48.4333 23.898C48.517 23.3923 48.5985 22.8932 48.6878 22.3518C48.7916 22.4065 48.8597 22.4355 48.9211 22.4768C49.4537 22.8263 49.9784 23.188 50.5176 23.5263C50.8492 23.735 50.8838 23.7071 51.001 23.2449C50.0666 22.7537 49.3041 21.9644 48.2077 21.539C47.9845 22.133 48.2692 22.7492 47.999 23.3655C47.8572 23.2494 47.7612 23.1813 47.6774 23.0998C47.3302 22.7604 46.983 22.421 46.6436 22.0738C46.5019 21.9287 46.3433 21.9097 46.2429 22.066C46.1971 22.1363 46.2607 22.3272 46.3344 22.4143C46.5956 22.7247 46.8714 23.0261 47.1628 23.3086V23.3097Z" fill="white"/>
<path d="M58.5793 23.1857C58.1986 22.5103 57.6861 21.9499 57.0241 21.4051C56.9303 21.4955 56.8488 21.5748 56.7751 21.6462C57.3512 22.3306 57.867 22.9435 58.4286 23.6111C58.6251 23.5899 58.7378 23.4671 58.5793 23.1857Z" fill="white"/>
<path d="M56.1968 23.2014C55.7101 22.7961 55.201 22.4176 54.6718 22.0057C54.5758 22.1463 54.5122 22.239 54.4307 22.3585C54.9866 22.7972 55.5236 23.2215 56.0495 23.6368C56.2393 23.4894 56.3654 23.342 56.1968 23.2014Z" fill="white"/>
<path d="M57.5232 73.2817C56.9795 73.754 56.476 74.2787 55.9022 74.7107C55.191 75.2466 54.4497 75.7546 53.676 76.1934C52.9627 76.5975 52.1722 76.8632 51.4466 77.2495C50.7778 77.6056 50.06 77.8133 49.3488 78.0287C48.3998 78.3146 47.4263 78.5244 46.4405 78.6517C45.7316 78.7433 45.0193 78.8404 44.3059 78.856C43.4954 78.8739 42.6815 78.8326 41.8733 78.7634C41.1253 78.6997 40.3728 78.6082 39.6404 78.4508C38.5061 78.2063 37.3652 77.9573 36.2655 77.5933C35.2172 77.2461 34.1934 76.7962 33.2054 76.2994C32.4328 75.912 31.658 75.5101 30.9491 74.9988C30.2603 74.502 29.5446 74.0431 28.7978 73.5385C28.7285 73.5753 28.6091 73.6379 28.4204 73.7372C28.5745 73.9136 28.6817 74.0789 28.8279 74.1939C29.0925 74.4037 29.3906 74.5701 29.6563 74.7789C30.5628 75.4911 31.5453 76.0839 32.5679 76.6087C33.3583 77.015 34.1599 77.389 34.9883 77.724C36.021 78.1415 37.0715 78.4664 38.14 78.7611C38.6535 78.9029 39.1827 78.9554 39.6929 79.0715C40.3348 79.2166 40.979 79.2669 41.6232 79.3405C42.043 79.3885 42.4694 79.3785 42.8926 79.3807C43.5267 79.3852 44.1608 79.3863 44.7949 79.3763C45.745 79.3606 46.6716 79.1675 47.6072 79.0291C48.6879 78.8694 49.7105 78.52 50.7454 78.2163C51.3941 78.0265 52.0059 77.7039 52.6199 77.4103C53.5354 76.9737 54.4307 76.4937 55.2468 75.8863C56.255 75.1361 57.2452 74.3624 58.2601 73.5854C58.1451 73.3643 58.0647 73.2125 57.9698 73.0294C57.7956 73.1243 57.6393 73.179 57.5243 73.2795L57.5232 73.2817Z" fill="black"/>
<path d="M46.9876 33.9514C47.1428 33.986 47.3047 34.0016 47.4644 34.0094C48.2559 34.0519 49.0508 34.063 49.8401 34.1345C51.4745 34.2818 53.1067 34.4616 54.7925 34.6324C54.8841 34.5286 55.0236 34.3767 54.8216 34.1702C54.5045 33.8464 54.2019 33.5048 53.8592 33.2101C53.6114 32.9968 53.33 32.7758 53.0264 32.6865C52.4112 32.5056 51.7748 32.3783 51.1396 32.289C50.1359 32.1472 49.1256 32.0501 48.1175 31.9485C48.0148 31.9385 47.864 31.991 47.8004 32.068C47.4353 32.5134 47.0714 32.9634 46.7432 33.4367C46.5589 33.7024 46.6605 33.8788 46.9876 33.9525V33.9514Z" fill="black"/>
<path d="M35.2518 34.3835C36.3649 34.2752 37.4813 34.2026 38.5966 34.1177C39.3357 34.0619 40.0759 34.0206 40.8138 33.9525C40.9723 33.938 41.1219 33.8342 41.3776 33.7304C41.0092 33.2324 40.7055 32.8138 40.394 32.4018C40.1618 32.0948 39.9251 31.9642 39.4618 31.9932C37.958 32.087 36.4799 32.2924 35.0174 32.6396C34.7226 32.7099 34.4647 32.7937 34.2504 33.0616C33.9445 33.4434 33.5895 33.804 33.1954 34.0921C32.8906 34.3142 32.9955 34.465 33.1194 34.6815C33.8474 34.5777 34.5473 34.4516 35.2518 34.3823V34.3835Z" fill="black"/>
<path d="M48.5114 47.8162C48.6923 47.7135 48.766 47.5918 48.6744 47.4377C48.5762 47.2747 48.4121 47.3004 48.2591 47.4121C47.433 48.0116 46.4997 48.3454 45.4971 48.4894C43.4005 48.7897 41.363 48.7763 39.6058 47.3306C39.5455 47.2803 39.4082 47.3239 39.2117 47.3239C39.6214 47.9278 40.0166 48.2561 40.7568 48.5173C43.444 49.4652 46.0296 49.2162 48.5114 47.8173V47.8162Z" fill="black"/>
<path d="M43.9353 39.1026C43.9353 39.1026 43.8158 39.068 43.6405 39.1606C43.6316 39.1785 43.6238 39.1963 43.6182 39.2153C43.5668 39.4029 43.5747 39.6083 43.5713 39.8059C43.5535 40.7124 43.5255 41.619 43.5311 42.5244C43.5356 43.2166 43.5858 43.9099 43.6171 44.6288C43.7667 44.6467 43.8995 44.6634 44.1038 44.688C44.1284 44.2716 44.1641 43.9322 44.1675 43.5928C44.1775 42.4273 44.1976 41.2617 44.1675 40.0984C44.1597 39.7847 44.2546 39.4319 44.0704 39.1026C43.9855 39.0869 43.9353 39.1026 43.9353 39.1026Z" fill="black"/>
<path d="M42.0327 33.7025C41.8005 32.921 41.3484 32.3661 40.8482 31.8224C40.7265 31.8794 40.6216 31.9274 40.4753 31.9955C40.8862 32.6195 41.2769 33.2146 41.6878 33.8387C41.7715 33.8063 41.8776 33.7639 42.0316 33.7036L42.0327 33.7025Z" fill="black"/>
<path d="M46.225 33.8163C46.647 33.1699 47.0277 32.5882 47.4597 31.9262C47.223 31.9095 47.0333 31.8414 46.9808 31.8994C46.5588 32.3638 46.1546 32.8495 45.9436 33.4535C45.851 33.7192 45.9972 33.823 46.225 33.8163Z" fill="black"/>
<path d="M43.9476 50.5614C43.5613 50.6094 43.1896 50.3203 42.7999 50.5838C43.4709 51.0303 44.2021 50.941 44.9301 50.8238C45.0004 50.8126 45.0506 50.6753 45.1444 50.5514C44.6923 50.5514 44.3149 50.5157 43.9476 50.5614Z" fill="black"/>
<path d="M42.791 40.5907C43.0734 39.6317 43.4073 39.2834 43.6406 39.1606C43.8159 39.0679 43.9353 39.1026 43.9353 39.1026C43.9353 39.1026 43.9867 39.088 44.0704 39.1026C44.287 39.1427 44.7235 39.3828 45.0796 40.5896C45.3331 41.4493 45.9683 44.3497 49.024 44.6646C51.2177 44.8901 53.3144 44.736 54.4687 42.7477C55.2804 41.3499 55.8029 39.6831 55.8029 39.6831L56.1154 39.5692C56.4537 39.4453 56.6815 39.126 56.6871 38.7654L56.7016 37.8298C56.7094 37.3487 56.3253 36.9523 55.8442 36.9445L55.3652 36.9367C55.3652 36.9367 54.9454 35.6405 52.5273 35.5456C50.6126 35.4697 48.6433 35.6003 46.9139 35.8817C45.5664 36.1005 45.0182 36.9814 44.7369 36.9758L43.9353 36.9624L43.1337 36.9758C42.8535 36.9802 42.3042 36.1005 40.9567 35.8817C39.2274 35.6003 37.258 35.4697 35.3434 35.5456C32.9241 35.6405 32.5054 36.9367 32.5054 36.9367L32.0265 36.9445C31.5453 36.9523 31.1612 37.3487 31.1691 37.8298L31.1836 38.7654C31.1892 39.126 31.4169 39.4464 31.7552 39.5692L32.0678 39.6831C32.0678 39.6831 32.5891 41.3499 33.4019 42.7477C34.5574 44.736 36.6529 44.8901 38.8478 44.6646C41.9046 44.3497 42.5387 41.4504 42.7921 40.5896L42.791 40.5907ZM50.2118 35.9029C52.6423 35.9029 54.6128 37.6992 54.6128 39.9164C54.6128 42.1336 52.6423 43.93 50.2118 43.93C47.7814 43.93 45.8109 42.1336 45.8109 39.9164C45.8109 37.6992 47.7814 35.9029 50.2118 35.9029ZM37.5215 43.9288C35.091 43.9288 33.1206 42.1325 33.1206 39.9153C33.1206 37.6981 35.091 35.9018 37.5215 35.9018C39.9519 35.9018 41.9224 37.6981 41.9224 39.9153C41.9224 42.1325 39.9519 43.9288 37.5215 43.9288Z" fill="black"/>
<path d="M37.5213 43.9299C39.9519 43.9299 41.9222 42.133 41.9222 39.9164C41.9222 37.6998 39.9519 35.9029 37.5213 35.9029C35.0907 35.9029 33.1204 37.6998 33.1204 39.9164C33.1204 42.133 35.0907 43.9299 37.5213 43.9299Z" fill="black"/>
<path d="M50.2118 43.9299C52.6424 43.9299 54.6128 42.133 54.6128 39.9164C54.6128 37.6998 52.6424 35.9029 50.2118 35.9029C47.7813 35.9029 45.8109 37.6998 45.8109 39.9164C45.8109 42.133 47.7813 43.9299 50.2118 43.9299Z" fill="black"/>
<path d="M83.8439 0.648651H2.83539C1.82173 0.648651 1 1.47038 1 2.48404V83.4925C1 84.5062 1.82173 85.3279 2.83539 85.3279H83.8439C84.8576 85.3279 85.6793 84.5062 85.6793 83.4925V2.48404C85.6793 1.47038 84.8576 0.648651 83.8439 0.648651Z" stroke="#E1E1E1" stroke-miterlimit="10"/>
<circle cx="43" cy="84.4418" r="10" fill="#FF6D6D"/>
<path fill-rule="evenodd" clip-rule="evenodd" d="M43.8253 84.4418L46.63 87.2465L45.8051 88.0714L43.0004 85.2667L40.1956 88.0715L39.3706 87.2466L42.1754 84.4418L39.3705 81.6368L40.1954 80.8119L43.0004 83.6168L45.8052 80.812L46.6302 81.6369L43.8253 84.4418Z" fill="white"/>
<path fill-rule="evenodd" clip-rule="evenodd" d="M47.1013 87.2465L45.8049 88.5429L43.0002 85.7381L40.1954 88.5429L38.899 87.2466L41.7039 84.4418L38.8989 81.6368L40.1953 80.3405L43.0002 83.1454L45.8051 80.3406L47.1014 81.6369L44.2966 84.4418L47.1013 87.2465ZM43.8252 84.4418L46.63 81.6369L45.8051 80.812L43.0002 83.6168L40.1953 80.8119L39.3703 81.6368L42.1753 84.4418L39.3705 87.2466L40.1954 88.0715L43.0002 85.2667L45.8049 88.0714L46.6299 87.2465L43.8252 84.4418Z" fill="white"/>
</svg>
