<svg width="88" height="96" viewBox="0 0 88 96" fill="none" xmlns="http://www.w3.org/2000/svg">
<path d="M74.6792 80.2501C74.2025 79.5423 73.7336 78.8099 73.0336 78.2852C72.4117 77.8197 71.7664 77.3854 71.1546 76.9087C69.6062 75.7029 67.9193 74.7082 66.2558 73.6778C64.6694 72.6942 63.0807 71.714 61.5088 70.707C60.8646 70.295 60.197 69.8842 59.6533 69.3561C58.8204 68.5478 58.0803 67.6413 57.3133 66.766C57.1905 66.6265 57.0922 66.517 56.8946 66.4679C56.1745 66.2859 55.4634 66.0649 54.7455 65.8706C54.3648 65.7679 53.9808 65.6384 53.5934 65.6161C53.283 65.5982 53.1122 65.5335 53.0541 65.2164C52.909 64.4215 52.6857 63.6344 52.612 62.834C52.5026 61.6383 52.4803 60.4326 52.4468 59.2313C52.4178 58.2321 52.4088 57.2329 52.4222 56.2337C52.4301 55.6811 52.5004 55.1296 52.5473 54.52C53.7619 54.9554 54.961 54.9978 56.1678 54.8225C56.6256 54.7567 57.0878 54.6484 57.5187 54.4843C58.001 54.3012 58.0367 54.0946 57.7922 53.6514C57.6426 53.379 57.5131 53.0954 57.3412 52.7516C57.502 52.7516 57.5812 52.7337 57.6493 52.7538C58.2689 52.938 58.8908 53.1144 59.5037 53.3199C60.1657 53.542 60.8077 53.5733 61.4842 53.2272C61.4719 52.9939 61.5188 52.7337 61.4362 52.5238C61.1058 51.6865 60.7686 50.8481 60.3689 50.0432C60.0072 49.3164 59.7605 48.5594 59.5562 47.7813C59.5082 47.5982 59.4144 47.4252 59.3865 47.2398C59.3273 46.8524 59.3775 46.8067 59.7605 46.7006C59.967 46.6425 60.2126 46.6035 60.3589 46.4684C60.7619 46.0955 61.1426 45.6936 61.4965 45.2727C62.2021 44.432 62.7313 43.4786 63.2124 42.4973C63.7327 41.4367 64.0196 40.3191 63.8834 39.1346C63.8421 38.7729 63.6757 38.419 63.5295 38.0763C63.2928 37.5225 62.7714 37.1965 62.4242 36.76C62.6955 35.6469 62.9624 34.5495 63.2571 33.3382C63.4212 33.586 63.5384 33.7323 63.6233 33.8964C63.8499 34.334 64.0486 34.7862 64.2864 35.2171C64.4048 35.4303 64.5778 35.6235 64.8815 35.4504C64.9373 35.2383 65.0099 35.0206 65.0523 34.7973C65.2354 33.8339 65.0724 32.8793 64.973 31.9226C64.8547 30.7894 64.5532 29.6908 64.2786 28.5912C64.0989 27.8722 63.7941 27.1834 63.5306 26.4867C63.0941 25.3312 62.5604 24.2226 61.9777 23.1296C61.4384 22.1171 60.8066 21.1737 60.1255 20.2638C59.5037 19.4332 58.8495 18.607 58.0914 17.9059C57.3423 17.2137 56.6155 16.4356 55.5158 16.2268C54.328 16.0013 53.1568 15.6876 51.969 15.4598C51.0803 15.2901 50.1771 15.1975 49.2795 15.0702C49.2695 15.0378 49.2583 15.0066 49.2483 14.9742C50.3044 14.4662 51.3594 13.9583 52.4368 13.4402C52.3921 13.2103 52.3508 12.9993 52.3128 12.8005C51.1451 12.3149 49.9404 12.1128 48.7258 12.0603C46.7151 11.9744 44.8328 12.3607 43.3614 13.8879C43.1582 14.0989 42.9639 14.1168 42.7094 14.004C42.4526 13.8902 42.1847 13.793 41.9134 13.7205C40.1651 13.2538 38.4223 13.2404 36.6941 13.8232C36.5803 13.8611 36.4887 13.9616 36.3827 14.0364C36.6632 14.3669 36.9639 14.5671 37.2847 14.637C37.7391 14.7342 38.1991 14.8157 38.7059 15.0903C38.5329 15.1405 38.4637 15.1629 38.3933 15.1807C37.2278 15.4766 36.0366 15.6943 34.9045 16.0873C33.5525 16.5573 32.2463 17.1624 30.9345 17.7429C30.6141 17.8847 30.2959 18.1069 30.0726 18.3726C29.5926 18.9431 29.1728 19.5649 28.7329 20.17C28.2797 20.793 27.7795 21.3903 27.3977 22.0556C27.0215 22.7099 26.6263 23.3552 26.2936 24.0395C25.9419 24.7618 25.6014 25.4853 25.3033 26.2311C24.8087 27.4669 24.4973 28.743 24.2762 30.0581C24.0987 31.1132 24.1355 32.1503 24.2036 33.1964C24.2416 33.7859 24.2974 33.7959 24.9114 33.7847C25.2665 33.0088 25.6248 32.2262 26.0435 31.313C26.1205 31.5385 26.1629 31.6077 26.1663 31.6781C26.2344 33.1897 26.2701 34.7047 26.7357 36.1683C26.8071 36.3927 26.6877 36.6216 26.5157 36.7377C26.1842 36.961 25.9118 37.23 25.6449 37.5236C25.1593 38.0562 24.8802 38.6568 24.8601 39.3802C24.8299 40.4341 25.0744 41.4166 25.5266 42.3711C26.2232 43.8448 27.036 45.2292 28.2763 46.3143C28.4739 46.4874 28.7341 46.6146 28.9864 46.695C29.4151 46.8312 29.4798 46.8625 29.3827 47.2622C29.2476 47.8181 29.1293 48.3875 28.9127 48.9133C28.4907 49.9427 27.9816 50.9352 27.5618 51.9645C27.3977 52.3664 27.1287 52.7896 27.3207 53.2372C27.8789 53.5655 28.4661 53.5442 29.0187 53.4203C29.7087 53.2663 30.3707 52.9939 31.0484 52.7829C31.1466 52.7527 31.2616 52.7784 31.4336 52.7784C31.2594 53.1155 31.1243 53.4013 30.968 53.6749C30.7492 54.0578 30.7771 54.271 31.1489 54.4552C31.3688 54.5647 31.6256 54.6026 31.8667 54.6663C32.8525 54.9264 33.8506 54.9911 34.8576 54.8348C35.3187 54.7634 35.7742 54.6584 36.2264 54.5702C36.2799 55.1441 36.3693 55.6554 36.3681 56.1667C36.3659 57.4104 36.2878 58.6541 36.3067 59.8967C36.3212 60.8948 36.2922 61.8861 36.1527 62.8708C36.0366 63.6836 35.8412 64.484 35.7016 65.2946C35.6559 65.5603 35.4717 65.606 35.2774 65.634C34.1688 65.7925 33.0903 66.0671 32.0253 66.4076C31.7406 66.4981 31.5396 66.6354 31.3632 66.8654C31.0194 67.3119 30.6744 67.7585 30.2959 68.1749C29.8382 68.6795 29.4028 69.2322 28.8569 69.6229C27.5808 70.5339 26.2567 71.3802 24.9293 72.2164C23.1486 73.3384 21.3333 74.4045 19.5593 75.5366C18.5936 76.154 17.657 76.8261 16.7571 77.5361C16.1018 78.053 15.3929 78.4895 14.8648 79.1951C13.7506 80.6855 12.7871 82.2563 12.0079 83.9377C11.6138 84.7872 11.261 85.6536 10.897 86.5166H11.4485C11.8605 85.5486 12.3037 84.593 12.7704 83.6507C13.2337 82.7141 13.7484 81.7997 14.2876 80.9043C14.6315 80.335 15.0423 79.8013 15.4643 79.2844C15.7166 78.9763 16.0247 78.7028 16.3452 78.4627C17.4381 77.6444 18.5333 76.8261 19.6565 76.049C20.4547 75.4964 21.2976 75.0074 22.1204 74.4905C23.6633 73.5226 25.2084 72.5558 26.7502 71.5856C27.5763 71.0653 28.4092 70.554 29.2186 70.0103C29.4932 69.8261 29.7232 69.566 29.9443 69.3137C30.5661 68.607 31.1578 67.8724 31.7942 67.1802C31.9739 66.9848 32.2541 66.833 32.5143 66.766C33.4398 66.5293 34.3764 66.3395 35.3477 66.1229C35.3544 66.5416 35.0597 66.689 34.7795 66.8162C34.2548 67.054 33.72 67.2717 33.183 67.4816C32.828 67.6212 32.7677 67.7429 33.0055 68.0343C33.2846 68.3759 33.5871 68.7019 33.8942 69.0189C34.1956 69.3304 34.5272 69.614 34.8275 69.9266C35.4281 70.5496 36.1315 71.0285 36.8448 71.5141C37.9367 72.2577 39.0844 72.884 40.27 73.4534C40.8148 73.7157 41.3675 73.9278 41.9837 73.9904C42.6391 74.0562 43.2866 74.2014 43.9363 74.3186C45.1878 74.5441 46.3902 74.3208 47.5491 73.872C48.9747 73.3194 50.3111 72.5826 51.5961 71.7553C52.6835 71.0553 53.7218 70.3017 54.5513 69.2858C54.8918 68.8693 55.3104 68.5177 55.671 68.1158C55.7894 67.984 55.8385 67.7909 55.8988 67.6658C55.076 67.2662 54.3246 66.91 53.5867 66.5293C53.4918 66.4802 53.4616 66.3072 53.3545 66.1029C54.021 66.2525 54.5926 66.373 55.1597 66.5115C55.6264 66.6253 56.0953 66.7381 56.5463 66.9C56.7361 66.9681 56.9047 67.1422 57.042 67.303C57.7085 68.0767 58.3638 68.8548 59.1174 69.5548C59.9759 70.3508 60.9673 70.9336 61.9509 71.542C62.844 72.0947 63.7104 72.692 64.6013 73.2479C66.0336 74.1411 67.4861 75.0018 68.9106 75.9061C69.6095 76.3493 70.2693 76.8551 70.9403 77.3407C71.2272 77.5484 71.4784 77.813 71.7809 77.9938C73.1921 78.8379 74.0495 80.1541 74.8634 81.5184C75.8179 83.1182 76.5726 84.8096 77.3106 86.5155H77.89C77.861 86.4429 77.8319 86.3703 77.804 86.2966C76.9734 84.1688 75.9541 82.1369 74.6769 80.2434L74.6792 80.2501ZM61.7388 37.096C63.1566 37.9334 63.6076 38.9169 63.3185 40.586C63.2415 41.0292 63.0416 41.459 62.8518 41.8732C62.5057 42.6324 62.1831 43.4139 61.7421 44.1172C61.2743 44.863 60.7697 45.63 59.9782 46.0743C59.3943 46.4025 58.7267 46.4505 58.068 46.2284C57.9731 46.196 57.8838 46.1457 57.7922 46.1044C57.1614 45.8231 57.1681 45.8164 57.3189 45.1879C57.5678 44.1518 57.8257 43.1169 58.0289 42.0719C58.1149 41.6309 58.2913 41.2949 58.6329 41.0158C59.6332 40.1986 60.6246 39.3702 61.6204 38.5485C61.6494 38.5251 61.722 38.5284 61.7287 38.5061C61.7644 38.3855 61.7845 38.2616 61.8102 38.1377C61.6863 38.1365 61.5233 38.0818 61.4429 38.141C60.8869 38.5541 60.3455 38.9873 59.8062 39.4215C59.3329 39.8022 58.8673 40.1941 58.2935 40.6675C58.4263 39.6113 58.5369 38.6791 58.6675 37.7503C58.701 37.5125 58.8204 37.3417 59.075 37.2088C59.9558 36.75 60.8534 36.5736 61.7376 37.0949L61.7388 37.096ZM57.4606 22.5491C58.1238 23.0939 58.6362 23.6544 59.0158 24.3298C59.1743 24.6111 59.0616 24.7339 58.8651 24.7551C58.3024 24.0875 57.7878 23.4746 57.2117 22.7903C57.2854 22.7188 57.3669 22.6395 57.4606 22.5491ZM55.1083 23.1497C55.6375 23.5617 56.1477 23.9402 56.6334 24.3454C56.802 24.4861 56.6747 24.6323 56.486 24.7808C55.9591 24.3655 55.4232 23.9424 54.8672 23.5025C54.9487 23.3831 55.0123 23.2904 55.1083 23.1497ZM46.6805 23.2111C46.781 23.0548 46.9395 23.0738 47.0813 23.219C47.4207 23.5662 47.7679 23.9056 48.1151 24.2449C48.1988 24.3264 48.2948 24.3945 48.4366 24.5107C48.7068 23.8944 48.4221 23.277 48.6454 22.6842C49.7428 23.1095 50.5042 23.8989 51.4387 24.3901C51.3215 24.8523 51.2868 24.8802 50.9553 24.6714C50.416 24.332 49.8913 23.9714 49.3588 23.622C49.2974 23.5818 49.2293 23.5528 49.1255 23.4969C49.0361 24.0384 48.9546 24.5386 48.8709 25.0432C48.2725 25.118 47.9342 24.7786 47.6004 24.4548C47.309 24.1713 47.0333 23.8709 46.772 23.5606C46.6995 23.4735 46.6358 23.2826 46.6805 23.2123V23.2111ZM39.0286 23.6867C39.033 23.6566 39.0855 23.6332 39.1201 23.6019C39.3054 23.6443 39.4327 23.6823 39.3881 23.9536C39.3032 24.4705 39.2932 24.9996 39.2251 25.5199C39.2105 25.6293 39.081 25.7242 39.0051 25.8258C38.9259 25.7476 38.7707 25.6617 38.7785 25.5925C38.8444 24.955 38.9381 24.3209 39.0286 23.6867ZM37.7491 23.3887C37.8574 23.5583 37.9814 23.6666 37.9624 23.737C37.7949 24.3488 37.6029 24.9528 37.4142 25.559C37.4042 25.5902 37.3539 25.6103 37.2747 25.674C37.1932 25.5891 37.0179 25.4741 37.0346 25.415C37.2233 24.7607 37.2311 24.0418 37.7503 23.3898L37.7491 23.3887ZM30.0403 23.9223C30.2937 23.4969 30.5549 23.0761 30.7827 22.6373C30.9077 22.395 31.0618 22.4888 31.3242 22.4966C31.2494 22.6909 31.2114 22.8304 31.1444 22.9533C30.891 23.4121 30.6286 23.8665 30.3696 24.322C30.4031 24.3555 30.4366 24.389 30.4701 24.4225C31.3387 24.0261 32.2072 23.6309 33.0189 23.2603C33.4934 23.5427 33.2388 23.9111 33.1741 24.1087C32.9776 24.7038 32.656 25.2587 32.3691 25.8224C32.33 25.8984 32.2106 25.9341 32.109 26.0022C31.9337 25.847 31.8466 25.7387 31.9817 25.4898C32.2329 25.0276 32.4238 24.5319 32.6974 23.9212C32.2474 24.1344 31.9025 24.2907 31.5631 24.4604C31.2761 24.6044 31.006 24.7808 30.7135 24.9103C30.3986 25.0488 30.0659 25.1425 29.7053 24.9862C29.683 24.5866 29.8449 24.2505 30.0403 23.9234V23.9223ZM31.3264 45.9749C30.7414 46.2484 30.1508 46.4092 29.4698 46.311C28.743 46.206 28.2384 45.755 27.8588 45.2738C26.8339 43.9754 26.0223 42.5285 25.5467 40.9287C25.2453 39.9128 25.252 38.9035 25.9419 38.016C26.6732 37.076 27.9838 36.4228 29.2711 37.0179C29.4363 37.0938 29.5915 37.1954 29.7634 37.2501C29.999 37.3249 30.0693 37.5169 30.1039 37.7112C30.1876 38.1857 30.2513 38.6635 30.3082 39.1413C30.364 39.6091 30.4031 40.0802 30.4556 40.6038C29.3905 39.7755 28.3936 39.0018 27.3988 38.2259C27.3531 38.1901 27.324 38.093 27.2872 38.093C27.1755 38.093 27.0181 38.0885 26.9645 38.1544C26.9165 38.2147 26.9444 38.3978 27.0047 38.4692C27.1153 38.5987 27.2794 38.6802 27.4145 38.7897C28.3411 39.5432 29.2655 40.2991 30.1899 41.0549C30.498 41.3061 30.651 41.6231 30.728 42.0239C30.9557 43.2006 31.2147 44.3729 31.5039 45.5351C31.5653 45.784 31.4715 45.9046 31.3253 45.9727L31.3264 45.9749ZM35.1345 51.7435C33.9008 50.6293 32.9887 49.2862 32.5634 47.6261C32.0454 45.6054 31.5106 43.5903 31.1712 41.5316C30.9412 40.1405 30.7648 38.7394 30.5773 37.3417C30.4187 36.156 30.2781 34.9693 30.1352 33.7814C30.1162 33.6251 30.1709 33.4543 30.1307 33.308C30.0559 33.0379 30.1876 32.9162 30.383 32.7699C31.0774 32.253 31.7797 31.7439 32.4339 31.1801C33.1138 30.5929 33.739 29.9431 34.3921 29.3258C34.4267 29.2923 34.5015 29.3023 34.7281 29.261C34.4669 29.702 34.2949 30.0403 34.0761 30.3439C33.9165 30.5672 33.9042 30.7392 34.0985 30.9211C35.3321 30.9736 36.348 30.4187 37.2981 29.7422C37.8552 29.3448 38.4011 28.9082 38.7338 28.2752C38.889 27.9805 38.9906 28.0028 39.2117 28.2975C39.8938 29.2085 40.6038 30.1073 41.5818 30.7157C42.0887 31.0305 42.6513 31.2739 43.2151 31.4738C43.7689 31.6691 44.3528 31.783 44.93 31.9036C45.2314 31.9661 45.602 32.1135 45.8253 31.8098C46.0575 31.4939 45.7338 31.2248 45.6009 30.9569C45.228 30.2111 44.8373 29.4743 44.4968 28.7039C45.1678 29.1371 45.7561 29.6473 46.4606 30.0068C47.3503 30.4612 48.2591 30.8117 49.2382 31.0384C49.8355 31.1768 50.4272 31.2572 51.0289 31.3063C51.902 31.3766 52.775 31.3588 53.6213 31.102C53.858 31.0305 54.0712 30.8809 54.3983 30.7146C53.6213 30.0615 53.0385 29.3972 52.5037 28.551C52.7181 28.59 52.8666 28.57 52.9258 28.6336C53.9205 29.6953 55.1262 30.4813 56.342 31.2505C57.0565 31.7026 57.8012 32.1079 58.519 32.5556C58.6094 32.6114 58.672 32.7967 58.663 32.9162C58.5737 34.0639 58.4833 35.2115 58.3582 36.3559C58.2265 37.556 58.0747 38.7539 57.896 39.9485C57.7688 40.8003 57.5935 41.6455 57.4193 42.4883C57.1849 43.6182 56.9594 44.7524 56.6758 45.87C56.4168 46.8915 56.141 47.9141 55.7704 48.8988C55.3316 50.0666 54.4731 50.9676 53.5744 51.7971C51.8529 53.3835 49.9159 54.6808 47.8684 55.8061C47.155 56.198 46.3378 56.2571 45.544 56.3878C44.5158 56.5564 43.5054 56.4335 42.4962 56.2761C41.8408 56.1745 41.2324 55.9579 40.6317 55.6342C38.6401 54.5568 36.8091 53.2551 35.1367 51.7446L35.1345 51.7435ZM54.319 68.6952C53.3656 69.8942 52.209 70.6902 51.0379 71.4728C50.0833 72.1114 49.0853 72.6763 48.0392 73.1352C47.0824 73.555 46.0609 73.8754 45.0148 73.8843C44.1853 73.891 43.3525 73.6867 42.5252 73.5527C42.0228 73.4712 41.5204 73.373 41.0325 73.2301C40.6775 73.1262 40.3392 72.9543 40.0077 72.7857C38.5474 72.0433 37.1608 71.1814 35.8959 70.1376C35.3924 69.7223 34.9425 69.2411 34.4267 68.751C34.6734 68.5523 34.8565 68.3792 35.0642 68.2419C35.4516 67.9862 35.4627 67.5386 35.6235 67.1735C36.2777 65.6853 36.6193 64.1112 36.7455 62.5013C36.8527 61.1281 36.8716 59.7482 36.8962 58.3705C36.9096 57.6192 36.8527 56.8678 36.8348 56.1165C36.8181 55.469 36.8504 54.8203 36.6885 54.1817C36.6584 54.0634 36.7421 53.916 36.7756 53.772C37.5806 54.1951 38.179 54.846 38.8511 55.4064C40.4006 56.6993 42.0485 57.8614 43.7287 58.9779C44.307 59.3619 44.8596 59.7873 45.4301 60.1847C46.0587 60.6223 46.8011 60.7686 47.5279 60.7809C48.4902 60.7965 49.4604 60.6838 50.3569 60.2774C50.742 60.1032 51.0971 59.8632 51.4699 59.6611C51.5916 59.5952 51.7278 59.5539 51.8484 59.5048C51.9154 60.408 51.9701 61.2408 52.0415 62.0726C52.1085 62.853 52.1409 63.6411 52.2849 64.407C52.449 65.2823 52.7683 66.1185 53.0787 66.9603C53.3422 67.6725 53.6135 68.2977 54.319 68.6963V68.6952Z" fill="black"/>
<path d="M71.7832 78.0004C71.4807 77.8196 71.2306 77.555 70.9426 77.3473C70.2716 76.8606 69.6118 76.356 68.9129 75.9127C67.4872 75.0084 66.0348 74.1477 64.6035 73.2545C63.7126 72.6986 62.8463 72.1013 61.9531 71.5487C60.9696 70.9402 59.9782 70.3586 59.1197 69.5614C58.3661 68.8626 57.7108 68.0844 57.0442 67.3096C56.9058 67.1489 56.7383 66.9747 56.5486 66.9066C56.0975 66.7447 55.6286 66.6319 55.162 66.5181C54.5948 66.3796 54.0232 66.2591 53.3567 66.1095C53.4628 66.3127 53.4929 66.4868 53.5889 66.5359C54.328 66.9155 55.0782 67.2717 55.901 67.6725C55.8407 67.7964 55.7916 67.9906 55.6733 68.1224C55.3127 68.5232 54.8929 68.8748 54.5535 69.2924C53.7251 70.3083 52.6857 71.0619 51.5984 71.7619C50.3134 72.5892 48.977 73.3271 47.5513 73.8786C46.3936 74.3274 45.1901 74.5507 43.9386 74.3252C43.2888 74.208 42.6413 74.0628 41.986 73.997C41.3697 73.9344 40.8171 73.7223 40.2723 73.46C39.0878 72.8906 37.9401 72.2643 36.8471 71.5207C36.1337 71.0351 35.4304 70.5573 34.8297 69.9332C34.5294 69.6206 34.1978 69.337 33.8964 69.0256C33.5894 68.7074 33.2868 68.3825 33.0077 68.0409C32.7699 67.7495 32.8302 67.6278 33.1853 67.4882C33.7223 67.2772 34.257 67.0607 34.7817 66.8229C35.062 66.6956 35.3567 66.5482 35.35 66.1296C34.3787 66.3461 33.4409 66.5371 32.5165 66.7726C32.2553 66.8396 31.9762 66.9903 31.7964 67.1868C31.159 67.879 30.5672 68.6136 29.9465 69.3203C29.7255 69.5715 29.4955 69.8316 29.2208 70.0169C28.4114 70.5617 27.5786 71.0731 26.7524 71.5922C25.2107 72.5624 23.6655 73.5292 22.1227 74.4971C21.2999 75.014 20.457 75.503 19.6587 76.0556C18.5367 76.8338 17.4415 77.651 16.3474 78.4693C16.027 78.7094 15.7178 78.9818 15.4666 79.291C15.0446 79.8079 14.6337 80.3416 14.2899 80.911C13.7495 81.8063 13.236 82.7207 12.7726 83.6573C12.306 84.5996 11.8628 85.5553 11.4508 86.5232H77.3162C76.5782 84.8173 75.8235 83.1259 74.869 81.5261C74.0551 80.1618 73.1966 78.8456 71.7866 78.0016L71.7832 78.0004ZM55.6833 77.0325C54.8672 77.6398 53.9719 78.1199 53.0564 78.5564C52.4424 78.8489 51.8295 79.1727 51.1819 79.3625C50.147 79.6661 49.1244 80.0156 48.0437 80.1752C47.1081 80.3137 46.1815 80.5068 45.2314 80.5224C44.5973 80.5325 43.9632 80.5314 43.329 80.5269C42.9059 80.5236 42.4794 80.5336 42.0597 80.4867C41.4155 80.413 40.7713 80.3628 40.1294 80.2177C39.6192 80.1015 39.0911 80.0491 38.5764 79.9073C37.508 79.6126 36.4575 79.2877 35.4248 78.8701C34.5964 78.5352 33.7948 78.1601 33.0044 77.7548C31.9818 77.2301 30.9993 76.6373 30.0928 75.925C29.8271 75.7163 29.529 75.5499 29.2644 75.34C29.1181 75.2239 29.011 75.0598 28.8569 74.8834C29.0456 74.784 29.165 74.7204 29.2342 74.6847C29.9811 75.1893 30.6968 75.6482 31.3856 76.145C32.0945 76.6563 32.8693 77.0582 33.6419 77.4456C34.6299 77.9413 35.6537 78.3912 36.702 78.7395C37.8016 79.1035 38.9415 79.3524 40.0769 79.5969C40.8104 79.7555 41.5617 79.8459 42.3097 79.9095C43.118 79.9787 43.933 80.0201 44.7424 80.0022C45.4547 79.9866 46.1681 79.8894 46.877 79.7979C47.8628 79.6706 48.8363 79.4618 49.7853 79.1749C50.4965 78.9606 51.2143 78.7518 51.883 78.3957C52.6076 78.0094 53.3991 77.7437 54.1125 77.3395C54.8862 76.9008 55.6275 76.3928 56.3387 75.8569C56.9125 75.4249 57.416 74.9002 57.9597 74.4279C58.0758 74.3274 58.2321 74.2738 58.4052 74.1778C58.5012 74.3609 58.5804 74.5128 58.6954 74.7338C57.6806 75.5097 56.6903 76.2834 55.6822 77.0347L55.6833 77.0325Z" fill="#BCCACE"/>
<path d="M42.4939 56.2761C43.5031 56.4324 44.5146 56.5563 45.5417 56.3877C46.3355 56.2571 47.1527 56.1979 47.8661 55.8061C49.9147 54.6807 51.8506 53.3846 53.5721 51.797C54.4708 50.9686 55.3294 50.0666 55.7681 48.8988C56.1388 47.9141 56.4134 46.8904 56.6735 45.8699C56.9571 44.7513 57.1826 43.6181 57.4171 42.4883C57.5924 41.6443 57.7665 40.8003 57.8938 39.9485C58.0724 38.755 58.2242 37.556 58.356 36.3558C58.481 35.2115 58.5714 34.0638 58.6608 32.9161C58.6697 32.7978 58.6072 32.6125 58.5167 32.5555C57.7989 32.109 57.0542 31.7026 56.3397 31.2504C55.1239 30.4812 53.9182 29.6953 52.9235 28.6335C52.8643 28.5699 52.7169 28.5889 52.5015 28.5509C53.0362 29.3972 53.619 30.0614 54.396 30.7146C54.0689 30.8809 53.8557 31.0305 53.619 31.1019C52.7728 31.3587 51.8997 31.3777 51.0267 31.3063C50.4249 31.2571 49.8332 31.1767 49.236 31.0383C48.2568 30.8117 47.3481 30.4611 46.4583 30.0067C45.755 29.6473 45.1666 29.1359 44.4945 28.7039C44.835 29.4742 45.2269 30.211 45.5987 30.9568C45.7315 31.2236 46.0564 31.4938 45.8231 31.8098C45.5998 32.1134 45.2291 31.9661 44.9277 31.9035C44.3505 31.7841 43.7666 31.6702 43.2129 31.4737C42.6491 31.2739 42.0864 31.0316 41.5795 30.7157C40.6004 30.1061 39.8915 29.2085 39.2094 28.2975C38.9883 28.0028 38.8867 27.9804 38.7316 28.2752C38.3978 28.9093 37.8529 29.3458 37.2958 29.7422C36.3458 30.4187 35.3298 30.9736 34.0962 30.9211C33.9019 30.7391 33.9142 30.5672 34.0739 30.3439C34.2927 30.0391 34.4646 29.702 34.7258 29.261C34.4992 29.3023 34.4244 29.2933 34.3898 29.3257C33.7367 29.9431 33.1104 30.5929 32.4316 31.1801C31.7774 31.745 31.0752 32.2541 30.3807 32.7699C30.1854 32.915 30.0536 33.0367 30.1284 33.308C30.1686 33.4554 30.1139 33.6251 30.1329 33.7814C30.2747 34.9692 30.4165 36.156 30.575 37.3416C30.7614 38.7394 30.939 40.1405 31.1689 41.5315C31.5083 43.5902 32.0442 45.6054 32.5611 47.6261C32.9865 49.2873 33.8986 50.6292 35.1322 51.7434C36.8046 53.2539 38.6356 54.5568 40.6272 55.633C41.2268 55.9568 41.8363 56.1734 42.4917 56.275L42.4939 56.2761ZM45.3676 51.9678C44.6397 52.0851 43.9084 52.1744 43.2374 51.7278C43.6271 51.4632 43.9999 51.7535 44.3851 51.7055C44.7524 51.6597 45.1298 51.6954 45.5819 51.6954C45.4881 51.8193 45.4379 51.9567 45.3676 51.9678ZM50.5399 40.9767C50.167 41.4411 49.2315 41.2971 49.0339 40.7902C48.5918 39.6615 48.6018 38.5306 49.1522 37.4577C49.2616 37.2456 49.4671 36.8805 49.9326 36.9553C50.416 37.0335 50.7867 37.2199 50.9441 37.6643C51.0881 38.0729 51.1294 38.5172 51.1897 38.8164C51.1841 39.7028 51.03 40.3682 50.541 40.9778L50.5399 40.9767ZM53.1579 44.365C53.0619 44.3695 52.909 44.2936 52.8732 44.2132C52.7549 43.943 52.66 43.6583 52.5953 43.3714C52.5752 43.2843 52.6578 43.1135 52.7359 43.08C52.8141 43.0465 53.0083 43.1102 53.0407 43.1805C53.1758 43.4819 53.2707 43.8023 53.4169 44.2232C53.3578 44.2578 53.2606 44.3605 53.159 44.365H53.1579ZM54.4273 44.0792C54.3413 44.0837 54.194 43.9832 54.1705 43.9006C54.0779 43.5835 54.0243 43.2542 53.9506 42.9025C54.0332 42.8489 54.1281 42.7864 54.2364 42.7149C54.5847 43.0376 54.5747 43.4574 54.6204 43.8503C54.6294 43.9229 54.4988 44.0759 54.4273 44.0792ZM48.5527 33.0925C49.5619 33.1941 50.5712 33.2912 51.5749 33.433C52.2101 33.5223 52.8465 33.6496 53.4616 33.8305C53.7653 33.9198 54.0477 34.142 54.2944 34.3541C54.6372 34.6488 54.9397 34.9904 55.2568 35.3142C55.4589 35.5207 55.3204 35.6726 55.2278 35.7764C53.542 35.6045 51.9098 35.4258 50.2753 35.2785C49.486 35.207 48.6911 35.1959 47.8996 35.1534C47.7399 35.1445 47.5781 35.13 47.4229 35.0954C47.0958 35.0217 46.9942 34.8464 47.1784 34.5796C47.5055 34.1062 47.8695 33.6563 48.2356 33.2109C48.2993 33.1338 48.45 33.0814 48.5527 33.0914V33.0925ZM46.3801 34.5986C46.5923 33.9946 46.9964 33.5089 47.4173 33.0445C47.4698 32.9865 47.6596 33.0534 47.8962 33.0713C47.4642 33.7333 47.0835 34.315 46.6615 34.9614C46.4337 34.9692 46.2864 34.8654 46.3801 34.5986ZM44.0089 40.951C44.0122 40.7534 44.0055 40.548 44.0558 40.3604C44.0893 40.2354 44.2176 40.136 44.3159 40.0087C44.7457 40.3995 44.595 40.8516 44.605 41.2435C44.6352 42.4079 44.6151 43.5735 44.605 44.7379C44.6017 45.0773 44.5671 45.4167 44.5414 45.8331C44.3371 45.8085 44.2043 45.7918 44.0547 45.7739C44.0234 45.055 43.9732 44.3628 43.9687 43.6695C43.9631 42.7629 43.991 41.8575 44.0089 40.951ZM41.2859 32.9664C41.7861 33.5101 42.2382 34.0649 42.4705 34.8464C42.3164 34.9067 42.2092 34.9491 42.1266 34.9815C41.7158 34.3574 41.325 33.7635 40.9142 33.1383C41.0593 33.0702 41.1642 33.0222 41.287 32.9653L41.2859 32.9664ZM34.2134 44.1674C34.0973 43.569 34.2313 43.1436 34.4936 42.7172C34.6164 42.7819 34.718 42.8355 34.8732 42.917C34.5517 43.2709 34.8699 43.8905 34.2134 44.1674ZM33.5558 35.8266C33.4319 35.6089 33.327 35.4582 33.6318 35.2372C34.0259 34.9502 34.382 34.5896 34.6868 34.2067C34.9011 33.9388 35.159 33.855 35.4538 33.7847C36.9163 33.4375 38.3944 33.2321 39.8982 33.1383C40.3604 33.1093 40.5971 33.241 40.8304 33.5469C41.143 33.9589 41.4456 34.3775 41.814 34.8754C41.5583 34.9793 41.4087 35.082 41.2502 35.0976C40.5122 35.1657 39.7721 35.207 39.033 35.2628C37.9177 35.3466 36.8013 35.4191 35.6882 35.5286C34.9826 35.5978 34.2826 35.7228 33.5558 35.8278V35.8266ZM36.1526 43.4317C36.1069 43.665 36.0198 43.8939 35.9227 44.1127C35.8724 44.2266 35.7686 44.3159 35.638 44.48C35.5353 44.2969 35.4046 44.1719 35.4236 44.0781C35.4828 43.7856 35.5788 43.4953 35.7061 43.2263C35.7317 43.1727 35.8144 43.1448 35.9003 43.1202C35.9528 43.1057 36.0064 43.0912 36.051 43.0722C36.079 43.1626 36.1325 43.2586 36.1493 43.3468C36.1549 43.3759 36.156 43.4049 36.1504 43.4317H36.1526ZM38.2202 40.9421C37.6821 40.3336 37.5671 39.618 37.566 38.8421C37.6352 38.4893 37.7078 38.1376 37.7737 37.7848C37.8552 37.3517 38.4011 36.9419 38.9336 36.9442C39.3266 36.9453 39.474 37.2891 39.6604 37.547C39.9116 37.8931 39.9697 38.3151 40.011 38.7282C40.0813 39.426 40.0322 40.1204 39.7464 40.769C39.4773 41.3786 38.6646 41.4456 38.2202 40.9432V40.9421ZM39.6481 48.4678C39.8446 48.4678 39.982 48.4243 40.0422 48.4745C41.7995 49.9203 43.8381 49.9337 45.9336 49.6334C46.935 49.4905 47.8683 49.1556 48.6956 48.556C48.8497 48.4444 49.0138 48.4176 49.1109 48.5817C49.2025 48.7358 49.1299 48.8586 48.9479 48.9602C46.4661 50.3591 43.8805 50.608 41.1933 49.6602C40.4531 49.3989 40.0579 49.0707 39.6481 48.4667V48.4678Z" fill="white"/>
<path d="M52.2849 64.4048C52.1409 63.6378 52.1085 62.8496 52.0415 62.0704C51.97 61.2386 51.9153 60.4058 51.8484 59.5026C51.7278 59.5517 51.5916 59.5919 51.4699 59.6589C51.097 59.861 50.742 60.101 50.3568 60.2752C49.4603 60.6815 48.4902 60.7954 47.5278 60.7787C46.7999 60.7664 46.0586 60.6201 45.4301 60.1825C44.8596 59.785 44.3069 59.3608 43.7286 58.9756C42.0484 57.8592 40.4006 56.697 38.851 55.4042C38.1789 54.8438 37.5816 54.194 36.7756 53.7698C36.7421 53.9138 36.6584 54.0612 36.6885 54.1795C36.8504 54.8181 36.818 55.4678 36.8348 56.1143C36.8537 56.8656 36.9107 57.6181 36.8962 58.3683C36.8705 59.746 36.8526 61.127 36.7454 62.4991C36.6193 64.1089 36.2777 65.6831 35.6234 67.1713C35.4627 67.5363 35.4515 67.984 35.0641 68.2397C34.8565 68.377 34.6722 68.5501 34.4266 68.7488C34.9424 69.2389 35.3923 69.7201 35.8958 70.1354C37.1596 71.1792 38.5462 72.0422 40.0076 72.7835C40.3392 72.9521 40.6775 73.124 41.0325 73.2278C41.5204 73.3708 42.0228 73.469 42.5251 73.5505C43.3524 73.6845 44.1864 73.8888 45.0148 73.8821C46.0608 73.8731 47.0824 73.5516 48.0391 73.1329C49.0852 72.6741 50.0833 72.1081 51.0378 71.4706C52.209 70.688 53.3656 69.892 54.319 68.693C53.6134 68.2933 53.3421 67.6692 53.0787 66.9569C52.7683 66.1151 52.4501 65.2801 52.2849 64.4037V64.4048Z" fill="white"/>
<path d="M30.728 42.0262C30.651 41.6254 30.4969 41.3083 30.1899 41.0571C29.2655 40.3013 28.3411 39.5455 27.4145 38.7919C27.2794 38.6825 27.1153 38.5999 27.0048 38.4715C26.9434 38.4 26.9155 38.2169 26.9646 38.1567C27.0182 38.0897 27.1756 38.0941 27.2872 38.0953C27.3241 38.0953 27.3531 38.1924 27.3989 38.2281C28.3936 39.004 29.3906 39.7777 30.4556 40.6061C30.4031 40.0814 30.3641 39.6114 30.3083 39.1436C30.2502 38.6657 30.1877 38.1868 30.1039 37.7134C30.0693 37.5192 29.999 37.3272 29.7634 37.2524C29.5926 37.1977 29.4363 37.0961 29.2711 37.0201C27.9839 36.4251 26.6732 37.0782 25.9419 38.0182C25.252 38.9058 25.2453 39.915 25.5467 40.931C26.0223 42.5308 26.834 43.9777 27.8588 45.2761C28.2384 45.7561 28.743 46.2083 29.4698 46.3132C30.1508 46.4115 30.7414 46.2507 31.3264 45.9772C31.4727 45.9091 31.5665 45.7885 31.5051 45.5395C31.2159 44.3762 30.9569 43.2051 30.7291 42.0284L30.728 42.0262Z" fill="white"/>
<path d="M58.6696 37.7513C58.5401 38.6802 58.4296 39.6113 58.2957 40.6685C58.8695 40.1952 59.3339 39.8044 59.8084 39.4226C60.3476 38.9883 60.8891 38.5563 61.4451 38.1421C61.5243 38.0829 61.6873 38.1365 61.8124 38.1387C61.7867 38.2615 61.7655 38.3866 61.7309 38.5071C61.7242 38.5295 61.6516 38.525 61.6226 38.5496C60.6267 39.3713 59.6342 40.1996 58.635 41.0169C58.2934 41.296 58.117 41.632 58.0311 42.073C57.8279 43.118 57.57 44.1529 57.321 45.1889C57.1692 45.8186 57.1636 45.8253 57.7944 46.1055C57.887 46.1468 57.9752 46.197 58.0701 46.2294C58.7288 46.4516 59.3964 46.4036 59.9803 46.0753C60.7719 45.631 61.2765 44.8629 61.7443 44.1183C62.1853 43.4149 62.5068 42.6334 62.854 41.8743C63.0438 41.459 63.2436 41.0303 63.3207 40.587C63.6098 38.918 63.1588 37.9344 61.7409 37.0971C60.8567 36.5757 59.9591 36.7521 59.0783 37.211C58.8248 37.3438 58.7043 37.5146 58.6708 37.7524L58.6696 37.7513Z" fill="white"/>
<path d="M30.7134 24.9103C31.0059 24.7819 31.2761 24.6044 31.563 24.4604C31.9024 24.2907 32.2474 24.1344 32.6973 23.9211C32.4238 24.5307 32.2329 25.0264 31.9817 25.4897C31.8466 25.7387 31.9326 25.847 32.109 26.0021C32.2106 25.934 32.33 25.8983 32.3691 25.8224C32.656 25.2586 32.9787 24.7049 33.174 24.1087C33.2388 23.9122 33.4933 23.5438 33.0188 23.2602C32.2072 23.6298 31.3386 24.0261 30.4701 24.4224C30.4366 24.3889 30.4031 24.3554 30.3696 24.3219C30.6286 23.8664 30.8921 23.4121 31.1444 22.9532C31.2125 22.8304 31.2493 22.6908 31.3241 22.4966C31.0618 22.4888 30.9077 22.3939 30.7827 22.6373C30.556 23.076 30.2937 23.498 30.0402 23.9223C29.8449 24.2505 29.6841 24.5854 29.7053 24.9851C30.0659 25.1414 30.3986 25.0487 30.7134 24.9092V24.9103Z" fill="white"/>
<path d="M47.6005 24.4537C47.9343 24.7775 48.2715 25.1158 48.871 25.0421C48.9536 24.5363 49.0362 24.0373 49.1256 23.4958C49.2294 23.5505 49.2975 23.5796 49.3589 23.6209C49.8914 23.9703 50.4161 24.332 50.9554 24.6703C51.2869 24.8791 51.3215 24.8512 51.4388 24.389C50.5043 23.8977 49.7418 23.1084 48.6455 22.6831C48.4222 23.277 48.7069 23.8933 48.4367 24.5095C48.2949 24.3934 48.1989 24.3253 48.1152 24.2438C47.768 23.9044 47.4208 23.565 47.0814 23.2178C46.9396 23.0727 46.7811 23.0537 46.6806 23.21C46.6348 23.2804 46.6985 23.4713 46.7721 23.5583C47.0334 23.8687 47.3091 24.1701 47.6005 24.4526V24.4537Z" fill="white"/>
<path d="M59.0169 24.3297C58.6362 23.6543 58.1238 23.0939 57.4617 22.549C57.3679 22.6395 57.2865 22.7187 57.2128 22.7902C57.7888 23.4746 58.3046 24.0875 58.8662 24.7551C59.0627 24.7339 59.1754 24.6111 59.0169 24.3297Z" fill="white"/>
<path d="M37.2736 25.6728C37.354 25.6092 37.4031 25.5902 37.4131 25.5578C37.6018 24.9527 37.7938 24.3476 37.9613 23.7358C37.9803 23.6666 37.8563 23.5572 37.7481 23.3875C37.2289 24.0384 37.2211 24.7584 37.0324 25.4127C37.0157 25.4718 37.191 25.5868 37.2725 25.6717L37.2736 25.6728Z" fill="white"/>
<path d="M39.0052 25.8258C39.0811 25.7242 39.2106 25.6293 39.2251 25.5199C39.2932 24.9996 39.3032 24.4704 39.3881 23.9535C39.4328 23.6822 39.3055 23.6432 39.1202 23.6019C39.0855 23.6331 39.0331 23.6566 39.0286 23.6867C38.9382 24.3208 38.8444 24.955 38.7785 25.5924C38.7718 25.6617 38.9259 25.7476 39.0052 25.8258Z" fill="white"/>
<path d="M56.6334 24.3453C56.1466 23.9401 55.6375 23.5616 55.1083 23.1497C55.0123 23.2903 54.9487 23.383 54.8672 23.5024C55.4232 23.9412 55.9602 24.3654 56.486 24.7807C56.6758 24.6334 56.8019 24.486 56.6334 24.3453Z" fill="white"/>
<path d="M57.9596 74.4268C57.4159 74.8991 56.9124 75.4238 56.3386 75.8558C55.6274 76.3917 54.8861 76.8997 54.1124 77.3384C53.3991 77.7426 52.6086 78.0083 51.883 78.3946C51.2142 78.7507 50.4964 78.9584 49.7852 79.1738C48.8362 79.4596 47.8627 79.6695 46.8769 79.7968C46.168 79.8883 45.4557 79.9855 44.7423 80.0011C43.9318 80.019 43.118 79.9776 42.3097 79.9084C41.5617 79.8448 40.8092 79.7532 40.0768 79.5958C38.9425 79.3513 37.8016 79.1024 36.7019 78.7384C35.6536 78.3912 34.6298 77.9413 33.6418 77.4445C32.8692 77.0571 32.0944 76.6552 31.3855 76.1439C30.6967 75.6471 29.981 75.1882 29.2342 74.6836C29.1649 74.7204 29.0455 74.783 28.8568 74.8823C29.0109 75.0587 29.1181 75.2239 29.2643 75.3389C29.5289 75.5488 29.827 75.7152 30.0927 75.9239C30.9992 76.6362 31.9817 77.229 33.0043 77.7537C33.7947 78.1601 34.5963 78.5341 35.4247 78.869C36.4574 79.2866 37.5079 79.6115 38.5764 79.9062C39.0899 80.048 39.6191 80.1005 40.1293 80.2166C40.7712 80.3617 41.4154 80.4119 42.0596 80.4856C42.4794 80.5336 42.9058 80.5236 43.329 80.5258C43.9631 80.5303 44.5972 80.5314 45.2313 80.5213C46.1814 80.5057 47.108 80.3126 48.0436 80.1741C49.1243 80.0145 50.1469 79.6651 51.1818 79.3614C51.8305 79.1716 52.4423 78.8489 53.0563 78.5553C53.9718 78.1188 54.8671 77.6388 55.6832 77.0314C56.6914 76.2812 57.6816 75.5075 58.6965 74.7305C58.5815 74.5094 58.5011 74.3576 58.4062 74.1745C58.232 74.2694 58.0757 74.3241 57.9607 74.4246L57.9596 74.4268Z" fill="black"/>
<path d="M47.4239 35.0954C47.5791 35.13 47.741 35.1456 47.9006 35.1535C48.6922 35.1959 49.4871 35.207 50.2764 35.2785C51.9108 35.4259 53.543 35.6056 55.2288 35.7764C55.3204 35.6726 55.4599 35.5208 55.2578 35.3142C54.9408 34.9905 54.6382 34.6488 54.2955 34.3541C54.0476 34.1409 53.7663 33.9198 53.4626 33.8305C52.8475 33.6496 52.2111 33.5224 51.5759 33.4331C50.5722 33.2913 49.5619 33.1941 48.5537 33.0925C48.451 33.0825 48.3003 33.135 48.2367 33.212C47.8716 33.6574 47.5077 34.1074 47.1794 34.5807C46.9952 34.8464 47.0968 35.0228 47.4239 35.0965V35.0954Z" fill="black"/>
<path d="M39.033 35.2628C39.7721 35.207 40.5123 35.1657 41.2502 35.0976C41.4087 35.0831 41.5583 34.9793 41.814 34.8754C41.4456 34.3775 41.1419 33.9589 40.8304 33.5469C40.5982 33.2399 40.3615 33.1093 39.8982 33.1383C38.3944 33.2321 36.9163 33.4375 35.4538 33.7847C35.159 33.855 34.9011 33.9388 34.6868 34.2067C34.3809 34.5885 34.0259 34.9491 33.6318 35.2372C33.327 35.4593 33.4319 35.61 33.5559 35.8266C34.2838 35.7228 34.9838 35.5966 35.6882 35.5274C36.8013 35.4191 37.9177 35.3466 39.033 35.2617V35.2628Z" fill="black"/>
<path d="M49.9327 36.9553C49.4671 36.8805 49.2617 37.2456 49.1523 37.4577C48.6019 38.5317 48.5918 39.6615 49.0339 40.7902C49.2327 41.2971 50.1671 41.4411 50.54 40.9767C51.029 40.3671 51.183 39.7017 51.1886 38.8153C51.1283 38.5172 51.087 38.0718 50.943 37.6632C50.7867 37.2188 50.4161 37.0324 49.9315 36.9542L49.9327 36.9553ZM50.1805 38.4882C49.9126 38.371 49.8701 38.0439 50.0566 37.6196C50.3439 37.7789 50.5229 38.0245 50.5936 38.3564C50.4283 38.4089 50.3 38.4502 50.1805 38.4882Z" fill="black"/>
<path d="M40.011 38.7271C39.9697 38.3151 39.9116 37.892 39.6604 37.5459C39.474 37.288 39.3255 36.9453 38.9337 36.9431C38.4011 36.9408 37.8552 37.3506 37.7737 37.7837C37.7078 38.1365 37.6353 38.4893 37.566 38.841C37.5672 39.6169 37.6821 40.3325 38.2203 40.941C38.6646 41.4433 39.4773 41.3775 39.7464 40.7668C40.0322 40.1182 40.0813 39.4237 40.011 38.726V38.7271ZM39.0509 38.6791C38.7561 38.3118 38.7148 37.9757 38.9928 37.489C39.1804 37.8049 39.3177 38.0349 39.4729 38.2973C39.3255 38.4312 39.2005 38.544 39.0509 38.6791Z" fill="black"/>
<path d="M48.9479 48.9602C49.1288 48.8575 49.2024 48.7358 49.1109 48.5818C49.0127 48.4188 48.8485 48.4445 48.6956 48.5561C47.8694 49.1556 46.9361 49.4894 45.9336 49.6334C43.8369 49.9338 41.7995 49.9204 40.0422 48.4746C39.9819 48.4244 39.8446 48.4679 39.6481 48.4679C40.0579 49.0719 40.4531 49.4001 41.1933 49.6614C43.8805 50.6092 46.4661 50.3602 48.9479 48.9614V48.9602Z" fill="black"/>
<path d="M44.5414 45.8331C44.566 45.4167 44.6017 45.0773 44.605 44.7379C44.6151 43.5723 44.6352 42.4068 44.605 41.2435C44.595 40.8516 44.7457 40.3995 44.3159 40.0087C44.2176 40.136 44.0904 40.2354 44.0558 40.3604C44.0044 40.548 44.0122 40.7534 44.0089 40.951C43.991 41.8575 43.9631 42.7641 43.9687 43.6695C43.9731 44.3616 44.0234 45.0549 44.0546 45.7739C44.2042 45.7918 44.3371 45.8085 44.5414 45.8331Z" fill="black"/>
<path d="M42.4694 34.8464C42.2372 34.0649 41.785 33.5101 41.2849 32.9664C41.1632 33.0233 41.0582 33.0713 40.912 33.1394C41.3228 33.7635 41.7136 34.3585 42.1244 34.9826C42.2082 34.9502 42.3142 34.9078 42.4683 34.8475L42.4694 34.8464Z" fill="black"/>
<path d="M46.6616 34.9603C47.0836 34.3139 47.4643 33.7322 47.8964 33.0702C47.6597 33.0534 47.4699 32.9853 47.4174 33.0434C46.9954 33.5078 46.5913 33.9935 46.3803 34.5974C46.2876 34.8632 46.4339 34.967 46.6616 34.9603Z" fill="black"/>
<path d="M44.3851 51.7055C43.9999 51.7535 43.6271 51.4643 43.2374 51.7278C43.9084 52.1744 44.6396 52.085 45.3676 51.9678C45.4379 51.9567 45.4881 51.8193 45.5819 51.6954C45.1298 51.6954 44.7524 51.6597 44.3851 51.7055Z" fill="black"/>
<path d="M52.7348 43.0789C52.6566 43.1124 52.574 43.2821 52.5941 43.3703C52.6589 43.6583 52.7538 43.9419 52.8721 44.2121C52.9078 44.2936 53.0608 44.3684 53.1568 44.3639C53.2584 44.3594 53.3566 44.2578 53.4147 44.2221C53.2684 43.8012 53.1735 43.4808 53.0385 43.1794C53.0061 43.1079 52.8118 43.0454 52.7337 43.0789H52.7348Z" fill="black"/>
<path d="M53.9506 42.9025C54.0242 43.2542 54.0778 43.5824 54.1705 43.9006C54.1951 43.9832 54.3413 44.0837 54.4273 44.0792C54.4987 44.0759 54.6293 43.9229 54.6204 43.8503C54.5746 43.4585 54.5847 43.0376 54.2364 42.7149C54.1281 42.7853 54.0332 42.8478 53.9506 42.9025Z" fill="black"/>
<path d="M34.2134 44.1674C34.8699 43.8905 34.5517 43.2709 34.8732 42.917C34.718 42.8355 34.6165 42.7819 34.4936 42.7172C34.2313 43.1436 34.0973 43.569 34.2134 44.1674Z" fill="black"/>
<path d="M36.0522 43.0722C36.0075 43.0912 35.9539 43.1045 35.9015 43.1202C35.8144 43.1447 35.7329 43.1727 35.7072 43.2262C35.5788 43.4953 35.4839 43.7867 35.4248 44.0781C35.4058 44.1718 35.5364 44.2969 35.6391 44.48C35.7697 44.3159 35.8747 44.2266 35.9238 44.1127C36.0198 43.8939 36.108 43.665 36.1538 43.4317C36.1594 43.4049 36.1583 43.3758 36.1527 43.3468C36.1359 43.2586 36.0812 43.1626 36.0544 43.0722H36.0522Z" fill="black"/>
<path d="M50.0566 37.6207C49.8702 38.045 49.9126 38.371 50.1806 38.4893C50.3 38.4513 50.4295 38.41 50.5936 38.3576C50.5229 38.0256 50.3439 37.78 50.0566 37.6207Z" fill="white"/>
<path d="M39.0508 38.6791C39.2004 38.544 39.3254 38.4312 39.4728 38.2973C39.3165 38.0349 39.1803 37.8049 38.9927 37.489C38.7147 37.9757 38.7571 38.3118 39.0508 38.6791Z" fill="white"/>
<path d="M84.718 1H2.83539C1.82173 1 1 1.82173 1 2.83539V84.718C1 85.7317 1.82173 86.5534 2.83539 86.5534H84.718C85.7317 86.5534 86.5534 85.7317 86.5534 84.718V2.83539C86.5534 1.82173 85.7317 1 84.718 1Z" stroke="#E1E1E1" stroke-miterlimit="10"/>
<rect x="34" y="75.5534" width="20" height="20" rx="10" fill="#00DD70"/>
<path d="M49.0718 81.9534L42.9438 88.0814L39.6478 84.7854L38.7998 85.6334L42.0958 88.9294L42.9438 89.7774L43.7918 88.9294L49.9198 82.8014L49.0718 81.9534Z" fill="black" stroke="black"/>
</svg>
