<svg width="87" height="95" viewBox="0 0 87 95" fill="none" xmlns="http://www.w3.org/2000/svg">
<path d="M73.6486 77.8161C73.3159 77.3517 72.9911 76.8556 72.5601 76.4904C71.868 75.9028 71.0798 75.4241 70.3519 74.8747C68.7766 73.6863 67.0651 72.7018 65.3827 71.6737C63.8431 70.7328 62.2935 69.8072 60.7629 68.8543C60.121 68.4542 59.4456 68.0704 58.9052 67.558C58.0467 66.7436 57.2886 65.8267 56.487 64.9545C56.41 64.8717 56.3386 64.7496 56.2425 64.7234C55.1429 64.4268 54.0399 64.1434 52.9368 63.8621C52.7549 63.8152 52.5159 63.8501 52.3931 63.7465C52.2569 63.631 52.1821 63.4053 52.1553 63.2178C51.9856 62.0447 51.7724 60.8726 51.6954 59.693C51.6072 58.3335 51.6295 56.9663 51.6351 55.6035C51.6384 54.7596 51.6998 53.9169 51.7389 53.0152C52.9915 53.4764 54.2207 53.4949 55.4544 53.3249C55.902 53.2627 56.3531 53.1559 56.7751 52.9989C57.1971 52.8419 57.2395 52.5911 57.0207 52.1954C56.8655 51.9163 56.726 51.6306 56.5786 51.3472C57.072 51.3951 57.4695 51.5423 57.8759 51.6535C58.7902 51.9054 59.7046 52.2532 60.6736 51.78C60.7239 51.4813 60.7239 51.1891 60.553 50.8882C60.3398 50.512 60.1668 50.1119 60.0038 49.7107C59.5829 48.6782 59.1296 47.6534 58.7958 46.5937C58.6953 46.2753 58.3838 45.9079 58.6529 45.5122C58.8516 45.4446 59.0559 45.3879 59.2502 45.305C59.8888 45.0336 60.2918 44.5026 60.716 44.0011C61.5388 43.0297 62.1227 41.9144 62.6586 40.7794C63.0884 39.8701 63.171 38.8976 63.0962 37.9099C63.0538 37.3462 62.7636 36.8643 62.4074 36.4631C62.0267 36.0336 61.5511 35.6803 61.0878 35.3304C60.8958 35.1854 60.8556 35.0905 60.9058 34.8507C61.1794 33.5522 61.4216 32.2461 61.6639 30.9421C61.7297 30.5878 61.8079 30.2531 62.1026 30.0012C62.1629 29.95 62.2009 29.8399 62.1986 29.7592C62.1797 29.1192 62.2042 28.4705 62.1093 27.8404C61.8101 25.8354 61.751 23.7912 61.1191 21.8386C60.7819 20.7952 60.4615 19.7464 60.1288 18.7019C59.968 18.1972 59.6242 17.8167 59.2145 17.4918C57.7665 16.3481 56.1767 15.429 54.4998 14.6419C52.9346 13.907 51.27 13.4927 49.5865 13.1362C48.9367 12.9989 48.2758 12.9149 47.6227 12.7917C47.501 12.7688 47.3413 12.7078 47.2866 12.6151C47.0745 12.2564 46.7519 12.0602 46.3779 11.8977C45.439 11.49 44.4498 11.4464 43.4607 11.5565C42.6848 11.6426 41.9077 11.8378 41.3707 12.4625C41.162 12.7056 40.9331 12.7983 40.6328 12.8549C39.6291 13.0436 38.621 13.2224 37.6318 13.4731C34.7392 14.2047 32.0341 15.3429 29.7086 17.2105C29.0231 17.7611 28.3756 18.3978 27.8654 19.1021C27.2726 19.9208 26.9912 20.9042 26.7735 21.8964C26.183 24.598 25.9541 27.34 25.7397 30.0863C25.7118 30.4472 25.8335 30.6881 26.0501 30.9301C26.1104 30.9977 26.2064 31.0719 26.2086 31.1449C26.2388 32.1828 26.5514 33.176 26.7121 34.1921C26.8249 34.9063 26.9857 35.1199 26.1629 35.1963C25.8715 35.4503 25.6594 35.6356 25.445 35.8199C24.9806 36.22 24.5519 36.6572 24.304 37.2154C23.8854 38.1574 23.9858 39.156 24.2895 40.0718C24.678 41.2439 25.2563 42.357 25.982 43.3796C26.4297 44.0109 26.9488 44.5876 27.5439 45.0892C27.7247 45.2418 27.967 45.3508 28.2003 45.4151C28.6424 45.5362 28.7195 45.6266 28.581 46.0682C28.389 46.6831 28.2238 47.31 27.9782 47.9053C27.622 48.7698 27.1889 49.6049 26.8193 50.4652C26.6407 50.8816 26.3727 51.2948 26.5313 51.8072C27.9614 52.3905 29.2352 51.5696 30.6911 51.2621C30.4588 51.6775 30.3037 51.9915 30.1139 52.2837C29.9632 52.5159 30.0022 52.7002 30.2054 52.8517C30.3617 52.9673 30.5325 53.0981 30.7167 53.1384C31.63 53.3401 32.5555 53.4917 33.4944 53.3979C34.143 53.3336 34.785 53.2082 35.4928 53.1003C35.5173 54.2385 35.5531 55.3756 35.562 56.5138C35.5743 58.0903 35.581 59.669 35.3633 61.2335C35.2539 62.0261 35.0641 62.8089 34.8821 63.5895C34.8553 63.7051 34.689 63.8446 34.5639 63.873C33.5938 64.0965 32.6135 64.2797 31.6456 64.5097C31.2113 64.6133 30.8094 64.7735 30.5069 65.1638C29.5065 66.4569 28.4136 67.6572 26.9667 68.5185C25.0833 69.6393 23.239 70.8211 21.3712 71.967C20.4278 72.5459 19.442 73.0638 18.5254 73.6797C17.3432 74.4745 16.2111 75.3391 15.059 76.1764C14.8524 76.3269 14.6213 76.461 14.4617 76.6518C13.2414 78.1061 12.2288 79.699 11.3904 81.3834C10.7864 82.598 10.3041 83.8692 9.74927 85.1088H10.2851C10.6335 84.2758 10.9974 83.4484 11.3781 82.6296C11.9922 81.3137 12.6855 80.0359 13.4893 78.8192C13.765 78.4027 14.0787 78.0102 14.3578 77.5959C14.8937 76.8011 15.7087 76.304 16.4522 75.7381C17.169 75.1919 17.9237 74.6915 18.6806 74.1987C19.5068 73.6612 20.353 73.1532 21.1926 72.6364C22.1125 72.0705 23.0369 71.5113 23.9568 70.9432C25.1581 70.2019 26.3527 69.4485 27.5573 68.7126C28.4191 68.186 29.1616 67.5319 29.8124 66.7752C30.2121 66.3108 30.5805 65.818 31.0115 65.3841C31.2113 65.1824 31.5116 65.0287 31.793 64.96C32.7017 64.7397 33.6239 64.5697 34.6019 64.3669C34.5059 64.7768 34.2357 64.9502 33.9354 65.0744C33.4218 65.287 32.9005 65.4822 32.3769 65.6719C32.0687 65.7842 31.9883 65.9336 32.1893 66.1843C32.4628 66.5234 32.7665 66.8417 33.0746 67.1535C33.3917 67.473 33.7422 67.7597 34.0537 68.0835C34.6443 68.6951 35.3309 69.165 36.0599 69.6142C36.6527 69.9795 37.2143 70.4014 37.8395 70.7176C39.0419 71.3248 40.1974 72.0324 41.6197 72.1087C42.4537 72.1534 43.2765 72.4107 44.1093 72.4423C45.2168 72.4848 46.2696 72.1501 47.2844 71.726C48.5247 71.2082 49.7104 70.5802 50.8368 69.8606C51.9265 69.164 52.9938 68.4291 53.811 67.4021C54.1169 67.0183 54.5132 66.7044 54.8638 66.3544C55.0201 66.1985 55.1875 66.036 55.0368 65.7711C54.4786 65.5563 53.9025 65.3481 53.3387 65.1137C53.0127 64.9774 52.6801 64.8226 52.6231 64.3211C53.7261 64.6056 54.7823 64.8738 55.8339 65.1551C55.9612 65.1889 56.0918 65.2783 56.18 65.3775C56.7862 66.0557 57.369 66.7534 57.9842 67.4239C58.5011 67.9876 59.1419 68.4171 59.7771 68.8391C60.6558 69.4223 61.5679 69.9566 62.4699 70.5039C63.5998 71.1896 64.743 71.8536 65.8638 72.5524C67.2694 73.429 68.6661 74.3197 70.0493 75.229C70.6466 75.6215 71.207 76.0707 71.7764 76.5024C72.4842 77.0388 73.0123 77.7387 73.4957 78.4561C74.103 79.3567 74.6679 80.2888 75.1703 81.2482C75.6493 82.1619 76.021 83.13 76.4486 84.0698C76.6049 84.4143 76.7568 84.761 76.9052 85.1088H77.4735C77.3194 84.7479 77.1642 84.3871 77.0113 84.0251C76.0891 81.849 75.0285 79.7513 73.6475 77.8183L73.6486 77.8161ZM61.6795 36.5438C62.7814 37.5098 62.797 38.9173 62.3717 40.0326C61.8403 41.4259 61.1481 42.7582 60.169 43.916C59.8664 44.2736 59.5237 44.6716 59.1084 44.8482C58.5547 45.0837 57.9127 45.1698 57.2964 44.9452C57.1837 44.9038 57.0832 44.8362 56.9716 44.7904C56.3922 44.5528 56.3598 44.5386 56.5261 43.9945C56.8532 42.9217 57.0542 41.8239 57.263 40.7271C57.3333 40.3575 57.5421 40.0871 57.8256 39.8603C58.4106 39.3904 59.0001 38.926 59.5885 38.4594C60.0361 38.105 60.4894 37.7562 60.9293 37.392C61.0097 37.3255 61.0398 37.2001 61.0923 37.1031L61.0108 36.9581C60.8824 36.993 60.7283 36.9952 60.6312 37.0682C59.8251 37.6722 59.0291 38.2882 58.2331 38.9042C58.0199 39.0688 57.8189 39.2498 57.5052 39.5136C57.6325 38.5717 57.7642 37.7616 57.8446 36.9461C57.8915 36.4708 58.0958 36.2244 58.5513 36.002C59.6945 35.447 60.8567 35.8199 61.6795 36.5416V36.5438ZM57.3255 31.9582C56.1733 31.9898 55.3103 31.3412 54.4139 30.7819C52.814 29.7832 51.212 28.7878 49.4815 28.017C47.9565 27.3378 46.3466 27.0728 44.6675 27.1753C43.3546 27.2549 42.0886 27.5297 40.8315 27.8916C39.0374 28.4073 37.3918 29.237 35.7496 30.0841C34.5862 30.6848 33.4441 31.3335 32.244 31.8525C31.5842 32.1381 30.8273 32.3147 30.1072 32.3344C29.1147 32.3616 28.2405 31.9233 27.5528 31.206C27.4255 31.073 27.3865 30.8593 27.305 30.6772C28.4794 29.5477 29.7309 28.5479 31.0762 27.6638C32.7665 26.5539 34.5595 25.6457 36.4819 24.9752C38.7003 24.2011 40.9777 23.7541 43.3323 23.6636C45.5439 23.5786 47.7232 23.7912 49.8667 24.3123C51.6384 24.7441 53.3387 25.3699 54.981 26.1603C56.6389 26.9584 58.1728 27.9418 59.6566 29.0058C60.0529 29.2904 60.4146 29.6218 60.8054 29.9435C60.3945 30.6739 59.8084 31.2289 59.114 31.6639C58.5736 32.0018 57.9362 31.943 57.3232 31.9593L57.3255 31.9582ZM46.6905 12.6347H41.8452C42.8544 11.6666 45.449 11.6797 46.6905 12.6347ZM26.2343 29.7439C26.471 27.1633 26.6731 24.5827 27.1956 22.0337C27.6176 19.9721 28.6804 18.3749 30.4309 17.1472C32.7386 15.5282 35.3041 14.5089 38.0215 13.7926C40.51 13.1373 43.0487 12.9345 45.6087 13.0501C48.3115 13.1722 50.9463 13.6988 53.4705 14.6615C54.31 14.982 55.1105 15.4181 55.8953 15.8575C56.7461 16.3339 57.5443 16.8976 58.3905 17.3816C59.2859 17.8941 59.7269 18.6932 60.0328 19.6112C60.85 22.0599 61.2787 24.5805 61.5288 27.1361C61.5991 27.8524 61.6661 28.5687 61.7465 29.2828C61.7867 29.6338 61.6951 29.9009 61.4227 30.0176C61.2374 29.7941 61.1023 29.563 60.9058 29.4038C58.865 27.7542 56.6523 26.3805 54.2252 25.3208C51.5179 24.139 48.7023 23.4303 45.7482 23.2341C43.3736 23.076 41.0258 23.2701 38.7181 23.8305C36.08 24.4704 33.6183 25.5203 31.3386 26.9725C29.8292 27.9341 28.4303 29.032 27.1475 30.2673C27.0002 30.409 26.9287 30.6281 26.8059 30.8418C26.3482 30.6674 26.183 30.3109 26.2343 29.7461V29.7439ZM30.2523 44.7915C29.5959 45.1415 28.9494 45.0739 28.2818 44.9136C28.1769 44.8885 28.0798 44.8199 27.986 44.761C26.96 44.1199 26.3683 43.1169 25.8023 42.1259C25.3613 41.3551 24.9984 40.5232 24.7316 39.6794C24.4201 38.6916 24.5027 37.6875 25.1893 36.8382C25.4685 36.4937 25.819 36.1808 26.27 36.0227C26.4743 35.9507 26.6664 35.8417 26.8729 35.7817C27.6857 35.5441 28.3935 35.8668 29.0778 36.2255C29.2018 36.2898 29.2754 36.5155 29.3 36.6779C29.4362 37.5686 29.5501 38.4626 29.6907 39.4984C29.1236 39.0459 28.6581 38.6676 28.1847 38.2991C27.6577 37.8892 27.1051 37.5098 26.5994 37.0758C26.4074 36.9112 26.2589 36.9145 26.1506 37.066C26.0468 37.2121 26.183 37.3179 26.3281 37.4313C27.3161 38.2032 28.2796 39.0034 29.2643 39.7797C29.6405 40.0762 29.8616 40.4142 29.9542 40.8972C30.1518 41.9329 30.3327 42.9741 30.6799 43.9793C30.8574 44.4928 30.7692 44.5135 30.2501 44.7904L30.2523 44.7915ZM34.3641 50.3332C33.1349 49.2441 32.1848 47.9543 31.7874 46.332C31.4368 44.9027 31.0003 43.4919 30.7011 42.0528C30.3919 40.5635 30.1898 39.0514 29.962 37.5457C29.7611 36.2167 29.5847 34.8845 29.4094 33.5522C29.377 33.3025 29.4049 33.0463 29.4049 32.7661C31.1901 32.9089 32.7196 32.2319 34.2256 31.4447C35.8054 30.6183 37.3996 29.817 38.995 29.0178C39.5052 28.7627 39.4996 28.7987 40.002 29.2119C40.7645 29.841 41.5962 30.3436 42.6055 30.5289C43.1257 30.6249 43.6281 30.8069 44.1439 30.9301C44.3359 30.9759 44.5425 30.9748 44.7412 30.9748C45.0527 30.9748 45.1967 30.8058 45.075 30.5366C44.8908 30.1277 44.6563 29.7407 44.4487 29.3416C44.1953 28.8554 43.9463 28.3659 43.7643 27.8251C44.2276 28.1467 44.6831 28.4793 45.1554 28.7889C46.3187 29.5521 47.6216 29.9903 48.9869 30.2226C50.0598 30.4046 51.1472 30.4951 52.2379 30.264C52.44 30.2215 52.7102 30.3272 52.9056 30.4384C53.8389 30.9694 54.7566 31.5265 55.6821 32.0727C56.1934 32.3736 56.7628 32.4379 57.3445 32.4532C57.5086 32.4576 57.6716 32.4914 57.8535 32.5143C57.7631 33.4192 57.6995 34.2663 57.5901 35.108C57.4416 36.244 57.2652 37.3768 57.0888 38.5095C56.909 39.6586 56.7583 40.8132 56.5161 41.9492C56.1209 43.7994 55.6587 45.6365 55.0323 47.4288C54.6784 48.4417 53.9416 49.2037 53.2126 49.956C52.3686 50.8271 51.3616 51.5129 50.3925 52.2444C49.323 53.0512 48.1507 53.6836 46.983 54.3224C46.3142 54.6888 45.5294 54.7258 44.7769 54.8436C43.3937 55.0584 42.0495 54.8741 40.7277 54.4882C40.3313 54.3726 39.9518 54.1807 39.5867 53.9834C37.7033 52.964 35.9572 51.744 34.3652 50.3332H34.3641ZM52.9067 66.4187C53.111 66.5583 53.2941 66.7294 53.5084 66.9039C52.5416 68.0857 51.3616 68.9023 50.1335 69.648C49.1979 70.216 48.2144 70.7099 47.2409 71.2147C46.9807 71.3499 46.676 71.4066 46.3901 71.4905C46.0005 71.605 45.6109 71.7228 45.2157 71.8165C44.3985 72.0106 43.5779 71.8961 42.7674 71.7838C41.9189 71.6672 41.0738 71.5112 40.242 71.3128C39.8457 71.218 39.4739 71.0032 39.1066 70.8135C37.6977 70.0852 36.3357 69.2795 35.1076 68.2808C34.6186 67.8829 34.1732 67.4348 33.6529 66.9595C33.8784 66.7643 34.0894 66.6041 34.2737 66.4176C34.4757 66.2127 34.6867 66.0382 34.7012 65.6806C34.7135 65.3655 34.9468 65.0635 35.0529 64.7452C35.2795 64.0649 35.5631 63.3911 35.6848 62.6912C35.8779 61.5791 36.0242 60.4507 36.07 59.3245C36.1347 57.7066 36.128 56.0821 36.0722 54.4631C36.0521 53.8678 36.1068 53.2507 35.8936 52.662C35.8512 52.5453 35.9449 52.3829 35.9885 52.1834C36.9877 52.9978 37.9266 53.822 38.9291 54.5656C40.232 55.5326 41.5851 56.4342 42.9159 57.3642C43.4975 57.7698 44.0658 58.1939 44.663 58.5777C45.2771 58.9712 46.0039 59.1391 46.7061 59.1457C47.4228 59.1522 48.1563 59.0781 48.8708 58.8764C49.5306 58.69 50.1156 58.3912 50.6884 58.0435C50.8067 57.9715 50.9474 57.9355 51.0635 57.8897C51.1293 58.7663 51.2455 59.5785 51.2376 60.3886C51.2287 61.203 51.4319 61.9792 51.5346 62.7718C51.6574 63.7193 52.0515 64.5936 52.4043 65.4757C52.5372 65.8071 52.5695 66.1854 52.9089 66.4176L52.9067 66.4187Z" fill="black"/>
<path d="M75.1715 81.245C74.6692 80.2856 74.1031 79.3534 73.4969 78.4529C73.0135 77.7366 72.4854 77.0366 71.7776 76.4991C71.2083 76.0674 70.6478 75.6182 70.0505 75.2257C68.6673 74.3165 67.2706 73.4257 65.8651 72.5492C64.7442 71.8503 63.601 71.1864 62.4712 70.5006C61.5691 69.9533 60.657 69.4191 59.7784 68.8358C59.1431 68.4139 58.5023 67.9843 57.9854 67.4207C57.3702 66.7502 56.7875 66.0524 56.1813 65.3743C56.0931 65.2762 55.9636 65.1868 55.8352 65.1519C54.7835 64.8695 53.7274 64.6024 52.6243 64.3178C52.6802 64.8193 53.014 64.9742 53.34 65.1104C53.9049 65.3459 54.4809 65.5542 55.038 65.7679C55.1888 66.0328 55.0213 66.1941 54.865 66.3511C54.5156 66.7022 54.1181 67.0151 53.8122 67.3989C52.995 68.4259 51.9277 69.1607 50.8381 69.8574C49.7127 70.5769 48.5271 71.2049 47.2856 71.7228C46.2708 72.1469 45.218 72.4816 44.1105 72.4391C43.2777 72.4074 42.4549 72.1501 41.6209 72.1054C40.1986 72.0291 39.042 71.3216 37.8407 70.7143C37.2155 70.3981 36.6528 69.9773 36.0611 69.611C35.3332 69.1618 34.6455 68.693 34.0549 68.0803C33.7435 67.7565 33.3918 67.4697 33.0758 67.1503C32.7677 66.8396 32.464 66.5212 32.1905 66.1811C31.9885 65.9314 32.0699 65.7809 32.3781 65.6686C32.9006 65.4789 33.4219 65.2838 33.9366 65.0712C34.2358 64.9469 34.5071 64.7746 34.6031 64.3636C33.6251 64.5664 32.703 64.7365 31.7942 64.9567C31.5129 65.0254 31.2125 65.1791 31.0127 65.3808C30.5818 65.8147 30.2133 66.3075 29.8137 66.772C29.1628 67.5286 28.4204 68.1827 27.5585 68.7093C26.3539 69.4453 25.1593 70.1986 23.958 70.94C23.0392 71.5069 22.1137 72.0662 21.1938 72.6331C20.3542 73.1499 19.508 73.658 18.6818 74.1954C17.9249 74.6882 17.1702 75.1887 16.4535 75.7349C15.7099 76.3018 14.895 76.7979 14.3591 77.5927C14.08 78.007 13.7651 78.3994 13.4905 78.8159C12.6867 80.0326 11.9934 81.3104 11.3794 82.6263C10.9975 83.4451 10.6347 84.2726 10.2864 85.1055H76.9076C76.7591 84.7577 76.6073 84.4111 76.451 84.0665C76.0234 83.1257 75.6516 82.1586 75.1727 81.245H75.1715ZM54.903 75.0197C53.7374 75.7371 52.5618 76.4163 51.2724 76.9156C50.0577 77.3866 48.8263 77.7824 47.5502 78.0386C46.2686 78.2948 44.9724 78.4736 43.6573 78.4594C42.8367 78.4507 42.0094 78.4997 41.1978 78.4103C40.1305 78.2926 39.071 78.0854 38.016 77.8761C37.3194 77.7387 36.606 77.6046 35.9573 77.3386C34.9012 76.9047 33.8171 76.5395 32.7934 76.0118C31.802 75.5005 30.8397 74.9488 29.8907 74.3732C29.3504 74.045 28.848 73.6547 28.3467 73.2709C28.0441 73.0398 28.0888 72.9111 28.4773 72.7149C29.1427 73.175 29.7858 73.658 30.4668 74.0832C31.5062 74.7329 32.5891 75.314 33.7122 75.8188C34.9045 76.3541 36.1315 76.8044 37.4053 77.1064C38.5563 77.3801 39.7174 77.6603 40.8908 77.7889C41.9916 77.9088 43.1136 77.971 44.2278 77.8587C45.3196 77.7497 46.4249 77.7071 47.4955 77.4945C48.1017 77.3746 48.718 77.1925 49.3175 76.9843C49.9449 76.7662 50.5824 76.5885 51.1853 76.2985C51.7502 76.0271 52.3609 75.8417 52.9101 75.5452C54.1114 74.8976 55.2379 74.1322 56.3096 73.296C56.6033 73.067 56.8545 72.7869 57.1347 72.5394C57.2608 72.4282 57.4082 72.3409 57.6136 72.1938C57.7308 72.4282 57.7978 72.5644 57.8715 72.7116C56.8913 73.5195 55.9747 74.3612 54.9007 75.0219L54.903 75.0197Z" fill="#BCCACE"/>
<path d="M40.7255 54.4882C42.0473 54.8741 43.3915 55.0584 44.7748 54.8436C45.5272 54.7269 46.3121 54.6888 46.9808 54.3225C48.1486 53.6836 49.3219 53.0512 50.3903 52.2445C51.3594 51.5129 52.3664 50.8271 53.2104 49.956C53.9394 49.2038 54.6752 48.4417 55.0302 47.4288C55.6565 45.6365 56.1187 43.8005 56.5139 41.9493C56.7573 40.8132 56.9069 39.6576 57.0866 38.5095C57.2641 37.3768 57.4405 36.244 57.5879 35.108C57.6973 34.2663 57.7609 33.4203 57.8514 32.5143C57.6694 32.4914 57.5064 32.4576 57.3423 32.4532C56.7606 32.438 56.1913 32.3736 55.6799 32.0727C54.7544 31.5276 53.8367 30.9694 52.9034 30.4385C52.708 30.3272 52.4379 30.2215 52.2358 30.264C51.1439 30.4951 50.0577 30.4047 48.9848 30.2226C47.6194 29.9904 46.3165 29.5532 45.1532 28.7889C44.6821 28.4793 44.2255 28.1468 43.7622 27.8251C43.9441 28.3659 44.1931 28.8543 44.4465 29.3417C44.6542 29.7407 44.8897 30.1277 45.0728 30.5366C45.1934 30.8059 45.0505 30.9738 44.739 30.9749C44.5392 30.9749 44.3327 30.9759 44.1417 30.9302C43.626 30.807 43.1236 30.6249 42.6033 30.5289C41.5941 30.3436 40.7623 29.841 39.9998 29.2119C39.4986 28.7987 39.503 28.7617 38.9928 29.0179C37.3975 29.817 35.8043 30.6183 34.2235 31.4448C32.7174 32.2319 31.1879 32.909 29.4028 32.7661C29.4028 33.0463 29.3749 33.3036 29.4072 33.5522C29.5814 34.8845 29.7589 36.2168 29.9599 37.5458C30.1876 39.0514 30.3886 40.5625 30.6989 42.0528C30.9981 43.492 31.4358 44.9027 31.7852 46.3321C32.1827 47.9543 33.1327 49.2441 34.3619 50.3333C35.9539 51.744 37.6989 52.964 39.5834 53.9834C39.9474 54.1807 40.3269 54.3726 40.7244 54.4882H40.7255ZM44.729 50.4903C43.9587 50.6974 43.1961 50.7127 42.2918 50.3343C42.5084 50.2351 42.619 50.137 42.7016 50.1555C43.3078 50.2951 43.9118 50.3398 44.5291 50.2199C44.6028 50.2057 44.6988 50.3071 44.7848 50.3551C44.7658 50.3998 44.7468 50.4456 44.7279 50.4903H44.729ZM50.0465 39.3643C49.888 39.6521 49.7484 39.9716 49.38 40.0544C48.7258 40.2027 48.2971 39.928 48.076 39.2705C47.9476 38.8889 47.9744 38.4583 47.9376 38.1051C47.99 37.5011 47.9967 36.9549 48.3172 36.4686C48.4991 36.1939 48.6588 35.8886 49.0294 35.8537C49.4191 35.8166 50.0364 36.1775 50.1436 36.51C50.4529 37.4684 50.5623 38.43 50.0465 39.3654V39.3643ZM52.3653 43.1355C52.1967 43.1256 52.0281 43.0428 52.0505 42.8324C52.0884 42.4889 51.5659 42.1989 51.9511 41.8239C52.4044 41.8631 52.3619 42.2622 52.4658 42.5184C52.5372 42.6961 52.7337 42.9599 52.3642 43.1344L52.3653 43.1355ZM53.4348 42.8073C53.3388 42.4257 53.2506 42.0779 53.1557 41.7018C53.3957 41.4554 53.5811 41.4946 53.6637 41.7716C53.7586 42.0877 53.8021 42.4181 53.878 42.7877C53.6838 42.7964 53.5565 42.8018 53.4348 42.8062V42.8073ZM47.9878 32.1218C49.4481 32.2254 50.8849 32.3933 52.3084 32.7192C52.804 32.8326 53.1959 33.0409 53.542 33.369C53.8535 33.6634 54.1583 33.9665 54.4496 34.2805C54.5144 34.3503 54.5624 34.4985 54.53 34.5759C54.4965 34.6577 54.3648 34.7307 54.2632 34.7504C54.1504 34.7722 54.0243 34.7308 53.9048 34.7177C52.3363 34.5432 50.7688 34.3568 49.1969 34.2009C48.6498 34.1464 48.0939 34.1802 47.5424 34.1518C47.2231 34.1355 46.906 34.0842 46.5901 34.0363C46.3322 33.997 46.2172 33.816 46.3601 33.6132C46.7062 33.1205 47.0768 32.6407 47.4765 32.1883C47.5602 32.0934 47.8125 32.1403 47.9867 32.1229L47.9878 32.1218ZM46.5923 32.0956C46.6403 32.0368 46.8457 32.0673 46.9585 32.1087C46.9931 32.1218 47.0065 32.3486 46.9518 32.4085C46.5677 32.8272 46.2306 33.2687 46.0062 33.7942C45.9716 33.8749 45.7606 33.8847 45.5306 33.961C45.6668 33.0867 46.1714 32.6124 46.5923 32.0967V32.0956ZM43.2196 39.7655C43.2229 39.5714 43.2241 39.373 43.2709 39.1866C43.2989 39.0754 43.4161 38.986 43.5266 38.8453C43.9408 39.2662 43.8046 39.6936 43.8135 40.0751C43.8392 41.2101 43.8269 42.3461 43.8191 43.4822C43.8169 43.8136 43.7789 44.1439 43.7544 44.5212C43.5746 44.507 43.4284 44.4961 43.2687 44.4841C43.2374 43.7733 43.1861 43.0995 43.1816 42.4246C43.1749 41.5382 43.2028 40.6508 43.2196 39.7644V39.7655ZM40.2354 32.0924C40.3604 32.0934 40.548 32.0422 40.6016 32.1033C41.0448 32.6113 41.5148 33.1106 41.6622 33.8346C41.5271 33.8727 41.4177 33.9033 41.3574 33.9207C40.9689 33.3985 40.5971 32.9111 40.2454 32.4107C40.1941 32.3377 40.2376 32.2003 40.2365 32.0924H40.2354ZM33.9835 41.9275C33.8863 42.1935 33.8461 42.4791 33.7736 42.7866C33.4945 42.888 33.3147 42.7986 33.3549 42.5445C33.4096 42.1968 33.5391 41.8599 33.6374 41.5132C33.9466 41.5797 34.0839 41.6505 33.9835 41.9275ZM35.3846 42.1848C35.3354 42.4257 35.2595 42.6699 35.1434 42.8869C35.0831 42.9992 34.89 43.1376 34.7962 43.1147C34.6533 43.0799 34.5774 42.9218 34.6678 42.7299C34.7661 42.5206 34.794 42.2785 34.8933 42.0703C34.9492 41.9547 35.0887 41.8773 35.2595 41.7192C35.3254 41.9449 35.4069 42.0757 35.3846 42.1848ZM33.5782 34.6642C33.3203 34.6915 33.0646 34.7373 32.7766 34.7787C32.6404 34.5552 32.5589 34.4233 32.7956 34.2369C33.1919 33.9229 33.557 33.5653 33.8953 33.1913C34.0817 32.9853 34.2893 32.8806 34.5472 32.8086C36.146 32.3649 37.7927 32.2483 39.4372 32.1174C39.5309 32.1098 39.675 32.1251 39.7196 32.185C40.1293 32.7269 40.7054 33.1575 40.9164 33.8531C40.6206 34.118 40.2566 34.1148 39.9049 34.1387C38.7796 34.2162 37.6531 34.275 36.53 34.3666C35.5453 34.4473 34.5629 34.5596 33.5793 34.6632L33.5782 34.6642ZM37.3796 39.699C37.0324 39.2967 36.8861 38.8399 36.837 38.3286C36.7845 37.7791 36.8393 37.2481 36.9721 36.7128C37.0904 36.2386 37.6029 35.8951 38.1187 35.857C38.5228 35.8275 38.6959 36.1786 38.8633 36.4348C39.1804 36.9211 39.2596 37.4858 39.311 38.0745C39.2094 38.5368 39.1603 39.0176 38.9939 39.4559C38.707 40.2147 37.9077 40.3084 37.3807 39.6979L37.3796 39.699ZM38.9158 47.2195C38.9392 47.1737 38.9616 47.1279 38.985 47.0821C39.1 47.1192 39.2373 47.1301 39.3277 47.1988C40.8059 48.3392 42.5308 48.5082 44.3137 48.3752C45.4859 48.288 46.6135 47.999 47.6306 47.3896C47.7299 47.3307 47.8114 47.2206 47.9152 47.1988C48.0481 47.1715 48.2658 47.1606 48.3194 47.2326C48.4098 47.3558 48.3473 47.4779 48.1642 47.5924C47.0712 48.2771 45.8644 48.6118 44.595 48.7513C43.2654 48.8963 41.9491 48.8298 40.6708 48.3872C40.0735 48.18 39.5265 47.8966 39.0754 47.455C39.0085 47.3896 38.9683 47.2991 38.9158 47.2195Z" fill="white"/>
<path d="M27.1475 30.2651C28.4303 29.0298 29.8291 27.932 31.3385 26.9704C33.6183 25.5182 36.0789 24.4682 38.7181 23.8283C41.0257 23.2679 43.3735 23.0749 45.7482 23.2319C48.7022 23.4282 51.5178 24.1368 54.2251 25.3186C56.6522 26.3784 58.8639 27.7532 60.9058 29.4016C61.1023 29.5608 61.2385 29.7919 61.4227 30.0154C61.6951 29.8988 61.7866 29.6317 61.7464 29.2806C61.6649 28.5654 61.598 27.8502 61.5288 27.1339C61.2787 24.5784 60.85 22.0577 60.0327 19.609C59.7268 18.691 59.2859 17.8919 58.3905 17.3795C57.5442 16.8954 56.746 16.3307 55.8953 15.8553C55.1105 15.4159 54.31 14.9798 53.4704 14.6593C50.9462 13.6966 48.3115 13.17 45.6086 13.0479C43.0487 12.9324 40.5099 13.1362 38.0214 13.7904C35.3041 14.5056 32.7385 15.5261 30.4309 17.1451C28.6803 18.3738 27.6175 19.9699 27.1955 22.0315C26.6741 24.5805 26.471 27.1612 26.2343 29.7418C26.1829 30.3065 26.347 30.6641 26.8059 30.8375C26.9298 30.6238 27.0001 30.4057 27.1475 30.2629V30.2651Z" fill="#BCCACE"/>
<path d="M51.5324 62.7729C51.4297 61.9803 51.2265 61.2041 51.2355 60.3897C51.2433 59.5796 51.1283 58.7674 51.0613 57.8908C50.9452 57.9377 50.8045 57.9726 50.6862 58.0446C50.1135 58.3923 49.5285 58.6911 48.8687 58.8775C48.1542 59.0792 47.4207 59.1533 46.7039 59.1468C46.0017 59.1402 45.2749 58.9734 44.6609 58.5788C44.0647 58.1961 43.4953 57.772 42.9137 57.3653C41.5829 56.4353 40.2298 55.5326 38.927 54.5667C37.9244 53.8231 36.9855 52.9989 35.9863 52.1845C35.9428 52.3829 35.849 52.5464 35.8914 52.6631C36.1046 53.2518 36.0488 53.87 36.07 54.4642C36.1259 56.0832 36.1326 57.7066 36.0678 59.3256C36.0231 60.4518 35.8769 61.5802 35.6826 62.6923C35.561 63.3922 35.2774 64.066 35.0507 64.7463C34.9447 65.0636 34.7114 65.3656 34.6991 65.6817C34.6846 66.0393 34.4736 66.2127 34.2715 66.4187C34.0873 66.6052 33.8763 66.7665 33.6508 66.9606C34.171 67.4359 34.6165 67.8851 35.1055 68.282C36.3346 69.2806 37.6955 70.0852 39.1045 70.8146C39.4718 71.0043 39.8424 71.2191 40.2399 71.3139C41.0716 71.5124 41.9167 71.6683 42.7652 71.7849C43.5757 71.8961 44.3974 72.0106 45.2135 71.8176C45.6087 71.7239 45.9984 71.6061 46.388 71.4916C46.6749 71.4077 46.9786 71.351 47.2387 71.2158C48.2133 70.711 49.1958 70.2171 50.1313 69.6491C51.3594 68.9045 52.5395 68.0879 53.5063 66.905C53.2919 66.7305 53.1099 66.5605 52.9045 66.4198C52.5651 66.1876 52.5316 65.8082 52.3999 65.4778C52.0471 64.5958 51.6541 63.7215 51.5302 62.774L51.5324 62.7729Z" fill="white"/>
<path d="M60.8087 29.9435C60.418 29.6219 60.0563 29.2904 59.6599 29.0059C58.1762 27.9418 56.6423 26.9584 54.9844 26.1603C53.3421 25.3699 51.6418 24.7441 49.8701 24.3124C47.7265 23.7901 45.5473 23.5786 43.3357 23.6637C40.98 23.7542 38.7036 24.2012 36.4853 24.9752C34.5628 25.6457 32.7688 26.5539 31.0796 27.6638C29.7332 28.548 28.4828 29.5466 27.3083 30.6772C27.391 30.8604 27.4289 31.0741 27.5562 31.206C28.245 31.9234 29.1192 32.3616 30.1106 32.3344C30.8295 32.3148 31.5876 32.1371 32.2474 31.8525C33.4475 31.3335 34.5896 30.6848 35.7529 30.0841C37.3941 29.237 39.0408 28.4073 40.8349 27.8916C42.092 27.5297 43.358 27.256 44.6709 27.1753C46.35 27.0729 47.9599 27.3378 49.4849 28.017C51.2154 28.7878 52.8174 29.7832 54.4172 30.7819C55.3137 31.3412 56.1767 31.9899 57.3289 31.9583C57.9418 31.9419 58.5793 32.0008 59.1196 31.6628C59.8151 31.2278 60.4012 30.6739 60.811 29.9424L60.8087 29.9435Z" fill="#BCCACE"/>
<path d="M58.5514 36.0042C58.0948 36.2255 57.8916 36.473 57.8447 36.9483C57.7643 37.7627 57.6326 38.5728 57.5053 39.5158C57.8202 39.252 58.02 39.071 58.2332 38.9064C59.0292 38.2893 59.8264 37.6744 60.6313 37.0704C60.7295 36.9974 60.8836 36.9952 61.0109 36.9603L61.0924 37.1053C61.0388 37.2034 61.0098 37.3277 60.9294 37.3942C60.4895 37.7573 60.0362 38.1062 59.5886 38.4616C59.0002 38.9271 58.4107 39.3926 57.8257 39.8625C57.5422 40.0904 57.3334 40.3597 57.2631 40.7293C57.0554 41.8261 56.8533 42.9239 56.5262 43.9968C56.3599 44.5408 56.3923 44.555 56.9717 44.7926C57.0822 44.8384 57.1838 44.9071 57.2966 44.9474C57.9139 45.172 58.5548 45.0859 59.1085 44.8504C59.5238 44.6738 59.8666 44.2759 60.1691 43.9183C61.1471 42.7604 61.8393 41.4281 62.3718 40.0348C62.7972 38.9195 62.7815 37.512 61.6796 36.546C60.8568 35.8243 59.6946 35.4514 58.5514 36.0063V36.0042Z" fill="white"/>
<path d="M29.9564 40.8972C29.8638 40.4153 29.6427 40.0762 29.2665 39.7797C28.2818 39.0034 27.3172 38.2032 26.3303 37.4313C26.1863 37.3179 26.049 37.2121 26.1528 37.066C26.2611 36.9134 26.4107 36.9112 26.6016 37.0759C27.1073 37.5087 27.6599 37.8892 28.1869 38.2991C28.6603 38.6665 29.1258 39.0459 29.6929 39.4984C29.5523 38.4627 29.4384 37.5686 29.3022 36.6779C29.2776 36.5166 29.204 36.2909 29.08 36.2255C28.3957 35.8668 27.6879 35.5441 26.8751 35.7817C26.6675 35.8428 26.4765 35.9518 26.2722 36.0227C25.8201 36.1808 25.4706 36.4937 25.1915 36.8382C24.5049 37.6875 24.4212 38.6916 24.7338 39.6794C25.0006 40.5232 25.3635 41.3551 25.8045 42.1259C26.3705 43.1169 26.9622 44.1199 27.9882 44.761C28.082 44.8199 28.178 44.8875 28.284 44.9136C28.9516 45.0739 29.5981 45.1426 30.2545 44.7915C30.7736 44.5146 30.8618 44.4939 30.6843 43.9804C30.3371 42.9752 30.1563 41.9329 29.9587 40.8983L29.9564 40.8972Z" fill="white"/>
<path d="M41.8452 12.6347H46.6905C45.449 11.6796 42.8545 11.6666 41.8452 12.6347Z" fill="#BCCACE"/>
<path d="M57.1357 72.5383C56.8555 72.7858 56.6043 73.066 56.3106 73.2949C55.2389 74.1312 54.1124 74.8965 52.9111 75.5441C52.3619 75.8407 51.7512 76.026 51.1863 76.2975C50.5845 76.5875 49.9459 76.7652 49.3185 76.9832C48.719 77.1915 48.1027 77.3735 47.4965 77.4935C46.4259 77.7061 45.3206 77.7486 44.2288 77.8576C43.1134 77.9699 41.9926 77.9078 40.8918 77.7878C39.7184 77.6592 38.5573 77.3801 37.4063 77.1053C36.1325 76.8023 34.9055 76.3531 33.7132 75.8178C32.5901 75.313 31.5072 74.733 30.4678 74.0821C29.7879 73.6569 29.1437 73.175 28.4783 72.7138C28.0898 72.9101 28.0463 73.0387 28.3477 73.2699C28.849 73.6547 29.3513 74.045 29.8917 74.3721C30.8407 74.9478 31.803 75.4994 32.7944 76.0107C33.8181 76.5384 34.9022 76.9036 35.9583 77.3376C36.6081 77.6036 37.3215 77.7377 38.017 77.8751C39.072 78.0833 40.1304 78.2915 41.1988 78.4093C42.0104 78.4987 42.8377 78.4496 43.6583 78.4583C44.9734 78.4725 46.2684 78.2937 47.5512 78.0375C48.8273 77.7824 50.0587 77.3855 51.2734 76.9146C52.5628 76.4152 53.7384 75.736 54.904 75.0186C55.9779 74.3579 56.8945 73.5163 57.8747 72.7084C57.8011 72.5612 57.7341 72.4249 57.6168 72.1905C57.4114 72.3377 57.2629 72.4249 57.1379 72.5361L57.1357 72.5383Z" fill="black"/>
<path d="M46.59 34.0352C46.906 34.0832 47.2242 34.1355 47.5423 34.1508C48.0938 34.178 48.6498 34.1453 49.1969 34.1998C50.7677 34.3557 52.3351 34.5422 53.9048 34.7166C54.0254 34.7297 54.1504 34.7722 54.2632 34.7493C54.3637 34.7297 54.4954 34.6577 54.53 34.5749C54.5624 34.4975 54.5144 34.3492 54.4496 34.2794C54.1582 33.9665 53.8535 33.6634 53.542 33.368C53.1948 33.0398 52.804 32.8316 52.3083 32.7182C50.8849 32.3922 49.4481 32.2243 47.9878 32.1207C47.8136 32.1393 47.5613 32.0913 47.4776 32.1861C47.0779 32.6386 46.7073 33.1183 46.3612 33.6111C46.2183 33.8139 46.3333 33.9949 46.5911 34.0341L46.59 34.0352Z" fill="black"/>
<path d="M40.9153 33.8542C40.7043 33.1586 40.1282 32.7268 39.7185 32.1861C39.6738 32.1272 39.5298 32.1109 39.436 32.1185C37.7915 32.2493 36.1448 32.3649 34.5461 32.8097C34.2882 32.8817 34.0806 32.9852 33.8941 33.1924C33.5558 33.5663 33.1908 33.9239 32.7945 34.2379C32.5578 34.4254 32.6393 34.5563 32.7755 34.7798C33.0635 34.7383 33.3192 34.6926 33.5771 34.6653C34.5606 34.5617 35.542 34.4494 36.5278 34.3687C37.6509 34.2772 38.7773 34.2183 39.9027 34.1409C40.2544 34.1169 40.6183 34.1202 40.9142 33.8552L40.9153 33.8542Z" fill="black"/>
<path d="M49.0294 35.8526C48.6598 35.8885 48.4991 36.1927 48.3171 36.4675C47.9956 36.9537 47.99 37.4999 47.9375 38.1039C47.9743 38.4572 47.9475 38.8878 48.0759 39.2694C48.297 39.9268 48.7257 40.2016 49.3799 40.0533C49.7483 39.9704 49.8879 39.651 50.0464 39.3632C50.5622 38.4277 50.4528 37.4672 50.1435 36.5078C50.0364 36.1753 49.419 35.8133 49.0294 35.8515V35.8526ZM49.3431 37.3833C49.2917 37.3026 49.2515 37.2186 49.1924 37.151C48.9791 36.9057 49.1924 36.7313 49.266 36.4882C49.5731 36.6604 49.8109 36.8174 49.7986 37.2306C49.64 37.2841 49.5105 37.3277 49.3431 37.3833Z" fill="black"/>
<path d="M39.3098 38.0746C39.2595 37.4858 39.1791 36.92 38.8621 36.4348C38.6946 36.1786 38.5227 35.8276 38.1174 35.857C37.6016 35.8952 37.0881 36.2386 36.9709 36.7128C36.838 37.2471 36.7844 37.7791 36.8358 38.3286C36.8838 38.841 37.0311 39.2978 37.3784 39.699C37.9053 40.3096 38.7047 40.2158 38.9916 39.457C39.1579 39.0176 39.207 38.5368 39.3086 38.0756L39.3098 38.0746ZM38.2737 37.5087C38.0114 37.4706 37.9589 36.9047 38.2134 36.4359C38.372 36.6845 38.516 36.9102 38.7348 37.2536C38.5852 37.3365 38.4323 37.4204 38.2737 37.5087Z" fill="black"/>
<path d="M44.5938 48.7513C45.8631 48.6128 47.07 48.277 48.163 47.5923C48.3472 47.4768 48.4086 47.3557 48.3182 47.2325C48.2646 47.1606 48.0469 47.1715 47.914 47.1987C47.8102 47.2206 47.7276 47.3296 47.6293 47.3895C46.6111 47.999 45.4836 48.2879 44.3124 48.3751C42.5295 48.5081 40.8046 48.3381 39.3265 47.1987C39.2372 47.1301 39.0988 47.1192 38.9838 47.0821C38.9603 47.1279 38.938 47.1737 38.9146 47.2195C38.967 47.2991 39.0072 47.3895 39.0742 47.455C39.5252 47.8954 40.0723 48.18 40.6696 48.3871C41.9467 48.8298 43.2641 48.8963 44.5938 48.7513Z" fill="black"/>
<path d="M43.7543 44.5212C43.7789 44.144 43.8168 43.8125 43.8191 43.4822C43.8269 42.3461 43.8392 41.2101 43.8135 40.0752C43.8046 39.6936 43.9408 39.2662 43.5266 38.8454C43.416 38.9871 43.2988 39.0765 43.2709 39.1866C43.2229 39.372 43.2229 39.5715 43.2196 39.7655C43.2017 40.6519 43.1749 41.5394 43.1816 42.4257C43.1861 43.1006 43.2374 43.7744 43.2687 44.4852C43.4283 44.4972 43.5746 44.5081 43.7543 44.5223V44.5212Z" fill="black"/>
<path d="M46.0061 33.7942C46.2305 33.2687 46.5666 32.8271 46.9517 32.4085C47.0064 32.3485 46.993 32.1218 46.9584 32.1087C46.8457 32.0672 46.6402 32.0367 46.5922 32.0956C46.1725 32.6113 45.6667 33.0866 45.5305 33.9599C45.7605 33.8847 45.9715 33.8749 46.0061 33.7931V33.7942Z" fill="black"/>
<path d="M41.3573 33.9207C41.4187 33.9033 41.5281 33.8727 41.6621 33.8346C41.5148 33.1117 41.0447 32.6113 40.6015 32.1033C40.5479 32.0422 40.3604 32.0935 40.2353 32.0924C40.2353 32.2003 40.1929 32.3377 40.2443 32.4107C40.5959 32.9111 40.9677 33.3974 41.3562 33.9207H41.3573Z" fill="black"/>
<path d="M44.5292 50.2199C43.9129 50.3387 43.3089 50.294 42.7016 50.1556C42.619 50.137 42.5085 50.2351 42.2919 50.3344C43.1962 50.7127 43.9587 50.6974 44.729 50.4903C44.748 50.4456 44.767 50.3998 44.786 50.3551C44.7 50.3071 44.6029 50.2057 44.5303 50.2199H44.5292Z" fill="black"/>
<path d="M34.8933 42.0703C34.7929 42.2785 34.7661 42.5205 34.6678 42.7299C34.5774 42.9217 34.6533 43.0798 34.7962 43.1147C34.89 43.1376 35.0831 42.9981 35.1434 42.8869C35.2606 42.6699 35.3366 42.4257 35.3846 42.1847C35.4069 42.0757 35.3243 41.9449 35.2595 41.7192C35.0887 41.8773 34.948 41.9547 34.8933 42.0703Z" fill="black"/>
<path d="M53.1556 41.7028C53.2505 42.0779 53.3387 42.4267 53.4347 42.8083C53.5576 42.8029 53.6837 42.7974 53.878 42.7898C53.802 42.4202 53.7585 42.0898 53.6636 41.7737C53.581 41.4957 53.3957 41.4564 53.1556 41.7039V41.7028Z" fill="black"/>
<path d="M51.9511 41.8239C51.5659 42.1989 52.0884 42.4889 52.0505 42.8324C52.027 43.0428 52.1967 43.1256 52.3653 43.1354C52.7348 42.961 52.5383 42.6961 52.4669 42.5195C52.3631 42.2622 52.4044 41.8642 51.9522 41.825L51.9511 41.8239Z" fill="black"/>
<path d="M33.6373 41.5132C33.5379 41.861 33.4084 42.1968 33.3548 42.5446C33.3147 42.7986 33.4944 42.888 33.7735 42.7866C33.8461 42.4791 33.8863 42.1935 33.9834 41.9275C34.0839 41.6506 33.9465 41.5797 33.6373 41.5132Z" fill="black"/>
<path d="M49.266 36.4893C49.1923 36.7325 48.9791 36.9069 49.1923 37.1522C49.2515 37.2198 49.2917 37.3038 49.3431 37.3844C49.5094 37.3288 49.6389 37.2852 49.7986 37.2318C49.8108 36.8186 49.573 36.6627 49.266 36.4893Z" fill="white"/>
<path d="M38.2736 37.5087C38.4322 37.4204 38.5862 37.3364 38.7347 37.2536C38.5148 36.909 38.3708 36.6845 38.2133 36.4359C37.9588 36.9047 38.0113 37.4716 38.2736 37.5087Z" fill="white"/>
<path d="M83.8439 1H2.83539C1.82173 1 1 1.82173 1 2.83539V83.8439C1 84.8576 1.82173 85.6793 2.83539 85.6793H83.8439C84.8576 85.6793 85.6793 84.8576 85.6793 83.8439V2.83539C85.6793 1.82173 84.8576 1 83.8439 1Z" stroke="#E1E1E1" stroke-miterlimit="10"/>
<circle cx="44" cy="84.7999" r="10" fill="#FF6D6D"/>
<path fill-rule="evenodd" clip-rule="evenodd" d="M44.8253 84.7999L47.63 87.6046L46.8051 88.4295L44.0004 85.6248L41.1956 88.4296L40.3706 87.6047L43.1754 84.7999L40.3705 81.9949L41.1954 81.17L44.0004 83.9749L46.8052 81.1701L47.6302 81.995L44.8253 84.7999Z" fill="white"/>
<path fill-rule="evenodd" clip-rule="evenodd" d="M48.1013 87.6046L46.8049 88.9009L44.0002 86.0962L41.1954 88.901L39.899 87.6047L42.7039 84.7999L39.8989 81.9949L41.1953 80.6986L44.0002 83.5035L46.8051 80.6987L48.1014 81.995L45.2966 84.7999L48.1013 87.6046ZM44.8252 84.7999L47.63 81.995L46.8051 81.1701L44.0002 83.9749L41.1953 81.17L40.3703 81.9949L43.1753 84.7999L40.3705 87.6047L41.1954 88.4296L44.0002 85.6248L46.8049 88.4295L47.6299 87.6046L44.8252 84.7999Z" fill="white"/>
</svg>
