<svg width="87" height="87" viewBox="0 0 87 87" fill="none" xmlns="http://www.w3.org/2000/svg">
<path d="M75.3848 12.3963H70.2917" stroke="#231F20" stroke-miterlimit="10"/>
<path d="M75.1514 12.1072V16.9324" stroke="#231F20" stroke-miterlimit="10"/>
<path d="M20.333 41.1174C21.2418 41.2179 22.7869 41.1308 23.0872 40.8997C22.0646 40.7836 21.0442 40.7847 20.0115 40.9142C20.1097 41.0337 20.218 41.104 20.333 41.1174Z" fill="black"/>
<path d="M18.76 41.1073C18.8996 41.1107 19.0403 41.0683 19.1798 41.047C19.172 41.0013 19.1642 40.9566 19.1564 40.9108C18.587 40.7322 16.2537 40.7691 15.758 41.0247C16.8309 41.1699 17.7977 41.0805 18.7589 41.1062L18.76 41.1073Z" fill="black"/>
<path d="M25.9866 44.3695C26.2166 44.7368 26.4678 45.0784 26.758 45.3843L27.2213 45.8096C27.2682 45.8476 27.314 45.8844 27.3631 45.9202C27.9772 46.3723 28.666 46.3801 29.3582 46.2238C29.6574 46.1569 30.0057 46.014 30.1854 45.7895C30.3842 45.5417 30.1497 45.2001 30.076 44.902C29.999 44.5883 29.9376 44.2712 29.8594 43.9084L25.6907 43.9173C25.8325 44.0312 25.904 44.2377 25.9866 44.3684V44.3695Z" fill="white"/>
<path d="M28.2484 40.4565C27.4669 39.8078 26.6799 39.1648 25.8939 38.5217C25.8794 38.5094 25.8571 38.5061 25.8381 38.4994C25.6472 38.4257 25.5902 38.2638 25.6941 38.1198C25.7968 37.9769 25.9352 37.9992 26.0982 38.1354C26.5984 38.5552 27.1331 38.9348 27.6445 39.3434C28.1357 39.7364 28.6135 40.1461 29.1739 40.6105C29.1505 40.222 29.1483 39.9117 29.1092 39.6069C29.0299 38.9962 28.9194 38.3889 28.8413 37.7771C28.8022 37.4678 28.6671 37.287 28.3712 37.1552C27.7885 36.8962 27.2213 36.6685 26.5548 36.7935C26.1429 36.8705 25.7242 37.0648 25.3536 37.3338C25.1671 37.546 24.9215 37.7983 24.5944 38.0874C24.2762 38.5262 24.0887 39.0297 24.1255 39.5298C24.1556 39.9429 24.1646 40.3571 24.1847 40.8115H28.0944C28.2194 40.797 28.3545 40.7825 28.5063 40.7657C28.4047 40.6418 28.34 40.5324 28.2484 40.4565Z" fill="white"/>
<path d="M31.6513 40.9633C31.7138 41.0213 31.7652 41.1129 31.8188 41.1129C32.7956 41.1229 33.7725 41.1229 34.7494 41.1196C34.8286 41.1196 34.9068 41.0772 35.0664 41.0325C34.4513 40.7501 32.0811 40.7512 31.6513 40.9633Z" fill="black"/>
<path d="M29.529 24.8433C29.7981 24.7127 30.047 24.5419 30.3138 24.409C30.6488 24.2438 30.9949 24.0987 31.418 23.9077C30.6722 25.4026 30.6164 25.5902 30.8207 25.9687C30.9312 25.8894 31.0831 25.8369 31.1355 25.7342C31.4012 25.2106 31.6904 24.6904 31.869 24.1355C31.9494 23.8865 32.2341 23.5159 31.7563 23.2189C30.9245 23.6007 30.0694 23.9926 29.2153 24.3845C29.1762 24.3431 29.136 24.303 29.097 24.2617C29.3682 23.8073 29.6507 23.3596 29.9008 22.8952C29.9622 22.7813 29.9789 22.5457 29.9097 22.481C29.7981 22.376 29.6496 22.4162 29.5212 22.5937C29.0076 23.3082 28.589 24.0585 28.3903 24.9482C28.8167 25.109 29.1807 25.0119 29.529 24.8433Z" fill="white"/>
<path d="M31.7417 48.8821C32.1715 50.0342 33.0222 50.9184 33.9008 51.7368C34.2123 52.027 34.5327 52.3073 34.8599 52.5785C34.8621 52.5808 34.8643 52.583 34.8677 52.5852C35.8535 53.4013 36.9051 54.136 37.9948 54.8114C38.5742 55.1709 39.167 55.5136 39.7732 55.8262C40.4442 56.1723 41.1966 56.2315 41.929 56.3543C42.9941 56.5318 44.0491 56.4045 45.0974 56.2281C45.7092 56.1254 46.2808 55.9178 46.8457 55.6163C48.8464 54.5479 50.665 53.2317 52.3508 51.7323C53.7474 50.4897 54.6796 48.9524 55.067 47.0925C55.2769 46.0832 55.5951 45.0963 55.8351 44.0926C55.8619 43.9799 55.8965 43.9017 55.9445 43.8515L30.3629 43.9096C30.517 44.5738 30.6465 45.2213 30.824 45.8555C31.1076 46.8714 31.3733 47.8974 31.7417 48.8843V48.8821Z" fill="white"/>
<path d="M56.1031 45.0806C56.0852 45.2347 56.0037 45.3865 56.0093 45.5361C56.0149 45.6712 56.0618 45.8688 56.1567 45.9258C56.9292 46.3846 57.7978 46.475 58.5871 46.1278C59.1576 45.8766 59.6019 45.3385 59.986 44.8105C60.1512 44.5827 60.3879 44.3739 60.4616 44.1194C60.5085 43.9598 60.5799 43.8783 60.6715 43.8403L56.3186 43.8503C56.4202 44.2913 56.1489 44.6698 56.102 45.0818L56.1031 45.0806Z" fill="white"/>
<path d="M61.5166 37.8943C60.8869 37.1597 60.0753 36.6584 59.0315 36.7611C58.5045 36.8125 58.0434 37.0592 57.5924 37.3093C57.4919 37.3651 57.4227 37.5415 57.4048 37.671C57.2764 38.6166 57.1648 39.5634 57.0342 40.6195C57.5712 40.183 58.0323 39.8023 58.5 39.4305C59.0426 38.9984 59.5997 38.5854 60.1311 38.1399C60.2897 38.0071 60.4303 37.9758 60.542 38.1131C60.6659 38.2661 60.5621 38.3855 60.4113 38.5039C59.5807 39.1503 58.7602 39.8101 57.9407 40.471C57.8547 40.5402 57.8012 40.6507 57.7074 40.7769C57.8012 40.7869 57.8871 40.797 57.9697 40.8059H61.8683C61.9174 40.8026 61.9654 40.8003 62.0145 40.797C62.2188 39.7565 62.2322 38.7327 61.5155 37.8954L61.5166 37.8943Z" fill="white"/>
<path d="M55.8553 40.8059H56.1913C56.39 40.7713 56.4816 40.6518 56.514 40.4096C56.6446 39.4316 56.7964 38.4558 56.9315 37.4779C57.0487 36.6327 57.1693 35.7876 57.262 34.9402C57.3379 34.2436 57.3848 33.5425 57.4127 32.8414C57.4171 32.7253 57.2843 32.5522 57.1693 32.4897C55.2513 31.4514 53.4728 30.21 51.7971 28.8189C51.6698 28.7128 51.6419 28.5164 51.4175 28.4829C51.3215 28.4683 51.2489 28.2908 51.1663 28.1881C51.1183 28.235 51.0692 28.2819 51.0212 28.3288C51.5291 28.9361 52.0382 29.5423 52.5462 30.1497C52.5953 30.2088 52.6344 30.2803 52.6936 30.3272C53.0687 30.6197 53.0664 30.8005 52.64 30.9725C51.9221 31.2616 51.1585 31.3163 50.3949 31.3085C49.9405 31.3041 49.4861 31.2337 49.0317 31.1946C47.3504 31.0506 45.8477 30.3897 44.4164 29.5557C44.0045 29.3157 43.6707 28.9406 43.2118 28.551C43.4005 29.2063 43.6829 29.7009 43.9464 30.2021C44.1496 30.5895 44.3695 30.9691 44.5526 31.3666C44.7301 31.7517 44.614 31.9438 44.1786 31.8991C43.5892 31.8388 43.0008 31.7272 42.427 31.5809C41.9112 31.4503 41.3831 31.3018 40.9187 31.054C40.404 30.7793 39.9273 30.4143 39.483 30.0313C38.8723 29.5044 38.371 28.8736 37.9345 28.1915C37.795 27.9749 37.6107 27.9794 37.4879 28.1959C36.9576 29.1326 36.117 29.7299 35.2093 30.2345C34.4881 30.6364 33.7234 30.9423 32.8224 30.8776C32.6371 30.728 32.6248 30.5505 32.8135 30.3049C33.0077 30.0525 33.1473 29.7589 33.3002 29.4776C33.3293 29.4229 33.3114 29.3436 33.3215 29.1862C32.9876 29.4809 32.7018 29.6975 32.4596 29.9532C31.4559 31.0127 30.2725 31.8556 29.1193 32.732C28.9138 32.8882 28.8323 33.0345 28.8569 33.2823C28.9574 34.2916 29.0277 35.3042 29.1427 36.3112C29.2789 37.5113 29.4464 38.707 29.6071 39.9038C29.6362 40.1182 29.6842 40.3303 29.7366 40.5402C29.788 40.7445 29.9398 40.7892 30.1307 40.8104H30.3674C30.4489 40.8048 30.5338 40.7992 30.6208 40.8104L48.6186 40.807C48.9011 40.8037 49.1847 40.8037 49.4716 40.807H52.1454C52.1968 40.8059 52.2492 40.8059 52.3017 40.807H53.3165C53.4829 40.8048 53.6515 40.8048 53.8234 40.807H55.5963C55.6856 40.7947 55.7738 40.7992 55.8586 40.807L55.8553 40.8059Z" fill="white"/>
<path d="M23.641 33.7579C24.0005 32.963 24.3622 32.167 24.7653 31.275C24.83 31.4871 24.8869 31.5965 24.8936 31.7082C24.9271 32.2273 24.9149 32.7509 24.9774 33.2656C25.0901 34.1933 25.2275 35.1189 25.3893 36.0399C25.4686 36.4898 25.4675 36.5467 25.0946 36.8069C24.5085 37.2155 24.0731 37.7469 23.7873 38.4112C23.4669 39.1569 23.6433 39.9228 23.6611 40.6797C23.6667 40.8997 23.8063 41.1207 24.0787 41.1218C24.9617 41.1241 25.8437 41.1163 26.7257 41.0962C26.7893 41.095 26.8496 40.9689 26.9925 40.8126H24.1825C24.1624 40.3582 24.1546 39.944 24.1233 39.5309C24.0865 39.0319 24.274 38.5273 24.5922 38.0885C24.7988 37.8038 25.0611 37.5459 25.3514 37.3349C25.722 37.0659 26.1407 36.8727 26.5526 36.7946C27.218 36.6696 27.7852 36.8973 28.3691 37.1563C28.6649 37.2881 28.8 37.4689 28.8391 37.7782C28.9172 38.39 29.0266 38.9973 29.107 39.608C29.1472 39.9128 29.1483 40.2231 29.1718 40.6116C28.6124 40.1461 28.1335 39.7375 27.6423 39.3445C27.1321 38.9359 26.5973 38.5563 26.096 38.1365C25.933 38.0003 25.7957 37.978 25.6919 38.1209C25.5881 38.2649 25.645 38.4268 25.8359 38.5005C25.8549 38.5072 25.8761 38.5105 25.8917 38.5228C26.6777 39.167 27.4636 39.8089 28.2463 40.4576C28.3378 40.5335 28.4026 40.6429 28.5041 40.7668C28.3523 40.7836 28.2172 40.7981 28.0922 40.8126C27.966 40.826 27.8488 40.8394 27.7338 40.8517C27.7014 41.0783 27.7885 41.1397 27.9683 41.1386C28.8357 41.1341 29.7021 41.143 30.5695 41.1319C30.6834 41.1308 30.7973 41.0415 30.9636 40.9711C30.8453 40.8662 30.7303 40.826 30.6175 40.8115C30.5304 40.8003 30.4467 40.8059 30.3641 40.8115C30.2904 40.8171 30.219 40.8215 30.1498 40.8137C30.1419 40.8137 30.1352 40.8115 30.1274 40.8115C29.9365 40.7891 29.7847 40.7445 29.7333 40.5413C29.6797 40.3314 29.6317 40.1193 29.6038 39.9049C29.4442 38.7081 29.2767 37.5125 29.1394 36.3123C29.0244 35.3053 28.9541 34.2927 28.8536 33.2835C28.829 33.0356 28.9094 32.8894 29.1159 32.7331C30.2692 31.8567 31.4526 31.0138 32.4563 29.9543C32.6996 29.6975 32.9843 29.482 33.3181 29.1873C33.3092 29.3447 33.3271 29.424 33.2969 29.4787C33.144 29.76 33.0044 30.0548 32.8102 30.306C32.6215 30.5516 32.6338 30.7291 32.8191 30.8787C33.7212 30.9434 34.4848 30.6375 35.206 30.2356C36.1137 29.7299 36.9543 29.1337 37.4846 28.1971C37.6074 27.9805 37.7916 27.976 37.9312 28.1926C38.3677 28.8736 38.869 29.5055 39.4797 30.0324C39.924 30.4154 40.4007 30.7804 40.9154 31.0551C41.3809 31.3029 41.9079 31.4514 42.4237 31.582C42.9975 31.7283 43.5859 31.8399 44.1753 31.9002C44.6096 31.9449 44.7268 31.7528 44.5493 31.3677C44.3662 30.9702 44.1463 30.5907 43.9431 30.2033C43.6796 29.702 43.3972 29.2074 43.2085 28.5521C43.6673 28.9417 44.0012 29.3168 44.4131 29.5568C45.8444 30.3908 47.3471 31.0528 49.0284 31.1958C49.4828 31.2348 49.9372 31.3052 50.3915 31.3096C51.1552 31.3174 51.9188 31.2627 52.6367 30.9736C53.0631 30.8017 53.0654 30.6208 52.6903 30.3283C52.6311 30.2825 52.592 30.21 52.5429 30.1508C52.0349 29.5435 51.5269 28.9372 51.0179 28.3299C51.0659 28.283 51.115 28.2361 51.163 28.1892C51.2456 28.2931 51.3182 28.4706 51.4142 28.484C51.6386 28.5175 51.6665 28.714 51.7938 28.82C53.4695 30.2111 55.248 31.4525 57.166 32.4908C57.281 32.5533 57.4138 32.7264 57.4094 32.8425C57.3814 33.5425 57.3346 34.2436 57.2586 34.9413C57.1671 35.7898 57.0454 36.6338 56.9282 37.479C56.7931 38.4569 56.6413 39.4316 56.5106 40.4107C56.4783 40.6529 56.3867 40.7724 56.188 40.807C56.1422 40.8148 56.0931 40.8204 56.035 40.8193C55.9759 40.8193 55.9156 40.8126 55.8519 40.807C55.7671 40.8003 55.6789 40.7947 55.5896 40.807C55.4757 40.8226 55.3596 40.8662 55.2446 40.9722C55.3752 41.047 55.4623 41.1375 55.555 41.143C55.8776 41.162 56.2014 41.1531 56.524 41.1542C57.051 41.1553 57.5779 41.1587 58.1049 41.1564C58.2701 41.1564 58.4499 41.1553 58.365 40.8528C58.2422 40.8394 58.1105 40.8237 57.9676 40.8081C57.8849 40.7992 57.799 40.7891 57.7052 40.7791C57.799 40.6529 57.8515 40.5424 57.9385 40.4732C58.758 39.8123 59.5786 39.1525 60.4092 38.5061C60.5599 38.3888 60.6637 38.2683 60.5398 38.1153C60.427 37.9769 60.2864 38.0093 60.1289 38.1421C59.5975 38.5876 59.0404 39.0006 58.4979 39.4327C58.0301 39.8045 57.5701 40.1852 57.032 40.6217C57.1626 39.5655 57.2743 38.6177 57.4027 37.6732C57.4205 37.5437 57.4897 37.3673 57.5902 37.3115C58.0412 37.0614 58.5023 36.8147 59.0293 36.7633C60.0731 36.6617 60.8848 37.1619 61.5144 37.8965C62.2312 38.7338 62.2178 39.7576 62.0135 40.7981C61.9643 40.8014 61.9163 40.8048 61.8672 40.807C60.9439 40.8561 60.053 40.759 59.1632 40.9477C59.2581 41.0694 59.3653 41.1486 59.4736 41.1509C60.3031 41.1598 61.1326 41.1598 61.961 41.1497C62.297 41.1453 62.527 40.9477 62.5694 40.6083C62.6163 40.2343 62.6219 39.8547 62.6353 39.4774C62.6632 38.6858 62.3975 38.0182 61.8103 37.4711C61.5658 37.2423 61.3626 36.9688 61.1605 36.7377C61.4262 35.6235 61.6897 34.526 61.9599 33.394C62.0938 33.5123 62.2301 33.5815 62.2892 33.6932C62.5293 34.1431 62.7492 34.6042 62.9669 35.0664C63.0919 35.3321 63.2069 35.5922 63.5988 35.4259C63.6546 35.2126 63.7238 34.9882 63.7718 34.7605C63.9761 33.8037 63.8087 32.8525 63.697 31.9058C63.4693 29.9554 62.9055 28.0876 62.1876 26.2701C61.8348 25.3759 61.3715 24.524 60.9752 23.6465C60.5353 22.6719 59.9425 21.7944 59.3385 20.9169C58.3438 19.4711 57.2363 18.1314 55.8464 17.0496C55.507 16.785 55.1508 16.4869 54.7534 16.3641C53.8011 16.0694 52.8265 15.8294 51.8474 15.6418C50.5724 15.3984 49.2841 15.2265 47.9745 15.02C48.9424 14.3412 50.1046 14.0051 51.1407 13.4145C51.1139 13.189 51.0904 12.9925 51.067 12.7927C50.9207 12.7279 50.7968 12.6587 50.6651 12.6174C49.0362 12.1161 47.3761 11.8906 45.6758 12.1117C44.3305 12.2858 43.127 12.805 42.168 13.7763C41.8755 14.0721 41.6656 14.0632 41.324 13.9348C39.3669 13.1991 37.3864 13.1622 35.3958 13.7997C35.2953 13.8321 35.2138 13.9225 35.1334 13.9795C35.2998 14.4305 35.6503 14.5399 36.0299 14.618C36.481 14.7107 36.9409 14.7799 37.3696 15.0557C37.2825 15.1015 37.2491 15.1305 37.2111 15.1372C34.6802 15.5949 32.281 16.4546 29.9667 17.5565C29.5703 17.7451 29.126 17.9427 28.8536 18.2632C28.1782 19.0569 27.5597 19.9043 26.9758 20.7695C26.4477 21.551 25.9386 22.3459 25.4653 23.1665C24.9059 24.1378 24.4582 25.1526 24.024 26.1774C23.5484 27.2972 23.2681 28.4773 23.0359 29.6674C22.8059 30.8485 22.7881 32.0431 22.9522 33.2355C23.027 33.7758 23.0449 33.7736 23.6366 33.7635L23.641 33.7579ZM56.2449 22.5502C56.3655 22.6618 56.4604 22.759 56.5642 22.8472C57.0465 23.2547 57.4317 23.7425 57.7476 24.2851C57.8716 24.4995 57.8559 24.6703 57.5969 24.7183C57.0588 24.0763 56.5318 23.4489 55.9826 22.7936C56.0596 22.7221 56.1422 22.6451 56.2449 22.5502ZM54.0869 23.2915C54.5346 23.6499 54.9823 24.0094 55.469 24.399C55.4087 24.5274 55.3685 24.6145 55.2859 24.7909C54.7087 24.3398 54.1729 23.92 53.6359 23.5003C53.6973 23.1787 53.829 23.0861 54.0869 23.2915ZM45.4637 23.1341C45.5217 23.085 45.7338 23.1307 45.8109 23.2033C46.1793 23.5449 46.5243 23.9111 46.8826 24.265C46.9519 24.3331 47.0423 24.3789 47.1584 24.4593C47.4967 23.8888 47.0936 23.2379 47.4531 22.6127C47.8606 22.8728 48.2212 23.1006 48.5774 23.3339C49.0429 23.6387 49.4951 23.9669 49.9729 24.2505C50.2252 24.4001 50.1984 24.5385 50.0309 24.7897C49.2751 24.4436 48.6142 23.9424 47.8662 23.4478C47.7747 23.9792 47.6876 24.4894 47.5994 24.9985C47.03 25.1113 46.6995 24.7786 46.3769 24.4749C46.0654 24.1835 45.8019 23.8408 45.4994 23.5393C45.3554 23.3964 45.333 23.2468 45.4626 23.1352L45.4637 23.1341ZM37.7258 23.699C37.7325 23.6521 37.8017 23.613 37.8865 23.5226C37.9758 23.6242 38.1321 23.7202 38.1254 23.8039C38.0752 24.4258 37.9937 25.0443 37.9178 25.6639C37.9133 25.6974 37.8698 25.7253 37.7671 25.8481C37.6644 25.7365 37.5003 25.6382 37.507 25.5534C37.5594 24.9338 37.6432 24.3164 37.7258 23.699ZM35.7966 25.2173C35.9629 24.6178 36.0009 23.977 36.4274 23.4054C36.5546 23.4802 36.6384 23.5293 36.6975 23.5639C36.5446 24.1645 36.3972 24.7317 36.2554 25.2999C36.2141 25.4652 36.1628 25.6349 35.9551 25.5891C35.7653 25.5478 35.7419 25.4127 35.7955 25.2173H35.7966ZM29.5212 22.5937C29.6496 22.4151 29.7981 22.376 29.9097 22.481C29.9789 22.5457 29.9622 22.7813 29.9008 22.8952C29.6507 23.3607 29.3671 23.8084 29.097 24.2617C29.136 24.303 29.1762 24.3432 29.2153 24.3845C30.0694 23.9926 30.9245 23.6008 31.7563 23.2189C32.2341 23.5159 31.9494 23.8866 31.869 24.1355C31.6904 24.6904 31.4013 25.2106 31.1355 25.7342C31.0831 25.8369 30.9312 25.8894 30.8207 25.9687C30.6164 25.5913 30.6722 25.4027 31.418 23.9078C30.9949 24.0987 30.6488 24.2438 30.3139 24.409C30.0459 24.5419 29.797 24.7127 29.529 24.8433C29.1807 25.0119 28.8167 25.109 28.3903 24.9483C28.5879 24.0585 29.0077 23.3083 29.5212 22.5937Z" fill="black"/>
<path d="M72.0713 78.5074C71.3478 77.8532 70.5272 77.3072 69.7357 76.7312C68.1995 75.6147 66.5863 74.6167 64.963 73.632C63.3699 72.664 61.7901 71.6749 60.2216 70.6679C59.5796 70.2559 58.9221 69.8384 58.3795 69.3114C57.5466 68.5031 56.7986 67.6078 56.0383 66.728C55.9122 66.5829 55.8162 66.4858 55.6242 66.4355C54.577 66.1609 53.5365 65.8617 52.4915 65.577C52.2905 65.5223 52.0259 65.5614 51.8931 65.4419C51.7479 65.3124 51.691 65.0568 51.6497 64.8446C51.3058 63.0785 51.1819 61.2888 51.1328 59.4959C51.1027 58.4074 51.1295 57.3166 51.1551 56.227C51.1685 55.6654 51.2344 55.1039 51.2779 54.5144C51.6062 54.5903 51.8797 54.6439 52.1476 54.7176C53.1669 55.0001 54.1929 54.8795 55.2133 54.7444C55.5739 54.6964 55.9356 54.5903 56.2717 54.4497C56.7506 54.2498 56.7808 54.069 56.524 53.6202C56.3688 53.3489 56.2438 53.0608 56.083 52.736C56.2427 52.736 56.3431 52.7136 56.4302 52.7393C57.0152 52.9112 57.6025 53.0765 58.1796 53.2752C58.8607 53.5096 59.5249 53.5398 60.2115 53.2049C60.2316 52.9023 60.2272 52.6098 60.082 52.2972C59.6355 51.3371 59.2056 50.368 58.8171 49.3833C58.5458 48.6934 58.3382 47.9767 58.1327 47.2622C58.0155 46.8558 58.097 46.7787 58.4945 46.6671C58.7166 46.6046 58.9723 46.5443 59.1308 46.3958C59.5874 45.9671 60.0295 45.5172 60.4236 45.0315C60.7184 44.6698 60.9283 44.2389 61.1761 43.8392C60.9818 43.8202 60.8088 43.7834 60.6748 43.8403C60.5844 43.8783 60.5118 43.9598 60.465 44.1194C60.3901 44.374 60.1546 44.5827 59.9894 44.8105C59.6042 45.3386 59.1599 45.8778 58.5905 46.1279C57.8012 46.4751 56.9326 46.3846 56.16 45.9258C56.064 45.8689 56.0183 45.6713 56.0127 45.5362C56.0071 45.3855 56.0886 45.2347 56.1065 45.0807C56.1533 44.6687 56.4246 44.2914 56.323 43.8493C56.3208 43.8414 56.3208 43.8347 56.3186 43.8269C56.1422 43.7644 56.0272 43.7666 55.9468 43.8504C55.8999 43.9006 55.8642 43.9799 55.8374 44.0915C55.5962 45.0952 55.2792 46.0821 55.0693 47.0913C54.6819 48.9513 53.7497 50.4886 52.353 51.7312C50.6673 53.2305 48.8486 54.5479 46.848 55.6152C46.2831 55.9166 45.7115 56.1243 45.0997 56.227C44.0514 56.4034 42.9963 56.5307 41.9313 56.3532C41.1989 56.2303 40.4476 56.1723 39.7755 55.8251C39.1693 55.5125 38.5764 55.1698 37.997 54.8103C36.9063 54.1337 35.8557 53.3991 34.8699 52.5841C34.8677 52.5819 34.8655 52.5797 34.8621 52.5774C34.535 52.3061 34.2146 52.0259 33.9031 51.7356C33.0245 50.9173 32.1738 50.0331 31.744 48.881C31.3755 47.894 31.1098 46.8681 30.8263 45.8521C30.6499 45.218 30.5192 44.5705 30.3652 43.9062C30.3607 43.8861 30.3562 43.866 30.3518 43.8459C30.1832 43.856 30.0526 43.8649 29.8561 43.8772C29.8583 43.8872 29.8606 43.8973 29.8628 43.9084C29.9398 44.2702 30.0023 44.5883 30.0794 44.902C30.1531 45.2001 30.3875 45.5418 30.1888 45.7896C30.009 46.014 29.6607 46.1569 29.3615 46.2239C28.6693 46.3802 27.9805 46.3713 27.3665 45.9202C27.3173 45.8845 27.2716 45.8465 27.2247 45.8097C27.0595 45.6768 26.9043 45.5351 26.7614 45.3843C26.4711 45.0784 26.2199 44.7379 25.9899 44.3695C25.9084 44.2389 25.8359 44.0324 25.6941 43.9185C25.5791 43.8258 25.4172 43.7957 25.1671 43.9196C25.2174 44.0469 25.2486 44.1976 25.3301 44.3126C25.6505 44.7614 25.9475 45.237 26.3271 45.6311C26.7189 46.0386 27.0662 46.532 27.6791 46.6716C28.1368 46.7754 28.235 46.9105 28.1134 47.3213C27.9437 47.894 27.7661 48.4668 27.5451 49.0194C27.1008 50.128 26.6308 51.2277 26.154 52.324C26.019 52.6332 25.9709 52.9257 26.0837 53.2473C27.5172 53.8144 28.7586 52.9771 30.1832 52.6824C29.9867 53.0754 29.8449 53.3746 29.6897 53.6659C29.4999 54.0243 29.529 54.2431 29.8684 54.4162C30.0861 54.5267 30.3417 54.5658 30.5829 54.6283C31.6904 54.9186 32.8079 54.9811 33.9344 54.7533C34.2771 54.6841 34.6165 54.6004 35.0229 54.5077C35.043 55.8284 35.072 57.0855 35.0787 58.3415C35.0832 59.3976 35.1155 60.4582 35.034 61.5099C34.9503 62.585 34.7516 63.6523 34.5841 64.7196C34.545 64.9708 34.4635 65.2287 34.3407 65.4509C34.2135 65.6786 33.95 65.5525 33.7457 65.5792C33.7066 65.5837 33.6731 65.6172 33.634 65.6261C33.01 65.7679 32.3848 65.9064 31.7607 66.0504C30.9267 66.2435 30.1586 66.5271 29.7087 67.3477C29.5658 67.6067 29.3258 67.8154 29.1192 68.0365C28.6247 68.5612 28.187 69.1674 27.6121 69.5827C26.3371 70.5038 25.003 71.3467 23.6722 72.1884C21.8569 73.3361 20.0104 74.4347 18.1996 75.5913C17.2729 76.183 16.4055 76.8662 15.4945 77.4825C14.4339 78.2004 13.5307 79.0734 12.8541 80.1563C12.0503 81.4424 11.2644 82.7364 10.6358 84.1274C10.4103 84.6265 10.1859 85.1255 9.96484 85.6257H10.5298C10.6481 85.3499 10.7698 85.0753 10.8948 84.8018C11.5156 83.4475 12.2155 82.129 13.0249 80.8753C13.3889 80.3126 13.7875 79.7701 14.2072 79.2487C14.445 78.9539 14.7342 78.6882 15.0401 78.4627C16.1398 77.6489 17.2439 76.8406 18.3692 76.0635C19.1865 75.4986 20.0361 74.9795 20.8801 74.4537C22.3292 73.5505 23.7883 72.6652 25.2352 71.7586C26.163 71.177 27.103 70.6109 27.9827 69.9623C28.4885 69.5894 28.8993 69.0826 29.3236 68.6092C29.7411 68.1448 30.0972 67.6245 30.5271 67.1735C30.7247 66.967 31.016 66.804 31.2951 66.7292C32.1581 66.4969 33.0345 66.3161 33.9065 66.1174C33.9567 66.1062 34.0136 66.1207 34.0739 66.1229C33.8886 66.6934 33.0937 67.1545 31.6971 67.5162C31.5642 67.7205 31.6278 67.8891 31.7875 68.0532C32.9832 69.2746 34.0884 70.5719 35.5844 71.4907C36.5926 72.1103 37.604 72.7165 38.6524 73.2636C39.3144 73.6085 39.9965 73.8966 40.7602 73.9736C41.3943 74.0372 42.0206 74.1835 42.6514 74.2884C43.9129 74.4983 45.1332 74.3063 46.3054 73.8385C47.6965 73.2837 49.0049 72.5658 50.2698 71.762C51.3795 71.0553 52.4312 70.2917 53.2819 69.2724C53.5621 68.9363 53.9004 68.6483 54.2085 68.3346C54.3358 68.2051 54.4698 68.0767 54.568 67.9271C54.7098 67.7105 54.6451 67.5542 54.4061 67.4615C53.8703 67.2528 53.3277 67.0585 52.8007 66.8296C52.5093 66.7035 52.2168 66.545 52.1342 66.1408C52.4513 66.0593 52.7081 66.2391 52.9805 66.2938C53.6302 66.4244 54.2833 66.5427 54.9208 66.7225C55.2736 66.8218 55.5773 66.9937 55.8441 67.3287C56.4648 68.1079 57.1916 68.8023 57.8816 69.5258C58.6753 70.3575 59.6946 70.8778 60.638 71.5018C61.1002 71.8066 61.5602 72.1159 62.0291 72.4095C62.9769 73.0023 63.9303 73.584 64.8804 74.1734C66.5394 75.2017 68.2363 76.1718 69.7603 77.4044C70.0204 77.6142 70.276 77.8364 70.563 78.0028C71.9875 78.8311 72.807 80.1775 73.6264 81.5284C74.4235 82.8413 75.0979 84.2156 75.694 85.6279H76.3181C75.5031 83.7211 74.5542 81.8723 73.3864 80.1485C72.9956 79.5713 72.5915 78.9752 72.0791 78.5118L72.0713 78.5074ZM52.305 68.0488C52.4915 68.291 52.7728 68.4596 53.0329 68.6784C52.3452 69.557 51.5291 70.2492 50.6393 70.8577C50.0309 71.273 49.4291 71.7084 48.7816 72.0522C47.7858 72.5814 46.8268 73.1776 45.6981 73.4612C45.0818 73.6163 44.4711 73.7704 43.8437 73.8274C43.4775 73.8608 43.0968 73.8095 42.7295 73.7503C41.9034 73.6175 41.0861 73.4333 40.2589 73.3127C39.263 73.1687 38.4369 72.6261 37.6096 72.1471C36.4028 71.4471 35.2171 70.6902 34.1822 69.7312C33.8473 69.4197 33.4833 69.1406 33.0904 68.8113C33.2857 68.6405 33.346 68.5668 33.423 68.5232C34.1476 68.1113 34.2537 67.322 34.5473 66.6577C35.1479 65.2968 35.3734 63.8298 35.494 62.3751C35.6414 60.5855 35.6503 58.7803 35.6291 56.9828C35.6179 56.0316 35.638 55.0648 35.427 54.1203C35.4002 54.002 35.4739 53.8602 35.5208 53.6358C36.2733 54.2621 36.9721 54.8482 37.6755 55.4288C38.8477 56.3967 40.0512 57.32 41.3306 58.1472C42.3153 58.7836 43.2375 59.516 44.2054 60.178C44.8005 60.5844 45.5183 60.7429 46.206 60.7463C47.1505 60.7496 48.1051 60.6547 49.0049 60.2673C49.437 60.082 49.8422 59.8688 50.2252 59.6019C50.3267 59.5316 50.4641 59.5115 50.5835 59.4691C50.6516 60.571 50.6963 61.6249 50.7867 62.6754C50.9218 64.2485 51.288 65.7701 51.9121 67.2237C52.0326 67.504 52.1219 67.811 52.3039 68.0465L52.305 68.0488Z" fill="black"/>
<path d="M67.4058 41.1553C68.2933 41.1565 69.1809 41.1587 70.0684 41.1498C70.1466 41.1498 70.2236 41.0727 70.3174 41.0225C70.2537 40.9421 70.218 40.8561 70.1812 40.855C69.1563 40.8472 68.1314 40.8494 67.0842 40.8494C67.0664 41.1743 67.2472 41.1542 67.4069 41.1542L67.4058 41.1553Z" fill="black"/>
<path d="M48.6164 40.807C48.2022 40.8115 47.7914 40.8204 47.3783 40.8294C47.3906 40.9466 47.395 41.0526 47.4029 41.0538C48.2592 41.0928 49.1166 41.1386 49.974 41.1442C50.1805 41.1453 50.4641 41.2726 50.6862 40.8461C50.2709 40.8238 49.8668 40.8115 49.4682 40.8081C49.1813 40.8048 48.8977 40.8059 48.6153 40.8081L48.6164 40.807Z" fill="black"/>
<path d="M63.0975 40.9856C63.1634 41.0403 63.2292 41.1419 63.2951 41.143C64.2217 41.1531 65.1484 41.1542 66.075 41.143C66.1453 41.143 66.2145 41.0213 66.3831 40.8639H63.1455C63.1288 40.9052 63.1131 40.9454 63.0964 40.9867L63.0975 40.9856Z" fill="black"/>
<path d="M43.713 41.1297C44.6196 41.1431 45.525 41.1431 46.4315 41.1274C46.4896 41.1274 46.5465 40.9756 46.6403 40.8416H43.4619C43.5858 40.9901 43.6483 41.1297 43.713 41.1297Z" fill="black"/>
<path d="M53.3132 40.807C53.1871 40.8081 53.0631 40.8115 52.9381 40.8171C52.7271 40.826 52.5127 40.8104 52.2984 40.807C52.2459 40.807 52.1946 40.807 52.1421 40.807C51.8898 40.8126 51.6386 40.8472 51.3952 40.9734C51.508 41.0783 51.6252 41.1408 51.7413 41.1397C52.6579 41.1308 53.5745 41.1096 54.4899 41.0839C54.5033 41.0839 54.5134 40.9767 54.548 40.8115C54.2945 40.8115 54.0545 40.8081 53.8189 40.8059C53.647 40.8048 53.4784 40.8037 53.3121 40.8059L53.3132 40.807Z" fill="black"/>
<path d="M39.5154 40.9387C39.5868 41.0001 39.6572 41.114 39.7297 41.1162C40.6765 41.1308 41.6243 41.1341 42.571 41.1241C42.638 41.1241 42.7039 40.9979 42.8524 40.8461H39.6013C39.5734 40.8773 39.5444 40.9075 39.5165 40.9387H39.5154Z" fill="black"/>
<path d="M38.6602 40.8506C37.6811 40.8427 36.702 40.8439 35.7218 40.8439C35.6202 41.1509 35.8379 41.133 36.0165 41.1352C36.7958 41.1419 37.575 41.1475 38.3543 41.1419C38.4805 41.1419 38.6055 41.0828 38.7495 41.0459C38.7071 40.9488 38.6836 40.8506 38.6602 40.8506Z" fill="black"/>
<path d="M46.378 24.4727C46.7017 24.7763 47.0322 25.109 47.6005 24.9963C47.6875 24.4872 47.7757 23.977 47.8673 23.4456C48.6153 23.9401 49.2762 24.4414 50.032 24.7875C50.1995 24.5363 50.2263 24.3979 49.974 24.2483C49.495 23.9658 49.044 23.6365 48.5784 23.3317C48.2223 23.0983 47.8606 22.8717 47.4542 22.6105C47.0947 23.2357 47.4977 23.8877 47.1595 24.457C47.0434 24.3766 46.9529 24.3309 46.8837 24.2628C46.5253 23.91 46.1804 23.5427 45.8119 23.2011C45.7338 23.1285 45.5217 23.0827 45.4647 23.1318C45.3352 23.2435 45.3576 23.3931 45.5016 23.536C45.8052 23.8374 46.0687 24.179 46.3791 24.4715L46.378 24.4727Z" fill="white"/>
<path d="M57.7476 24.284C57.4317 23.7414 57.0465 23.2536 56.5642 22.8461C56.4604 22.759 56.3655 22.6619 56.2449 22.5491C56.1422 22.6451 56.0596 22.721 55.9825 22.7925C56.5318 23.4478 57.0588 24.0752 57.5969 24.7172C57.8559 24.6692 57.8715 24.4973 57.7476 24.284Z" fill="white"/>
<path d="M35.9562 25.5902C36.1639 25.636 36.2152 25.4652 36.2565 25.3011C36.3983 24.7328 36.5457 24.1657 36.6986 23.5651C36.6395 23.5304 36.5557 23.4813 36.4285 23.4065C36.0009 23.9781 35.9629 24.6201 35.7977 25.2185C35.7441 25.4138 35.7664 25.5489 35.9573 25.5902H35.9562Z" fill="white"/>
<path d="M37.7671 25.8493C37.8687 25.7265 37.9133 25.6986 37.9178 25.6651C37.9937 25.0455 38.0752 24.427 38.1255 23.8051C38.1322 23.7214 37.977 23.6254 37.8866 23.5238C37.8017 23.6142 37.7325 23.6533 37.7258 23.7002C37.6432 24.3175 37.5594 24.9349 37.507 25.5545C37.5003 25.6394 37.6644 25.7387 37.7671 25.8493Z" fill="white"/>
<path d="M55.469 24.399C54.9823 24.0083 54.5346 23.6488 54.0869 23.2915C53.829 23.085 53.6973 23.1777 53.6359 23.5003C54.174 23.9212 54.7099 24.3399 55.2859 24.7909C55.3685 24.6145 55.4087 24.5274 55.469 24.399Z" fill="white"/>
<path d="M70.5551 77.9983C70.2682 77.8319 70.0125 77.6097 69.7524 77.3999C68.2285 76.1673 66.5315 75.1972 64.8725 74.1689C63.9225 73.5806 62.9691 72.9978 62.0212 72.405C61.5523 72.1114 61.0923 71.8021 60.6301 71.4973C59.6868 70.8733 58.6675 70.353 57.8737 69.5213C57.1838 68.799 56.457 68.1034 55.8363 67.3242C55.5694 66.9892 55.2658 66.8173 54.913 66.718C54.2766 66.5393 53.6224 66.4199 52.9726 66.2892C52.7002 66.2345 52.4435 66.0537 52.1264 66.1363C52.209 66.5404 52.5015 66.699 52.7929 66.8251C53.3198 67.054 53.8624 67.2483 54.3983 67.457C54.6372 67.5497 54.702 67.7049 54.5602 67.9226C54.4619 68.0722 54.328 68.2006 54.2007 68.3301C53.8926 68.6438 53.5543 68.9318 53.2741 69.2679C52.4245 70.2883 51.3728 71.0519 50.262 71.7575C48.9971 72.5624 47.6886 73.2792 46.2976 73.834C45.1253 74.3018 43.9051 74.4938 42.6435 74.2839C42.0127 74.179 41.3876 74.0327 40.7523 73.9691C39.9887 73.8932 39.3065 73.604 38.6445 73.2591C37.5973 72.7131 36.5858 72.1058 35.5766 71.4862C34.0806 70.5662 32.9753 69.2701 31.7796 68.0487C31.62 67.8857 31.5564 67.7171 31.6892 67.5117C33.0859 67.15 33.8796 66.69 34.0661 66.1184C34.0069 66.1162 33.95 66.1006 33.8986 66.1129C33.0267 66.3105 32.1503 66.4924 31.2873 66.7247C31.0093 66.7995 30.7168 66.9624 30.5192 67.169C30.0894 67.62 29.7321 68.1403 29.3157 68.6047C28.8915 69.0781 28.4795 69.5849 27.9749 69.9578C27.0952 70.6053 26.1551 71.1725 25.2274 71.7541C23.7805 72.6607 22.3213 73.546 20.8722 74.4492C20.0282 74.975 19.1786 75.4952 18.3614 76.059C17.2361 76.8361 16.1319 77.6443 15.0322 78.4582C14.7275 78.6837 14.4372 78.9494 14.1994 79.2442C13.7796 79.7655 13.3811 80.3092 13.0171 80.8708C12.2066 82.1234 11.5077 83.4419 10.887 84.7973C10.7619 85.0708 10.6403 85.3454 10.5219 85.6212H75.6828C75.0867 84.2089 74.4123 82.8346 73.6152 81.5217C72.7958 80.1708 71.9763 78.8244 70.5518 77.996L70.5551 77.9983ZM54.4273 77.008C53.5722 77.5617 52.708 78.0954 51.7848 78.5207C51.1049 78.8333 50.3982 79.0868 49.6971 79.3491C48.7135 79.7164 47.6998 79.9498 46.6649 80.1518C45.678 80.345 44.6866 80.4856 43.6963 80.5269C42.7965 80.5649 41.8832 80.6163 40.9756 80.4432C40.3738 80.3282 39.7386 80.3907 39.1357 80.2791C37.6431 80.0045 36.1683 79.6405 34.7482 79.0901C33.5972 78.6447 32.4863 78.1211 31.3978 77.5327C30.2278 76.9008 29.1494 76.1439 28.0787 75.3702C27.909 75.2474 27.7706 75.0811 27.5752 74.8935C27.746 74.7752 27.8532 74.7004 27.9626 74.6244C28.8837 75.272 29.7411 75.9865 30.7012 76.5168C31.658 77.0448 32.6337 77.5506 33.6474 77.9882C34.9369 78.5453 36.2531 78.9885 37.6107 79.3167C38.6155 79.5601 39.6236 79.7957 40.673 79.8057C41.267 79.8113 41.8609 79.9955 42.4526 79.9777C43.5288 79.9464 44.604 79.8359 45.678 79.7388C46.6459 79.6506 47.5859 79.4049 48.5137 79.1392C49.5765 78.8356 50.617 78.4526 51.605 77.9491C52.3061 77.5919 53.0195 77.2469 53.6804 76.8227C54.3347 76.404 54.9431 75.9083 55.5493 75.4182C55.978 75.0721 56.3654 74.6747 56.7819 74.3118C56.8678 74.237 56.9984 74.2136 57.1648 74.141C57.2552 74.3464 57.3189 74.4905 57.3858 74.6412C56.4157 75.474 55.489 76.3192 54.4273 77.0069V77.008Z" fill="#BCCACE"/>
<path d="M50.7879 62.6766C50.6974 61.6271 50.6528 60.5732 50.5847 59.4702C50.4652 59.5126 50.3279 59.5327 50.2263 59.6031C49.8422 59.8699 49.437 60.0831 49.006 60.2685C48.1062 60.6559 47.1528 60.7508 46.2072 60.7474C45.5195 60.7452 44.8016 60.5866 44.2066 60.1791C43.2375 59.5171 42.3165 58.7847 41.3318 58.1484C40.0524 57.3211 38.8489 56.3978 37.6766 55.4299C36.9733 54.8494 36.2733 54.2621 35.5219 53.6369C35.475 53.8613 35.4014 54.0031 35.4282 54.1215C35.6392 55.0659 35.618 56.0328 35.6302 56.984C35.6526 58.7814 35.6436 60.5866 35.4951 62.3763C35.3746 63.8321 35.1502 65.299 34.5484 66.6588C34.2548 67.3242 34.1487 68.1135 33.4242 68.5244C33.3472 68.5679 33.2869 68.6416 33.0915 68.8124C33.4845 69.1418 33.8484 69.4209 34.1833 69.7323C35.2172 70.6925 36.4028 71.4494 37.6108 72.1483C38.438 72.6283 39.2653 73.1698 40.26 73.3138C41.0873 73.4333 41.9056 73.6186 42.7307 73.7515C43.098 73.8106 43.4787 73.862 43.8448 73.8285C44.4723 73.7716 45.083 73.6175 45.6992 73.4623C46.8268 73.1787 47.7858 72.5826 48.7828 72.0534C49.4303 71.7084 50.0332 71.2741 50.6405 70.8588C51.5303 70.2504 52.3453 69.5571 53.0341 68.6796C52.7728 68.4607 52.4915 68.291 52.3062 68.0499C52.1253 67.8143 52.0349 67.5073 51.9143 67.2271C51.2902 65.7724 50.9241 64.2518 50.789 62.6788L50.7879 62.6766Z" fill="white"/>
<path d="M56.782 74.313C56.3655 74.6758 55.9781 75.0733 55.5494 75.4193C54.9432 75.9095 54.3348 76.404 53.6805 76.8238C53.0196 77.2469 52.3062 77.593 51.6051 77.9503C50.6171 78.4538 49.5766 78.8367 48.5138 79.1404C47.5849 79.405 46.6449 79.6517 45.6781 79.7399C44.6041 79.837 43.5289 79.9475 42.4527 79.9788C41.8621 79.9955 41.2671 79.8125 40.6731 79.8069C39.6237 79.7968 38.6156 79.5601 37.6108 79.3179C36.2544 78.9897 34.9381 78.5464 33.6475 77.9893C32.6338 77.5517 31.6581 77.046 30.7013 76.5179C29.7423 75.9876 28.8849 75.2731 27.9627 74.6256C27.8533 74.7015 27.7461 74.7763 27.5753 74.8946C27.7707 75.0822 27.9091 75.2485 28.0788 75.3713C29.1506 76.145 30.2279 76.902 31.3979 77.5338C32.4864 78.1222 33.5984 78.6458 34.7483 79.0913C36.1684 79.6416 37.6421 80.0056 39.1358 80.2802C39.7387 80.3908 40.3739 80.3294 40.9757 80.4443C41.8833 80.6174 42.7966 80.566 43.6964 80.5281C44.6867 80.4868 45.6781 80.3472 46.665 80.153C47.6988 79.9498 48.7136 79.7164 49.6972 79.3503C50.3983 79.0879 51.1061 78.8345 51.7849 78.5219C52.7081 78.0976 53.5723 77.5629 54.4274 77.0091C55.4891 76.3214 56.4169 75.4763 57.3859 74.6434C57.319 74.4927 57.2553 74.3487 57.1649 74.1433C56.9974 74.2147 56.8679 74.2393 56.782 74.3141V74.313Z" fill="black"/>
<path d="M83.8439 1H2.83539C1.82173 1 1 1.82173 1 2.83539V83.8439C1 84.8576 1.82173 85.6793 2.83539 85.6793H83.8439C84.8576 85.6793 85.6793 84.8576 85.6793 83.8439V2.83539C85.6793 1.82173 84.8576 1 83.8439 1Z" stroke="#E1E1E1" stroke-miterlimit="10"/>
<path d="M11.3872 12.3963H16.4803" stroke="#231F20" stroke-miterlimit="10"/>
<path d="M11.6205 12.1072V16.9324" stroke="#231F20" stroke-miterlimit="10"/>
<path d="M11.3413 67.629H16.4344" stroke="#231F20" stroke-miterlimit="10"/>
<path d="M11.5748 67.9182V63.093" stroke="#231F20" stroke-miterlimit="10"/>
<path d="M75.339 67.6291H70.2459" stroke="#231F20" stroke-miterlimit="10"/>
<path d="M75.1057 67.9183V63.0931" stroke="#231F20" stroke-miterlimit="10"/>
</svg>
