<svg width="100" height="100" viewBox="0 0 100 100" fill="none" xmlns="http://www.w3.org/2000/svg">
<circle cx="50" cy="50" r="50" fill="#EEEEEE"/>
<path fill-rule="evenodd" clip-rule="evenodd" d="M62.6 40.51H63.48C67.68 40.51 71.1 43.93 71.1 48.13V65.86C71.1 70.06 67.68 73.48 63.48 73.48H35.62C31.42 73.48 28 70.06 28 65.86V48.13C28 43.93 31.42 40.51 35.62 40.51H36.66V35.67C36.66 30.34 41 26 46.33 26H52.93C58.26 26 62.6 30.34 62.6 35.67V40.51ZM46.33 28.6C42.43 28.6 39.26 31.77 39.26 35.67V40.51H60V35.67C60 31.77 56.83 28.6 52.93 28.6H46.33ZM63.48 70.88C66.25 70.88 68.5 68.63 68.5 65.86V48.13C68.5 45.36 66.25 43.11 63.48 43.11H35.62C32.85 43.11 30.6 45.36 30.6 48.13V65.86C30.6 68.63 32.85 70.88 35.62 70.88H63.48ZM45.3601 54.15C45.3601 51.7517 47.3074 49.8028 49.7051 49.8001C52.1028 49.8028 54.0501 51.7517 54.0501 54.15C54.0501 55.78 53.1501 57.18 51.8201 57.93C51.8301 57.99 51.8401 58.05 51.8401 58.12V61.73C51.8401 62.91 50.8701 63.8801 49.6901 63.8801H49.5601C48.3801 63.8801 47.4101 62.91 47.4101 61.73V58.12C47.4101 58.06 47.419 58 47.4279 57.9401C47.4323 57.91 47.4368 57.8801 47.4401 57.85C46.2001 57.08 45.3601 55.72 45.3601 54.15ZM49.7051 49.8001C49.7068 49.8001 49.7084 49.8 49.7101 49.8H49.7001C49.7018 49.8 49.7034 49.8001 49.7051 49.8001Z" fill="black"/>
</svg>
