<svg width="100" height="24" viewBox="0 0 100 24" fill="none" xmlns="http://www.w3.org/2000/svg">
<path fill-rule="evenodd" clip-rule="evenodd" d="M19.9139 9.68784L31.4855 0H22.2282C20.1292 0 18.9989 1.07643 18.9989 1.07643L7.85791 10.4413V0H0V23.7352H7.85791V19.8601L13.8321 14.8547L20.183 22.4435C20.183 22.4435 21.1518 23.789 23.3584 23.789H31.7546L19.9139 9.68784ZM88.1593 0H79.0097C72.4435 0 67.169 5.32831 67.169 11.8407C67.169 18.3531 72.4973 23.6814 79.0097 23.6814H88.1593C94.7255 23.6814 100 18.3531 100 11.8407C100 5.32831 94.6717 0 88.1593 0ZM88.1593 15.8773H78.9559C76.7492 15.8773 74.9193 14.0474 74.9193 11.8407C74.9193 9.63402 76.7492 7.80409 78.9559 7.80409H88.1593C90.366 7.80409 92.1959 9.63402 92.1959 11.8407C92.1959 14.1012 90.366 15.8773 88.1593 15.8773ZM33.6921 7.85791V0H65.4467V7.85791H53.4984V23.7352H45.6405V7.85791H33.6921Z" fill="#DA0000"/>
</svg>
