<svg width="60" height="60" viewBox="0 0 60 60" fill="none" xmlns="http://www.w3.org/2000/svg">
<g id="Group 5">
<circle id="Ellipse 42" cx="30" cy="30" r="30" fill="#FF6D6D"/>
<g id="icon_areyousure">
<path id="?" d="M28.62 34.03C28.48 34.03 28.37 33.99 28.29 33.91C28.21 33.83 28.17 33.72 28.17 33.58V32.23C28.17 31.33 28.4 30.59 28.86 30.01C29.32 29.43 29.99 28.81 30.87 28.15C31.69 27.53 32.31 26.97 32.73 26.47C33.15 25.97 33.36 25.33 33.36 24.55C33.36 23.65 33.06 22.94 32.46 22.42C31.88 21.88 31.11 21.61 30.15 21.61C29.17 21.61 28.38 21.89 27.78 22.45C27.18 22.99 26.88 23.71 26.88 24.61V25.24C26.88 25.52 26.73 25.66 26.43 25.66L24.45 25.6C24.31 25.6 24.2 25.56 24.12 25.48C24.04 25.38 24 25.26 24 25.12V24.61C24 23.51 24.26 22.54 24.78 21.7C25.3 20.84 26.03 20.18 26.97 19.72C27.93 19.24 29.02 19 30.24 19C32.06 19 33.52 19.5 34.62 20.5C35.72 21.5 36.27 22.82 36.27 24.46C36.27 25.34 36.12 26.1 35.82 26.74C35.52 27.38 35.16 27.91 34.74 28.33C34.32 28.73 33.78 29.17 33.12 29.65C32.42 30.17 31.9 30.62 31.56 31C31.24 31.38 31.08 31.84 31.08 32.38V33.58C31.08 33.72 31.04 33.83 30.96 33.91C30.88 33.99 30.77 34.03 30.63 34.03H28.62ZM29.76 40.24C29.2 40.24 28.72 40.05 28.32 39.67C27.92 39.29 27.72 38.83 27.72 38.29C27.72 37.75 27.92 37.29 28.32 36.91C28.72 36.53 29.2 36.34 29.76 36.34C30.3 36.34 30.78 36.53 31.2 36.91C31.62 37.29 31.83 37.75 31.83 38.29C31.83 38.83 31.62 39.29 31.2 39.67C30.8 40.05 30.32 40.24 29.76 40.24Z" fill="white"/>
</g>
</g>
</svg>
