<svg width="100" height="100" viewBox="0 0 100 100" fill="none" xmlns="http://www.w3.org/2000/svg">
<circle cx="50" cy="50" r="50" fill="#EEEEEE"/>
<g clip-path="url(#clip0_1_281)">
<path d="M78.9998 54.8122C78.9998 50.6859 76.7749 47.0768 73.464 45.114C73.2742 44.1853 73.0633 43.2672 72.7786 42.3702H72.7891C72.0299 40.0063 70.9333 37.8008 69.552 35.8062C67.074 32.2288 63.6998 29.3267 59.7456 27.4377C58.6173 26.8995 57.4363 26.4458 56.2237 26.0764C55.3485 25.8126 54.4628 25.6015 53.556 25.4327C52.1746 25.1688 50.7511 25.0211 49.3066 25H49.0008C47.9674 25 46.9446 25.0739 45.9429 25.19C45.152 25.2849 44.3717 25.4221 43.6125 25.591C42.7057 25.7915 41.82 26.0447 40.9553 26.3402C40.6284 26.4563 40.3016 26.5724 39.9747 26.699C35.4827 28.4508 31.6129 31.4584 28.8081 35.2997C28.7237 35.4158 28.6499 35.5213 28.5656 35.6374C27.9223 36.5555 27.3319 37.5158 26.8152 38.5078C25.0226 41.9481 24.0103 45.8632 24.0103 50C24.0103 63.7822 35.2191 75 48.9902 75C54.5682 75 59.714 73.1532 63.879 70.0507L66.5995 74.4407L66.8209 74.7889H68.74L68.9509 74.4407L77.2705 60.8379L77.513 60.4369L77.4919 60.4158C78.4409 58.7695 78.9893 56.8594 78.9998 54.8227V54.8122ZM59.1762 47.4567C59.25 47.2879 59.3344 47.119 59.4398 46.9291C60.3888 45.2723 61.0004 44.618 62.0443 44.618C62.2552 44.618 62.4766 44.6496 62.7297 44.7024C61.3694 45.3778 60.1568 46.317 59.1762 47.4567ZM60.2728 30.8463C62.2446 32.0177 64.0056 33.474 65.524 35.1731C64.6699 35.6585 63.9212 35.9962 63.4994 36.049C62.9089 34.8987 62.1286 34.466 61.5592 34.3077C61.3167 34.2444 61.0847 34.2127 60.8633 34.2127C60.0197 34.2127 59.4082 34.6138 59.2605 34.7193L59.0707 34.867L58.9442 35.0464C58.8704 35.152 58.5751 35.4686 58.2588 35.5002C57.9847 35.5424 57.6683 35.3314 57.4469 35.152C57.0567 34.8354 56.9408 34.5927 56.9408 34.5082C56.9408 34.4027 57.0567 34.2444 57.1095 34.1916L60.2728 30.8463ZM52.5964 28.0604C51.6263 30.4664 50.9726 31.1207 50.7406 31.2896C50.2872 30.9097 49.7072 29.485 49.2538 27.7543C50.3926 27.7649 51.5103 27.881 52.5964 28.0604ZM41.9992 28.8729H42.0098L44.3296 34.4449C44.4455 34.9937 44.6775 36.7455 43.1908 37.1043C41.7356 37.4631 40.9237 37.9063 40.3437 38.2229C39.6689 38.5922 39.3526 38.7611 38.1083 38.7083C35.9572 38.5922 34.2069 39.7003 33.9222 41.3043C33.7851 42.1064 33.8589 44.1114 37.6338 45.2828L42.0625 46.6547C42.2628 46.7497 43.3173 47.2879 43.5176 48.2271C43.8761 49.8839 44.8673 50.4538 45.4262 50.6437C46.217 50.9181 47.5245 50.9392 49.2222 49.504C49.528 49.2402 50.0658 49.3879 50.4348 49.599C50.9726 49.905 51.4576 50.5065 51.3627 51.0447C51.1729 52.1317 49.4225 53.6935 48.2837 54.4217C47.1238 55.1076 45.2996 57.1866 46.6599 60.1625C46.7126 60.2786 46.7442 60.363 46.7653 60.4369C46.5544 60.4897 46.1959 60.5108 45.9429 60.4897C45.4051 60.4158 44.6143 60.5846 44.0238 61.2284C43.2329 62.0937 43.0431 63.4656 43.4438 65.4285C43.5387 65.8928 43.5071 66.1672 43.4649 66.3043C43.2224 66.2094 42.653 65.7239 42.4948 64.4998L42.4632 64.2782C41.957 60.4897 41.7462 58.9173 39.9431 57.4398C39.8798 57.3871 39.8482 57.3554 39.8482 57.3449C39.8165 57.2604 39.8692 56.9228 39.8903 56.7011C39.9958 55.8991 40.1539 54.675 39.3842 53.2187C39.0046 52.5011 38.6039 51.9734 38.2454 51.5091C37.4862 50.5277 37.1066 50.0317 37.4651 48.0688C37.5916 47.4251 37.4967 45.7894 33.9222 44.4808C32.9521 44.122 31.3493 41.5893 29.9047 38.6133C32.6252 34.065 36.8957 30.572 41.9992 28.8729ZM49.0218 72.2246L48.9902 72.2562C36.727 72.2562 26.7519 62.2731 26.7519 50C26.7519 47.0557 27.3424 44.2486 28.3863 41.6737C29.7255 44.1325 31.3704 46.4648 32.9837 47.0557C34.0592 47.4567 34.5232 47.7839 34.713 47.9527C34.2912 50.8442 35.198 52.0367 36.0838 53.1764C36.4001 53.588 36.6954 53.9785 36.9695 54.4956C37.328 55.1815 37.2648 55.6881 37.1804 56.3318C37.0644 57.1866 36.8957 58.474 38.2138 59.5504C39.1206 60.2997 39.2577 60.8801 39.7533 64.6264L39.7849 64.848C40.0485 66.8003 41.0502 68.2989 42.4843 68.8476C42.8428 68.9848 43.2013 69.0481 43.5493 69.0481C44.1714 69.0481 44.7619 68.8371 45.2364 68.4361C45.7531 67.9928 46.565 66.9375 46.1432 64.8586C45.9534 63.9405 45.9745 63.455 46.0167 63.2229C46.7759 63.244 48.2943 63.149 49.0957 62.0409C49.5069 61.4816 49.8443 60.5002 49.1695 59.0122C48.5579 57.6826 49.3487 56.9966 49.7389 56.7539C50.129 56.5006 53.6087 54.2212 54.0832 51.5196C54.3679 49.8839 53.4611 48.1532 51.8267 47.214C50.3083 46.3381 48.6422 46.412 47.4824 47.404C46.8286 47.9633 46.4174 48.0477 46.3963 48.0794C46.3752 48.0583 46.2908 47.9316 46.2381 47.6572C45.8163 45.6733 44.0554 44.4808 43.0959 44.0903L38.4879 42.6551C37.3913 42.3174 36.8957 41.9481 36.727 41.7581C36.9062 41.6209 37.3491 41.431 38.024 41.4521C39.9009 41.5365 40.6917 41.1777 41.6934 40.629C42.2207 40.344 42.769 40.038 43.8761 39.7636C45.6687 39.3204 46.8181 38.0435 47.1028 36.1545C47.2926 34.9092 47.0395 33.8117 47.0079 33.6957L44.7092 28.1659C45.2891 28.0498 45.8796 27.9654 46.4701 27.8915C47.1344 30.7514 48.3575 33.8962 50.5824 34.065H50.7828C52.4804 34.065 53.9039 32.3976 55.3485 28.6513C56.1815 28.894 56.9935 29.1895 57.7843 29.5272L55.3274 32.1338C55.0427 32.3976 54.2414 33.2524 54.2414 34.4977C54.2414 35.1942 54.505 36.2495 55.7598 37.2626C56.9302 38.2123 57.9952 38.2968 58.7017 38.1912C59.7561 38.0435 60.5153 37.4103 60.916 36.9776C60.9687 37.0409 61.0636 37.1676 61.1691 37.3997C61.4538 38.054 61.9916 38.5078 62.6875 38.6872C62.8878 38.74 63.1093 38.7611 63.3413 38.7611C64.5539 38.7611 66.0196 38.0751 67.306 37.3153C68.4448 38.951 69.3516 40.745 70.0159 42.6657C68.1706 42.8029 66.0196 42.8134 64.6593 42.3596C60.6524 41.0194 58.7966 42.5918 57.0989 45.5572C56.2448 47.0452 56.0128 48.3432 56.3924 49.5146C56.5506 50.0211 56.8248 50.4538 57.1622 50.8548C56.6982 52.0895 56.4346 53.4192 56.4346 54.8122C56.4346 56.8489 56.9935 58.759 57.9425 60.4052L57.9214 60.4263L58.1745 60.8274L62.4239 67.6868C58.7017 70.5255 54.0727 72.214 49.0324 72.214L49.0218 72.2246ZM59.2605 59.7298L59.714 59.466H59.7245L59.25 59.7298H59.2605ZM60.0303 61.0384L60.5048 60.7535L60.0408 61.0384H60.0303ZM75.0773 59.0861V59.1072C75.0773 59.1072 75.0773 59.1072 75.0773 59.1178C75.0773 59.1283 75.0667 59.1389 75.0456 59.16C75.0351 59.1811 75.0034 59.2127 74.9824 59.255L74.2864 60.3841H74.3075L72.3779 63.55L67.7699 71.0743L66.0196 68.2567L64.5328 65.8611L63.1198 63.5817L62.6453 63.8772L62.4977 63.9721L63.1198 63.5817L61.1269 60.3736L60.4942 59.3288C60.4942 59.3288 60.4521 59.255 60.431 59.2233C60.3993 59.1705 60.3783 59.1389 60.3572 59.0967C59.6191 57.8409 59.1973 56.374 59.1973 54.8122C59.1973 54.0523 59.3027 53.3242 59.4925 52.6277C59.7245 51.7412 60.1041 50.897 60.5997 50.1477C62.1286 47.8261 64.7437 46.2854 67.7278 46.2854C68.8876 46.2854 70.0054 46.5175 71.0176 46.9502C72.1353 47.4145 73.116 48.1216 73.9385 48.9869C75.3725 50.5171 76.2582 52.5644 76.2582 54.8122C76.2582 56.374 75.8365 57.8303 75.0983 59.0967L75.0773 59.0861Z" fill="black"/>
<path d="M71.1865 50.8759C70.2481 50.0844 69.0566 49.5884 67.728 49.5884C66.0197 49.5884 64.5224 50.401 63.5313 51.6357C62.9724 52.3322 62.5822 53.1659 62.4241 54.084C62.3714 54.3795 62.3292 54.675 62.3292 54.981C62.3292 55.8463 62.5401 56.6484 62.8986 57.3765C63.3731 58.3263 64.1217 59.1072 65.0391 59.6349C65.4187 59.8565 65.8194 60.0464 66.2517 60.1625C66.7157 60.2892 67.2113 60.3736 67.7174 60.3736C68.0337 60.3736 68.3501 60.3314 68.6453 60.2786C68.8246 60.2469 69.0038 60.2153 69.1831 60.1625C71.4396 59.5188 73.1056 57.4398 73.1056 54.9705C73.1056 53.3136 72.3359 51.8468 71.1655 50.8548L71.1865 50.8759ZM67.728 57.6192C66.9793 57.6192 66.3044 57.3027 65.8194 56.7856C65.3765 56.3107 65.0918 55.6775 65.0918 54.981C65.0918 54.4428 65.25 53.9468 65.5347 53.5247C66.0092 52.8176 66.8106 52.3428 67.728 52.3428C69.1831 52.3428 70.3641 53.5247 70.3641 54.981C70.3641 56.4373 69.1831 57.6192 67.728 57.6192Z" fill="black"/>
</g>
<defs>
<clipPath id="clip0_1_281">
<rect width="55" height="50" fill="white" transform="translate(24 25)"/>
</clipPath>
</defs>
</svg>
