<svg width="100" height="100" viewBox="0 0 100 100" fill="none" xmlns="http://www.w3.org/2000/svg">
<circle cx="50" cy="50" r="50" fill="#EEEEEE"/>
<path d="M58.9944 74.9987C59.8406 74.6471 60.1218 74.0078 60.1114 73.1055C60.0762 70.1772 60.1049 67.2489 60.0906 64.3193C60.0893 63.9469 60.2012 63.6891 60.4642 63.4274C63.2541 60.6423 65.1158 57.352 65.7681 53.4342C65.9113 52.5722 65.9816 51.6868 65.9855 50.8118C66.005 45.7195 66.0024 40.6272 65.992 35.5349C65.9881 33.2993 64.6536 31.5389 62.6162 31.0142C61.7218 30.7837 60.8456 30.8801 59.946 31.1834C59.5216 29.9673 58.7978 29.022 57.6573 28.4387C56.5091 27.8515 55.3192 27.8411 54.0824 28.2525C53.7582 27.194 53.1893 26.3255 52.2676 25.7682C51.7234 25.4388 51.092 25.2513 50.5009 25C50.0778 25 49.6547 25 49.2316 25C48.6744 25.2135 48.0833 25.3659 47.5678 25.6549C46.5627 26.2174 45.943 27.1249 45.6071 28.1392C44.8468 28.0937 44.1191 27.9583 43.4096 28.0247C41.3435 28.2161 39.6172 30.0259 39.5664 32.0988C39.5052 34.5857 39.5417 37.0752 39.5365 39.5634C39.5365 39.7561 39.5365 39.9488 39.5365 40.1363C38.9376 40.0842 38.3752 39.9619 37.8232 40.0022C35.4369 40.1728 33.7158 41.9527 33.6598 44.3992C33.6038 46.8536 33.5999 49.3119 33.6936 51.7649C33.8277 55.2557 35.1595 58.3312 37.2517 61.0863C37.8596 61.8858 38.5874 62.5941 39.2318 63.3675C39.3907 63.5576 39.5222 63.8414 39.5235 64.0823C39.543 67.0914 39.5573 70.1004 39.5235 73.1081C39.513 74.0091 39.7903 74.6497 40.6405 75H58.9944V74.9987ZM42.4644 72.0457C42.4644 71.8113 42.4644 71.6173 42.4644 71.4246C42.4644 68.7228 42.4553 66.0211 42.4709 63.3193C42.4748 62.6735 42.2652 62.1787 41.7952 61.723C41.0844 61.0342 40.384 60.3207 39.7747 59.5434C37.887 57.1294 36.6801 54.4211 36.5968 51.3157C36.5356 49.0384 36.5747 46.7598 36.5734 44.4813C36.5734 44.3367 36.602 44.1896 36.6372 44.0477C36.8103 43.3641 37.4352 42.8823 38.0979 42.9136C38.8295 42.9488 39.3855 43.4383 39.5039 44.1675C39.5352 44.3589 39.5352 44.5568 39.5352 44.7508C39.5391 46.5086 39.5261 48.2663 39.5456 50.0241C39.5547 50.8262 40.1562 51.4212 40.923 51.4615C41.6755 51.5006 42.329 50.9485 42.4423 50.166C42.4696 49.9746 42.4644 49.7767 42.4644 49.5814C42.4644 44.0151 42.4644 38.4502 42.4657 32.8839C42.4657 32.673 42.4605 32.4594 42.4826 32.2498C42.562 31.4803 43.2221 30.8788 43.9564 30.8918C44.714 30.9061 45.3403 31.4972 45.4093 32.2719C45.4236 32.4334 45.4158 32.5975 45.4158 32.7602C45.4158 36.5192 45.4132 40.2796 45.4184 44.0386C45.4184 44.9174 46.0302 45.5646 46.8452 45.5867C47.6615 45.6088 48.3203 44.9357 48.3437 44.0516C48.3476 43.9058 48.3437 43.7586 48.3437 43.6128C48.3437 38.958 48.3437 34.3044 48.3437 29.6496C48.3437 28.6366 48.9491 27.9361 49.8122 27.9322C50.6988 27.9283 51.2846 28.6002 51.2846 29.6275C51.2859 32.9308 51.2846 36.2354 51.2846 39.5387C51.2846 41.0191 51.2807 42.5008 51.2859 43.9813C51.2885 44.7143 51.6427 45.2612 52.2376 45.4851C53.2309 45.8588 54.2087 45.1375 54.2113 44.0112C54.2165 40.3173 54.2139 36.6221 54.2139 32.9282C54.2139 32.7172 54.2048 32.5037 54.2204 32.2941C54.2829 31.4946 54.9273 30.8866 55.7006 30.8905C56.4375 30.8944 57.0793 31.5037 57.1509 32.2759C57.1691 32.4699 57.1639 32.6665 57.1639 32.8618C57.1639 37.4671 57.1639 42.0738 57.1665 46.6791C57.1665 46.9213 57.1756 47.17 57.229 47.4057C57.3735 48.0489 57.9464 48.5046 58.5986 48.5254C59.2339 48.545 59.8614 48.1036 60.0255 47.4773C60.0906 47.2299 60.0893 46.9617 60.0893 46.7039C60.0932 42.993 60.0906 39.2822 60.0932 35.5726C60.0932 34.5076 60.6777 33.8162 61.5669 33.8123C62.4365 33.8084 63.0497 34.5297 63.0601 35.5713C63.0601 35.6039 63.0601 35.6364 63.0601 35.669C63.0601 40.665 63.0706 45.6609 63.0497 50.6582C63.0458 51.5162 62.9755 52.386 62.8219 53.2284C62.2022 56.6151 60.4928 59.408 57.9984 61.7295C57.397 62.2881 57.1418 62.8844 57.1522 63.6956C57.1835 66.2828 57.1639 68.8713 57.1639 71.4584V72.0509H42.4592L42.4644 72.0457Z" fill="black"/>
</svg>
