<svg width="100" height="100" viewBox="0 0 100 100" fill="none" xmlns="http://www.w3.org/2000/svg">
    <circle cx="50" cy="50" r="50" fill="#EEEEEE" />
    <path fill-rule="evenodd" clip-rule="evenodd"
        d="M71.4 50C71.4 61.8189 61.8189 71.4 50 71.4C42.9944 71.4 36.775 68.0337 32.8712 62.8303L68.6323 39.4664C70.3942 42.5762 71.4 46.1706 71.4 50ZM67.2157 37.2862L31.4398 60.6598C29.6333 57.5213 28.6 53.8813 28.6 50C28.6 38.1811 38.1811 28.6 50 28.6C57.0578 28.6 63.3176 32.0167 67.2157 37.2862ZM74 50C74 63.2548 63.2548 74 50 74C36.7452 74 26 63.2548 26 50C26 36.7452 36.7452 26 50 26C63.2548 26 74 36.7452 74 50Z"
        fill="black" />
</svg>
