<svg width="100" height="100" viewBox="0 0 100 100" fill="none" xmlns="http://www.w3.org/2000/svg">
<circle cx="50" cy="50" r="50" fill="#EEEEEE"/>
<path fill-rule="evenodd" clip-rule="evenodd" d="M71.3891 36.411L69.5096 36.2817C71.8496 39.782 75.7389 47.4716 72.6691 56.681C68.7091 68.581 59.1291 71.921 58.1091 72.251C57.5291 72.491 54.3791 73.721 49.9591 73.721C45.0091 73.721 38.4791 72.191 32.2191 66.001C31.8291 65.591 23.2891 56.491 26.8791 43.141C30.5291 29.591 44.8691 24.301 53.5391 26.471L52.9091 28.991C45.4491 27.131 32.5791 31.971 29.3891 43.821C26.1891 55.721 33.7491 63.841 34.0691 64.181C45.1091 75.111 56.6291 70.081 57.1191 69.861L57.2791 69.801C57.6591 69.681 66.5391 66.851 70.1991 55.871C73.0191 47.401 69.0091 40.181 67.0291 37.311L66.7591 38.891L64.1991 38.461L64.6191 35.941L65.0491 33.361L67.6591 33.541L71.5691 33.821L71.3891 36.411ZM51.099 60.751H48.499V63.701H51.099V60.751ZM48.499 36.1409H51.099V39.0909H48.499V36.1409ZM63.5691 48.6211H60.6191V51.2211H63.5691V48.6211ZM36.019 48.6211H38.969V51.2211H36.019V48.6211ZM49.7792 46.6111C49.3792 46.6111 48.9992 46.6911 48.6492 46.8211L44.7892 43.0411L42.9692 44.9011L46.7692 48.6211C46.6092 49.0111 46.5192 49.4311 46.5192 49.8811C46.5192 51.6811 47.9892 53.1511 49.7892 53.1511C51.5892 53.1511 53.0592 51.6811 53.0592 49.8811C53.0592 49.4311 52.9692 49.0111 52.8092 48.6211L59.8092 41.7011L57.9792 39.8511L50.9192 46.8211C50.5692 46.6911 50.1892 46.6111 49.7892 46.6111H49.7792ZM49.7792 50.5511C49.4092 50.5511 49.1092 50.2511 49.1092 49.8811C49.1092 49.5111 49.4092 49.2111 49.7792 49.2111C50.1492 49.2111 50.4492 49.5111 50.4492 49.8811C50.4492 50.2511 50.1492 50.5511 49.7792 50.5511ZM49.7888 67.9011C39.8488 67.9011 31.7588 59.8111 31.7588 49.8711C31.7588 39.9311 39.8288 31.8411 49.7788 31.8411C59.7288 31.8411 67.8188 39.9311 67.8188 49.8711C67.8188 59.8111 59.7288 67.9011 49.7888 67.9011ZM49.7888 65.3011C58.2988 65.3011 65.2188 58.3811 65.2188 49.8711C65.2188 41.3611 58.2988 34.4411 49.7888 34.4411C41.2788 34.4411 34.3588 41.3611 34.3588 49.8711C34.3588 58.3811 41.2788 65.3011 49.7888 65.3011Z" fill="black"/>
</svg>