<svg width="57" height="27" viewBox="0 0 57 27" fill="none" xmlns="http://www.w3.org/2000/svg">
<path d="M53.4142 15.6728V10.5848C53.4142 9.44047 52.4603 8.50732 51.2859 8.50732C51.0724 8.50732 50.8623 8.53797 50.6695 8.59928V8.44602C50.6695 7.30172 49.7155 6.36857 48.5411 6.36857C48.2588 6.36857 47.9867 6.42306 47.7353 6.52183C47.4012 5.79983 46.6574 5.29239 45.7964 5.29239C44.9354 5.29239 44.1916 5.79983 43.8575 6.52183C43.6095 6.42306 43.3375 6.36857 43.0516 6.36857C41.8807 6.36857 40.9233 7.30172 40.9233 8.44602V13.2752C40.8166 13.2207 40.7098 13.1663 40.5893 13.122C39.7903 12.8087 39.0223 12.8018 38.9362 12.8018H38.1786V18.898C38.1786 19.9435 38.368 20.955 38.7434 21.9154L40.1554 21.3909C39.8489 20.6008 39.6904 19.763 39.6904 18.898V14.3855C39.811 14.4161 39.935 14.4536 40.0555 14.5047C40.455 14.6647 40.9061 14.9474 40.9199 15.6558V18.3599H42.4317V8.44943C42.4317 8.11908 42.7107 7.84663 43.0482 7.84663C43.3857 7.84663 43.6646 8.11567 43.6646 8.44943V16.2177H45.1765V7.37665C45.1765 7.0463 45.4555 6.77385 45.793 6.77385C46.1305 6.77385 46.4094 7.0463 46.4094 7.37665V16.2177H47.9213V8.44943C47.9213 8.11908 48.2002 7.84663 48.5377 7.84663C48.8752 7.84663 49.1542 8.11567 49.1542 8.44943V16.7558H50.666V10.5916C50.666 10.2612 50.945 9.98878 51.2825 9.98878C51.62 9.98878 51.8989 10.2578 51.8989 10.5916V21.6497L53.4108 20.0593V15.6796H53.4039L53.4142 15.6728Z" fill="#1E1E1E"/>
<path d="M55.5149 1.99231C53.1869 2.39417 50.8037 2.26135 48.5342 1.61087C47.5114 1.29415 46.5713 0.742432 45.7998 0C45.0318 0.749243 44.0951 1.30436 43.0654 1.61087C41.6913 2.03658 39.3805 2.49294 36.0847 1.99231L35.1273 1.84927V13.3433C35.2031 15.5877 35.8746 17.7775 37.08 19.6744C37.9306 21.0571 39.0051 22.2934 40.2552 23.3321C41.8256 24.616 43.5992 25.6275 45.5037 26.3291L45.7964 26.4415L46.0891 26.3291C47.9936 25.6309 49.7671 24.6195 51.3375 23.3321C52.5877 22.2968 53.6621 21.0605 54.5128 19.6744C55.7147 17.7741 56.3897 15.5911 56.4654 13.3433V1.84927L55.5115 1.99231H55.5149ZM54.8055 13.3399C54.7194 15.2777 54.1305 17.1577 53.0974 18.8026C51.5132 21.4011 49.0577 23.3662 45.8033 24.6501C42.5454 23.3662 40.0934 21.3977 38.5092 18.8026C37.476 17.1611 36.8871 15.2777 36.7976 13.3399V3.76324C41.7602 4.30134 44.6634 2.89821 45.7998 2.16599C46.9397 2.89821 49.8395 4.30134 54.8055 3.76324V13.3399Z" fill="#1E1E1E"/>
<path d="M21.0006 8.44261V5.72149H18.2524V4.04591H21.0006V1.3248H22.6985V4.04591H25.4535V5.72149H22.7019V8.44261H21.0006Z" fill="#1E1E1E"/>
<path d="M13.3381 26.4381C5.98198 26.4381 0 20.5088 0 13.2207C0 5.93264 5.98198 0 13.3381 0C15.1323 0 16.8714 0.347376 18.5142 1.03191L17.8254 2.65641C16.4031 2.06382 14.8947 1.76413 13.3415 1.76413C6.96348 1.76072 1.77703 6.89985 1.77703 13.2207C1.77703 19.5416 6.96347 24.6773 13.3381 24.6773C19.7126 24.6773 24.8991 19.5382 24.8991 13.2207C24.8991 11.9947 24.7062 10.7891 24.3239 9.63799L26.0114 9.08628C26.4522 10.4179 26.6761 11.8074 26.6761 13.2207C26.6761 20.5088 20.6907 26.4415 13.3381 26.4415V26.4381Z" fill="#1E1E1E"/>
<path d="M10.6346 18.0976H8.58554V9.96493H8.51667L6.2265 11.569V9.70951L8.43746 8.17015H10.6346V18.0942V18.0976Z" fill="#1E1E1E"/>
<path d="M11.933 15.4344C11.933 14.1948 12.8663 13.1697 14.0888 12.9687V12.9074C13.0212 12.686 12.2946 11.787 12.2946 10.704C12.2946 9.17142 13.7651 8.04074 15.7763 8.04074C17.7875 8.04074 19.2649 9.17823 19.2649 10.704C19.2649 11.7904 18.5211 12.6895 17.4776 12.9074V12.9687C18.6692 13.1697 19.6334 14.1948 19.6334 15.4344C19.6334 17.0453 18.0148 18.2304 15.7763 18.2304C13.5378 18.2304 11.933 17.0453 11.933 15.4344ZM17.4914 15.2743C17.4914 14.4025 16.7647 13.769 15.7763 13.769C14.7879 13.769 14.0647 14.3957 14.0647 15.2743C14.0647 16.153 14.7432 16.7252 15.7763 16.7252C16.8095 16.7252 17.4914 16.1326 17.4914 15.2743ZM17.2572 10.9253C17.2572 10.1318 16.6511 9.59372 15.7798 9.59372C14.9085 9.59372 14.3024 10.125 14.3024 10.9253C14.3024 11.7257 14.9188 12.2774 15.7798 12.2774C16.6407 12.2774 17.2572 11.7188 17.2572 10.9253Z" fill="#1E1E1E"/>
</svg>
